<?xml version="1.0" encoding="UTF-8" standalone="no"?>
<svg
        xmlns:dc="http://purl.org/dc/elements/1.1/"
        xmlns:cc="http://creativecommons.org/ns#"
        xmlns:rdf="http://www.w3.org/1999/02/22-rdf-syntax-ns#"
        xmlns:svg="http://www.w3.org/2000/svg"
        xmlns="http://www.w3.org/2000/svg"
        xmlns:sodipodi="http://sodipodi.sourceforge.net/DTD/sodipodi-0.dtd"
        xmlns:inkscape="http://www.inkscape.org/namespaces/inkscape"
        version="1.1"
        id="Capa_1"
        x="0px"
        y="0px"
        viewBox="0 0 499.99999 499.99999"
        xml:space="preserve"
        sodipodi:docname="generic.svg"
        width="500"
        height="500"
        fill="#e60012"
        inkscape:version="1.0.2 (e86c870879, 2021-01-15)"><metadata
   id="metadata39"><rdf:RDF><cc:Work
       rdf:about=""><dc:format>image/svg+xml</dc:format><dc:type
        rdf:resource="http://purl.org/dc/dcmitype/StillImage"/><dc:title></dc:title></cc:Work></rdf:RDF></metadata>
    <defs
            id="defs37"/>
    <sodipodi:namedview
            pagecolor="#ffffff"
            bordercolor="#666666"
            borderopacity="1"
            objecttolerance="10"
            gridtolerance="10"
            guidetolerance="10"
            inkscape:pageopacity="0"
            inkscape:pageshadow="2"
            inkscape:window-width="2140"
            inkscape:window-height="1091"
            id="namedview35"
            showgrid="false"
            inkscape:zoom="1.4973257"
            inkscape:cx="235.08579"
            inkscape:cy="238.759"
            inkscape:window-x="3364"
            inkscape:window-y="144"
            inkscape:window-maximized="0"
            inkscape:current-layer="Capa_1"/>
    <path
            d="m 447.40202,176.53201 c -38.291,-78.369999 -79.318,-83.844999 -117.516,-65.166 -11.446,5.598 -21.283,12.768 -28.5,22.115 h -102.765 c -7.208,-9.347 -17.046,-16.517 -28.492,-22.115 -38.198,-18.678999 -79.224002,-13.203999 -117.515002,65.166 -38.323,78.354 -59.3799998,199.946 -21.183,218.624 23.481,11.472 63.875,-18.681 100.418002,-61.776 10.48,19.3 30.926,32.402 54.431,32.402 30.166,0 55.278,-21.584 60.77,-50.148 h 5.9 c 5.491,28.564 30.604,50.148 60.77,50.148 23.396,0 43.755,-12.984 54.279,-32.135 38.942,44.139 78.89,72.1 100.556,61.509 38.227,-18.678 17.137,-140.27 -21.153,-218.624 z m -303.386,71.683 c 0,0.699 -0.217,1.336 -0.397,1.975 -0.731,2.612 -2.752,4.556 -5.404,5.21 -0.569,0.124 -1.113,0.342 -1.727,0.342 h -5.467 -19.293 c -4.16,0 -7.528,-3.375 -7.528,-7.527 v -15.197 H 88.990018 c -4.16,0 -7.526,-3.375 -7.526,-7.527 v -24.76 c 0,-4.152 3.367,-7.528 7.526,-7.528 h 15.211002 v -15.225 c 0,-4.152 3.368,-7.528 7.528,-7.528 h 19.293 5.467 c 4.16,0 7.527,3.376 7.527,7.528 v 15.225 h 15.211 c 4.16,0 7.528,3.376 7.528,7.528 v 24.76 c 0,4.152 -3.368,7.527 -7.528,7.527 h -15.211 z m 42.264,92.997 c -20.615,0 -37.327,-16.712 -37.327,-37.327 0,-20.615 16.712,-37.328 37.327,-37.328 20.615,0 37.327,16.712 37.327,37.328 0.001,20.615 -16.712,37.327 -37.327,37.327 z m 127.44,0 c -20.616,0 -37.328,-16.712 -37.328,-37.327 0,-20.615 16.712,-37.328 37.328,-37.328 20.615,0 37.328,16.712 37.328,37.328 -0.001,20.615 -16.713,37.327 -37.328,37.327 z m 34.674,-113.776 c -7.907,0 -14.308,-6.425 -14.308,-14.34 0,-7.885 6.401,-14.31 14.308,-14.31 7.917,0 14.317,6.425 14.317,14.31 0,7.916 -6.401,14.34 -14.317,14.34 z m 34.737,28.462 c -1.626,0.637 -3.367,1.058 -5.217,1.058 -0.296,0 -0.545,-0.156 -0.841,-0.172 -6.671,-0.404 -11.882,-5.333 -12.994,-11.788 -0.132,-0.793 -0.475,-1.524 -0.475,-2.363 0,-7.901 6.393,-14.324 14.31,-14.324 1.85,0 3.591,0.419 5.217,1.058 5.311,2.083 9.091,7.216 9.091,13.266 0,6.047 -3.78,11.164 -9.091,13.265 z m 0,-59.039 c -1.626,0.639 -3.367,1.057 -5.217,1.057 -7.917,0 -14.31,-6.423 -14.31,-14.324 0,-7.901 6.393,-14.324 14.31,-14.324 1.85,0 3.591,0.42 5.217,1.058 5.311,2.085 9.091,7.217 9.091,13.266 0,6.05 -3.78,11.168 -9.091,13.267 z m 24.301,30.577 c -7.917,0 -14.309,-6.425 -14.309,-14.34 0,-7.885 6.393,-14.31 14.309,-14.31 7.915,0 14.308,6.425 14.308,14.31 0,7.916 -6.392,14.34 -14.308,14.34 z"
            id="path2"/>
    <g
            id="g4">
</g>
    <g
            id="g6">
</g>
    <g
            id="g8">
</g>
    <g
            id="g10">
</g>
    <g
            id="g12">
</g>
    <g
            id="g14">
</g>
    <g
            id="g16">
</g>
    <g
            id="g18">
</g>
    <g
            id="g20">
</g>
    <g
            id="g22">
</g>
    <g
            id="g24">
</g>
    <g
            id="g26">
</g>
    <g
            id="g28">
</g>
    <g
            id="g30">
</g>
    <g
            id="g32">
</g>
</svg>
