<?xml version="1.0" encoding="UTF-8" standalone="no"?>
<svg
        xmlns:dc="http://purl.org/dc/elements/1.1/"
        xmlns:cc="http://creativecommons.org/ns#"
        xmlns:rdf="http://www.w3.org/1999/02/22-rdf-syntax-ns#"
        xmlns:svg="http://www.w3.org/2000/svg"
        xmlns="http://www.w3.org/2000/svg"
        xmlns:sodipodi="http://sodipodi.sourceforge.net/DTD/sodipodi-0.dtd"
        xmlns:inkscape="http://www.inkscape.org/namespaces/inkscape"
        version="1.1"
        id="Capa_1"
        x="0px"
        y="0px"
        viewBox="0 0 500.00001 500.00001"
        xml:space="preserve"
        sodipodi:docname="gun.svg"
        width="500"
        height="500"
        fill="#e60012"
        inkscape:version="1.0.2 (e86c870879, 2021-01-15)"><metadata
   id="metadata39"><rdf:RDF><cc:Work
       rdf:about=""><dc:format>image/svg+xml</dc:format><dc:type
        rdf:resource="http://purl.org/dc/dcmitype/StillImage"/><dc:title></dc:title></cc:Work></rdf:RDF></metadata>
    <defs
            id="defs37"/>
    <sodipodi:namedview
            pagecolor="#ffffff"
            bordercolor="#666666"
            borderopacity="1"
            objecttolerance="10"
            gridtolerance="10"
            guidetolerance="10"
            inkscape:pageopacity="0"
            inkscape:pageshadow="2"
            inkscape:window-width="3440"
            inkscape:window-height="1355"
            id="namedview35"
            showgrid="false"
            inkscape:zoom="1.5307707"
            inkscape:cx="233.5425"
            inkscape:cy="233.5425"
            inkscape:window-x="2560"
            inkscape:window-y="0"
            inkscape:window-maximized="1"
            inkscape:current-layer="Capa_1"/>
    <path
            d="m 433.14411,249.097 v -37.91 h -1.011 c 11.744,0 22.178,-7.52 25.896,-18.664 0,0 17.464,-54.162 24.462,-75.147 5.41,-16.225 -11.055,-32.601 -26.126,-32.601 h -179.044 c -10.202,0 -19.565,5.7 -24.246,14.775 l -8.306,16.082 H 43.751115 c -8.772,0 -17.014,4.214 -22.147,11.338 -5.133,7.116 -6.517,16.268 -3.747,24.59 l 13.655,40.965 c 3.717,11.143 14.152,18.664 25.896,18.664 h 41.043 l 8.895995,21.183 c 4.262,10.132 14.184,16.727 25.165,16.727 h 60.453 l 40.716,66.712 c 5.397,8.834 15.195,14.326 25.553,14.326 h 49.007 l 5.94,47.582 c 2.676,21.425 20.887,37.506 42.474,37.506 h 63.143 c 13.174,0 25.615,-6.065 33.734,-16.455 8.103,-10.381 10.981,-23.919 7.793,-36.705 z m -172.852,49.186 -30.017,-49.186 h 44.823 l -7.045,6.245 c -6.579,5.832 -7.2,15.894 -1.368,22.481 3.156,3.553 7.527,5.365 11.929,5.365 3.763,0 7.528,-1.322 10.56,-4.005 l 11.462,-10.14 3.639,29.24 z m 77.468,-170.054 -15.926,49.769 c -1.618,5.071 -6.314,8.305 -11.369,8.305 -1.198,0 -2.426,-0.178 -3.639,-0.567 -6.283,-2.014 -9.751,-8.734 -7.73,-15.016 l 15.926,-49.769 c 2.007,-6.269 8.68,-9.744 15.009,-7.739 6.281,2.015 9.75,8.734 7.729,15.017 z m 47.778,0 -15.926,49.769 c -1.618,5.071 -6.315,8.305 -11.369,8.305 -1.198,0 -2.426,-0.178 -3.639,-0.567 -6.283,-2.014 -9.751,-8.734 -7.73,-15.016 l 15.926,-49.769 c 2.007,-6.269 8.694,-9.744 15.009,-7.739 6.281,2.015 9.75,8.734 7.729,15.017 z m 31.852,49.769 c -1.618,5.071 -6.315,8.305 -11.369,8.305 -1.198,0 -2.426,-0.178 -3.639,-0.567 -6.283,-2.014 -9.751,-8.734 -7.73,-15.016 l 15.926,-49.769 c 2.007,-6.269 8.694,-9.744 15.008,-7.739 6.283,2.015 9.751,8.734 7.73,15.017 z"
            id="path2"/>
    <g
            id="g4">
</g>
    <g
            id="g6">
</g>
    <g
            id="g8">
</g>
    <g
            id="g10">
</g>
    <g
            id="g12">
</g>
    <g
            id="g14">
</g>
    <g
            id="g16">
</g>
    <g
            id="g18">
</g>
    <g
            id="g20">
</g>
    <g
            id="g22">
</g>
    <g
            id="g24">
</g>
    <g
            id="g26">
</g>
    <g
            id="g28">
</g>
    <g
            id="g30">
</g>
    <g
            id="g32">
</g>
</svg>
