<?xml version="1.0" encoding="UTF-8" standalone="no"?>
<svg
        xmlns:dc="http://purl.org/dc/elements/1.1/"
        xmlns:cc="http://creativecommons.org/ns#"
        xmlns:rdf="http://www.w3.org/1999/02/22-rdf-syntax-ns#"
        xmlns:svg="http://www.w3.org/2000/svg"
        xmlns="http://www.w3.org/2000/svg"
        xmlns:sodipodi="http://sodipodi.sourceforge.net/DTD/sodipodi-0.dtd"
        xmlns:inkscape="http://www.inkscape.org/namespaces/inkscape"
        version="1.1"
        id="Capa_1"
        x="0px"
        y="0px"
        width="500"
        height="500"
        fill="#e60012"
        viewBox="0 0 500 499.99999"
        xml:space="preserve"
        sodipodi:docname="wheel.svg"
        inkscape:version="1.0.2 (e86c870879, 2021-01-15)"><metadata
   id="metadata41"><rdf:RDF><cc:Work
       rdf:about=""><dc:format>image/svg+xml</dc:format><dc:type
        rdf:resource="http://purl.org/dc/dcmitype/StillImage"/><dc:title></dc:title></cc:Work></rdf:RDF></metadata>
    <defs
            id="defs39"/>
    <sodipodi:namedview
            pagecolor="#ffffff"
            bordercolor="#666666"
            borderopacity="1"
            objecttolerance="10"
            gridtolerance="10"
            guidetolerance="10"
            inkscape:pageopacity="0"
            inkscape:pageshadow="2"
            inkscape:window-width="3440"
            inkscape:window-height="1355"
            id="namedview37"
            showgrid="false"
            inkscape:zoom="1.7742816"
            inkscape:cx="201.4895"
            inkscape:cy="201.49001"
            inkscape:window-x="2560"
            inkscape:window-y="0"
            inkscape:window-maximized="1"
            inkscape:current-layer="Capa_1"/>
    <g
            id="g4"
            transform="translate(48.510532,48.51)">
	<path
            d="M 401.098,173.863 C 397.419,147.326 388.137,121.152 374.246,98.171 360.675,75.716 342.312,55.614 321.148,40.037 299.667,24.229 274.673,12.641 248.87,6.523 233.807,2.953 218.255,1.142 202.645,1.142 c -0.385,0 -0.771,0.013 -1.156,0.016 -0.385,-0.003 -0.77,-0.016 -1.156,-0.016 -15.607,0 -31.16,1.811 -46.225,5.381 C 128.303,12.64 103.309,24.229 81.831,40.037 60.667,55.614 42.306,75.716 28.734,98.171 14.844,121.152 5.559,147.326 1.882,173.863 c -3.804,27.466 -1.819,56.001 5.745,82.523 7.252,25.415 19.898,49.799 36.568,70.516 16.494,20.496 37.385,37.979 60.41,50.555 23.664,12.924 50.357,21.062 77.193,23.533 6.107,0.562 12.32,0.848 18.467,0.848 h 2.445 c 6.148,0 12.361,-0.285 18.47,-0.848 26.836,-2.473 53.526,-10.609 77.19,-23.533 23.026,-12.576 43.914,-30.059 60.411,-50.555 16.671,-20.717 29.315,-45.101 36.567,-70.516 7.567,-26.521 9.553,-55.056 5.75,-82.523 z M 166.992,355.189 C 140.594,349.466 115.92,336.865 95.638,318.74 75.497,300.736 60.244,277.802 51.531,252.414 41.287,222.568 40.362,189.373 48.922,158.946 c 8.938,7.768 18.547,16.027 28.264,23.806 7.611,6.092 15.258,11.93 22.729,17.354 3.699,2.685 7.578,5.405 11.525,8.085 1.929,1.307 3.863,2.59 5.756,3.815 0.861,0.56 1.73,1.116 2.594,1.666 0.984,0.624 1.234,0.923 1.681,2.005 7.584,18.4 22.036,31.432 32.827,39.123 3.66,2.611 7.479,4.988 11.348,7.062 1.068,0.573 2.148,1.129 3.24,1.662 0.084,1.008 0.172,2.014 0.268,3.012 0.205,2.177 0.422,4.347 0.662,6.518 0.982,9.012 2.264,18.322 3.918,28.462 2.938,18.015 6.678,36.497 11.434,56.505 -0.002,0 -5.578,-0.252 -18.176,-2.832 z m 31.943,-210.146 c -13.793,0 -25.855,1.274 -36.873,3.897 -3.471,0.827 -6.793,1.806 -9.873,2.908 -1.592,0.568 -3.164,1.188 -4.67,1.841 -0.685,0.295 -1.366,0.603 -2.041,0.92 -0.719,0.336 -1.363,0.065 -1.999,-0.254 -0.163,-0.084 -0.341,-0.172 -0.528,-0.254 -7.701,-3.424 -16.213,-6.88 -26.01,-10.561 -17.166,-6.452 -35.454,-12.459 -54.354,-17.856 v -10e-4 C 75.272,102.726 93.666,83.107 115.784,68.946 141.038,52.775 170.276,44.228 200.333,44.228 h 2.313 c 30.057,0 59.295,8.547 84.549,24.718 22.118,14.161 40.514,33.78 53.197,56.737 v 10e-4 c -18.898,5.397 -37.188,11.404 -54.354,17.856 -9.797,3.681 -18.307,7.137 -26.01,10.561 -0.188,0.082 -0.363,0.17 -0.527,0.254 -0.638,0.319 -1.28,0.59 -2,0.254 -0.674,-0.317 -1.354,-0.625 -2.039,-0.92 -1.508,-0.652 -3.079,-1.272 -4.672,-1.841 -3.078,-1.103 -6.399,-2.081 -9.872,-2.908 -11.018,-2.623 -23.08,-3.897 -36.872,-3.897 z m 152.514,107.371 c -8.713,25.389 -23.967,48.322 -44.107,66.326 -20.279,18.125 -44.954,30.729 -71.352,36.449 -11.934,2.469 -18.176,2.832 -18.176,2.832 4.754,-20.009 8.496,-38.49 11.435,-56.506 1.653,-10.139 2.936,-19.449 3.92,-28.462 0.237,-2.171 0.454,-4.341 0.66,-6.517 0.096,-1 0.184,-2.004 0.268,-3.012 1.094,-0.535 2.17,-1.09 3.24,-1.662 3.868,-2.076 7.688,-4.453 11.348,-7.063 10.791,-7.69 25.241,-20.722 32.828,-39.123 0.444,-1.082 0.694,-1.381 1.68,-2.005 0.863,-0.549 1.731,-1.105 2.596,-1.666 1.891,-1.227 3.826,-2.51 5.754,-3.816 3.947,-2.68 7.826,-5.398 11.525,-8.084 7.471,-5.424 15.119,-11.262 22.727,-17.354 9.722,-7.778 19.329,-16.038 28.267,-23.806 8.557,30.428 7.631,63.623 -2.613,93.469 z"
            id="path2"/>
</g>
    <g
            id="g6">
</g>
    <g
            id="g8">
</g>
    <g
            id="g10">
</g>
    <g
            id="g12">
</g>
    <g
            id="g14">
</g>
    <g
            id="g16">
</g>
    <g
            id="g18">
</g>
    <g
            id="g20">
</g>
    <g
            id="g22">
</g>
    <g
            id="g24">
</g>
    <g
            id="g26">
</g>
    <g
            id="g28">
</g>
    <g
            id="g30">
</g>
    <g
            id="g32">
</g>
    <g
            id="g34">
</g>
</svg>
