<?xml version="1.0" encoding="UTF-8" standalone="no"?>
<svg
        xmlns:dc="http://purl.org/dc/elements/1.1/"
        xmlns:cc="http://creativecommons.org/ns#"
        xmlns:rdf="http://www.w3.org/1999/02/22-rdf-syntax-ns#"
        xmlns:svg="http://www.w3.org/2000/svg"
        xmlns="http://www.w3.org/2000/svg"
        xmlns:sodipodi="http://sodipodi.sourceforge.net/DTD/sodipodi-0.dtd"
        xmlns:inkscape="http://www.inkscape.org/namespaces/inkscape"
        version="1.1"
        id="Capa_1"
        x="0px"
        y="0px"
        viewBox="0 0 500.00001 500.00001"
        xml:space="preserve"
        sodipodi:docname="joystick-arcade.svg"
        width="500"
        height="500"
        fill="#da9031"
        inkscape:version="1.0.2 (e86c870879, 2021-01-15)"><metadata
   id="metadata39"><rdf:RDF><cc:Work
       rdf:about=""><dc:format>image/svg+xml</dc:format><dc:type
        rdf:resource="http://purl.org/dc/dcmitype/StillImage"/><dc:title></dc:title></cc:Work></rdf:RDF></metadata>
    <defs
            id="defs37"/>
    <sodipodi:namedview
            pagecolor="#ffffff"
            bordercolor="#666666"
            borderopacity="1"
            objecttolerance="10"
            gridtolerance="10"
            guidetolerance="10"
            inkscape:pageopacity="0"
            inkscape:pageshadow="2"
            inkscape:window-width="3440"
            inkscape:window-height="1355"
            id="namedview35"
            showgrid="false"
            inkscape:zoom="1.276535"
            inkscape:cx="48.58107"
            inkscape:cy="292.14962"
            inkscape:window-x="2560"
            inkscape:window-y="0"
            inkscape:window-maximized="1"
            inkscape:current-layer="Capa_1"/>
    <path
            d="M 417.24448,321.62887 H 290.46406 V 203.18299 c 29.57004,-15.17253 50.24261,-46.37199 50.24261,-80.88028 0,-49.755484 -40.45648,-90.235295 -90.21352,-90.235295 -49.75392,0 -90.68819,40.479811 -90.68819,90.233755 0,34.50823 20.16054,65.70803 49.73058,80.89243 V 321.63871 H 83.794395 c -8.581537,0 -15.88378,6.9225 -15.88378,15.50404 v 115.31227 c 0,8.58154 7.302243,15.47757 15.88378,15.47757 H 417.24327 c 8.58154,0 14.85787,-6.89761 14.84609,-15.47757 V 337.14275 c 0,-8.57998 -6.26455,-15.50172 -14.845,-15.50248 z m -285.69759,98.90635 c -13.83099,0 -25.04271,-11.21171 -25.04271,-25.04271 0,-13.83255 11.21477,-25.04271 25.04271,-25.04271 13.83256,1.4e-4 25.04427,11.21016 25.04427,25.04271 0,13.831 -11.21171,25.04271 -25.04427,25.04271 z m 76.84164,0 c -13.831,0 -25.04271,-11.21171 -25.04271,-25.04271 0,-13.83255 11.21171,-25.04257 25.04271,-25.04271 13.83255,0 25.04427,11.21016 25.04427,25.04271 0,13.831 -11.21172,25.04271 -25.04427,25.04271 z"
            id="path2"
            style="stroke-width:1.55632"/>
    <g
            id="g4">
</g>
    <g
            id="g6">
</g>
    <g
            id="g8">
</g>
    <g
            id="g10">
</g>
    <g
            id="g12">
</g>
    <g
            id="g14">
</g>
    <g
            id="g16">
</g>
    <g
            id="g18">
</g>
    <g
            id="g20">
</g>
    <g
            id="g22">
</g>
    <g
            id="g24">
</g>
    <g
            id="g26">
</g>
    <g
            id="g28">
</g>
    <g
            id="g30">
</g>
    <g
            id="g32">
</g>
</svg>
