<?xml version="1.0" encoding="UTF-8" standalone="no"?>
<svg
        xmlns:dc="http://purl.org/dc/elements/1.1/"
        xmlns:cc="http://creativecommons.org/ns#"
        xmlns:rdf="http://www.w3.org/1999/02/22-rdf-syntax-ns#"
        xmlns:svg="http://www.w3.org/2000/svg"
        xmlns="http://www.w3.org/2000/svg"
        xmlns:sodipodi="http://sodipodi.sourceforge.net/DTD/sodipodi-0.dtd"
        xmlns:inkscape="http://www.inkscape.org/namespaces/inkscape"
        version="1.1"
        id="Capa_1"
        x="0px"
        y="0px"
        viewBox="0 0 499.99999 499.99998"
        xml:space="preserve"
        sodipodi:docname="wiimote.svg"
        width="500"
        height="500"
        fill="#009ac7"
        inkscape:version="1.0.2 (e86c870879, 2021-01-15)"><metadata
   id="metadata45"><rdf:RDF><cc:Work
       rdf:about=""><dc:format>image/svg+xml</dc:format><dc:type
        rdf:resource="http://purl.org/dc/dcmitype/StillImage"/><dc:title></dc:title></cc:Work></rdf:RDF></metadata>
    <defs
            id="defs43">
	
	
	
</defs>
    <sodipodi:namedview
            pagecolor="#ffffff"
            bordercolor="#666666"
            borderopacity="1"
            objecttolerance="10"
            gridtolerance="10"
            guidetolerance="10"
            inkscape:pageopacity="0"
            inkscape:pageshadow="2"
            inkscape:window-width="3440"
            inkscape:window-height="1355"
            id="namedview41"
            showgrid="false"
            inkscape:zoom="1.4965109"
            inkscape:cx="-78.307992"
            inkscape:cy="183.14801"
            inkscape:window-x="2560"
            inkscape:window-y="0"
            inkscape:window-maximized="1"
            inkscape:current-layer="Capa_1"
            fit-margin-top="0"
            fit-margin-left="0"
            fit-margin-right="0"
            fit-margin-bottom="0"
            inkscape:document-rotation="0"/>
    <path
            d="m 309.09949,11.111 h -118.193 c -11.704,0 -21.197,9.487 -21.197,21.191 v 435.396 c 0,11.704 9.493,21.191 21.197,21.191 h 118.193 c 11.704,0 21.191,-9.487 21.19101,-21.191 V 32.302 c -1e-5,-11.704 -9.48701,-21.191 -21.19101,-21.191 z m -106.877,307.329 c -8.111,0 -14.68201,-6.571 -14.682,-14.682 0,-8.111 6.571,-14.68202 14.682,-14.682 8.117,0 14.689,6.57108 14.689,14.682 -10e-4,8.111 -6.572,14.682 -14.689,14.68202 z m 47.77701,127.408 c -8.11101,0 -14.68201,-6.571 -14.68201,-14.68202 0,-8.111 6.57099,-14.682 14.68201,-14.682 8.11699,0 14.68899,6.571 14.68899,14.682 0,8.111 -6.57099,14.68239 -14.68899,14.682 z m 0,-47.778 c -8.11101,0 -14.68201,-6.571 -14.68201,-14.682 0,-8.111 6.571,-14.682 14.68199,-14.682 8.117,0 14.689,6.57295 14.689,14.682 0,8.1111 -6.571,14.682 -14.689,14.682 z m 0,-79.63 c -8.11101,0 -14.68201,-6.571 -14.68201,-14.682 0,-8.111 6.571,-14.68202 14.68201,-14.682 8.11699,0 14.68899,6.571 14.68899,14.682 0,8.111 -6.57099,14.682 -14.68899,14.682 z m 0,-83.028 c -15.02501,0 -27.21,-12.187 -27.21,-27.21 0,-15.025 12.18499,-27.209 27.21,-27.209 15.031,2e-5 27.209,12.18695 27.209,27.209 9.9e-4,15.023 -12.17793,27.21 -27.209,27.21 z M 265.92549,119.28 v 15.708 c 0,3.919 -3.174,7.09298 -7.08499,7.09298 h -17.675 c -3.911,0 -7.09201,-3.172 -7.09201,-7.092 V 119.28 h -15.709 c -3.911,0 -7.084,-3.172 -7.084,-7.09202 V 94.52 c 0,-3.919 3.172,-7.092 7.084,-7.092 h 15.709 V 71.712 c 0,-3.919 3.18001,-7.092 7.09201,-7.092 h 17.675 c 3.91099,0 7.08499,3.172 7.08499,7.092 v 15.716 h 15.716 c 3.91101,0 7.08498,3.172 7.08401,7.092977 v 17.668003 c 0,3.919 -3.17201,7.09298 -7.08401,7.092 z m 31.852,199.16 c -8.111,0 -14.682,-6.571 -14.682,-14.682 0,-8.111 6.571,-14.682 14.682,-14.682 8.117,0 14.689,6.57101 14.689,14.682 0,8.111 -6.571,14.682 -14.69681,14.682 z"
            id="path2"/>
    <g
            id="g10"
            transform="translate(-265.473)">
</g>
    <g
            id="g12"
            transform="translate(-265.473)">
</g>
    <g
            id="g14"
            transform="translate(-265.473)">
</g>
    <g
            id="g16"
            transform="translate(-265.473)">
</g>
    <g
            id="g18"
            transform="translate(-265.473)">
</g>
    <g
            id="g20"
            transform="translate(-265.473)">
</g>
    <g
            id="g22"
            transform="translate(-265.473)">
</g>
    <g
            id="g24"
            transform="translate(-265.473)">
</g>
    <g
            id="g26"
            transform="translate(-265.473)">
</g>
    <g
            id="g28"
            transform="translate(-265.473)">
</g>
    <g
            id="g30"
            transform="translate(-265.473)">
</g>
    <g
            id="g32"
            transform="translate(-265.473)">
</g>
    <g
            id="g34"
            transform="translate(-265.473)">
</g>
    <g
            id="g36"
            transform="translate(-265.473)">
</g>
    <g
            id="g38"
            transform="translate(-265.473)">
</g>
</svg>
