<?xml version="1.0" encoding="UTF-8" standalone="no"?>
<svg
        xmlns:dc="http://purl.org/dc/elements/1.1/"
        xmlns:cc="http://creativecommons.org/ns#"
        xmlns:rdf="http://www.w3.org/1999/02/22-rdf-syntax-ns#"
        xmlns:svg="http://www.w3.org/2000/svg"
        xmlns="http://www.w3.org/2000/svg"
        xmlns:sodipodi="http://sodipodi.sourceforge.net/DTD/sodipodi-0.dtd"
        xmlns:inkscape="http://www.inkscape.org/namespaces/inkscape"
        version="1.1"
        id="Capa_1"
        x="0px"
        y="0px"
        viewBox="0 0 499.99998 499.99998"
        xml:space="preserve"
        sodipodi:docname="wiimote-nunchuck.svg"
        width="500"
        height="500"
        fill="#009ac7"
        inkscape:version="1.0.2 (e86c870879, 2021-01-15)"><metadata
   id="metadata45"><rdf:RDF><cc:Work
       rdf:about=""><dc:format>image/svg+xml</dc:format><dc:type
        rdf:resource="http://purl.org/dc/dcmitype/StillImage"/><dc:title></dc:title></cc:Work></rdf:RDF></metadata>
    <defs
            id="defs43">
	
	
	
</defs>
    <sodipodi:namedview
            pagecolor="#ffffff"
            bordercolor="#666666"
            borderopacity="1"
            objecttolerance="10"
            gridtolerance="10"
            guidetolerance="10"
            inkscape:pageopacity="0"
            inkscape:pageshadow="2"
            inkscape:window-width="3440"
            inkscape:window-height="1355"
            id="namedview41"
            showgrid="false"
            inkscape:zoom="1.4965109"
            inkscape:cx="238.88901"
            inkscape:cy="238.88901"
            inkscape:window-x="2560"
            inkscape:window-y="0"
            inkscape:window-maximized="1"
            inkscape:current-layer="Capa_1"/>
    <g
            id="g876"
            transform="translate(7.1398018,11.111)"><path
     d="M 203.35783,0 H 85.164825 c -11.704,0 -21.197,9.487 -21.197,21.191 v 435.396 c 0,11.704 9.493,21.191 21.197,21.191 H 203.35783 c 11.704,0 21.191,-9.487 21.191,-21.191 V 21.191 C 224.54883,9.487 215.06183,0 203.35783,0 Z M 96.480825,307.329 c -8.111,0 -14.682,-6.571 -14.682,-14.682 0,-8.111 6.571,-14.682 14.682,-14.682 8.117005,0 14.689005,6.571 14.689005,14.682 -0.001,8.111 -6.572,14.682 -14.689005,14.682 z m 47.777005,127.408 c -8.111,0 -14.682,-6.571 -14.682,-14.682 0,-8.111 6.571,-14.682 14.682,-14.682 8.117,0 14.689,6.571 14.689,14.682 0,8.111 -6.571,14.682 -14.689,14.682 z m 0,-47.778 c -8.111,0 -14.682,-6.571 -14.682,-14.682 0,-8.111 6.571,-14.682 14.682,-14.682 8.117,0 14.689,6.571 14.689,14.682 0,8.111 -6.571,14.682 -14.689,14.682 z m 0,-79.63 c -8.111,0 -14.682,-6.571 -14.682,-14.682 0,-8.111 6.571,-14.682 14.682,-14.682 8.117,0 14.689,6.571 14.689,14.682 0,8.111 -6.571,14.682 -14.689,14.682 z m 0,-83.028 c -15.025,0 -27.21,-12.187 -27.21,-27.21 0,-15.025 12.185,-27.209 27.21,-27.209 15.031,0 27.209,12.185 27.209,27.209 0.001,15.023 -12.178,27.21 -27.209,27.21 z m 15.926,-116.132 v 15.708 c 0,3.919 -3.174,7.092 -7.085,7.092 h -17.675 c -3.911,0 -7.092,-3.172 -7.092,-7.092 v -15.708 h -15.709 c -3.911,0 -7.084,-3.172 -7.084,-7.092 V 83.409 c 0,-3.919 3.172,-7.092 7.084,-7.092 h 15.709 V 60.601 c 0,-3.919 3.18,-7.092 7.092,-7.092 h 17.675 c 3.911,0 7.085,3.172 7.085,7.092 v 15.716 h 15.716 c 3.911,0 7.084,3.172 7.084,7.092 v 17.668 c 0,3.919 -3.172,7.092 -7.084,7.092 z m 31.852,199.16 c -8.111,0 -14.682,-6.571 -14.682,-14.682 0,-8.111 6.571,-14.682 14.682,-14.682 8.117,0 14.689,6.571 14.689,14.682 0,8.111 -6.571,14.682 -14.689,14.682 z"
     id="path2" />
        <polygon
                points="97.558,167.463 128.702,185.45 159.854,167.463 159.854,131.489 128.702,113.504 97.558,131.489 "
                id="polygon4"
                transform="translate(216.07879)"/>
        <path
                d="m 344.78079,55.741 c -42.513,0 -76.978,22.932 -76.978,110.16 0,87.22 34.465,205.707 76.978,205.707 42.505,0 76.97959,-118.487 76.97178,-205.707 0,-87.228 -34.466,-110.16 -76.971,-110.159609 z m 47.077,116.318 c 0,2.846 -1.516,5.475 -3.98101,6.898 l -39.115,22.583 c -1.229,0.707 -2.605,1.066 -4.232,1.066 -1.376,0 -2.753,-0.358 -3.981,-1.066 l -39.107,-22.583 c -2.465,-1.422 -3.981,-4.052 -3.9809,-6.898 v -45.164 c 0,-2.846 1.5159,-5.475 3.98091,-6.898 l 39.107,-22.583 c 2.457,-1.416 5.506,-1.416 7.963,0 l 39.115,22.583 c 2.465,1.422 3.981,4.052 3.981,6.898 z"
                id="path6"/></g>
    <g
            id="g10">
</g>
    <g
            id="g12">
</g>
    <g
            id="g14">
</g>
    <g
            id="g16">
</g>
    <g
            id="g18">
</g>
    <g
            id="g20">
</g>
    <g
            id="g22">
</g>
    <g
            id="g24">
</g>
    <g
            id="g26">
</g>
    <g
            id="g28">
</g>
    <g
            id="g30">
</g>
    <g
            id="g32">
</g>
    <g
            id="g34">
</g>
    <g
            id="g36">
</g>
    <g
            id="g38">
</g>
</svg>
