<?xml version="1.0" encoding="UTF-8" standalone="no"?>
<svg
   xmlns:dc="http://purl.org/dc/elements/1.1/"
   xmlns:cc="http://creativecommons.org/ns#"
   xmlns:rdf="http://www.w3.org/1999/02/22-rdf-syntax-ns#"
   xmlns:svg="http://www.w3.org/2000/svg"
   xmlns="http://www.w3.org/2000/svg"
   xmlns:sodipodi="http://sodipodi.sourceforge.net/DTD/sodipodi-0.dtd"
   xmlns:inkscape="http://www.inkscape.org/namespaces/inkscape"
   viewBox="0 0 361.17374 443.94876"
   height="443.94876"
   width="361.17374"
   xml:space="preserve"
   version="1.1"
   id="svg2"
   sodipodi:docname="console.svg"
   inkscape:version="0.92.5 (2060ec1f9f, 2020-04-08)"><sodipodi:namedview
     pagecolor="#ffffff"
     bordercolor="#666666"
     borderopacity="1"
     objecttolerance="10"
     gridtolerance="10"
     guidetolerance="10"
     inkscape:pageopacity="0"
     inkscape:pageshadow="2"
     inkscape:window-width="3840"
     inkscape:window-height="2065"
     id="namedview80"
     showgrid="false"
     inkscape:zoom="2.6518072"
     inkscape:cx="192.17254"
     inkscape:cy="301.32783"
     inkscape:window-x="0"
     inkscape:window-y="0"
     inkscape:window-maximized="1"
     inkscape:current-layer="svg2" /><metadata
     id="metadata8"><rdf:RDF><cc:Work
         rdf:about=""><dc:format>image/svg+xml</dc:format><dc:type
           rdf:resource="http://purl.org/dc/dcmitype/StillImage" /><dc:title /></cc:Work></rdf:RDF></metadata><defs
     id="defs6"><clipPath
       id="clipPath16"
       clipPathUnits="userSpaceOnUse"><path
         id="path18"
         d="m 0,355.159 288.939,0 L 288.939,0 0,0 0,355.159 Z" /></clipPath><linearGradient
       id="linearGradient48"
       spreadMethod="pad"
       gradientTransform="matrix(0,6.2488999,6.2488999,0,220.7242,22.255291)"
       gradientUnits="userSpaceOnUse"
       y2="0"
       x2="1"
       y1="0"
       x1="0"><stop
         id="stop50"
         offset="0"
         style="stop-opacity:1;stop-color:#d1d3d4" /><stop
         id="stop52"
         offset="1"
         style="stop-opacity:1;stop-color:#808080" /></linearGradient><linearGradient
       id="linearGradient68"
       spreadMethod="pad"
       gradientTransform="matrix(0,4.5653,4.5653,0,220.72404,23.09749)"
       gradientUnits="userSpaceOnUse"
       y2="0"
       x2="1"
       y1="0"
       x1="0"><stop
         id="stop70"
         offset="0"
         style="stop-opacity:1;stop-color:#231f20" /><stop
         id="stop72"
         offset="1"
         style="stop-opacity:1;stop-color:#ffffff" /></linearGradient><clipPath
       id="clipPath80"
       clipPathUnits="userSpaceOnUse"><path
         id="path82"
         d="m 0,355.159 288.939,0 L 288.939,0 0,0 0,355.159 Z" /></clipPath></defs><g
     id="g1106"><g
       transform="matrix(1.25,0,0,-1.25,0,443.94875)"
       id="g14"
       clip-path="url(#clipPath16)"><g
         id="g20"
         transform="translate(287.0933,330.9505)"><path
           inkscape:connector-curvature="0"
           d="m 0,0 c 0,18.693 -11.338,24.208 -20.531,24.208 -2.422,0 -10.812,-0.021 -22.176,-0.052 v -4.312 h -4.434 v 4.299 c -1.58,-0.004 -3.208,-0.009 -4.871,-0.013 v -4.286 h -4.434 v 4.273 c -1.598,-0.004 -3.223,-0.009 -4.871,-0.014 v -4.259 h -4.433 v 4.247 c -1.61,-0.005 -3.235,-0.009 -4.871,-0.014 v -4.233 h -4.434 v 4.22 c -1.619,-0.004 -3.243,-0.009 -4.871,-0.013 v -4.207 h -4.434 v 4.194 c -1.627,-0.004 -3.251,-0.009 -4.871,-0.013 v -4.181 h -4.434 v 4.168 c -1.635,-0.004 -3.26,-0.009 -4.871,-0.013 v -4.155 h -4.433 v 4.143 c -1.647,-0.004 -3.272,-0.009 -4.871,-0.013 v -4.13 h -4.434 v 4.119 c -1.661,-0.005 -3.288,-0.009 -4.871,-0.013 v -4.106 h -4.434 v 4.095 c -1.692,-0.004 -3.313,-0.007 -4.871,-0.011 v -4.084 h -4.434 v 4.075 c -1.755,-0.004 -3.386,-0.007 -4.871,-0.01 v -4.065 h -4.433 v 4.059 c -0.919,-10e-4 -1.743,-10e-4 -2.436,-10e-4 -0.693,0 -1.517,0 -2.435,10e-4 v -4.059 h -4.434 v 4.065 c -1.485,0.003 -3.116,0.006 -4.871,0.01 v -4.075 h -4.434 v 4.084 c -1.558,0.004 -3.179,0.007 -4.871,0.011 v -4.095 h -4.434 v 4.106 c -1.582,0.004 -3.21,0.008 -4.871,0.013 v -4.119 h -4.433 v 4.13 c -1.6,0.004 -3.225,0.009 -4.871,0.013 v -4.143 h -4.434 v 4.155 c -1.61,0.004 -3.235,0.009 -4.871,0.013 v -4.168 h -4.434 v 4.181 c -1.619,0.004 -3.244,0.009 -4.871,0.013 v -4.194 h -4.433 v 4.207 c -1.628,0.004 -3.253,0.009 -4.871,0.013 v -4.22 h -4.434 v 4.233 c -1.637,0.005 -3.262,0.009 -4.871,0.014 v -4.247 h -4.434 v 4.259 c -1.648,0.005 -3.273,0.01 -4.871,0.014 v -4.273 h -4.434 v 4.286 c -1.662,0.004 -3.29,0.009 -4.871,0.013 v -4.299 h -4.433 v 4.312 c -11.365,0.031 -19.754,0.052 -22.176,0.052 -9.193,0 -20.531,-5.515 -20.531,-24.208 0,-18.693 -3.411,-288.662 -0.96,-304.904 2.452,-18.999 11.645,-26.047 27.886,-26.047 16.241,0 115.697,0.668 115.697,0.668 0,0 99.457,-0.668 115.698,-0.668 16.241,0 25.434,7.048 27.885,26.047 C 3.411,-288.662 0,-18.693 0,0"
           style="fill:#d9d9d9;fill-opacity:1;fill-rule:nonzero;stroke:none"
           id="path22" /></g><g
         id="g24"
         transform="translate(267.9272,7.0004)"><path
           inkscape:connector-curvature="0"
           d="m 0,0 h -245.874 c -8.301,0 -15.093,6.791 -15.093,15.092 v 311.903 c 0,8.3 6.792,15.092 15.093,15.092 H 0 c 8.301,0 15.092,-6.792 15.092,-15.092 V 15.092 C 15.092,6.791 8.301,0 0,0"
           style="fill:#4c4c4c;fill-opacity:1;fill-rule:nonzero;stroke:none"
           id="path26" /></g><g
         id="g28"
         transform="translate(266.9116,8.0005)"><path
           inkscape:connector-curvature="0"
           d="m 0,0 h -244.054 c -8.255,-0.359 -15.516,6.858 -14.998,14.998 V 325.3 c -0.518,8.335 7.18,15.508 14.998,14.997 H 0 c 8.246,0.467 15.551,-6.575 14.998,-14.997 V 14.998 C 15.595,6.989 8.203,-0.446 0,0"
           style="fill:#d9d9d9;fill-opacity:1;fill-rule:nonzero;stroke:none"
           id="path30" /></g><g
         id="g32"
         transform="translate(254.9423,65.6895)"><path
           inkscape:connector-curvature="0"
           d="m 0,0 h -220.942 c -7.19,0 -13.073,5.883 -13.073,13.072 v 222.921 c 0,7.19 5.883,13.073 13.073,13.073 H 0 c 7.19,0 13.072,-5.883 13.072,-13.073 V 13.072 C 13.072,5.883 7.19,0 0,0"
           style="fill:#b3b3b3;fill-opacity:1;fill-rule:nonzero;stroke:none"
           id="path34" /></g></g><g
       transform="matrix(1.25,0,0,-1.25,0,443.94875)"
       id="g36"><g
         id="g38"><g
           id="g44"><g
             id="g46"><path
               id="path54"
               style="fill:url(#linearGradient48);stroke:none"
               d="m 216.273,28.504 c -1.723,0 -3.124,-1.401 -3.124,-3.124 v 0 c 0,-1.723 1.401,-3.125 3.124,-3.125 v 0 h 8.902 c 1.723,0 3.125,1.402 3.125,3.125 v 0 c 0,1.723 -1.402,3.124 -3.125,3.124 v 0 z"
               inkscape:connector-curvature="0" /></g></g></g></g><g
       transform="matrix(1.25,0,0,-1.25,0,443.94875)"
       id="g56"><g
         id="g58"><g
           id="g64"><g
             id="g66"><path
               id="path74"
               style="fill:url(#linearGradient68);stroke:none"
               d="m 216.194,27.662 c -1.212,0 -2.204,-0.991 -2.204,-2.204 v 0 -0.156 c 0,-1.213 0.992,-2.204 2.204,-2.204 v 0 h 9.06 c 1.212,0 2.204,0.991 2.204,2.204 v 0 0.156 c 0,1.213 -0.992,2.204 -2.204,2.204 v 0 z"
               inkscape:connector-curvature="0" /></g></g></g></g><g
       transform="matrix(1.25,0,0,-1.25,281.56713,415.07688)"
       id="g84"><path
         id="path86"
         style="fill:#808080;fill-opacity:1;fill-rule:nonzero;stroke:none"
         d="m 0,0 h -9.059 c -1.213,0 -2.204,0.992 -2.204,2.204 v 0.157 c 0,1.212 0.991,2.204 2.204,2.204 H 0 c 1.212,0 2.204,-0.992 2.204,-2.204 V 2.204 C 2.204,0.992 1.212,0 0,0"
         inkscape:connector-curvature="0" /></g><g
       transform="matrix(1.25,0,0,-1.25,224.39875,337.65825)"
       id="g88"><path
         id="path90"
         style="fill:#808080;fill-opacity:1;fill-rule:nonzero;stroke:none"
         d="m 0,0 h -70.88 c -3.268,0 -5.942,2.674 -5.942,5.942 V 37.84 c 0,3.268 2.674,5.942 5.942,5.942 H 0 c 3.268,0 5.942,-2.674 5.942,-5.942 V 5.942 C 5.942,2.674 3.268,0 0,0"
         inkscape:connector-curvature="0" /></g><g
       transform="matrix(1.25,0,0,-1.25,180.58512,206.17088)"
       id="g92"><path
         id="path94"
         style="fill:#4c4c4c;fill-opacity:1;fill-rule:nonzero;stroke:none"
         d="m 0,0 c 13.34,0 71.377,2.497 81.42,3.324 10.043,0.827 14.002,3.935 16.187,7.207 2.367,3.545 2.6,10.28 2.127,14.888 -0.473,4.608 -5.908,5.317 -7.916,5.317 H 0 0.003 -91.814 c -2.009,0 -7.444,-0.709 -7.917,-5.317 -0.472,-4.608 -0.24,-11.343 2.127,-14.888 2.185,-3.272 6.144,-6.38 16.187,-7.207 C -71.374,2.497 -13.337,0 0.003,0"
         inkscape:connector-curvature="0" /></g><g
       transform="matrix(1.25,0,0,-1.25,251.21587,331.994)"
       id="g96"><path
         id="path98"
         style="fill:#ffffff;fill-opacity:1;fill-rule:nonzero;stroke:none"
         d="m 0,0 v 31.857 c 0,4.594 3.725,8.319 8.319,8.319 h 25.139 c 4.594,0 8.319,-3.725 8.319,-8.319 V 0 c 0,-4.594 -3.725,-8.319 -8.319,-8.319 H 8.319 C 3.725,-8.319 0,-4.594 0,0"
         inkscape:connector-curvature="0" /></g><g
       transform="matrix(1.25,0,0,-1.25,292.93212,339.31575)"
       id="g100"><path
         id="path102"
         style="fill:#4c4c4c;fill-opacity:1;fill-rule:nonzero;stroke:none"
         d="m 0,0 h -24.969 c -3.269,0 -5.942,2.674 -5.942,5.942 V 37.63 c 0,3.268 2.673,5.942 5.942,5.942 H 0 c 3.268,0 5.942,-2.674 5.942,-5.942 V 5.942 C 5.942,2.674 3.268,0 0,0"
         inkscape:connector-curvature="0" /></g><g
       transform="matrix(1.25,0,0,-1.25,57.2485,331.91737)"
       id="g104"><path
         id="path106"
         style="fill:#ffffff;fill-opacity:1;fill-rule:nonzero;stroke:none"
         d="m 0,0 v 31.857 c 0,4.594 3.725,8.319 8.319,8.319 h 25.138 c 4.595,0 8.319,-3.725 8.319,-8.319 V 0 c 0,-4.594 -3.724,-8.319 -8.319,-8.319 H 8.319 C 3.725,-8.319 0,-4.594 0,0"
         inkscape:connector-curvature="0" /></g><g
       transform="matrix(1.25,0,0,-1.25,98.96425,339.23937)"
       id="g108"><path
         id="path110"
         style="fill:#4c4c4c;fill-opacity:1;fill-rule:nonzero;stroke:none"
         d="m 0,0 h -24.969 c -3.269,0 -5.942,2.674 -5.942,5.942 v 31.687 c 0,3.269 2.673,5.942 5.942,5.942 H 0 c 3.268,0 5.942,-2.673 5.942,-5.942 V 5.942 C 5.942,2.674 3.268,0 0,0"
         inkscape:connector-curvature="0" /></g><g
       transform="matrix(1.25,0,0,-1.25,106.318,314.78825)"
       id="g112"><path
         id="path114"
         style="fill:#4c4c4c;fill-opacity:1;fill-rule:nonzero;stroke:none"
         d="m 0,0 h -36.558 c -0.654,0 -1.189,0.535 -1.189,1.188 v 2.073 c 0,0.654 0.535,1.189 1.189,1.189 H 0 c 0.654,0 1.188,-0.535 1.188,-1.189 V 1.188 C 1.188,0.535 0.654,0 0,0"
         inkscape:connector-curvature="0" /></g><g
       transform="matrix(1.25,0,0,-1.25,60.673,309.226)"
       id="g116"><path
         id="path118"
         style="fill:#666666;fill-opacity:1;fill-rule:nonzero;stroke:none"
         d="M 0,0 C -0.635,0 -1.144,-0.493 -1.207,-1.112 -1.144,-1.732 -0.635,-2.225 0,-2.225 h 36.474 c 0.635,0 1.144,0.493 1.206,1.113 C 37.618,-0.493 37.109,0 36.474,0 Z"
         inkscape:connector-curvature="0" /></g><g
       transform="matrix(1.25,0,0,-1.25,78.979,198.17237)"
       id="g120"><path
         id="path122"
         style="fill:#808080;fill-opacity:1;fill-rule:nonzero;stroke:none"
         d="m 0,0 h -0.701 c -0.653,0 -1.188,0.535 -1.188,1.188 v 19.327 c 0,0.654 0.535,1.189 1.188,1.189 H 0 c 0.654,0 1.189,-0.535 1.189,-1.189 V 1.188 C 1.189,0.535 0.654,0 0,0"
         inkscape:connector-curvature="0" /></g><g
       transform="matrix(1.25,0,0,-1.25,282.195,198.17237)"
       id="g124"><path
         id="path126"
         style="fill:#808080;fill-opacity:1;fill-rule:nonzero;stroke:none"
         d="m 0,0 h 0.701 c 0.653,0 1.188,0.535 1.188,1.188 v 19.327 c 0,0.654 -0.535,1.189 -1.188,1.189 H 0 c -0.654,0 -1.188,-0.535 -1.188,-1.189 V 1.188 C -1.188,0.535 -0.654,0 0,0"
         inkscape:connector-curvature="0" /></g><g
       transform="matrix(1.25,0,0,-1.25,184.28175,198.24025)"
       id="g128"><path
         id="path130"
         style="fill:#808080;fill-opacity:1;fill-rule:nonzero;stroke:none"
         d="m 0,0 c -1.625,-1.654 -4.284,-1.654 -5.908,0 -1.625,1.654 -4.284,4.361 -5.909,6.016 -1.625,1.654 -0.295,3.007 2.954,3.007 H 2.954 C 6.204,9.023 7.533,7.67 5.908,6.016 4.284,4.361 1.625,1.654 0,0"
         inkscape:connector-curvature="0" /></g><g
       transform="matrix(1.25,0,0,-1.25,87.603625,422.83025)"
       id="g132"><path
         id="path134"
         style="fill:#4c4c4c;fill-opacity:1;fill-rule:nonzero;stroke:none"
         d="m 0,0 -0.249,-0.675 h 0.19 z m -7.014,0.806 c -0.019,0 -0.034,-0.011 -0.048,-0.024 l -0.154,-0.806 v -0.011 c 0,-0.026 0.018,-0.048 0.048,-0.048 h 0.142 c 0.035,0 0.124,0.071 0.13,0.107 l 0.131,0.663 c 0.006,0.038 -0.06,0.119 -0.095,0.119 z m 28.4,0.32 H 22.18 L 22.121,0.794 H 21.92 l -0.415,-2.346 h -0.379 l 0.414,2.346 h -0.213 z m -3.519,0 h 0.332 l 0.178,-1.398 0.261,1.398 h 0.379 L 18.519,-1.552 H 18.187 L 18.057,0 17.749,-1.552 h -0.391 z m -3.436,0 H 15.13 L 15.083,0.794 H 14.704 L 14.55,-0.035 h 0.367 L 14.87,-0.32 h -0.379 l -0.154,-0.9 h 0.379 L 14.657,-1.552 H 13.91 Z m -4.301,0 h 0.439 l 0.071,-1.552 0.675,1.54 h 0.427 l -0.45,-2.666 H 10.96 l 0.213,1.41 -0.592,-1.41 h -0.237 l -0.071,1.445 -0.261,-1.445 H 9.633 Z m -3.921,0 H 6.54 L 6.718,-0.272 6.979,1.126 H 7.358 L 6.86,-1.552 H 6.517 L 6.398,0 6.09,-1.552 H 5.699 Z m -3.057,0 H 3.495 L 2.986,-1.552 H 2.654 Z M 0,1.126 H 0.45 L 0.308,-1.552 h -0.45 l 0.059,0.616 h -0.272 l -0.226,-0.616 h -0.402 z m -3.945,0 h 0.793 L -3.199,0.794 H -3.4 l -0.427,-2.346 h -0.379 l 0.415,2.346 h -0.214 z m -3.389,0 h 0.758 c 0.141,0 0.23,-0.125 0.202,-0.273 l -0.178,-0.948 c -0.02,-0.102 -0.2,-0.186 -0.296,-0.225 h 0.023 0.012 0.012 v -0.012 h 0.012 0.012 0.012 0.011 l 0.012,-0.012 h 0.012 0.012 0.012 v -0.011 h 0.012 0.012 v -0.012 h 0.011 c 0.016,-0.029 0.024,-0.114 0.024,-0.131 0,-0.015 -0.19,-1.054 -0.19,-1.054 H -7.18 c 0,0 0.183,0.933 0.19,0.971 0.003,0.042 -0.005,0.092 -0.012,0.131 -0.003,0.028 -0.004,0.077 -0.036,0.106 H -7.275 L -7.5,-1.552 h -0.344 z m -3.341,0 h 0.711 l -0.06,-0.332 h -0.367 l -0.166,-0.829 h 0.367 l -0.047,-0.285 h -0.367 l -0.154,-0.9 h 0.367 l -0.047,-0.332 h -0.759 z m -3.448,0 h 0.782 l -0.048,-0.332 h -0.201 l -0.427,-2.346 h -0.379 l 0.415,2.346 h -0.213 z m -3.555,0 h 0.332 l 0.178,-1.398 0.26,1.398 h 0.391 l -0.509,-2.678 h -0.332 L -17.488,0 -17.796,-1.552 h -0.391 z m -3.27,0 h 0.699 l -0.047,-0.332 h -0.379 l -0.154,-0.829 h 0.367 L -20.51,-0.32 h -0.379 l -0.142,-0.9 h 0.367 l -0.059,-0.332 h -0.758 z M 42.69,1.22 h 0.438 l 0.071,-1.54 0.676,1.528 0.426,0.012 -0.45,-2.665 h -0.332 l 0.213,1.41 -0.592,-1.41 H 42.903 L 42.832,0 42.571,-1.445 H 42.18 Z m -2.927,0 h 0.711 L 40.415,0.9 H 40.048 L 39.882,0.059 h 0.379 L 40.202,-0.213 H 39.834 L 39.68,-1.114 h 0.368 L 40,-1.445 h -0.758 z m -3.104,0 h 0.794 L 37.394,0.9 h -0.202 l -0.415,-2.345 h -0.39 L 36.801,0.9 H 36.6 Z m -2.761,0 h 0.012 0.012 0.012 0.012 0.012 0.521 c 0.14,0 0.239,-0.112 0.213,-0.26 l -0.13,-0.664 h -0.32 l 0.071,0.439 c 0.016,0.099 -0.042,0.177 -0.142,0.177 -0.099,0 -0.197,-0.078 -0.213,-0.177 l -0.06,-0.32 c -0.012,-0.019 0.016,-0.109 0.036,-0.119 0.041,-0.025 0.462,-0.718 0.462,-0.77 0.012,-0.026 0.012,-0.038 0.012,-0.047 -0.016,-0.087 -0.119,-0.676 -0.119,-0.676 -0.025,-0.135 -0.158,-0.248 -0.296,-0.248 h -0.509 c -0.138,0 -0.227,0.113 -0.202,0.248 l 0.119,0.676 h 0.343 l -0.083,-0.486 c -0.015,-0.099 0.046,-0.19 0.142,-0.19 0.099,0 0.194,0.09 0.214,0.19 l 0.071,0.391 c -0.065,0.164 -0.483,0.759 -0.51,0.9 C 33.56,0.3 33.552,0.386 33.555,0.45 33.558,0.521 33.65,0.96 33.65,0.96 l 0.011,0.012 v 0.011 0.012 l 0.012,0.024 v 0.012 l 0.012,0.012 v 0.012 l 0.012,0.011 v 0.012 l 0.012,0.012 0.012,0.012 v 0.012 h 0.011 l 0.012,0.012 0.012,0.011 0.012,0.012 0.012,0.012 0.012,0.012 0.011,0.012 h 0.012 l 0.012,0.012 h 0.012 l 0.012,0.011 h 0.012 0.024 z m -3.874,0 h 0.426 l 0.06,-1.007 0.545,1.007 h 0.426 l -0.876,-1.54 -0.214,-1.125 h -0.379 l 0.19,1.208 z m -2.725,0 h 0.012 0.012 0.011 0.012 0.012 0.521 c 0.141,0 0.242,-0.112 0.214,-0.26 L 27.962,0.296 h -0.32 l 0.072,0.439 c 0.015,0.099 -0.042,0.177 -0.143,0.177 -0.099,0 -0.196,-0.078 -0.213,-0.177 l -0.059,-0.32 c -0.01,-0.019 0.019,-0.109 0.035,-0.119 0.044,-0.025 0.462,-0.718 0.462,-0.77 0.01,-0.026 0.016,-0.038 0.012,-0.047 -0.012,-0.087 -0.13,-0.676 -0.13,-0.676 -0.026,-0.135 -0.157,-0.248 -0.296,-0.248 h -0.498 c -0.138,0 -0.227,0.113 -0.201,0.248 l 0.118,0.676 h 0.344 l -0.083,-0.486 c -0.016,-0.099 0.042,-0.19 0.142,-0.19 0.095,0 0.197,0.09 0.213,0.19 l 0.071,0.391 c -0.063,0.164 -0.482,0.759 -0.509,0.9 -0.018,0.016 -0.026,0.102 -0.024,0.166 0.004,0.071 0.095,0.51 0.095,0.51 h 0.012 v 0.012 0.011 0.012 l 0.012,0.024 v 0.012 l 0.012,0.012 v 0.012 l 0.011,0.011 v 0.012 l 0.012,0.012 0.012,0.012 v 0.012 h 0.012 l 0.012,0.012 0.012,0.011 0.011,0.012 v 0.012 h 0.012 l 0.012,0.012 0.012,0.012 h 0.012 l 0.012,0.012 h 0.012 l 0.011,0.011 h 0.012 0.024 z M -22.417,-2.31 H 45.214 V 1.635 H -22.417 Z M 1.659,13.282 h 0.012 0.012 0.011 0.012 0.687 c 0.162,0 0.506,-0.369 0.474,-0.533 L 2.239,9.787 C 2.211,9.632 1.826,9.266 1.671,9.266 H 1.019 c -0.134,0 -0.227,0.088 -0.237,0.213 0,0.019 -0.002,0.048 0,0.071 l 0.699,3.637 0.012,0.012 0.012,0.012 0.024,0.012 H 1.54 l 0.012,0.012 0.012,0.012 h 0.012 l 0.012,0.011 H 1.6 l 0.023,0.012 h 0.012 0.012 0.012 z m -9.443,0 h 0.734 c 0.161,0 0.504,-0.369 0.474,-0.533 L -7.204,9.775 C -7.233,9.621 -7.441,9.266 -7.595,9.266 H -8.483 -8.495 -8.507 L -8.519,9.277 H -8.531 -8.543 -8.555 -8.566 V 9.289 H -8.578 -8.59 L -8.602,9.301 H -8.614 L -8.626,9.313 -8.637,9.325 H -8.649 V 9.337 L -8.661,9.348 -8.673,9.36 V 9.372 L -8.685,9.384 -8.697,9.396 V 9.408 9.419 L -8.709,9.431 V 9.443 9.455 L -8.72,9.467 v 0.012 c 0,0.019 -0.003,0.049 0,0.071 l 0.711,3.637 c 0.064,0.054 0.144,0.095 0.225,0.095 m 51.801,0.047 h 0.047 c 0.448,0 0.741,-0.358 0.664,-0.805 L 43.306,4.645 C 43.229,4.199 42.817,3.827 42.37,3.827 c -0.447,0 -0.634,0.37 -0.557,0.818 l 1.41,7.879 0.012,0.035 0.012,0.036 0.012,0.047 0.011,0.036 0.012,0.047 0.012,0.036 0.012,0.035 0.024,0.036 0.012,0.035 0.023,0.036 0.012,0.036 0.024,0.035 0.023,0.024 0.024,0.035 0.024,0.036 0.035,0.023 0.024,0.024 0.024,0.024 0.035,0.024 0.036,0.023 0.024,0.024 0.035,0.024 0.036,0.012 0.035,0.023 0.024,0.012 0.047,0.012 0.036,0.012 h 0.035 l 0.036,0.012 h 0.047 z m -6.102,0 h 0.699 c 0.447,0 0.752,-0.358 0.675,-0.805 L 37.797,4.645 C 37.718,4.197 37.284,3.827 36.837,3.827 H 36.15 Z m 5.213,1.387 c -0.65,0 -1.27,-0.535 -1.386,-1.197 L 40.048,3.792 c -0.11,-0.621 0.301,-1.114 0.924,-1.114 h 2.5 c 0.627,0 1.234,0.493 1.351,1.114 l 1.836,9.727 c 0.126,0.662 -0.299,1.197 -0.948,1.197 z m -6.504,0 -2.287,-12.038 h 3.46 c 0.628,0 1.234,0.493 1.35,1.114 l 1.837,9.727 c 0.124,0.664 -0.298,1.197 -0.948,1.197 z m -6.031,0 -2.287,-12.038 h 1.754 l 1.409,6.978 0.557,-6.978 h 1.517 l 2.287,12.038 h -1.754 l -1.173,-6.292 -0.782,6.292 z m -3.851,0 -2.37,-12.038 h 3.413 l 0.236,1.493 h -1.682 l 0.699,4.064 h 1.683 l 0.237,1.256 h -1.683 l 0.735,3.732 h 1.682 l 0.237,1.493 z m -4.171,0 -0.284,-1.493 h 0.948 L 21.363,2.678 h 1.73 L 25,13.223 h 0.913 l 0.237,1.493 z m -5.877,0 -2.286,-12.038 h 1.753 l 1.41,6.978 0.557,-6.978 h 1.517 l 2.286,12.038 h -1.753 l -1.173,-6.292 -0.782,6.292 z m -2.31,0 -2.287,-12.038 h 1.517 l 2.287,12.038 z m -6.019,0 L 6.078,2.678 H 7.82 L 9.23,9.656 9.787,2.678 h 1.516 L 13.59,14.716 H 11.848 L 10.664,8.424 9.882,14.716 Z m -8.116,0 -2.275,-12.038 h 1.517 l 1.03,5.45 H 1.6 C 1.741,7.996 1.758,7.753 1.777,7.63 1.805,7.453 1.835,7.227 1.813,7.05 1.793,6.874 0.983,2.678 0.983,2.678 H 2.5 c 0,0 0.853,4.571 0.853,4.644 0.003,0.075 0,0.309 -0.083,0.439 C 3.215,7.844 3.12,8.035 3.01,8.104 2.798,8.24 2.559,8.329 2.559,8.329 H 2.453 c 0.433,0.172 1.252,0.453 1.339,0.913 l 0.829,4.277 c 0.126,0.664 -0.298,1.197 -0.948,1.197 z m -4.076,0 -2.37,-12.038 h 3.413 l 0.237,1.493 H -4.23 l 0.687,4.064 h 1.683 l 0.237,1.256 h -1.683 l 0.747,3.732 h 1.682 l 0.237,1.493 z m -5.415,0 -2.287,-12.038 h 1.517 l 1.043,5.45 h 1.931 c 0.628,0 1.224,0.497 1.339,1.114 l 0.829,4.277 c 0.125,0.664 -0.297,1.197 -0.947,1.197 h -1.908 z m -5.45,0 -1.896,-10.924 c -0.109,-0.621 0.312,-1.114 0.936,-1.114 h 2.263 c 0.627,0 1.235,0.493 1.351,1.114 l 2.026,10.924 h -1.422 L -13.365,4.1 c -0.028,-0.154 -0.178,-0.285 -0.332,-0.285 h -1.125 c -0.158,0 -0.263,0.129 -0.237,0.285 l 1.884,10.616 z m -4.36,0 c -0.65,0 -1.282,-0.535 -1.398,-1.197 v -0.012 -0.012 -0.011 l -0.012,-0.012 v -0.024 -0.012 l -0.012,-0.024 v -0.023 l -0.012,-0.024 v -0.036 l -0.012,-0.023 V 13.27 l -0.012,-0.035 -0.011,-0.036 -0.012,-0.071 -0.024,-0.083 -0.012,-0.083 -0.023,-0.083 -0.012,-0.094 -0.024,-0.095 -0.024,-0.107 -0.023,-0.095 -0.036,-0.201 -0.024,-0.107 -0.023,-0.095 -0.012,-0.094 -0.024,-0.095 -0.024,-0.095 -0.011,-0.095 -0.012,-0.083 -0.024,-0.071 -0.012,-0.083 v -0.035 l -0.012,-0.024 v -0.036 -0.023 l -0.012,-0.036 v -0.023 -0.024 l -0.011,-0.024 v -0.012 -0.011 c -0.013,-0.29 0.028,-0.685 0.118,-0.759 0.115,-0.638 2.241,-3.59 2.18,-4.04 -0.057,-0.451 -0.308,-1.777 -0.308,-1.777 -0.077,-0.448 -0.382,-0.806 -0.829,-0.806 -0.448,0 -0.753,0.357 -0.676,0.806 l 0.403,2.203 h -1.587 l -0.534,-3.056 c -0.108,-0.621 0.312,-1.114 0.936,-1.114 h 2.263 c 0.627,0 1.224,0.493 1.339,1.114 0,0 0.583,2.855 0.581,3.056 -0.003,0.203 -0.059,0.226 -0.059,0.226 0,0.232 -1.893,3.355 -2.086,3.471 -0.083,0.049 -0.151,0.358 -0.154,0.545 -0.003,0.186 0.249,1.434 0.249,1.434 0.077,0.447 0.501,0.805 0.948,0.805 0.447,0 0.634,-0.358 0.557,-0.805 l -0.344,-1.979 h 1.6 l 0.557,2.974 c 0.126,0.662 -0.298,1.197 -0.948,1.197 z"
         inkscape:connector-curvature="0" /></g><g
       transform="matrix(1.25,0,0,-1.25,313.97375,94.917875)"
       id="g136"><path
         id="path138"
         style="fill:#4c4c4c;fill-opacity:1;fill-rule:nonzero;stroke:none"
         d="m 0,0 c 0,-10.443 -8.466,-18.909 -18.909,-18.909 -10.443,0 -18.909,8.466 -18.909,18.909 0,10.443 8.466,18.909 18.909,18.909 C -8.466,18.909 0,10.443 0,0"
         inkscape:connector-curvature="0" /></g><g
       transform="matrix(1.25,0,0,-1.25,313.14837,94.917875)"
       id="g140"><path
         id="path142"
         style="fill:#b3b3b3;fill-opacity:1;fill-rule:nonzero;stroke:none"
         d="m 0,0 c 0,-10.079 -8.17,-18.249 -18.249,-18.249 -10.078,0 -18.248,8.17 -18.248,18.249 0,10.078 8.17,18.249 18.248,18.249 C -8.17,18.249 0,10.078 0,0"
         inkscape:connector-curvature="0" /></g><g
       style="fill:#7cb832;fill-opacity:1"
       transform="matrix(1.25,0,0,-1.25,287.8505,97.70775)"
       id="g144"><path
         id="path146"
         style="fill:#7cb832;fill-opacity:1;fill-rule:nonzero;stroke:none"
         d="m 0,0 c 0,-1.776 -3.22,-3.215 -7.191,-3.215 -3.972,0 -7.191,1.439 -7.191,3.215 0,1.776 3.219,3.215 7.191,3.215 C -3.22,3.215 0,1.776 0,0"
         inkscape:connector-curvature="0" /></g><g
       style="fill:#e5dc1d;fill-opacity:1"
       transform="matrix(1.25,0,0,-1.25,303.94225,104.36437)"
       id="g148"><path
         id="path150"
         style="fill:#e5dc1d;fill-opacity:1;fill-rule:nonzero;stroke:none"
         d="m 0,0 c 0,-1.776 -3.22,-3.215 -7.191,-3.215 -3.972,0 -7.191,1.439 -7.191,3.215 0,1.776 3.219,3.215 7.191,3.215 C -3.22,3.215 0,1.776 0,0"
         inkscape:connector-curvature="0" /></g><g
       style="fill:#c21e27;fill-opacity:1"
       transform="matrix(1.25,0,0,-1.25,305.02437,101.72688)"
       id="g152"><path
         id="path154"
         style="fill:#c21e27;fill-opacity:1;fill-rule:nonzero;stroke:none"
         d="m 0,0 c -0.866,3.601 -4.004,7.58 -8.057,5.85 3.3,7.612 9.527,6.401 11.69,3.806 C 5.317,7.635 5.276,0.724 0,0"
         inkscape:connector-curvature="0" /></g><g
       style="fill:#1d54b8;fill-opacity:1"
       transform="matrix(1.25,0,0,-1.25,289.18162,94.449125)"
       id="g156"><path
         id="path158"
         style="fill:#1d54b8;fill-opacity:1;fill-rule:nonzero;stroke:none"
         d="m 0,0 c -0.866,3.601 -4.004,7.58 -8.057,5.85 3.3,7.612 9.527,6.401 11.69,3.806 C 5.317,7.635 5.276,0.724 0,0"
         inkscape:connector-curvature="0" /></g><path
       id="path160"
       style="fill:#4c4c4c;fill-opacity:1;fill-rule:nonzero;stroke:none;stroke-width:1.25"
       d="m 51.3275,50.505 h -0.77 V 8.31 h 0.77 z"
       inkscape:connector-curvature="0" /><path
       id="path162"
       style="fill:#4c4c4c;fill-opacity:1;fill-rule:nonzero;stroke:none;stroke-width:1.25"
       d="m 310.61625,50.505 h -0.77 V 8.31 h 0.77 z"
       inkscape:connector-curvature="0" /><path
       id="path164"
       style="fill:#4c4c4c;fill-opacity:1;fill-rule:nonzero;stroke:none;stroke-width:1.25"
       d="m 315.96125,433.96375 h -0.77 V 361.8325 h 0.77 z"
       inkscape:connector-curvature="0" /><path
       id="path166"
       style="fill:#4c4c4c;fill-opacity:1;fill-rule:nonzero;stroke:none;stroke-width:1.25"
       d="m 45.97875,433.96375 h -0.77 v -72.1275 h 0.77 z"
       inkscape:connector-curvature="0" /></g></svg>