<?xml version="1.0" encoding="UTF-8" standalone="no"?>
<svg
   xmlns:dc="http://purl.org/dc/elements/1.1/"
   xmlns:cc="http://creativecommons.org/ns#"
   xmlns:rdf="http://www.w3.org/1999/02/22-rdf-syntax-ns#"
   xmlns:svg="http://www.w3.org/2000/svg"
   xmlns="http://www.w3.org/2000/svg"
   xmlns:sodipodi="http://sodipodi.sourceforge.net/DTD/sodipodi-0.dtd"
   xmlns:inkscape="http://www.inkscape.org/namespaces/inkscape"
   viewBox="0 0 258.81 181.145"
   height="181.145"
   width="258.81"
   xml:space="preserve"
   version="1.1"
   id="svg2"
   inkscape:version="0.92.5 (2060ec1f9f, 2020-04-08)"
   sodipodi:docname="game.svg"><sodipodi:namedview
     pagecolor="#ffffff"
     bordercolor="#666666"
     borderopacity="1"
     objecttolerance="10"
     gridtolerance="10"
     guidetolerance="10"
     inkscape:pageopacity="0"
     inkscape:pageshadow="2"
     inkscape:window-width="3840"
     inkscape:window-height="2065"
     id="namedview60"
     showgrid="false"
     inkscape:zoom="4.5955069"
     inkscape:cx="93.186041"
     inkscape:cy="92.549525"
     inkscape:window-x="0"
     inkscape:window-y="0"
     inkscape:window-maximized="1"
     inkscape:current-layer="svg2" /><metadata
     id="metadata8"><rdf:RDF><cc:Work
         rdf:about=""><dc:format>image/svg+xml</dc:format><dc:type
           rdf:resource="http://purl.org/dc/dcmitype/StillImage" /><dc:title /></cc:Work></rdf:RDF></metadata><defs
     id="defs6"><clipPath
       id="clipPath16"
       clipPathUnits="userSpaceOnUse"><path
         id="path18"
         d="m 0,144.916 207.048,0 L 207.048,0 0,0 0,144.916 Z" /></clipPath><pattern
       y="0"
       x="0"
       height="6"
       width="6"
       patternUnits="userSpaceOnUse"
       id="EMFhbasepattern" /></defs><g
     id="g1087"><g
       transform="matrix(1.25,0,0,-1.25,129.40512,181.14488)"
       id="g20"><path
         id="path22"
         style="fill:#cccccc;fill-opacity:1;fill-rule:nonzero;stroke:none"
         d="m 0,0 c 13.146,0 92.244,1.027 94.026,1.027 8.611,0 9.498,6.072 9.498,8.684 0,2.612 -0.712,119.059 -0.95,125.945 -0.237,6.886 -5.223,7.598 -9.26,7.836 -4.036,0.237 -80.967,1.424 -93.314,1.424 -12.347,0 -89.278,-1.187 -93.314,-1.424 -4.037,-0.238 -9.023,-0.95 -9.26,-7.836 -0.238,-6.886 -0.95,-123.333 -0.95,-125.945 0,-2.612 0.887,-8.684 9.498,-8.684 C -92.244,1.027 -13.146,0 0,0"
         inkscape:connector-curvature="0" /></g><path
       id="path24"
       style="fill:#666666;fill-opacity:1;fill-rule:nonzero;stroke:none;stroke-width:1.25"
       d="m 220.885,180.17625 h -0.5925 V 1.24125 h 0.5925 z"
       inkscape:connector-curvature="0" /><path
       id="path26"
       style="fill:#666666;fill-opacity:1;fill-rule:nonzero;stroke:none;stroke-width:1.25"
       d="M 38.485,180.18875 H 37.8925 V 1.25375 h 0.5925 z"
       inkscape:connector-curvature="0" /><g
       transform="matrix(1.25,0,0,-1.25,223.08012,86.91825)"
       id="g28"><path
         id="path30"
         style="fill:#000000;fill-opacity:1;fill-rule:nonzero;stroke:none"
         d="m 0,0 h -153.681 c -5.253,0 -9.551,4.298 -9.551,9.551 v 41.787 c 0,5.252 4.298,9.551 9.551,9.551 H 0 c 5.253,0 9.551,-4.299 9.551,-9.551 V 9.551 C 9.551,4.298 5.253,0 0,0"
         inkscape:connector-curvature="0" /></g><path
       id="path32"
       style="fill:#4d4d4d;fill-opacity:1;fill-rule:nonzero;stroke:none;stroke-width:1.25"
       d="m 100.42125,86.91875 h 95.7925 V 10.8075 h -95.7925 z"
       inkscape:connector-curvature="0" /><g
       style="fill:#7cb832;fill-opacity:1"
       transform="matrix(1.25,0,0,-1.25,33.831625,73.935125)"
       id="g34"><path
         id="path36"
         style="fill:#7cb832;fill-opacity:1;fill-rule:nonzero;stroke:none"
         d="m 0,0 c 0,-1.105 -2.003,-2.001 -4.475,-2.001 -2.471,0 -4.474,0.896 -4.474,2.001 0,1.105 2.003,2.001 4.474,2.001 C -2.003,2.001 0,1.105 0,0"
         inkscape:connector-curvature="0" /></g><g
       style="fill:#e5dc1d;fill-opacity:1"
       transform="matrix(1.25,0,0,-1.25,43.844625,78.077125)"
       id="g38"><path
         id="path40"
         style="fill:#e5dc1d;fill-opacity:1;fill-rule:nonzero;stroke:none"
         d="m 0,0 c 0,-1.105 -2.003,-2.001 -4.475,-2.001 -2.471,0 -4.474,0.896 -4.474,2.001 0,1.105 2.003,2.001 4.474,2.001 C -2.003,2.001 0,1.105 0,0"
         inkscape:connector-curvature="0" /></g><g
       style="fill:#c21e27;fill-opacity:1"
       transform="matrix(1.25,0,0,-1.25,44.517875,76.436)"
       id="g42"><path
         id="path44"
         style="fill:#c21e27;fill-opacity:1;fill-rule:nonzero;stroke:none"
         d="M 0,0 C -0.539,2.241 -2.492,4.717 -5.013,3.64 -2.96,8.376 0.915,7.623 2.26,6.008 3.308,4.751 3.283,0.45 0,0"
         inkscape:connector-curvature="0" /></g><g
       style="fill:#1d54b8;fill-opacity:1"
       transform="matrix(1.25,0,0,-1.25,34.66,71.9075)"
       id="g46"><path
         id="path48"
         style="fill:#1d54b8;fill-opacity:1;fill-rule:nonzero;stroke:none"
         d="M 0,0 C -0.539,2.241 -2.492,4.717 -5.013,3.64 -2.96,8.376 0.915,7.623 2.26,6.008 3.308,4.751 3.283,0.45 0,0"
         inkscape:connector-curvature="0" /></g><g
       transform="matrix(1.25,0,0,-1.25,15.75275,168.00988)"
       id="g50"><path
         id="path52"
         style="fill:#666666;fill-opacity:1;fill-rule:nonzero;stroke:none"
         d="m 0,0 c 0,-2.113 -1.713,-3.825 -3.826,-3.825 -2.112,0 -3.825,1.712 -3.825,3.825 0,2.113 1.713,3.826 3.825,3.826 C -1.713,3.826 0,2.113 0,0"
         inkscape:connector-curvature="0" /></g><g
       transform="matrix(1.25,0,0,-1.25,243.0575,168.00988)"
       id="g54"><path
         id="path56"
         style="fill:#666666;fill-opacity:1;fill-rule:nonzero;stroke:none"
         d="m 0,0 c 0,-2.113 1.713,-3.825 3.826,-3.825 2.112,0 3.825,1.712 3.825,3.825 0,2.113 -1.713,3.826 -3.825,3.826 C 1.713,3.826 0,2.113 0,0"
         inkscape:connector-curvature="0" /></g><g
       transform="matrix(1.25,0,0,-1.25,199.65362,125.94875)"
       id="g58"><path
         id="path60"
         style="fill:#b3b3b3;fill-opacity:1;fill-rule:nonzero;stroke:none"
         d="m 0,0 h -112.398 c -2.506,0 -4.556,2.05 -4.556,4.556 v 1.789 c 0,2.506 2.05,4.556 4.556,4.556 H 0 c 2.506,0 4.556,-2.05 4.556,-4.556 V 4.556 C 4.556,2.05 2.506,0 0,0"
         inkscape:connector-curvature="0" /></g><path
       id="path62"
       style="fill:#999999;fill-opacity:1;fill-rule:nonzero;stroke:none;stroke-width:1.25"
       d="M 153.63625,123.8925 H 104.9375 v -9.51375 h 48.69875 z"
       inkscape:connector-curvature="0" /><g
       transform="matrix(1.25,0,0,-1.25,204.82175,115.86425)"
       id="g64"><path
         id="path66"
         style="fill:#666666;fill-opacity:1;fill-rule:nonzero;stroke:none"
         d="m 0,0 h -120.667 c -0.035,-0.079 -0.067,-0.159 -0.099,-0.24 H 0.099 C 0.068,-0.159 0.036,-0.079 0,0 m 0.364,-1.248 h -121.395 c -0.012,-0.08 -0.026,-0.16 -0.034,-0.241 H 0.398 C 0.39,-1.408 0.376,-1.328 0.364,-1.248 m -1.183,2.496 h -119.029 c -0.07,-0.078 -0.14,-0.157 -0.205,-0.24 H -0.613 C -0.679,1.091 -0.748,1.17 -0.819,1.248 M -121.088,-2.737 H 0.422 v 0.24 h -121.51 z m 1.241,-3.746 H -0.819 c 0.071,0.079 0.14,0.158 0.206,0.241 h -119.44 c 0.065,-0.083 0.135,-0.162 0.206,-0.241 m -0.819,1.249 H 0 c 0.036,0.079 0.068,0.159 0.099,0.24 h -120.865 c 0.032,-0.081 0.064,-0.161 0.1,-0.24 m -0.365,1.248 H 0.364 c 0.012,0.08 0.026,0.159 0.034,0.241 h -121.463 c 0.008,-0.082 0.022,-0.161 0.034,-0.241"
         inkscape:connector-curvature="0" /></g><g
       transform="matrix(1.25,0,0,-1.25,203.50413,29.468)"
       id="g68"><path
         id="path70"
         style="fill:#e10025;fill-opacity:1;fill-rule:evenodd;stroke:none"
         d="m 0,0 c -1.809,0 -3.017,1.282 -3.017,2.836 0,1.555 1.211,2.851 3.014,2.847 H 17.038 C 18.841,5.687 20.052,4.391 20.052,2.836 20.052,1.282 18.844,0 17.035,0 Z"
         inkscape:connector-curvature="0" /></g><g
       transform="matrix(1.25,0,0,-1.25,203.51125,23.238125)"
       id="g72"><path
         id="path74"
         style="fill:#ffffff;fill-opacity:1;fill-rule:evenodd;stroke:none"
         d="m 0,0 c -1.432,-0.003 -2.311,-0.96 -2.311,-2.144 0,-1.183 0.873,-2.148 2.311,-2.143 h 17.023 c 1.438,-0.005 2.312,0.96 2.312,2.143 0,1.184 -0.879,2.141 -2.312,2.144 z"
         inkscape:connector-curvature="0" /></g><g
       transform="matrix(1.25,0,0,-1.25,202.59325,24.238)"
       id="g76"><path
         id="path78"
         style="fill:#e10025;fill-opacity:1;fill-rule:evenodd;stroke:none"
         d="M 0,0 H 0.833 L 1.987,-1.866 1.986,0 H 2.813 V -2.676 H 1.987 L 0.828,-0.81 V -2.676 H 0 Z"
         inkscape:connector-curvature="0" /></g><g
       transform="matrix(1.25,0,0,-1.25,211.73037,24.58225)"
       id="g80"><path
         id="path82"
         style="fill:#e10025;fill-opacity:1;fill-rule:evenodd;stroke:none"
         d="M 0,0 H 0.805 V -0.36 H 1.241 V -0.624 H 0.805 L 0.806,-2.4 H 0 v 1.776 h -0.437 v 0.264 h 0.438 z"
         inkscape:connector-curvature="0" /></g><path
       id="path84"
       style="fill:#e10025;fill-opacity:1;fill-rule:evenodd;stroke:none;stroke-width:1.25"
       d="m 206.685,25.35875 h 1.00625 V 27.5825 H 206.685 Z"
       inkscape:connector-curvature="0" /><path
       id="path86"
       style="fill:#e10025;fill-opacity:1;fill-rule:evenodd;stroke:none;stroke-width:1.25"
       d="m 206.68375,24.2375 h 1.0075 v 0.68375 h -1.0075 z"
       inkscape:connector-curvature="0" /><g
       transform="matrix(1.25,0,0,-1.25,224.30862,25.206625)"
       id="g88"><path
         id="path90"
         style="fill:#e10025;fill-opacity:1;fill-rule:evenodd;stroke:none"
         d="m 0,0 c -0.649,0 -1.175,-0.447 -1.175,-0.999 0,-0.552 0.526,-0.999 1.175,-0.999 0.65,0 1.176,0.447 1.176,0.999 C 1.176,-0.447 0.65,0 0,0 m 0.323,-0.997 c 0,0 -0.001,-0.268 -0.001,-0.377 0,-0.283 -0.167,-0.4 -0.328,-0.4 -0.161,0 -0.33,0.117 -0.33,0.4 0,0.109 0.001,0.384 0.001,0.384 0,0 0,0.263 0,0.371 0,0.282 0.168,0.398 0.329,0.398 0.16,0 0.328,-0.116 0.328,-0.398 0,-0.108 0,-0.307 0.001,-0.379 z"
         inkscape:connector-curvature="0" /></g><g
       transform="matrix(1.25,0,0,-1.25,221.52625,26.459375)"
       id="g92"><path
         id="path94"
         style="fill:#e10025;fill-opacity:1;fill-rule:evenodd;stroke:none"
         d="m 0,0 v 0.318 c 0,0.275 -0.19,0.345 -0.315,0.345 -0.128,0 -0.316,-0.07 -0.316,-0.345 0,-0.091 0.001,-0.317 0.001,-0.317 0,0 -0.001,-0.222 -0.001,-0.317 0,-0.274 0.188,-0.346 0.316,-0.346 0.125,0 0.315,0.072 0.315,0.346 z m -0.006,1.777 h 0.794 v -2.675 h -0.795 c 0,0 0,0.086 0,0.102 -0.308,-0.193 -0.656,-0.192 -0.927,-0.066 -0.072,0.033 -0.55,0.263 -0.55,0.882 0,0.47 0.443,0.982 1.023,0.931 0.191,-0.017 0.327,-0.086 0.455,-0.158 z"
         inkscape:connector-curvature="0" /></g><g
       transform="matrix(1.25,0,0,-1.25,210.04525,25.255875)"
       id="g96"><path
         id="path98"
         style="fill:#e10025;fill-opacity:1;fill-rule:evenodd;stroke:none"
         d="m 0,0 c 0.301,0.008 0.911,-0.189 0.907,-0.893 -0.001,-0.125 0,-0.968 0,-0.968 h -0.8 v 1.169 c 0,0.155 -0.148,0.327 -0.367,0.327 -0.22,0 -0.382,-0.172 -0.382,-0.327 0,-0.076 0.001,-1.169 0.001,-1.169 H -1.44 l -0.001,1.779 0.8,0.001 c 0,0 -0.001,-0.144 0,-0.187 C -0.488,-0.122 -0.266,-0.008 0,0"
         inkscape:connector-curvature="0" /></g><g
       transform="matrix(1.25,0,0,-1.25,218.21837,25.255875)"
       id="g100"><path
         id="path102"
         style="fill:#e10025;fill-opacity:1;fill-rule:evenodd;stroke:none"
         d="M 0,0 C 0.3,0.008 0.911,-0.189 0.907,-0.893 0.906,-1.018 0.906,-1.861 0.906,-1.861 H 0.107 v 1.169 c 0,0.155 -0.148,0.327 -0.367,0.327 -0.219,0 -0.383,-0.172 -0.383,-0.327 0,-0.076 0.001,-1.169 0.001,-1.169 H -1.44 v 1.779 l 0.798,0.001 c 0,0 -0.001,-0.144 0,-0.187 C -0.487,-0.122 -0.266,-0.008 0,0"
         inkscape:connector-curvature="0" /></g><g
       transform="matrix(1.25,0,0,-1.25,215.05362,26.804375)"
       id="g104"><path
         id="path106"
         style="fill:#e10025;fill-opacity:1;fill-rule:evenodd;stroke:none"
         d="m 0,0 c 0,0 0.001,-0.008 0.001,-0.108 0,-0.326 -0.214,-0.398 -0.333,-0.398 -0.119,0 -0.337,0.072 -0.337,0.398 0,0.098 0.001,0.367 0.001,0.367 h 1.516 c 0,0.552 -0.533,1.009 -1.187,1.009 -0.654,0 -1.185,-0.447 -1.185,-0.998 0,-0.552 0.531,-1 1.185,-1 0.543,0 1.001,0.31 1.141,0.731 z m -0.668,0.537 c -0.002,0.155 0.002,0.259 0.053,0.349 0.063,0.109 0.179,0.161 0.283,0.162 v 0 C -0.227,1.047 -0.112,0.995 -0.049,0.886 0.002,0.796 0.005,0.692 0.004,0.537 Z"
         inkscape:connector-curvature="0" /></g><g
       transform="matrix(1.25,0,0,-1.25,225.98625,24.605625)"
       id="g108"><path
         id="path110"
         style="fill:#e10025;fill-opacity:1;fill-rule:evenodd;stroke:none"
         d="m 0,0 c 0.078,0 0.148,0.005 0.148,0.099 0,0.075 -0.069,0.09 -0.132,0.09 H -0.11 V 0 Z m -0.11,-0.342 h -0.093 v 0.609 h 0.232 c 0.144,0 0.215,-0.053 0.215,-0.173 0,-0.109 -0.068,-0.157 -0.158,-0.168 L 0.259,-0.342 H 0.157 l -0.162,0.264 H -0.11 Z"
         inkscape:connector-curvature="0" /></g><g
       transform="matrix(1.25,0,0,-1.25,225.98762,25.202875)"
       id="g112"><path
         id="path114"
         style="fill:#e10025;fill-opacity:1;fill-rule:evenodd;stroke:none"
         d="M 0,0 C 0.239,0 0.427,0.187 0.427,0.442 0.427,0.691 0.239,0.88 0,0.88 -0.241,0.88 -0.43,0.691 -0.43,0.442 -0.43,0.187 -0.241,0 0,0 m -0.536,0.442 c 0,0.303 0.246,0.526 0.536,0.526 0.288,0 0.534,-0.223 0.534,-0.526 0,-0.307 -0.246,-0.53 -0.534,-0.53 -0.29,0 -0.536,0.223 -0.536,0.53"
         inkscape:connector-curvature="0" /></g><g
       transform="matrix(1.25,0,0,-1.25,46.97075,34.852125)"
       id="g116"><path
         id="path118"
         style="fill:#ff0000;fill-opacity:1;fill-rule:nonzero;stroke:none"
         d="m 0,0 -0.213,-0.577 h 0.162 z m -5.996,0.689 c -0.016,0 -0.029,-0.01 -0.04,-0.021 L -6.168,-0.02 v -0.01 c 0,-0.023 0.015,-0.041 0.04,-0.041 h 0.122 c 0.03,0 0.106,0.061 0.111,0.091 l 0.112,0.567 C -5.778,0.62 -5.834,0.689 -5.864,0.689 Z M 18.281,0.962 H 18.96 L 18.909,0.679 h -0.172 l -0.354,-2.006 h -0.324 l 0.354,2.006 h -0.182 z m -3.008,0 h 0.284 l 0.152,-1.195 0.223,1.195 h 0.324 L 15.83,-1.327 H 15.547 L 15.435,0 15.172,-1.327 h -0.334 z m -2.937,0 h 0.598 L 12.893,0.679 H 12.569 L 12.437,-0.03 h 0.314 l -0.04,-0.243 h -0.324 l -0.132,-0.77 h 0.324 l -0.05,-0.284 h -0.638 z m -3.676,0 h 0.374 l 0.061,-1.327 0.577,1.317 h 0.365 L 9.652,-1.327 H 9.369 L 9.551,-0.122 9.045,-1.327 H 8.842 L 8.781,-0.091 8.558,-1.327 H 8.234 Z m -3.353,0 H 5.591 L 5.743,-0.233 5.965,0.962 H 6.29 L 5.864,-1.327 H 5.571 L 5.469,0 5.206,-1.327 H 4.872 Z m -2.613,0 H 2.988 L 2.552,-1.327 H 2.269 Z M 0,0.962 H 0.385 L 0.263,-1.327 h -0.385 l 0.051,0.527 h -0.233 l -0.192,-0.527 h -0.345 z m -3.373,0 h 0.679 L -2.735,0.679 h -0.172 l -0.364,-2.006 h -0.324 l 0.354,2.006 h -0.182 z m -2.896,0 h 0.648 c 0.12,0 0.196,-0.106 0.172,-0.233 l -0.152,-0.81 C -5.618,-0.169 -5.772,-0.24 -5.854,-0.273 h 0.02 0.01 0.01 v -0.011 h 0.011 0.01 0.01 0.01 l 0.01,-0.01 h 0.01 0.01 0.01 v -0.01 h 0.011 0.01 v -0.01 h 0.01 c 0.013,-0.025 0.02,-0.097 0.02,-0.111 0,-0.014 -0.162,-0.902 -0.162,-0.902 h -0.294 c 0,0 0.157,0.798 0.162,0.831 0.003,0.035 -0.003,0.078 -0.01,0.111 -0.002,0.024 -0.003,0.066 -0.03,0.091 h -0.203 l -0.192,-1.033 h -0.294 z m -2.857,0 h 0.608 L -8.568,0.679 H -8.882 L -9.024,-0.03 h 0.314 l -0.041,-0.243 h -0.314 l -0.131,-0.77 h 0.314 l -0.041,-0.284 h -0.648 z m -2.947,0 h 0.669 l -0.041,-0.283 h -0.172 l -0.365,-2.006 h -0.324 l 0.355,2.006 h -0.183 z m -3.038,0 h 0.283 l 0.152,-1.195 0.223,1.195 h 0.334 l -0.435,-2.289 h -0.284 L -14.949,0 -15.213,-1.327 h -0.334 z m -2.796,0 h 0.598 L -17.35,0.679 h -0.324 l -0.131,-0.709 h 0.314 l -0.041,-0.243 h -0.324 l -0.122,-0.77 h 0.314 l -0.05,-0.284 h -0.648 z m 54.399,0.081 h 0.375 l 0.06,-1.316 0.578,1.306 0.364,0.01 -0.384,-2.279 h -0.284 l 0.182,1.206 -0.506,-1.206 H 36.674 L 36.613,0 36.391,-1.236 h -0.335 z m -2.502,0 h 0.608 L 34.547,0.77 H 34.233 L 34.092,0.051 h 0.324 l -0.051,-0.233 h -0.314 l -0.132,-0.77 h 0.314 l -0.04,-0.284 h -0.648 z m -2.653,0 h 0.678 L 31.965,0.77 h -0.173 l -0.354,-2.006 h -0.334 l 0.354,2.006 h -0.172 z m -2.36,0 h 0.01 0.01 0.01 0.01 0.01 0.446 c 0.12,0 0.204,-0.096 0.182,-0.223 L 29.544,0.253 h -0.273 l 0.06,0.375 C 29.345,0.713 29.295,0.78 29.21,0.78 29.125,0.78 29.041,0.713 29.027,0.628 l -0.05,-0.274 c -0.011,-0.016 0.013,-0.093 0.03,-0.101 0.036,-0.021 0.395,-0.614 0.395,-0.658 0.011,-0.022 0.01,-0.032 0.01,-0.041 -0.013,-0.074 -0.101,-0.577 -0.101,-0.577 -0.022,-0.116 -0.135,-0.213 -0.253,-0.213 h -0.436 c -0.118,0 -0.194,0.097 -0.172,0.213 l 0.101,0.577 h 0.294 l -0.071,-0.415 c -0.013,-0.085 0.039,-0.162 0.122,-0.162 0.084,0 0.165,0.077 0.182,0.162 l 0.061,0.334 c -0.055,0.14 -0.413,0.649 -0.436,0.77 -0.015,0.014 -0.022,0.087 -0.02,0.142 0.003,0.06 0.081,0.435 0.081,0.435 l 0.01,0.011 v 0.01 0.01 l 0.01,0.02 v 0.01 l 0.011,0.01 v 0.01 l 0.01,0.01 v 0.011 l 0.01,0.01 0.01,0.01 v 0.01 h 0.01 l 0.01,0.01 0.01,0.01 0.01,0.01 0.011,0.01 0.01,0.011 0.01,0.01 h 0.01 l 0.01,0.01 h 0.01 l 0.01,0.01 h 0.01 0.021 z m -3.312,0 h 0.365 l 0.05,-0.861 0.466,0.861 h 0.365 l -0.75,-1.316 -0.182,-0.963 h -0.324 l 0.162,1.033 z m -2.33,0 h 0.011 0.01 0.01 0.01 0.01 0.446 c 0.12,0 0.206,-0.096 0.182,-0.223 L 23.902,0.253 H 23.629 L 23.69,0.628 C 23.703,0.713 23.654,0.78 23.568,0.78 23.484,0.78 23.401,0.713 23.386,0.628 L 23.335,0.354 c -0.008,-0.016 0.017,-0.093 0.031,-0.101 0.037,-0.021 0.395,-0.614 0.395,-0.658 0.008,-0.022 0.013,-0.032 0.01,-0.041 C 23.76,-0.52 23.66,-1.023 23.66,-1.023 23.637,-1.139 23.525,-1.236 23.406,-1.236 h -0.425 c -0.118,0 -0.194,0.097 -0.172,0.213 l 0.101,0.577 h 0.294 l -0.071,-0.415 c -0.014,-0.085 0.036,-0.162 0.121,-0.162 0.082,0 0.169,0.077 0.183,0.162 l 0.06,0.334 c -0.054,0.14 -0.412,0.649 -0.435,0.77 -0.016,0.014 -0.022,0.087 -0.02,0.142 0.003,0.06 0.081,0.435 0.081,0.435 h 0.01 v 0.011 0.01 0.01 l 0.01,0.02 v 0.01 l 0.01,0.01 v 0.01 l 0.01,0.01 v 0.011 l 0.01,0.01 0.01,0.01 v 0.01 h 0.011 l 0.01,0.01 0.01,0.01 0.01,0.01 v 0.01 h 0.01 l 0.01,0.011 0.01,0.01 h 0.011 l 0.01,0.01 h 0.01 l 0.01,0.01 h 0.01 0.02 z M -19.163,-1.975 H 38.649 V 1.398 H -19.163 Z M 1.418,11.354 h 0.01 0.01 0.01 0.01 0.588 c 0.138,0 0.432,-0.316 0.405,-0.456 L 1.914,8.366 C 1.89,8.233 1.561,7.92 1.428,7.92 H 0.871 c -0.115,0 -0.194,0.076 -0.203,0.182 0,0.017 -0.002,0.041 0,0.061 l 0.598,3.11 0.01,0.01 0.01,0.01 0.021,0.01 h 0.01 l 0.01,0.01 0.01,0.01 h 0.01 l 0.01,0.01 h 0.01 l 0.021,0.011 h 0.01 0.01 0.01 z m -8.072,0 h 0.628 c 0.138,0 0.43,-0.316 0.405,-0.456 L -6.158,8.356 C -6.183,8.224 -6.361,7.92 -6.492,7.92 h -0.76 -0.01 -0.01 l -0.01,0.01 h -0.01 -0.01 -0.011 -0.01 v 0.011 h -0.01 -0.01 l -0.01,0.01 h -0.01 l -0.01,0.01 -0.01,0.01 h -0.011 v 0.01 l -0.01,0.01 -0.01,0.01 v 0.01 l -0.01,0.01 -0.01,0.011 v 0.01 0.01 l -0.01,0.01 v 0.01 0.01 l -0.01,0.01 v 0.01 c 0,0.017 -0.002,0.043 0,0.061 l 0.607,3.11 c 0.056,0.046 0.124,0.081 0.193,0.081 m 44.28,0.04 h 0.041 c 0.382,0 0.633,-0.306 0.567,-0.688 L 37.019,3.97 C 36.953,3.589 36.601,3.271 36.218,3.271 c -0.382,0 -0.541,0.317 -0.476,0.699 l 1.206,6.736 0.01,0.03 0.01,0.03 0.01,0.041 0.01,0.03 0.01,0.041 0.01,0.03 0.011,0.03 0.02,0.031 0.01,0.03 0.02,0.031 0.01,0.03 0.021,0.03 0.02,0.021 0.02,0.03 0.02,0.03 0.031,0.021 0.02,0.02 0.02,0.02 0.031,0.02 0.03,0.021 0.02,0.02 0.031,0.02 0.03,0.01 0.03,0.021 0.021,0.01 0.04,0.01 0.031,0.01 h 0.03 l 0.03,0.01 h 0.041 z m -5.216,0 h 0.598 c 0.382,0 0.643,-0.306 0.577,-0.688 L 32.309,3.97 C 32.242,3.588 31.871,3.271 31.489,3.271 h -0.588 z m 4.457,1.185 c -0.556,0 -1.086,-0.457 -1.185,-1.023 L 34.233,3.241 C 34.139,2.71 34.491,2.289 35.023,2.289 h 2.137 c 0.536,0 1.056,0.421 1.155,0.952 l 1.57,8.315 c 0.107,0.566 -0.256,1.023 -0.81,1.023 z m -5.561,0 -1.954,-10.29 h 2.957 c 0.537,0 1.055,0.421 1.155,0.952 l 1.569,8.315 c 0.107,0.567 -0.254,1.023 -0.81,1.023 z m -5.155,0 -1.955,-10.29 h 1.499 l 1.206,5.966 0.476,-5.966 h 1.296 l 1.955,10.29 h -1.499 l -1.003,-5.378 -0.668,5.378 z m -3.292,0 -2.025,-10.29 h 2.917 l 0.202,1.276 h -1.438 l 0.598,3.474 h 1.438 l 0.202,1.074 h -1.438 l 0.628,3.19 h 1.438 l 0.203,1.276 z m -3.565,0 -0.243,-1.276 h 0.81 l -1.6,-9.014 h 1.479 l 1.63,9.014 h 0.78 l 0.203,1.276 z m -5.023,0 -1.955,-10.29 h 1.499 l 1.205,5.966 0.476,-5.966 h 1.297 l 1.954,10.29 h -1.499 l -1.002,-5.378 -0.669,5.378 z m -1.975,0 -1.955,-10.29 h 1.296 l 1.955,10.29 z m -5.146,0 L 5.196,2.289 H 6.685 L 7.89,8.255 8.366,2.289 h 1.296 l 1.955,10.29 H 10.128 L 9.115,7.201 8.447,12.579 Z m -6.937,0 -1.945,-10.29 h 1.296 L 0.446,6.948 H 1.367 C 1.489,6.835 1.503,6.627 1.519,6.522 1.543,6.371 1.568,6.178 1.55,6.026 1.533,5.876 0.841,2.289 0.841,2.289 h 1.296 c 0,0 0.729,3.908 0.729,3.97 0.002,0.064 0,0.264 -0.071,0.375 C 2.748,6.705 2.667,6.868 2.573,6.928 2.392,7.044 2.188,7.12 2.188,7.12 H 2.097 c 0.37,0.146 1.07,0.387 1.144,0.78 l 0.709,3.656 c 0.108,0.567 -0.255,1.023 -0.81,1.023 z m -3.484,0 -2.026,-10.29 h 2.917 l 0.202,1.276 h -1.438 l 0.588,3.474 h 1.438 l 0.202,1.074 h -1.438 l 0.638,3.19 h 1.439 l 0.202,1.276 z m -4.629,0 -1.955,-10.29 h 1.297 l 0.891,4.659 h 1.651 c 0.537,0 1.046,0.424 1.144,0.952 l 0.709,3.656 c 0.107,0.567 -0.254,1.023 -0.81,1.023 h -1.631 z m -4.659,0 -1.62,-9.338 c -0.093,-0.531 0.266,-0.952 0.8,-0.952 h 1.934 c 0.536,0 1.056,0.421 1.155,0.952 l 1.732,9.338 h -1.216 l -1.651,-9.075 c -0.024,-0.131 -0.152,-0.243 -0.283,-0.243 h -0.962 c -0.135,0 -0.225,0.111 -0.203,0.243 l 1.61,9.075 z m -3.727,0 c -0.556,0 -1.096,-0.457 -1.195,-1.023 v -0.01 -0.01 -0.01 l -0.01,-0.01 v -0.021 -0.01 l -0.01,-0.02 v -0.02 l -0.011,-0.02 v -0.031 l -0.01,-0.02 v -0.03 l -0.01,-0.031 -0.01,-0.03 -0.01,-0.061 -0.02,-0.071 -0.011,-0.071 -0.02,-0.071 -0.01,-0.081 -0.02,-0.081 -0.021,-0.091 -0.02,-0.081 -0.03,-0.172 -0.02,-0.091 -0.021,-0.081 -0.01,-0.081 -0.02,-0.081 -0.02,-0.081 -0.01,-0.081 -0.01,-0.071 -0.021,-0.061 -0.01,-0.071 v -0.03 l -0.01,-0.021 v -0.03 -0.02 l -0.01,-0.031 v -0.02 -0.02 l -0.01,-0.02 V 9.602 9.591 c -0.011,-0.247 0.024,-0.585 0.101,-0.648 0.098,-0.545 1.916,-3.069 1.864,-3.453 -0.049,-0.386 -0.264,-1.52 -0.264,-1.52 -0.066,-0.382 -0.326,-0.689 -0.709,-0.689 -0.382,0 -0.643,0.306 -0.577,0.689 l 0.344,1.884 h -1.357 L -18.93,3.241 c -0.093,-0.531 0.267,-0.952 0.8,-0.952 h 1.935 c 0.536,0 1.046,0.421 1.145,0.952 0,0 0.498,2.441 0.496,2.613 -0.002,0.173 -0.051,0.192 -0.051,0.192 0,0.199 -1.617,2.869 -1.782,2.968 -0.071,0.042 -0.13,0.306 -0.132,0.466 -0.003,0.159 0.213,1.226 0.213,1.226 0.065,0.382 0.428,0.688 0.81,0.688 0.382,0 0.542,-0.306 0.476,-0.688 l -0.294,-1.692 h 1.367 l 0.477,2.542 c 0.107,0.566 -0.255,1.023 -0.811,1.023 z"
         inkscape:connector-curvature="0" /></g><path
       style="fill:#d40000;fill-opacity:1;fill-rule:nonzero;stroke:none"
       d="m 159.00457,81.057854 0,0 0,0 z"
       id="path3509"
       inkscape:connector-curvature="0" /><path
       style="fill:#d40000;fill-opacity:1;fill-rule:nonzero;stroke:none"
       d="m 159.00457,79.537071 0,0 0,0 z"
       id="path3511"
       inkscape:connector-curvature="0" /><path
       style="fill:#d40000;fill-opacity:1;fill-rule:nonzero;stroke:none"
       d="m 159.00457,78.040165 0,0 0,0 z"
       id="path3513"
       inkscape:connector-curvature="0" /><path
       style="fill:#d40000;fill-opacity:1;fill-rule:nonzero;stroke:none"
       d="m 159.00457,78.788614 0,0 0,0 z"
       id="path3515"
       inkscape:connector-curvature="0" /><path
       style="fill:#d40000;fill-opacity:1;fill-rule:nonzero;stroke:none"
       d="m 159.00457,81.806311 0,0 0,0 z"
       id="path3517"
       inkscape:connector-curvature="0" /><path
       style="fill:#d40000;fill-opacity:1;fill-rule:nonzero;stroke:none"
       d="m 159.00457,80.285519 0,0 0,0 z"
       id="path3519"
       inkscape:connector-curvature="0" /><path
       style="fill:#d40000;fill-opacity:1;fill-rule:nonzero;stroke:none"
       d="m 159.00457,77.291709 0,0 0,0 z"
       id="path3521"
       inkscape:connector-curvature="0" /></g></svg>