<?xml version="1.0" encoding="UTF-8" standalone="no"?>
<svg
   width="78"
   height="30"
   version="1.1"
   viewBox="0 0 78 30"
   id="svg4"
   xmlns="http://www.w3.org/2000/svg"
   xmlns:svg="http://www.w3.org/2000/svg">
  <defs
     id="defs8" />
  <path
     id="button_lt"
     style="fill:#ffffff;fill-opacity:0.25;stroke:#ffffff;stroke-width:1.44965;stroke-miterlimit:4;stroke-dasharray:none;stroke-opacity:1"
     d="M 0.72482408,0.72482408 V 15 A 16.58591,14.275176 0 0 0 17.311117,29.275176 H 60.688883 A 16.58591,14.275176 0 0 0 77.275176,15 V 0.72482408 Z" />
  <path
     id="button_rt"
     style="fill:#ffffff;fill-opacity:0.2;stroke:#ffffff;stroke-width:1.5;stroke-miterlimit:4;stroke-dasharray:none;stroke-opacity:1"
     d="m 25.970111,5.1152347 h 5.24804 c 2.17248,0 3.77583,0.492036 4.8125,1.474609 1.03666,0.982571 1.55469,2.48738 1.55469,4.5156253 0,2.352763 -0.80633,4.061298 -2.41992,5.124999 l 3.78711,8.654297 h -4.990229 l -3.029301,-7.464844 h -0.242189 v 7.464844 h -4.7207 z m 13.997278,0 h 12.062499 v 3.71875 h -3.67969 V 24.884765 h -4.70508 V 8.8339847 h -3.67773 z m -9.276578,3.664062 v 4.9902343 h 0.35156 c 0.62199,0 1.07213,-0.211086 1.35157,-0.634765 0.28847,-0.423677 0.43164,-1.063553 0.43164,-1.919922 0,-0.865386 -0.14785,-1.4885813 -0.44532,-1.8671873 -0.28846,-0.378606 -0.74322,-0.56836 -1.36523,-0.56836 z" />
</svg>
