<?xml version="1.0" encoding="UTF-8" standalone="no"?>
<svg
   width="52"
   height="38"
   version="1.1"
   viewBox="0 0 52 38"
   id="svg4"
   xmlns="http://www.w3.org/2000/svg"
   xmlns:svg="http://www.w3.org/2000/svg"
   xmlns:rdf="http://www.w3.org/1999/02/22-rdf-syntax-ns#"
   xmlns:cc="http://creativecommons.org/ns#"
   xmlns:dc="http://purl.org/dc/elements/1.1/">
  <metadata
     id="metadata10">
    <rdf:RDF>
      <cc:Work
         rdf:about="">
        <dc:format>image/svg+xml</dc:format>
        <dc:type
           rdf:resource="http://purl.org/dc/dcmitype/StillImage" />
      </cc:Work>
    </rdf:RDF>
  </metadata>
  <defs
     id="defs8" />
  <path
     id="path4749"
     style="opacity:1;fill:#ffffff;fill-opacity:1;stroke:none;stroke-width:2.5479;stroke-linecap:round;stroke-linejoin:round;stroke-miterlimit:4;stroke-dasharray:none;stroke-opacity:1;paint-order:stroke fill markers"
     d="m 11.707572,9.697713 h 28.584855 c 0.16527,0 0.320661,0.03845 0.451993,0.119207 0.131331,0.08077 0.254971,0.229601 0.254971,0.422192 v 2.331159 c 0,0.192591 -0.12364,0.339773 -0.254971,0.420536 -0.131332,0.08077 -0.286723,0.117551 -0.451993,0.117551 H 11.707572 c -0.165269,0 -0.319006,-0.03679 -0.450337,-0.117551 -0.131331,-0.08077 -0.256626,-0.227945 -0.256626,-0.420536 v -2.331159 c 0,-0.192591 0.125295,-0.341428 0.256626,-0.422192 0.131331,-0.08077 0.285068,-0.119207 0.450337,-0.119207 z m 0,7.599448 h 28.584855 c 0.16527,0 0.320661,0.03679 0.451993,0.11755 0.131331,0.08077 0.254971,0.227944 0.254971,0.420536 v 2.33116 c 0,0.192589 -0.12364,0.339772 -0.254971,0.420536 -0.131332,0.08077 -0.286723,0.119207 -0.451993,0.119207 H 11.707572 c -0.165269,0 -0.319006,-0.03845 -0.450337,-0.119207 -0.131331,-0.08076 -0.256626,-0.227947 -0.256626,-0.420536 v -2.331159 c 0,-0.192593 0.125295,-0.339772 0.256626,-0.420536 0.131331,-0.08077 0.285068,-0.117551 0.450337,-0.117551 z m 0,7.596137 h 28.584855 c 0.16527,0 0.320661,0.03679 0.451993,0.117551 0.131331,0.08077 0.254971,0.227947 0.254971,0.420536 v 2.332816 c 0,0.19259 -0.12364,0.338115 -0.254971,0.41888 -0.131332,0.08077 -0.286723,0.119206 -0.451993,0.119206 H 11.707572 c -0.165269,0 -0.319006,-0.03844 -0.450337,-0.119206 -0.131331,-0.08077 -0.256626,-0.22629 -0.256626,-0.41888 v -2.332816 c 0,-0.192589 0.125295,-0.339772 0.256626,-0.420536 0.131331,-0.08076 0.285068,-0.117551 0.450337,-0.117551 z" />
  <rect
     style="fill:#ffffff;fill-opacity:0.25;fill-rule:evenodd;stroke:#ffffff;stroke-width:1.7269;stroke-linecap:square;stroke-miterlimit:4;stroke-dasharray:none;paint-order:markers stroke fill;stop-color:#000000"
     id="rect958"
     width="50.273098"
     height="36.273098"
     x="0.863451"
     y="0.863451"
     rx="8.8424253"
     ry="8.8422565" />
</svg>
