<?xml version="1.0" encoding="UTF-8" standalone="no"?>
<svg
   width="52"
   height="52"
   version="1.1"
   viewBox="0 0 52 52"
   id="svg4"
   xmlns="http://www.w3.org/2000/svg"
   xmlns:svg="http://www.w3.org/2000/svg">
  <defs
     id="defs8" />
  <circle
     style="fill:#ffffff;fill-opacity:0.25;fill-rule:evenodd;stroke:#ffffff;stroke-width:1.735;stroke-linecap:square;stroke-miterlimit:4;stroke-dasharray:none;paint-order:markers stroke fill;stop-color:#000000"
     id="path949"
     cx="26"
     cy="26"
     r="25.13261" />
  <path
     id="button_b"
     d="m 17.230469,11.722656 v 28.554688 h 9.160156 c 2.552083,-0.02604 4.583333,-0.781249 6.09375,-2.265625 1.523437,-1.497395 2.285156,-3.561197 2.285156,-6.191406 0,-1.692708 -0.32552,-3.072916 -0.976562,-4.140625 -0.63802,-1.080729 -1.653646,-1.888021 -3.046875,-2.421875 1.002604,-0.377604 1.770833,-0.989584 2.304687,-1.835938 0.78125,-1.184896 1.171875,-2.604166 1.171875,-4.257812 0,-2.591146 -0.722656,-4.479167 -2.167968,-5.664063 -1.445313,-1.184896 -3.756511,-1.777344 -6.933594,-1.777344 z m 6.503906,5.292969 h 1.347656 c 0.807292,0 1.393229,0.221355 1.757813,0.664063 0.377604,0.442709 0.566406,1.171875 0.566406,2.1875 0,1.002604 -0.16276,1.757813 -0.488281,2.265625 -0.32552,0.494792 -0.872396,0.742187 -1.640625,0.742187 h -1.542969 z m 0,10.996094 h 1.699219 c 1.614583,0 2.421875,1.10026 2.421875,3.300781 0,2.408854 -0.78125,3.613281 -2.34375,3.613281 h -1.777344 z"
     style="fill:#ffffff;fill-opacity:0.25;stroke:#ffffff;stroke-width:1.735;stroke-miterlimit:4;stroke-dasharray:none;stroke-opacity:0.998283" />
</svg>
