<?xml version="1.0" encoding="UTF-8" standalone="no"?>
<svg
   xmlns:dc="http://purl.org/dc/elements/1.1/"
   xmlns:cc="http://creativecommons.org/ns#"
   xmlns:rdf="http://www.w3.org/1999/02/22-rdf-syntax-ns#"
   xmlns:svg="http://www.w3.org/2000/svg"
   xmlns="http://www.w3.org/2000/svg"
   xmlns:sodipodi="http://sodipodi.sourceforge.net/DTD/sodipodi-0.dtd"
   xmlns:inkscape="http://www.inkscape.org/namespaces/inkscape"
   viewBox="0 0 176.331 439.301"
   version="1.1"
   id="svg42"
   sodipodi:docname="controller.svg"
   inkscape:version="0.92.5 (2060ec1f9f, 2020-04-08)">
  <metadata
     id="metadata48">
    <rdf:RDF>
      <cc:Work
         rdf:about="">
        <dc:format>image/svg+xml</dc:format>
        <dc:type
           rdf:resource="http://purl.org/dc/dcmitype/StillImage" />
      </cc:Work>
    </rdf:RDF>
  </metadata>
  <defs
     id="defs46" />
  <sodipodi:namedview
     pagecolor="#ffffff"
     bordercolor="#666666"
     borderopacity="1"
     objecttolerance="10"
     gridtolerance="10"
     guidetolerance="10"
     inkscape:pageopacity="0"
     inkscape:pageshadow="2"
     inkscape:window-width="3840"
     inkscape:window-height="2065"
     id="namedview44"
     showgrid="false"
     inkscape:zoom="2.1994829"
     inkscape:cx="18.24513"
     inkscape:cy="154.89006"
     inkscape:window-x="0"
     inkscape:window-y="0"
     inkscape:window-maximized="1"
     inkscape:current-layer="svg42" />
  <circle
     style="fill:#231f20"
     r="83.222"
     cx="3.5126698"
     cy="122.49534"
     transform="rotate(-45.001)"
     id="ellipse2" />
  <path
     style="fill:#38383a"
     inkscape:connector-curvature="0"
     d="M 89.104,161.2383 106,144.9153 h -8.253 v -18.674 H 80.461 v 18.674 h -8.252 z m 54.523,-22.584 0.405,-23.489 -5.836,5.836 -13.204,-13.205 -12.223,12.223 13.204,13.205 -5.835,5.835 z m 22.584,-54.521995 -16.323,-16.896 v 8.252 h -18.674 v 17.287 h 18.674 v 8.251995 z m -22.584,-54.523 -23.488,-0.405 5.835,5.835 -13.205,13.205 12.223,12.223 13.205,-13.204 5.835,5.835 z M 89.105,7.0253046 72.21,23.347305 h 8.252 v 18.675 h 17.286 v -18.674 l 8.252,-0.001 z m -54.522,22.5830004 -0.406,23.489 5.835,-5.835 13.205,13.205 12.224,-12.223 -13.205,-13.205 5.835,-5.835 z m -22.585,54.522 16.322,16.895995 v -8.251995 h 18.675 v -17.286 H 28.321 v -8.252 z m 22.583,54.522995 23.489,0.405 -5.835,-5.835 13.205,-13.204 -12.223,-12.224 -13.205,13.205 -5.835,-5.835 z"
     id="path4" />
  <path
     style="fill:#6d6e70"
     inkscape:connector-curvature="0"
     d="M 88.166,167.3423 C 42.637,166.8383 5.882,129.7803 5.882,84.132305 c 0,-45.648 36.754,-82.7060003 82.284,-83.21000035 -0.313,-0.005 -0.625,-0.013 -0.939,-0.013 -45.962,0 -83.222,37.26000035 -83.222,83.22200035 0,45.961995 37.26,83.221995 83.222,83.221995 0.314,0 0.626,-0.008 0.939,-0.011 z"
     id="path6" />
  <circle
     style="fill:#9e9e9b"
     r="28.159"
     cx="-61.383038"
     cy="106.01863"
     transform="rotate(-76.691)"
     id="ellipse8" />
  <circle
     style="fill:#565656"
     cx="89.040001"
     cy="84.131302"
     r="22.436001"
     id="circle10" />
  <path
     style="fill:#c9c9c7"
     inkscape:connector-curvature="0"
     d="m 117.022,84.196305 c 0,-15.49 -12.557,-28.047 -28.047,-28.047 -15.49,0 -28.047,12.557 -28.047,28.047 0,15.49 12.557,28.046995 28.047,28.046995 15.49,0 28.047,-12.556995 28.047,-28.046995 z m -54.584,-0.346 c 0,-14.847 12.036,-26.883 26.883,-26.883 14.847,0 26.883,12.036 26.883,26.883 0,14.847 -12.036,26.882995 -26.883,26.882995 -14.847,0 -26.883,-12.035995 -26.883,-26.882995 z"
     id="path12" />
  <path
     style="fill:#9a9a9b"
     inkscape:connector-curvature="0"
     d="m 60.929,84.195305 c 0,15.49 12.556,28.046995 28.047,28.046995 15.49,0 28.047,-12.556995 28.047,-28.046995 0,-15.49 -12.557,-28.047 -28.047,-28.047 -15.491,10e-4 -28.047,12.558 -28.047,28.047 z m 54.583,0.346 c 0,14.847 -12.036,26.882995 -26.883,26.882995 -14.847,0 -26.883,-12.035995 -26.883,-26.882995 0,-14.846 12.036,-26.883 26.883,-26.883 14.847,0.001 26.883,12.037 26.883,26.883 z"
     id="path14" />
  <circle
     cx="110.354"
     cy="84.545303"
     r="38.358002"
     id="circle16"
     style="fill:#fccd0a;fill-opacity:1" />
  <circle
     cx="143.166"
     cy="321.85"
     fill="#f7e555"
     r="33.166"
     id="circle18"
     style="fill:#fde276;fill-opacity:1" />
  <circle
     cx="143.166"
     cy="321.85"
     fill="#e0d04d"
     r="26.533"
     id="circle20"
     style="fill:#f5c603;fill-opacity:1" />
  <circle
     cx="113.166"
     cy="237.564"
     fill="#f7e555"
     r="33.166"
     id="circle22"
     style="fill:#fde276;fill-opacity:1" />
  <circle
     cx="113.166"
     cy="237.564"
     fill="#e0d04d"
     r="26.533"
     id="circle24"
     style="fill:#f5c603;fill-opacity:1" />
  <circle
     cx="113.166"
     cy="406.135"
     fill="#f7e555"
     r="33.166"
     id="circle26"
     style="fill:#fde276;fill-opacity:1" />
  <circle
     cx="113.166"
     cy="406.135"
     fill="#e0d04d"
     r="26.533"
     id="circle28"
     style="fill:#f5c603;fill-opacity:1" />
  <circle
     cx="63.166"
     cy="321.85"
     fill="#f7e555"
     r="33.166"
     id="circle30"
     style="fill:#fde276;fill-opacity:1" />
  <circle
     cx="63.166"
     cy="321.85"
     fill="#e0d04d"
     r="26.533"
     id="circle32"
     style="fill:#f5c603;fill-opacity:1" />
  <circle
     cx="33.166"
     cy="237.564"
     fill="#f7e555"
     r="33.166"
     id="circle34"
     style="fill:#fde276;fill-opacity:1" />
  <circle
     cx="33.166"
     cy="237.564"
     fill="#e0d04d"
     r="26.533"
     id="circle36"
     style="fill:#f5c603;fill-opacity:1" />
  <circle
     cx="33.166"
     cy="406.135"
     fill="#f7e555"
     r="33.166"
     id="circle38"
     style="fill:#fde276;fill-opacity:1" />
  <circle
     cx="33.166"
     cy="406.135"
     fill="#e0d04d"
     r="26.533"
     id="circle40"
     style="fill:#f5c603;fill-opacity:1" />
</svg>
