<?xml version="1.0" encoding="UTF-8" standalone="no"?>
<svg
        xmlns:dc="http://purl.org/dc/elements/1.1/"
        xmlns:cc="http://creativecommons.org/ns#"
        xmlns:rdf="http://www.w3.org/1999/02/22-rdf-syntax-ns#"
        xmlns:svg="http://www.w3.org/2000/svg"
        xmlns="http://www.w3.org/2000/svg"
        xmlns:sodipodi="http://sodipodi.sourceforge.net/DTD/sodipodi-0.dtd"
        xmlns:inkscape="http://www.inkscape.org/namespaces/inkscape"
        version="1.1"
        id="Capa_1"
        x="0px"
        y="0px"
        viewBox="0 0 499.99998 499.99998"
        xml:space="preserve"
        sodipodi:docname="classic.svg"
        width="500"
        height="500"
        fill="#FE7269"
        inkscape:version="1.0.2 (e86c870879, 2021-01-15)"><metadata
   id="metadata39"><rdf:RDF><cc:Work
       rdf:about=""><dc:format>image/svg+xml</dc:format><dc:type
        rdf:resource="http://purl.org/dc/dcmitype/StillImage"/><dc:title></dc:title></cc:Work></rdf:RDF></metadata>
    <defs
            id="defs37"/>
    <sodipodi:namedview
            pagecolor="#ffffff"
            bordercolor="#666666"
            borderopacity="1"
            objecttolerance="10"
            gridtolerance="10"
            guidetolerance="10"
            inkscape:pageopacity="0"
            inkscape:pageshadow="2"
            inkscape:window-width="3440"
            inkscape:window-height="1355"
            id="namedview35"
            showgrid="false"
            inkscape:zoom="1.4981194"
            inkscape:cx="238.63251"
            inkscape:cy="238.63251"
            inkscape:window-x="2560"
            inkscape:window-y="0"
            inkscape:window-maximized="1"
            inkscape:current-layer="Capa_1"/>
    <path
            d="m 373.401,207.5105 h -80.609 v -8.119 c 0,-6.315 -5.117,-11.438 -11.432,-11.438 h -15.443 v -45.881 c 0,-26.564 21.618,-48.182 48.182,-48.182 h 94.358 c 8.802,0 15.926,-7.131 15.926,-15.926 0,-8.795 -7.124,-15.926 -15.926,-15.926 h -94.358 c -44.139,0 -80.034,35.903 -80.034,80.034 v 45.881 h -15.443 c -6.315,0 -11.432,5.123 -11.432,11.438 v 8.119 h -80.609 c -63.625,0 -115.214,51.595 -115.214,115.221 0,63.642 51.589,115.23 115.214,115.23 44.403,0 82.88,-25.149 102.119,-61.939 h 42.599 c 19.238,36.79 57.716,61.939 102.103,61.939 63.642,0 115.231,-51.589 115.231,-115.23 -10e-4,-63.626 -51.59,-115.221 -115.232,-115.221 z m -191.235,126.949 c 0,4.525 -3.671,8.188 -8.181,8.188 h -27.496 v 27.49 c 0,4.518 -3.671,8.181 -8.181,8.181 h -23.454 c -4.51,0 -8.18,-3.663 -8.18,-8.181 v -27.49 H 79.176 c -4.51,0 -8.181,-3.663 -8.181,-8.188 v -23.438 c 0,-4.526 3.671,-8.189 8.181,-8.189 h 27.498 v -27.488 c 0,-4.526 3.669,-8.189 8.18,-8.189 h 23.454 c 4.51,0 8.181,3.663 8.181,8.189 v 27.488 h 27.496 c 4.51,0 8.181,3.663 8.181,8.189 z m 151.405,6.166 c -9.876,0 -17.885,-8.017 -17.885,-17.901 0,-9.869 8.009,-17.886 17.885,-17.886 9.892,0 17.902,8.017 17.902,17.886 0,9.884 -8.011,17.901 -17.902,17.901 z m 36.892,36.891 c -9.877,0 -17.886,-8.009 -17.886,-17.894 0,-9.884 8.009,-17.893 17.886,-17.893 9.89,0 17.901,8.009 17.901,17.893 0,9.885 -8.011,17.894 -17.901,17.894 z m 0,-73.782 c -9.877,0 -17.886,-8.011 -17.886,-17.894 0,-9.884 8.009,-17.893 17.886,-17.893 9.89,0 17.901,8.009 17.901,17.893 0,9.884 -8.011,17.894 -17.901,17.894 z m 36.891,36.891 c -9.877,0 -17.886,-8.017 -17.886,-17.901 0,-9.869 8.009,-17.886 17.886,-17.886 9.892,0 17.901,8.017 17.901,17.886 0,9.884 -8.009,17.901 -17.901,17.901 z"
            id="path2"/>
    <g
            id="g4">
</g>
    <g
            id="g6">
</g>
    <g
            id="g8">
</g>
    <g
            id="g10">
</g>
    <g
            id="g12">
</g>
    <g
            id="g14">
</g>
    <g
            id="g16">
</g>
    <g
            id="g18">
</g>
    <g
            id="g20">
</g>
    <g
            id="g22">
</g>
    <g
            id="g24">
</g>
    <g
            id="g26">
</g>
    <g
            id="g28">
</g>
    <g
            id="g30">
</g>
    <g
            id="g32">
</g>
</svg>
