<?xml version="1.0" encoding="UTF-8" standalone="no"?>
<svg
        xmlns:dc="http://purl.org/dc/elements/1.1/"
        xmlns:cc="http://creativecommons.org/ns#"
        xmlns:rdf="http://www.w3.org/1999/02/22-rdf-syntax-ns#"
        xmlns:svg="http://www.w3.org/2000/svg"
        xmlns="http://www.w3.org/2000/svg"
        xmlns:sodipodi="http://sodipodi.sourceforge.net/DTD/sodipodi-0.dtd"
        xmlns:inkscape="http://www.inkscape.org/namespaces/inkscape"
        version="1.0"
        width="500pt"
        height="500pt"
        viewBox="0 0 500.00001 499.99999"
        preserveAspectRatio="xMidYMid meet"
        id="svg10"
        sodipodi:docname="joycon-pair.svg"
        inkscape:version="1.0.2 (e86c870879, 2021-01-15)">
    <defs
            id="defs14"/>
    <sodipodi:namedview
            pagecolor="#ffffff"
            bordercolor="#666666"
            borderopacity="1"
            objecttolerance="10"
            gridtolerance="10"
            guidetolerance="10"
            inkscape:pageopacity="0"
            inkscape:pageshadow="2"
            inkscape:window-width="2168"
            inkscape:window-height="1351"
            id="namedview12"
            showgrid="false"
            fit-margin-top="0"
            fit-margin-left="0"
            fit-margin-right="0"
            fit-margin-bottom="0"
            inkscape:zoom="1.0473633"
            inkscape:cx="474.83026"
            inkscape:cy="432.43598"
            inkscape:window-x="3057"
            inkscape:window-y="52"
            inkscape:window-maximized="0"
            inkscape:current-layer="svg10"
            inkscape:document-rotation="0"/>
    <metadata
            id="metadata2">
        Created by potrace 1.15, written by Peter Selinger 2001-2017
        <rdf:RDF>
            <cc:Work
                    rdf:about="">
                <dc:format>image/svg+xml</dc:format>
                <dc:type
                        rdf:resource="http://purl.org/dc/dcmitype/StillImage"/>
                <dc:title></dc:title>
            </cc:Work>
        </rdf:RDF>
    </metadata>
    <path
            d="M 108.39966,31.297143 C 99.760804,31.639276 96.082876,32.323541 87.529556,35.146137 77.522172,38.481931 66.744986,44.554788 57.293568,52.167243 45.361687,61.832494 34.584504,75.475039 31.205943,85.225824 l -1.240232,3.549627 0.898099,0.983633 c 0.470432,0.513199 1.411297,1.069164 2.052797,1.197464 l 1.197464,0.2566 -1.282998,3.506861 c -1.838963,4.918159 -3.121961,9.793551 -4.27666,15.823641 l -0.983631,5.21753 -0.1283,133.43178 c -0.08553,92.88906 0,134.88586 0.342133,138.26442 2.993662,31.56176 22.195865,59.06068 50.678422,72.61769 5.859024,2.77984 10.56335,4.44774 17.363239,6.11563 9.536954,2.39493 13.428714,2.60876 44.306204,2.60876 h 27.92659 v -9.66525 -9.66526 l 1.24022,1.32576 c 1.06916,1.11194 1.53961,1.32577 3.3358,1.32577 2.48046,0 5.94455,1.83896 7.44138,3.93453 0.85534,1.19746 1.02641,2.01003 1.15471,5.9018 0.0855,2.48046 0.29936,4.61879 0.47043,4.83262 0.17107,0.17107 2.1811,-0.2566 4.49049,-0.98363 15.18215,-4.66156 27.84106,-17.32048 33.14412,-33.14412 2.52322,-7.56969 2.60876,-8.80992 2.60876,-43.5364 v -31.51899 h 3.37856 c 2.73706,0 3.54963,-0.17106 4.49049,-0.89809 l 1.11193,-0.85533 v -29.03853 -29.03852 l -1.11193,-0.85533 c -0.94086,-0.72703 -1.75343,-0.89809 -4.49049,-0.89809 h -3.37856 v -57.09342 -57.09341 h 3.63516 c 5.94456,0 5.34582,3.3358 5.34582,-30.70641 0,-27.11404 -0.0427,-29.0813 -0.72703,-29.7228 -0.55597,-0.47043 -1.83896,-0.68426 -4.40496,-0.81256 l -3.63515,-0.1283 -0.25661,-20.1003 -0.21384,-20.100302 -1.19746,-4.404959 C 215.01679,55.460271 200.17678,41.26176 179.69158,36.814034 c -3.67793,-0.769799 -6.03009,-0.898099 -20.69904,-1.111932 l -16.59344,-0.256599 0.2566,-1.582364 c 0.42766,-2.694296 0.0856,-2.779829 -14.15574,-2.822596 -6.79989,-0.04277 -15.86641,0.08553 -20.1003,0.2566 z m 47.89858,45.974093 v 2.993662 h -11.11931 -11.11931 l -0.12831,-2.480462 c -0.0855,-1.496831 0.0855,-2.737063 0.38491,-3.121962 0.42766,-0.513199 2.35216,-0.598733 11.24761,-0.513199 l 10.73441,0.1283 z m -47.34262,34.256044 c 19.03114,3.89176 30.87748,23.0512 25.70273,41.6119 -4.02006,14.66895 -17.02111,24.50526 -32.24602,24.50526 -13.385943,0 -24.590792,-7.14202 -30.321517,-19.37326 -4.362194,-9.19483 -4.233894,-19.58711 0.342133,-28.78192 6.79989,-13.59978 21.810966,-20.99841 36.522674,-17.96198 z m -3.67793,104.56434 c 6.50053,1.41129 11.16208,6.15839 12.35955,12.70168 1.19746,6.28669 -2.56599,13.42871 -8.46778,16.20854 -9.408656,4.36219 -19.80094,-0.8981 -21.93927,-11.11931 -1.582365,-7.78353 3.635161,-15.65259 11.760814,-17.66261 2.779826,-0.711 3.549626,-0.68427 6.286686,-0.1283 z m -30.022148,33.99945 c 2.993661,1.32576 6.457756,4.74709 7.826287,7.74075 0.727033,1.6679 0.940866,2.86537 0.940866,6.11563 0,3.50686 -0.171067,4.40495 -1.111931,6.45775 -1.539599,3.25026 -3.681268,5.51689 -6.885423,7.27032 -2.565997,1.36853 -2.90813,1.45407 -6.970958,1.45407 -3.720694,0 -4.576026,-0.12831 -6.714356,-1.15471 -3.121961,-1.45405 -5.859024,-4.19112 -7.441389,-7.44138 -1.069164,-2.22386 -1.240231,-2.99366 -1.240231,-6.37222 0,-3.29304 0.171067,-4.19113 1.154698,-6.28669 3.720695,-7.95459 12.573381,-11.33316 20.442437,-7.78352 z m 66.972488,-0.0856 c 3.2075,1.45407 5.94456,4.14836 7.56969,7.48416 1.24023,2.566 1.36854,3.16472 1.36854,6.67159 -0.0427,3.33579 -0.21383,4.19112 -1.283,6.37222 -1.5396,3.25026 -4.27666,5.98733 -7.39862,7.44139 -2.13833,1.02639 -2.9509,1.1547 -6.71436,1.1547 -3.59239,0 -4.57602,-0.17107 -6.28669,-1.0264 -3.03642,-1.45407 -5.55966,-3.93453 -7.22756,-6.97096 -1.36853,-2.56599 -1.45406,-2.90813 -1.45406,-6.97095 0,-3.76347 0.1283,-4.53326 1.1547,-6.62883 2.01003,-4.10559 6.07286,-7.44138 10.47781,-8.55331 2.52324,-0.59874 7.27033,-0.12831 9.79355,1.02639 z m -34.25604,34.25605 c 3.03643,1.45406 5.81626,4.27666 7.35586,7.39862 1.06916,2.13833 1.19746,2.90813 1.19746,6.50053 0,3.50686 -0.17107,4.40495 -1.1547,6.50052 -1.45406,3.12196 -4.40496,6.07286 -7.52692,7.52691 -2.09556,0.98364 -2.99366,1.15471 -6.50052,1.15471 -3.592397,0 -4.362196,-0.12831 -6.500525,-1.19747 -3.164729,-1.5396 -5.944558,-4.31943 -7.484156,-7.48415 -1.069164,-2.13833 -1.197464,-2.90814 -1.197464,-6.50052 0,-3.54964 0.1283,-4.3622 1.154698,-6.415 2.01003,-4.10559 6.115623,-7.52692 10.349517,-8.59609 2.60876,-0.68426 7.82629,-0.12829 10.30675,1.11194 z m 29.55172,50.29352 1.24023,1.283 0.1283,9.28035 c 0.17107,10.13568 -0.0855,11.88911 -1.9245,13.30041 -1.0264,0.85533 -1.66789,0.8981 -11.33314,0.8981 -6.20116,0 -10.56335,-0.17107 -11.07655,-0.42767 -1.88173,-1.0264 -2.09557,-2.35216 -2.09557,-13.04381 v -10.13568 l 1.24023,-1.24024 1.24024,-1.24022 h 10.64888 10.64888 z"
            id="path4"
            style="fill:#ff5130;stroke:none;stroke-width:0.0427666"/>
    <path
            d="m 359.02725,31.254376 c -2.18109,0.3849 -2.73705,1.069165 -2.43769,2.865362 l 0.21383,1.368531 -16.123,0.213833 c -17.66261,0.213833 -20.57074,0.513199 -27.58446,2.865363 -7.61246,2.565995 -14.41234,6.799889 -20.2286,12.616146 -7.56969,7.526922 -12.01742,15.609809 -14.62618,26.515292 -0.55596,2.480462 -0.72703,6.457756 -0.94086,22.880127 l -0.2566,19.88647 -3.63517,0.1283 c -2.56599,0.1283 -3.84899,0.34213 -4.36219,0.81256 -0.72703,0.6415 -0.7698,2.60876 -0.7698,29.68002 v 28.99576 l 0.94087,0.89809 c 0.76979,0.72704 1.49683,0.85534 4.49049,0.85534 h 3.54963 v 57.09341 57.09342 h -3.37856 c -2.73706,0 -3.54963,0.17106 -4.4905,0.89809 l -1.11193,0.85533 v 29.03852 29.03853 l 1.11193,0.85533 c 0.94087,0.72703 1.75344,0.89809 4.4905,0.89809 h 3.3358 l 0.12829,33.27242 0.1283,33.22965 1.4113,5.13199 c 4.66156,17.406 17.87644,31.56176 34.12775,36.56545 2.26662,0.72703 4.27666,1.283 4.49049,1.283 0.21384,0 0.38489,-1.88173 0.38489,-4.19113 0,-3.50686 0.17107,-4.4905 0.98364,-6.07287 1.283,-2.60876 4.74709,-4.70432 7.69799,-4.70432 1.71066,0 2.26663,-0.21383 3.33579,-1.24023 l 1.24024,-1.24023 v 9.57972 9.62249 l 30.70641,-0.17107 c 29.08129,-0.17106 30.92025,-0.21383 35.45351,-1.06916 25.31783,-4.78986 45.88856,-18.26135 59.61661,-38.96038 6.97095,-10.47782 11.37591,-21.6399 13.77084,-34.81202 l 0.94087,-5.21752 V 252.82812 c 0,-108.84099 -0.1283,-136.55374 -0.55597,-139.63294 -0.76979,-5.43136 -2.52322,-12.57338 -4.19112,-17.23494 -0.81257,-2.181096 -1.45407,-4.148359 -1.45407,-4.362192 0,-0.213834 0.47043,-0.5132 1.0264,-0.684266 0.55597,-0.1283 1.45407,-0.684265 1.96726,-1.240232 l 0.8981,-0.940865 -1.06916,-3.121962 C 464.10476,73.764376 451.10375,58.3684 436.4348,47.976116 425.27272,40.064295 413.46914,34.804004 401.49449,32.366308 c -4.83263,-0.983632 -6.24392,-1.069165 -22.88013,-1.240232 -9.75078,-0.1283 -18.60347,-0.08553 -19.58711,0.1283 z m -1.71066,39.259738 0.1283,4.191127 3.849,0.213833 3.84899,0.213832 v 2.993663 2.993661 l -3.93453,0.1283 -3.93453,0.1283 -0.12829,3.506861 -0.1283,3.506862 -2.73707,0.1283 c -1.92449,0.08553 -2.86536,-0.04277 -3.07919,-0.427667 -0.21384,-0.299366 -0.3849,-1.924497 -0.3849,-3.635161 V 81.37683 l -3.7207,-0.1283 -3.76345,-0.1283 -0.12831,-3.121961 -0.12829,-3.079195 h 3.89176 3.84899 V 70.94178 c 0,-2.223863 0.1283,-4.14836 0.29937,-4.27666 0.12829,-0.171067 1.58236,-0.299366 3.16472,-0.299366 h 2.90813 z m 47.04327,26.558058 c 8.76714,4.319428 11.41867,15.224908 5.55965,22.965668 -4.49049,5.98732 -12.35955,7.82628 -19.07391,4.53326 -9.15205,-4.4905 -11.46145,-16.42238 -4.66155,-23.99207 1.79619,-2.010027 4.70433,-3.891757 7.39862,-4.74709 0.59873,-0.213833 2.60876,-0.299366 4.4905,-0.256599 2.90812,0.08553 3.89176,0.299366 6.28669,1.496831 z m -33.74285,33.357948 c 3.20749,1.49683 5.94455,4.19112 7.48415,7.35585 1.0264,2.09557 1.1547,2.86536 1.1547,6.62883 0,4.06282 -0.0855,4.40496 -1.45407,6.97095 -1.6679,3.0792 -3.76345,5.13199 -6.97095,6.79989 -2.0528,1.06917 -2.6943,1.19747 -6.54329,1.19747 -3.76346,0 -4.57602,-0.1283 -6.71435,-1.15471 -3.12197,-1.45405 -5.85903,-4.19112 -7.4414,-7.44138 -1.06916,-2.22386 -1.24022,-2.99366 -1.24022,-6.37222 0,-3.3358 0.17106,-4.19113 1.24022,-6.50052 1.88173,-4.14837 6.03009,-7.56969 10.39229,-8.68163 2.82259,-0.68426 7.18479,-0.17106 10.09292,1.19747 z m 66.80142,-0.17107 c 3.25026,1.45407 5.94456,4.14836 7.61246,7.48416 1.24023,2.566 1.36853,3.16472 1.36853,6.67159 -0.0427,3.33579 -0.21383,4.19112 -1.283,6.37222 -1.53959,3.25026 -4.27666,5.98733 -7.39862,7.44138 -2.13833,1.02641 -2.9509,1.15471 -6.71435,1.15471 -3.849,0 -4.4905,-0.1283 -6.54329,-1.19747 -3.2075,-1.6679 -5.30306,-3.72069 -6.97096,-6.79989 -1.36853,-2.56599 -1.45406,-2.90813 -1.45406,-6.97095 0,-3.80623 0.12829,-4.53326 1.19746,-6.71436 3.72069,-7.56968 12.70168,-10.86272 20.18583,-7.44139 z m -36.39438,32.54539 c 2.48047,0.42766 5.3886,2.01003 7.48416,4.10559 6.07286,6.07286 6.07286,15.65258 0,21.72543 -3.59239,3.54963 -8.72438,5.21753 -13.38594,4.31943 -5.3886,-1.06917 -9.23759,-4.02006 -11.50422,-8.89545 -1.15469,-2.43771 -1.32576,-3.3358 -1.32576,-6.28669 0,-2.9509 0.17107,-3.849 1.32576,-6.28669 2.26663,-4.78987 6.37222,-7.99736 11.33315,-8.85269 2.26663,-0.3849 2.82259,-0.34214 6.07285,0.17107 z m 4.31943,69.36742 c 7.4414,1.62513 14.84002,6.50052 19.24497,12.74445 6.71436,9.45141 8.29672,20.3569 4.53326,31.04855 -1.75343,4.96092 -3.67792,7.86905 -8.16842,12.35954 -3.46409,3.50686 -4.66155,4.40496 -8.12565,6.07286 -5.90179,2.90813 -8.55332,3.50686 -15.18214,3.50686 -6.58606,0 -9.32312,-0.59873 -14.96831,-3.37856 -6.5433,-3.25026 -11.71805,-8.42502 -14.96831,-14.96831 -4.10559,-8.38225 -4.66156,-16.85004 -1.6679,-25.78825 5.43136,-16.16578 22.1531,-25.3606 39.3025,-21.59714 z m -33.14411,105.54796 v 6.20116 h 5.55966 5.55966 v -1.6679 c 0,-2.05279 -0.51321,-2.26662 -4.6188,-2.13833 l -2.86536,0.12831 -0.1283,-4.44773 -0.1283,-4.40496 1.5396,0.2566 c 3.97729,0.6415 8.16842,3.89176 10.34952,8.08289 1.06916,2.05279 1.19746,2.69429 1.19746,6.54329 0,3.84899 -0.1283,4.49049 -1.19746,6.54329 -0.6415,1.24023 -1.88173,2.99366 -2.6943,3.93452 -1.75343,1.9245 -6.11562,4.27666 -7.95458,4.27666 h -1.19747 v -6.20116 -6.20115 h -5.60243 -5.55966 l 0.1283,1.7962 0.12831,1.83896 3.76346,0.1283 3.72069,0.1283 v 4.23389 4.27666 h -1.1547 c -0.68426,0 -2.13833,-0.47043 -3.33579,-1.0264 -8.42502,-3.97729 -11.33315,-14.41233 -6.20116,-22.15309 2.09557,-3.16473 6.79989,-6.20116 9.75079,-6.28669 0.94086,-0.0428 0.94086,0 0.94086,6.15838 z"
            id="path6"
            style="fill:#1d9bf3;stroke:none;stroke-width:0.0427666"/>
</svg>
