<?xml version="1.0" encoding="UTF-8" standalone="no"?>
<svg
        xmlns:dc="http://purl.org/dc/elements/1.1/"
        xmlns:cc="http://creativecommons.org/ns#"
        xmlns:rdf="http://www.w3.org/1999/02/22-rdf-syntax-ns#"
        xmlns:svg="http://www.w3.org/2000/svg"
        xmlns="http://www.w3.org/2000/svg"
        xmlns:sodipodi="http://sodipodi.sourceforge.net/DTD/sodipodi-0.dtd"
        xmlns:inkscape="http://www.inkscape.org/namespaces/inkscape"
        version="1.1"
        id="Capa_1"
        x="0px"
        y="0px"
        viewBox="0 0 500.00002 500.00002"
        xml:space="preserve"
        sodipodi:docname="mouse.svg"
        width="500"
        height="500"
        fill="#e60012"
        inkscape:version="1.0.2 (e86c870879, 2021-01-15)"><metadata
   id="metadata39"><rdf:RDF><cc:Work
       rdf:about=""><dc:format>image/svg+xml</dc:format><dc:type
        rdf:resource="http://purl.org/dc/dcmitype/StillImage"/><dc:title></dc:title></cc:Work></rdf:RDF></metadata>
    <defs
            id="defs37"/>
    <sodipodi:namedview
            pagecolor="#ffffff"
            bordercolor="#666666"
            borderopacity="1"
            objecttolerance="10"
            gridtolerance="10"
            guidetolerance="10"
            inkscape:pageopacity="0"
            inkscape:pageshadow="2"
            inkscape:window-width="3440"
            inkscape:window-height="1355"
            id="namedview35"
            showgrid="false"
            inkscape:zoom="1.3482709"
            inkscape:cx="194.5238"
            inkscape:cy="352.28093"
            inkscape:window-x="2560"
            inkscape:window-y="0"
            inkscape:window-maximized="1"
            inkscape:current-layer="Capa_1"/>
    <path
            d="M 307.943,193.02588 C 296.358,185.45388 281,180.61488 265,178.98088 v -48.49 h 28.811 c 8.102,0 15.642,-3.313 21.232,-9.113 5.589,-5.8 8.503,-13.513 8.203,-21.609996 l -0.843,-22.802 c -0.306,-8.278 -7.26,-14.745 -15.545,-14.449 -8.278,0.307 -14.741,7.377 -14.435,15.656 l 0.822,22.318996 h -28.597 c -16.542,0 -29.648,13.221 -29.648,29.763 v 48.728 c -17,1.634 -31.358,6.474 -42.942,14.045 -17.022,11.124 -26.058,27.366 -26.058,46.968 v 135.435 c 0,19.751 7.636,36.148 22.345,47.016 13.133,9.705 31.099,15.046 52.215,15.046 h 18.178 c 21.117,0 39.433,-5.341 52.566,-15.046 14.708,-10.868 22.696,-27.265 22.696,-47.016 v -135.437 c 0,-19.602 -9.034,-35.844 -26.057,-46.968 z M 269,273.49088 c 0,11.598 -9.402,21 -21,21 -11.598,0 -21,-9.402 -21,-21 v -39 c 0,-11.598 9.402,-21 21,-21 11.598,0 21,9.402 21,21 z"
            id="path2"/>
    <g
            id="g4">
</g>
    <g
            id="g6">
</g>
    <g
            id="g8">
</g>
    <g
            id="g10">
</g>
    <g
            id="g12">
</g>
    <g
            id="g14">
</g>
    <g
            id="g16">
</g>
    <g
            id="g18">
</g>
    <g
            id="g20">
</g>
    <g
            id="g22">
</g>
    <g
            id="g24">
</g>
    <g
            id="g26">
</g>
    <g
            id="g28">
</g>
    <g
            id="g30">
</g>
    <g
            id="g32">
</g>
</svg>
