<?xml version="1.0" encoding="UTF-8"?>
<!-- Generator: Adobe Illustrator 16.0.3, SVG Export Plug-In . SVG Version: 6.00 Build 0)  -->
<!DOCTYPE svg PUBLIC "-//W3C//DTD SVG 1.1//EN" "http://www.w3.org/Graphics/SVG/1.1/DTD/svg11.dtd">
<svg version="1.1" id="Ebene_1" xmlns="http://www.w3.org/2000/svg" xmlns:xlink="http://www.w3.org/1999/xlink" x="0px" y="0px" width="375px" height="111.96px" viewBox="0 0 375 111.96" enable-background="new 0 0 375 111.96" xml:space="preserve">
<g>
	<polygon points="348.698,91.934 348.698,91.934 346.746,86.045 346.746,91.934 345.765,91.934 345.765,84.686 347.116,84.686    349.219,90.877 351.251,84.686 352.603,84.686 352.603,91.934 351.622,91.934 351.622,86.045 349.669,91.934  "/>
	<polygon points="341.56,85.516 341.56,85.516 339.236,85.516 339.236,84.686 344.863,84.686 344.863,85.516 342.54,85.516    342.54,91.934 341.56,91.934  "/>
	<path d="M331.947,78.118L331.947,78.118H318.58h0.451c-0.221,0-0.451-0.227-0.451-0.453V34.1c0-6.645-4.586-8.835-11.113-4.908   L229.81,77.136c-3.004,1.887-4.056,4.001-3.305,5.587c0.601,1.359,2.323,2.34,5.707,2.34h72.101c0.221,0,0.37,0.152,0.37,0.303   v6.115c0,0.303,0.23,0.453,0.451,0.453h12.996c0.23,0,0.45-0.15,0.45-0.453v-5.965c0-0.227,0.23-0.453,0.451-0.453h12.916   c0.3,0,0.45-0.227,0.45-0.452v-6.04C332.397,78.344,332.247,78.118,331.947,78.118z M304.763,77.665L304.763,77.665   c0,0.227-0.229,0.453-0.45,0.453h-60.466c-0.521,0-0.751-0.151-0.821-0.303c-0.08-0.301,0.07-0.527,0.451-0.754l60.155-37.224   c0.38-0.302,1.131-0.226,1.131,0.604V77.665z"/>
	<path d="M231.981,27.229L231.981,27.229l-42.133,0.076c-12.235,0-18.172,7.475-18.172,17.29v29.975   c0,6.115-2.934,10.494-8.941,10.494h-39.652c-0.225,0-0.451,0.152-0.451,0.453v5.965c0,0.303,0.226,0.529,0.451,0.529h44.157   c12.246,0,18.253-7.626,18.253-17.441V44.594c0-6.115,2.854-10.494,8.941-10.494h37.547c0.23,0,0.451-0.228,0.451-0.454v-5.964   C232.433,27.455,232.212,27.229,231.981,27.229z"/>
	<path d="M107.537,27.304L107.537,27.304H31.381c-0.301,0-0.451,0.151-0.451,0.378v5.964c0,0.302,0.15,0.454,0.451,0.454h71.574   c6.084,0,8.938,4.379,8.938,10.494c0,6.116-2.854,10.495-8.938,10.495H46.326c-8.787,0-15.396,7.475-15.396,17.291v19.102   c0,0.303,0.15,0.529,0.451,0.529h12.918c0.225,0,0.451-0.227,0.451-0.529V72.379c0-6.115,3.454-10.344,8.486-10.344h54.301   c12.241,0,18.175-7.55,18.175-17.441C125.712,34.779,119.778,27.304,107.537,27.304z"/>
</g>
<g>
</g>
<g>
</g>
<g>
</g>
<g>
</g>
<g>
</g>
<g>
</g>
<script xmlns=""/></svg>