<?xml version="1.0" encoding="UTF-8" standalone="no"?>
<svg
   width="473"
   height="620"
   version="1.1"
   viewBox="0 0 473 620"
   id="svg2"
   xmlns="http://www.w3.org/2000/svg"
   xmlns:svg="http://www.w3.org/2000/svg"
   xmlns:rdf="http://www.w3.org/1999/02/22-rdf-syntax-ns#"
   xmlns:cc="http://creativecommons.org/ns#"
   xmlns:dc="http://purl.org/dc/elements/1.1/"
   xmlns:bx="https://www.boxy-svg.com/bx">
  <metadata
     id="metadata8">
    <rdf:RDF>
      <cc:Work
         rdf:about="">
        <dc:format>image/svg+xml</dc:format>
        <dc:type
           rdf:resource="http://purl.org/dc/dcmitype/StillImage" />
      </cc:Work>
    </rdf:RDF>
  </metadata>
  <defs
     id="defs6" />
  <g
     id="g245764">
    <ellipse
       style="fill:#b6b6b6;fill-opacity:1;fill-rule:evenodd;stroke:none;stroke-width:3.39087;stroke-linejoin:round;stroke-miterlimit:2;stroke-dasharray:none;stroke-opacity:1;stop-color:#000000"
       id="path41370-9"
       cx="-507.21487"
       cy="-421.06586"
       rx="49.807648"
       ry="35.549168"
       transform="matrix(0,-1,-1,0,0,0)" />
    <path
       style="fill:#453ade;fill-opacity:1;stroke:none;stroke-width:0.995828px;stroke-linecap:butt;stroke-linejoin:miter;stroke-opacity:1"
       d="m 440.4901,481.32768 c 6.93599,-16.11327 7.04551,-15.93686 7.45881,-15.11898 0.4133,0.81788 1.13031,2.277 1.60053,3.62837 0.47021,1.35137 0.68381,2.53971 0.82381,3.85479 0.14001,1.31509 0.20405,2.78576 0.1341,4.64225 -0.0699,1.85649 -0.2725,4.12678 -0.55107,6.5613 -0.27856,2.43451 -0.63305,5.03304 -1.13131,7.85474 -0.49826,2.8217 -1.14017,5.86634 -2.01547,9.42265 -0.8753,3.55631 -1.98387,7.62406 -2.8873,10.54697 -0.90344,2.92291 -1.60155,4.70082 -2.4469,6.71624 -0.84534,2.01542 -1.84829,4.29201 -2.91886,6.55308 -1.07056,2.26107 -2.21383,4.51838 -3.54347,7.01715 -1.32965,2.49878 -2.84554,5.23887 -4.4044,7.87898 -1.55887,2.64011 -3.16053,5.18012 -4.66544,7.41233 -1.5049,2.23221 -2.91289,4.15655 -4.12429,5.80641 -1.2114,1.64987 -2.22616,3.02519 -3.34102,4.22261 -1.11485,1.19742 -2.32948,2.21708 -3.30036,2.99395 -0.97089,0.77687 -1.69792,1.31097 -2.36144,1.70333 -0.66353,0.39236 -1.26342,0.64329 -1.97561,0.70524 -0.71219,0.062 -1.59234,-0.0729 -2.4913,-0.42122 -0.89895,-0.34833 -1.84487,-0.91429 -2.23898,-1.12787 -0.3941,-0.21359 -0.23662,-0.0749 6.72293,-16.20629 6.95955,-16.13137 20.72105,-48.53276 27.65704,-64.64603 z"
       id="path42269" />
    <ellipse
       style="fill:#b6b6b6;fill-opacity:1;fill-rule:evenodd;stroke:none;stroke-width:3.39087;stroke-linejoin:round;stroke-miterlimit:2;stroke-dasharray:none;stroke-opacity:1;stop-color:#000000"
       id="path41370"
       cx="123.28303"
       cy="-416.11218"
       rx="49.807648"
       ry="35.549168"
       transform="rotate(90)" />
    <path
       id="path1103"
       style="fill:#524c82;fill-opacity:1;stroke:none;stroke-width:0.995828px;stroke-linecap:butt;stroke-linejoin:miter;stroke-opacity:1"
       d="m 472.77648,301.83499 c -0.26546,-5.61271 -0.79651,-16.8391 -1.61822,-28.93738 -0.82172,-12.09827 -1.93404,-25.06856 -4.1253,-39.22437 -2.19126,-14.1558 -5.46161,-29.49693 -8.7524,-43.17264 -3.29079,-13.67571 -6.60321,-25.68451 -10.60791,-37.35522 -4.0047,-11.67071 -8.70202,-23.00274 -11.93632,-31.56119 C 432.50203,113.02584 427.131,95.871604 420.76771,84.145924 414.40443,72.420343 407.04531,66.109381 393.08297,52.885676 379.12064,39.661971 362.14717,30.865221 349.73721,25.268964 337.32725,19.672707 329.38786,17.247467 322.34609,15.452586 315.30432,13.657804 309.11397,12.47964 296.18226,10.990876 283.25054,9.5021127 263.43842,7.6903025 238.1597,5.778312 212.88096,3.8663214 182.06738,1.8470802 158.92327,0.8477664 135.77914,-0.15144781 120.3046,-0.12953959 107.62448,0.21372246 94.944369,0.55708409 85.052835,1.2231937 75.837718,2.2870372 66.622611,3.3509803 58.095541,4.8091718 51.039261,6.5232912 43.98297,8.237311 38.404907,10.204968 33.054052,12.305668 c -5.350845,2.1007 -10.473665,4.334742 -14.758486,6.807384 -4.28482,2.472741 -7.684419,5.145943 -10.3375548,7.882977 -2.6531358,2.737134 -4.606264,5.624837 -5.9205085,8.801032 -1.31424458,3.176195 -2.00761002,6.605828 -2.0130572,10.609855 -0.0049791,4.004126 0.68512994,8.538133 2.1122516,12.745508 1.4271117,4.207275 3.5286682,7.976784 6.0624938,11.259433 2.5338161,3.282649 5.5232031,6.073657 9.5245511,8.690196 4.001348,2.61644 9.041225,5.083107 16.680126,7.886862 7.6389,2.803755 17.876165,5.944299 31.275235,8.573485 13.39908,2.629086 29.947428,4.74522 44.036227,6.78597 14.08881,2.04075 25.67388,3.99845 36.22132,6.07804 10.54743,2.07969 20.03759,4.27838 26.95933,6.26874 6.92174,1.99026 11.27475,3.7716 25.89348,16.91544 14.61873,13.14384 39.50219,37.64889 52.81586,55.38907 13.31368,17.74009 15.0558,28.71471 15.9916,36.18631 0.9358,7.47151 1.06491,11.43879 1.49375,16.95628 0.42884,5.51752 1.15703,12.58467 1.11447,18.92463 -0.0425,6.33996 -0.85511,11.9528 -1.76993,17.56898 -0.91482,5.61618 -1.93049,11.23442 -2.66462,16.44478 -0.73413,5.21037 -1.18695,10.01288 -1.20005,14.40062 -0.003,0.86257 -0.003,4.17518 0,5.03748 0.0131,4.38772 0.46593,9.18833 1.20005,14.39868 0.73413,5.21034 1.7498,10.83054 2.66462,16.44672 0.91482,5.61618 1.72737,11.22902 1.76993,17.56898 0.0425,6.33996 -0.68563,13.40514 -1.11447,18.92268 -0.42885,5.51755 -0.55795,9.48674 -1.49375,16.95826 -0.9358,7.47153 -2.67792,18.44422 -15.9916,36.18436 -13.31367,17.74015 -38.19713,42.24523 -52.81586,55.38907 -14.61873,13.14384 -18.97174,14.92515 -25.89348,16.91547 -6.92174,1.99031 -16.4119,4.18903 -26.95933,6.26866 -10.54744,2.07962 -22.13251,4.03732 -36.22132,6.07805 -14.088799,2.04074 -30.637147,4.15886 -44.036227,6.78797 -13.39907,2.62912 -23.636335,5.76778 -31.275235,8.57152 -7.638901,2.80374 -12.678778,5.27236 -16.680126,7.88883 -4.001348,2.61646 -6.990735,5.4056 -9.5245511,8.68821 -2.5338256,3.28261 -4.6353821,7.05219 -6.0624938,11.25947 -1.42712166,4.2073 -2.11768882,8.74137 -2.1122516,12.74544 0.0049791,4.00407 0.69881262,7.43559 2.0130572,10.6118 1.3142445,3.1762 3.2673727,6.06396 5.9205085,8.80102 2.6531358,2.73706 6.0527348,5.41029 10.3375548,7.883 4.284821,2.4727 9.407641,4.70669 14.758486,6.80741 5.350855,2.10073 10.928918,4.06646 17.985209,5.78048 7.05628,1.71402 15.58335,3.17418 24.798457,4.2381 9.215117,1.06393 19.106651,1.73004 31.786762,2.07335 12.68012,0.34331 28.15466,0.36519 51.29879,-0.63407 23.14411,-0.99924 53.95769,-3.02047 79.23643,-4.93245 25.27872,-1.912 45.09084,-3.72182 58.02256,-5.2106 12.93171,-1.48878 19.12206,-2.66888 26.16383,-4.46373 7.04177,-1.79485 16.28657,-3.35492 28.69653,-8.9512 12.40995,-5.59627 28.07802,-15.25614 42.04035,-28.47989 13.96234,-13.22373 24.91195,-30.87327 31.27524,-42.59889 6.36329,-11.72562 8.14382,-17.54321 11.37812,-26.1016 3.2343,-8.55838 7.93162,-19.88849 11.93632,-31.55919 4.0047,-11.67071 7.31712,-23.67949 10.60791,-37.35524 3.29079,-13.67575 6.56114,-29.01683 8.7524,-43.17266 2.19126,-14.15583 3.30358,-27.12607 4.1253,-39.22436 0.82172,-12.09829 1.35276,-23.32471 1.61822,-28.93737 0.26545,-5.61267 0.2655,-10.71733 0,-16.33003 z" />
    <path
       id="path1103-3"
       style="fill:#403a62;fill-opacity:1;stroke:none;stroke-width:1.66581px;stroke-linecap:butt;stroke-linejoin:miter;stroke-opacity:1"
       d="m 287.03698,300.62521 c -0.0651,-5.95575 -0.23738,-12.36704 -0.52515,-18.88573 -0.28778,-6.51871 -5.6737,-54.30042 -6.36015,-60.50364 -0.68643,-6.20331 0.65777,-10.07589 -0.18469,-17.08542 -0.84249,-7.00954 -1.66292,-14.4184 -2.41567,-21.56586 -0.75274,-7.14746 -1.43856,-14.03302 -2.12392,-20.92017 l 0.57378,-0.9531 c -1.59892,-2.96259 -3.19563,-5.92668 -5.85828,-7.06411 -1.06825,-0.45649 -2.30695,-0.58256 -3.55542,0 0.51651,7.91385 0.8527,14.77082 1.26424,22.34001 0.6,11.03498 1.61942,25.16927 1.55987,37.84925 -0.0594,12.67988 -1.19602,23.90559 -2.47596,35.13796 -1.27993,11.23236 -2.70139,22.46883 -3.72852,32.88956 -0.99651,10.11005 -1.60977,19.43614 -1.66295,27.99794 0.0532,8.56185 0.66644,17.88791 1.66295,27.99796 1.02713,10.42074 2.44859,21.65721 3.72852,32.88956 1.27994,11.23235 2.41651,22.45808 2.47596,35.13797 0.0596,12.67998 -0.95987,26.81428 -1.55987,37.84925 -0.41154,7.56919 -0.74773,14.42617 -1.26424,22.34002 1.24847,0.58256 2.48717,0.45649 3.55542,0 2.66265,-1.13744 4.25936,-4.10157 5.85828,-7.06416 l -0.57378,-0.95305 c 0.68536,-6.88715 1.37118,-13.77271 2.12392,-20.92017 0.75275,-7.14746 1.57318,-14.55637 2.41567,-21.56591 0.84246,-7.00954 -1.09095,-12.77051 -0.40452,-18.97383 0.68644,-6.20318 6.66158,-52.09651 6.94936,-58.6152 0.28777,-6.5187 0.46002,-12.92998 0.52515,-18.88573 v -0.004 c 0.0342,-3.14554 0.007,-6.18643 -0.008,-9.23282 0.0146,-3.04639 0.042,-6.08728 0.008,-9.2328 z" />
    <path
       id="path1209"
       style="fill:#5e5795;fill-opacity:1;fill-rule:evenodd;stroke-width:0.180968;stroke-linejoin:round;stroke-miterlimit:2;-inkscape-stroke:none;stop-color:#000000"
       d="M 430.03334,120.14044 C 430.03323,59.525859 382.22327,10.388002 323.2463,10.387305 c -46.13309,0.03585 -86.9291,30.496647 -101.32618,75.349256 -0.24889,0.775451 -0.69456,1.574405 -0.92756,2.358321 -1.14497,2.329242 -1.90464,3.987994 -3.22512,6.366928 -1.54851,2.789813 -3.18737,5.173329 -5.03864,7.57089 -1.85125,2.39765 -4.11141,4.68298 -6.57986,6.83277 -2.46844,2.1497 -5.14407,4.16266 -8.11639,6.255 -2.97231,2.09233 -6.24119,4.26463 -9.23669,6.20062 -2.9955,1.93599 -5.71829,3.63548 -8.25644,4.93633 -1.56562,0.80243 -3.02257,1.45689 -4.17586,2.11036 -36.02625,6.87609 -62.1128,38.33929 -62.19649,75.01575 6.4e-4,42.27606 34.27249,76.54707 76.54848,76.54664 23.28336,-0.002 45.25003,-10.59696 59.74477,-28.70024 0.53378,-0.66667 2.80773,-2.66977 3.33399,-3.1675 1.72709,-1.63342 3.3035,-3.13801 5.63923,-4.92929 2.33575,-1.79127 5.54335,-3.91685 8.53457,-5.64043 2.99121,-1.72355 5.7583,-3.04163 8.77962,-4.21481 3.02132,-1.17319 6.26597,-2.18863 9.17252,-2.90194 2.90654,-0.71332 5.44053,-1.11553 8.14362,-1.32645 2.70308,-0.21091 5.56633,-0.23053 8.342,-0.20424 2.77568,0.0259 5.46318,0.0916 6.80742,0.13424 0.58814,0.0189 0.79903,0.0309 1.17122,0.0498 0.50051,0.0219 0.81036,0.0299 1.27847,0.0916 3.84427,0.47312 7.71109,0.73104 11.58332,0.77257 58.97697,-7e-4 106.78693,-49.13856 106.78704,-109.75314 z" />
    <circle
       style="fill:#524c82;fill-opacity:1;fill-rule:evenodd;stroke:none;stroke-width:2.11541;stroke-linejoin:round;stroke-miterlimit:2;stroke-dasharray:none;stroke-opacity:1;stop-color:#000000"
       id="path149414"
       cx="120.80136"
       cy="-328.06934"
       r="68.626289"
       transform="rotate(90)" />
    <circle
       style="fill:#524c82;fill-opacity:1;fill-rule:evenodd;stroke:none;stroke-width:1.54317;stroke-linejoin:round;stroke-miterlimit:2;stroke-dasharray:none;stroke-opacity:1;stop-color:#000000"
       id="path149414-1"
       cx="205.87698"
       cy="-191.6002"
       r="50.062092"
       transform="rotate(90)" />
    <path
       style="opacity:1;fill:#adadad;fill-opacity:1;fill-rule:evenodd;stroke:#000000;stroke-width:4.7224;stroke-linejoin:round;stroke-miterlimit:2;stroke-dasharray:none;stroke-opacity:1;stop-color:#000000"
       id="path13862-0"
       transform="matrix(-0.20412179,0.7617929,-0.7617929,-0.20412179,145.1768,982.54109)"
       d="m -1060.0689,90.779495 -38.9085,29.499515 -48.4455,-6.09307 -29.4995,-38.908514 6.0931,-48.445525 38.9085,-29.4995191 48.4455,6.093076 29.4995,38.9085121 z" />
    <rect
       style="fill:#000000;fill-opacity:1;fill-rule:evenodd;stroke:none;stroke-width:0.191179;stroke-linejoin:round;stroke-miterlimit:2;-inkscape-stroke:none;stop-color:#000000"
       id="rect12476-7"
       width="30.231384"
       height="85.491867"
       x="190.76122"
       y="-234.34613"
       rx="6.4304113"
       ry="5.6581793"
       transform="rotate(90)" />
    <rect
       style="fill:#000000;fill-opacity:1;fill-rule:evenodd;stroke:none;stroke-width:0.191179;stroke-linejoin:round;stroke-miterlimit:2;-inkscape-stroke:none;stop-color:#000000"
       id="rect12476-7-2"
       width="30.231384"
       height="85.491867"
       x="-206.71588"
       y="-248.62283"
       rx="6.4304113"
       ry="5.6581793"
       transform="scale(-1)" />
    <path
       id="path1209-7"
       style="fill:#5e5795;fill-opacity:1;fill-rule:evenodd;stroke-width:0.180968;stroke-linejoin:round;stroke-miterlimit:2;-inkscape-stroke:none;stop-color:#000000"
       d="m 430.2865,493.31608 c -1.1e-4,60.61458 -47.81007,109.75241 -106.78703,109.75311 -46.1331,-0.0359 -86.92911,-30.49665 -101.32619,-75.34923 -0.24889,-0.77545 -0.69456,-1.57441 -0.92756,-2.35832 -1.14497,-2.32924 -1.90464,-3.988 -3.22512,-6.36693 -1.54851,-2.78981 -3.18737,-5.17333 -5.03864,-7.57089 -1.85125,-2.39765 -4.11141,-4.68298 -6.57986,-6.83277 -2.46845,-2.1497 -5.14407,-4.16266 -8.11639,-6.255 -2.97231,-2.09233 -6.24119,-4.26463 -9.23669,-6.20062 -2.9955,-1.93599 -5.71829,-3.63548 -8.25644,-4.93633 -1.56562,-0.80243 -3.02257,-1.45689 -4.17586,-2.11036 -36.02625,-6.87609 -62.1128,-38.33929 -62.19649,-75.01575 6.4e-4,-42.2761 34.27249,-76.54704 76.54848,-76.54664 23.28336,0 45.25003,10.59701 59.74477,28.70027 0.53378,0.66661 2.80773,2.66972 3.33399,3.16743 1.72709,1.63346 3.3035,3.13806 5.63923,4.92936 2.33575,1.79129 5.54335,3.91679 8.53457,5.64037 2.99121,1.72358 5.7583,3.04166 8.77962,4.21484 3.02132,1.17319 6.26597,2.18863 9.17252,2.90194 2.90654,0.71332 5.44053,1.11553 8.14362,1.32645 2.70308,0.21091 5.56633,0.23053 8.342,0.20424 2.77568,-0.0259 5.46318,-0.0916 6.80742,-0.13424 0.58814,-0.0189 0.79903,-0.0309 1.17123,-0.0498 0.5005,-0.0219 0.81035,-0.0299 1.27846,-0.0916 3.84427,-0.47312 7.71109,-0.73104 11.58333,-0.77257 58.97696,7e-4 106.78692,49.13856 106.78703,109.75314 z" />
    <circle
       style="fill:#524c82;fill-opacity:1;fill-rule:evenodd;stroke:none;stroke-width:2.06834;stroke-linejoin:round;stroke-miterlimit:2;stroke-dasharray:none;stroke-opacity:1;stop-color:#000000"
       id="path152254"
       cx="495.44058"
       cy="-325.85468"
       r="68.093582"
       transform="rotate(90)" />
    <g
       id="g157"
       transform="matrix(0.84572366,0,0,0.84572366,-38.052368,-25.869413)"
       style="fill:#d1d1d1;fill-opacity:1">
      <path
         fill-rule="evenodd"
         fill="#b7b7b7"
         d="m 563.5,410.9 h 2.1 v -6 c 0,-0.8 -0.2,-1.5 -0.5,-2.1 -0.3,-0.6 -0.7,-1.2 -1.2,-1.5 -0.5,-0.4 -1.1,-0.6 -1.7,-0.6 h -6.5 c -0.6,0 -1.2,0.2 -1.7,0.6 -0.5,0.4 -0.9,0.9 -1.2,1.5 -0.3,0.6 -0.5,1.3 -0.5,2.1 v 6.1 h 2.1 v -5.8 c 0,-0.5 0.1,-0.9 0.4,-1.3 0.3,-0.3 0.6,-0.6 1,-0.6 h 2.4 v 7.7 h 2.1 v -7.7 h 1.8 c 0.4,0 0.8,0.2 1,0.6 0.3,0.4 0.4,0.8 0.4,1.3 z"
         id="path127"
         style="fill:#d1d1d1;fill-opacity:1" />
      <polygon
         fill-rule="evenodd"
         fill="#b7b7b7"
         points="552.3,423.8 552.3,426.4 562.6,426.4 552.3,431.8 552.3,434.4 565.6,434.4 565.6,431.8 557.1,431.8 565.6,427.3 565.6,423.8 "
         id="polygon129"
         style="fill:#d1d1d1;fill-opacity:1" />
      <path
         fill-rule="evenodd"
         fill="#b7b7b7"
         d="m 565.6,447.3 h -13.3 v 6.4 c 0,0.8 0.2,1.5 0.5,2.2 0.3,0.7 0.7,1.2 1.2,1.6 0.5,0.4 1.1,0.6 1.8,0.6 h 6.4 c 0.6,0 1.2,-0.2 1.7,-0.6 0.5,-0.4 0.9,-0.9 1.2,-1.6 0.3,-0.6 0.5,-1.4 0.5,-2.2 z m -2.5,7.6 c -0.3,0.4 -0.6,0.6 -1,0.6 h -6.3 c -0.4,0 -0.8,-0.2 -1,-0.6 -0.3,-0.3 -0.4,-0.8 -0.4,-1.2 V 450 h 9.2 v 3.7 c -0.1,0.5 -0.2,0.9 -0.5,1.2 z"
         id="path131"
         style="fill:#d1d1d1;fill-opacity:1" />
      <path
         fill-rule="evenodd"
         fill="#b7b7b7"
         d="m 565.2,479 c 0.3,-0.6 0.4,-1.4 0.5,-2.2 v -2.4 c 0,-0.8 -0.2,-1.5 -0.5,-2.2 -0.3,-0.7 -0.7,-1.2 -1.2,-1.6 -0.5,-0.4 -1.1,-0.6 -1.8,-0.6 h -6.6 c -0.6,0 -1.2,0.2 -1.7,0.6 -0.5,0.4 -0.9,0.9 -1.2,1.6 -0.3,0.6 -0.5,1.4 -0.5,2.2 v 2.4 c 0,0.8 0.2,1.5 0.5,2.2 0.3,0.7 0.7,1.2 1.2,1.6 0.5,0.4 1.1,0.6 1.7,0.6 h 6.6 c 0.6,0 1.2,-0.2 1.8,-0.6 0.5,-0.4 0.9,-0.9 1.2,-1.6 z m -2,-1 c -0.3,0.4 -0.6,0.6 -1,0.6 h -6.5 c -0.4,0 -0.7,-0.2 -1,-0.6 -0.3,-0.3 -0.4,-0.8 -0.4,-1.2 v -2.2 c 0,-0.5 0.2,-0.9 0.4,-1.3 0.3,-0.3 0.6,-0.6 1,-0.6 h 6.5 c 0.4,0 0.7,0.2 1,0.6 0.3,0.4 0.4,0.8 0.4,1.3 v 2.2 c 0,0.4 -0.1,0.8 -0.4,1.2 z"
         id="path133"
         style="fill:#d1d1d1;fill-opacity:1" />
      <polygon
         fill-rule="evenodd"
         fill="#b7b7b7"
         points="534.1,484.5 534.1,470.8 537.3,470.8 537.3,478.7 541,478.7 541,470.8 543.8,470.8 543.8,484.4 547.5,484.4 547.5,466 530.2,466 530.2,484.5 "
         id="polygon135"
         style="fill:#d1d1d1;fill-opacity:1" />
      <path
         fill-rule="evenodd"
         fill="#b7b7b7"
         d="m 543.9,464 c 1.2,0 2.1,-0.3 2.7,-1 0.6,-0.7 0.9,-1.8 0.9,-3.2 v -15.1 h -17.4 v 14.1 c 0,3.7 1.2,5.5 3.7,5.5 h 2.1 c 1.5,0 2.5,-0.6 3.1,-2 0.6,1.2 1.5,1.8 2.8,1.8 h 2.1 z m -0.1,-4.7 c -0.2,0.2 -0.3,0.3 -0.6,0.2 h -1.6 c -0.2,0 -0.4,0 -0.6,-0.2 l -0.2,-1.2 v -8.7 h 3.1 v 8.7 c 0.1,0.6 0,1.1 -0.1,1.2 z m -9.9,-9.9 h 3.4 v 8.7 c 0,0.6 -0.1,1 -0.2,1.2 -0.2,0.2 -0.4,0.3 -0.9,0.3 H 535 c -0.4,0 -0.7,-0.1 -0.8,-0.3 -0.2,-0.2 -0.3,-0.6 -0.3,-1.2 z"
         id="path137"
         style="fill:#d1d1d1;fill-opacity:1" />
      <path
         fill-rule="evenodd"
         fill="#b7b7b7"
         d="m 547.5,442.5 v -4.8 h -13.4 v -10.5 h 13.4 v -4.8 h -13 c -1.1,0 -1.9,0.1 -2.6,0.4 -0.6,0.3 -1.1,0.8 -1.3,1.5 -0.3,0.7 -0.4,1.6 -0.4,2.8 v 10.8 c 0,1.2 0.1,2.1 0.4,2.8 0.3,0.7 0.7,1.2 1.3,1.5 0.6,0.3 1.5,0.4 2.6,0.4 h 13 z"
         id="path139"
         style="fill:#d1d1d1;fill-opacity:1" />
      <path
         fill-rule="evenodd"
         fill="#b7b7b7"
         d="m 545.7,419.9 c 0.6,-0.3 1.1,-0.8 1.4,-1.5 0.3,-0.7 0.4,-1.6 0.4,-2.8 V 405 c 0,-1.2 -0.1,-2.1 -0.4,-2.8 -0.3,-0.7 -0.7,-1.2 -1.4,-1.5 -0.6,-0.3 -1.5,-0.5 -2.6,-0.4 h -8.7 c -1.1,0 -1.9,0.1 -2.6,0.4 -0.6,0.3 -1.1,0.8 -1.3,1.5 -0.3,0.7 -0.4,1.6 -0.4,2.8 v 10.6 c 0,1.2 0.1,2.1 0.4,2.8 0.3,0.6 0.7,1.2 1.3,1.5 0.6,0.3 1.5,0.4 2.6,0.4 h 3.2 v -4.8 h -3.5 v -10.3 h 9.6 v 10.3 h -3.1 v 4.8 h 2.6 c 1.1,0.1 1.9,-0.1 2.5,-0.4 z"
         id="path141"
         style="fill:#d1d1d1;fill-opacity:1" />
      <polygon
         fill-rule="evenodd"
         fill="#b7b7b7"
         points="534.1,397 534.1,383.3 537.3,383.3 537.3,391.1 541,391.1 541,383.3 543.8,383.3 543.8,396.8 547.5,396.8 547.5,378.4 530.2,378.4 530.2,397 "
         id="polygon143"
         style="fill:#d1d1d1;fill-opacity:1" />
      <polygon
         fill-rule="evenodd"
         fill="#b7b7b7"
         points="552.3,323.1 565.6,323.1 565.6,320.5 557.1,320.5 565.6,316 565.6,312.5 552.3,312.5 552.3,315.1 562.6,315.1 552.3,320.5 "
         id="polygon145"
         style="fill:#d1d1d1;fill-opacity:1" />
      <polygon
         fill-rule="evenodd"
         fill="#b7b7b7"
         points="565.6,340.9 565.6,337.9 552.3,337.9 552.3,340.9 "
         id="polygon147"
         style="fill:#d1d1d1;fill-opacity:1" />
      <polygon
         fill-rule="evenodd"
         fill="#b7b7b7"
         points="552.3,355.6 552.3,358.2 562.6,358.2 552.3,363.6 552.3,366.2 565.6,366.2 565.6,363.6 557.1,363.6 565.6,359.1 565.6,355.6 "
         id="polygon149"
         style="fill:#d1d1d1;fill-opacity:1" />
      <polygon
         fill-rule="evenodd"
         fill="#b7b7b7"
         points="563.5,385.3 563.5,389.8 565.6,389.8 565.6,378.1 563.5,378.1 563.5,382.5 552.3,382.5 552.3,385.3 "
         id="polygon151"
         style="fill:#d1d1d1;fill-opacity:1" />
      <polygon
         fill-rule="evenodd"
         fill="#b7b7b7"
         points="530.2,342.4 534.1,342.4 534.1,336.6 542.7,341.9 530.2,349.2 530.2,357.1 539.4,357.1 530.2,362.7 530.2,366.2 539.4,371.8 530.2,371.8 530.2,376.3 547.5,376.3 547.5,371.8 535.2,364.4 547.5,357.1 547.5,352.7 533.2,352.7 547.5,344.1 547.5,339.7 530.2,329.4 "
         id="polygon153"
         style="fill:#d1d1d1;fill-opacity:1" />
      <path
         fill-rule="evenodd"
         fill="#b7b7b7"
         d="m 543.7,329.8 h 3.8 v -16.3 c 0,-1.2 -0.1,-2.1 -0.4,-2.8 -0.3,-0.7 -0.7,-1.2 -1.4,-1.5 -0.6,-0.3 -1.5,-0.4 -2.6,-0.4 h -8.7 c -1.1,0 -1.9,0.1 -2.6,0.4 -0.6,0.3 -1.1,0.8 -1.3,1.5 -0.3,0.7 -0.4,1.6 -0.4,2.8 v 11.9 c 0,1.7 0.3,2.9 0.9,3.6 0.7,0.7 1.8,1 3.4,1 h 6.1 v -11.2 h -3.6 v 6.5 H 534 v -11.6 h 9.6 v 16.1 z"
         id="path155"
         style="fill:#d1d1d1;fill-opacity:1" />
    </g>
    <g
       aria-label="START/PAUSE"
       id="text4350"
       style="font-weight:bold;font-size:16px;line-height:1.25;font-family:'Bitstream Vera Sans';-inkscape-font-specification:'Bitstream Vera Sans Bold';text-align:center;letter-spacing:0px;word-spacing:0px;text-anchor:middle;fill:#302d4f;fill-opacity:1"
       transform="matrix(0,0.61558707,-0.84746324,0,374.27149,876.89962)">
      <path
         d="m -974.91541,22.924831 v 2.46875 q -0.96093,-0.429687 -1.875,-0.648437 -0.91406,-0.21875 -1.72656,-0.21875 -1.07812,0 -1.59375,0.296875 -0.51562,0.296875 -0.51562,0.921875 0,0.46875 0.34375,0.734375 0.35156,0.257812 1.26562,0.445312 l 1.28125,0.257813 q 1.94531,0.390625 2.76563,1.1875 0.82031,0.796875 0.82031,2.265625 0,1.929687 -1.14844,2.875 -1.14062,0.9375 -3.49219,0.9375 -1.10937,0 -2.22656,-0.210938 -1.11719,-0.210937 -2.23437,-0.625 v -2.539062 q 1.11718,0.59375 2.15625,0.898437 1.04687,0.296875 2.01562,0.296875 0.98438,0 1.50781,-0.328125 0.52344,-0.328125 0.52344,-0.9375 0,-0.546875 -0.35937,-0.84375 -0.35157,-0.296875 -1.41407,-0.53125 l -1.16406,-0.257812 q -1.75,-0.375 -2.5625,-1.195313 -0.80469,-0.820312 -0.80469,-2.210937 0,-1.742188 1.125,-2.679688 1.125,-0.9375 3.23438,-0.9375 0.96094,0 1.97656,0.148438 1.01563,0.140625 2.10156,0.429687 z"
         id="path11254"
         style="fill:#302d4f;fill-opacity:1" />
      <path
         d="m -972.89978,22.557644 h 10.75 v 2.273437 h -3.86719 v 9.390625 h -3.00781 v -9.390625 h -3.875 z"
         id="path11256"
         style="fill:#302d4f;fill-opacity:1" />
      <path
         d="m -954.75916,32.096706 h -4.70312 l -0.74219,2.125 h -3.02344 l 4.32032,-11.664062 h 3.58593 l 4.32032,11.664062 h -3.02344 z m -3.95312,-2.164062 h 3.19531 l -1.59375,-4.640625 z"
         id="path11258"
         style="fill:#302d4f;fill-opacity:1" />
      <path
         d="m -945.18103,27.729519 q 0.94531,0 1.35156,-0.351563 0.41406,-0.351562 0.41406,-1.15625 0,-0.796875 -0.41406,-1.140625 -0.40625,-0.34375 -1.35156,-0.34375 h -1.26563 v 2.992188 z m -1.26563,2.078125 v 4.414062 h -3.00781 V 22.557644 h 4.59375 q 2.30469,0 3.375,0.773437 1.07813,0.773438 1.07813,2.445313 0,1.15625 -0.5625,1.898437 -0.55469,0.742188 -1.67969,1.09375 0.61719,0.140625 1.10156,0.640625 0.49219,0.492188 0.99219,1.5 l 1.63281,3.3125 h -3.20312 l -1.42188,-2.898437 q -0.42969,-0.875 -0.875,-1.195313 -0.4375,-0.320312 -1.17187,-0.320312 z"
         id="path11260"
         style="fill:#302d4f;fill-opacity:1" />
      <path
         d="m -939.24353,22.557644 h 10.75 v 2.273437 h -3.86719 v 9.390625 h -3.00781 v -9.390625 h -3.875 z"
         id="path11262"
         style="fill:#302d4f;fill-opacity:1" />
      <path
         d="m -924.29822,22.557644 h 1.73438 l -4.11719,13.148437 h -1.72656 z"
         id="path11264"
         style="fill:#302d4f;fill-opacity:1" />
      <path
         d="m -921.09509,22.557644 h 4.99218 q 2.22657,0 3.41407,0.992187 1.19531,0.984375 1.19531,2.8125 0,1.835938 -1.19531,2.828125 -1.1875,0.984375 -3.41407,0.984375 h -1.98437 v 4.046875 h -3.00781 z m 3.00781,2.179687 v 3.257813 h 1.66406 q 0.875,0 1.35156,-0.421875 0.47657,-0.429688 0.47657,-1.210938 0,-0.78125 -0.47657,-1.203125 -0.47656,-0.421875 -1.35156,-0.421875 z"
         id="path11266"
         style="fill:#302d4f;fill-opacity:1" />
      <path
         d="m -903.75916,32.096706 h -4.70312 l -0.74219,2.125 h -3.02344 l 4.32032,-11.664062 h 3.58593 l 4.32032,11.664062 h -3.02344 z m -3.95312,-2.164062 h 3.19531 l -1.59375,-4.640625 z"
         id="path11268"
         style="fill:#302d4f;fill-opacity:1" />
      <path
         d="m -898.94666,22.557644 h 3.00782 v 6.992187 q 0,1.445313 0.46875,2.070313 0.47656,0.617187 1.54687,0.617187 1.07813,0 1.54688,-0.617187 0.47656,-0.625 0.47656,-2.070313 v -6.992187 h 3.00781 v 6.992187 q 0,2.476563 -1.24219,3.6875 -1.24218,1.210938 -3.78906,1.210938 -2.53906,0 -3.78125,-1.210938 -1.24219,-1.210937 -1.24219,-3.6875 z"
         id="path11270"
         style="fill:#302d4f;fill-opacity:1" />
      <path
         d="m -877.83728,22.924831 v 2.46875 q -0.96094,-0.429687 -1.875,-0.648437 -0.91406,-0.21875 -1.72656,-0.21875 -1.07813,0 -1.59375,0.296875 -0.51563,0.296875 -0.51563,0.921875 0,0.46875 0.34375,0.734375 0.35156,0.257812 1.26563,0.445312 l 1.28125,0.257813 q 1.94531,0.390625 2.76562,1.1875 0.82031,0.796875 0.82031,2.265625 0,1.929687 -1.14843,2.875 -1.14063,0.9375 -3.49219,0.9375 -1.10938,0 -2.22656,-0.210938 -1.11719,-0.210937 -2.23438,-0.625 v -2.539062 q 1.11719,0.59375 2.15625,0.898437 1.04688,0.296875 2.01563,0.296875 0.98437,0 1.50781,-0.328125 0.52344,-0.328125 0.52344,-0.9375 0,-0.546875 -0.35938,-0.84375 -0.35156,-0.296875 -1.41406,-0.53125 l -1.16406,-0.257812 q -1.75,-0.375 -2.5625,-1.195313 -0.80469,-0.820312 -0.80469,-2.210937 0,-1.742188 1.125,-2.679688 1.125,-0.9375 3.23437,-0.9375 0.96094,0 1.97657,0.148438 1.01562,0.140625 2.10156,0.429687 z"
         id="path11272"
         style="fill:#302d4f;fill-opacity:1" />
      <path
         d="m -874.43103,22.557644 h 8.11719 v 2.273437 h -5.10938 v 2.171875 h 4.80469 v 2.273438 h -4.80469 v 2.671875 h 5.28125 v 2.273437 h -8.28906 z"
         id="path11274"
         style="fill:#302d4f;fill-opacity:1" />
    </g>
    <circle
       style="fill:#66cea8;fill-opacity:1;fill-rule:evenodd;stroke:#000000;stroke-width:2.55828;stroke-linejoin:round;stroke-miterlimit:2;stroke-dasharray:none;stroke-opacity:1;stop-color:#000000"
       id="path11506-1"
       cx="495.44058"
       cy="-325.85468"
       r="35.59734"
       transform="rotate(90)" />
    <circle
       style="fill:#cc2c2a;fill-opacity:1;fill-rule:evenodd;stroke:#000000;stroke-width:2.46667;stroke-linejoin:round;stroke-miterlimit:2;stroke-dasharray:none;stroke-opacity:1;stop-color:#000000"
       id="path11632"
       cx="424.54337"
       cy="-292.71509"
       r="23.984251"
       transform="rotate(90)" />
    <path
       id="path51"
       bx:origin="0 0"
       style="fill:#9a0b1c;fill-opacity:1;stroke-width:1.66039"
       d="m 302.60593,419.2914 v 1.004 0 5.48014 0 c -0.002,0.0167 -0.002,0.0335 0,0.0502 v 0.0825 0 c -0.52589,4.13192 -9.04404,4.39846 -9.42693,0.28805 -0.36905,5.01162 -9.95283,4.67217 -10.35186,-0.28805 h -0.002 v -0.0215 c -0.002,-0.0382 0,-0.0765 0,-0.11475 v 0 -6.48056 z m -16.13673,6.58215 c 0.50975,1.57771 3.96268,1.67811 4.59006,0.0347 v 0 -3.98133 h -4.58545 z m 8.23444,-0.0382 c 1.24324,1.70321 3.9373,0.98009 4.26253,0.0729 v 0 -3.98133 h -4.25791 z" />
    <circle
       style="fill:#010000;fill-opacity:0.661121;fill-rule:evenodd;stroke:none;stroke-width:0.117356;stroke-linejoin:round;stroke-miterlimit:2;-inkscape-stroke:none;stop-color:#000000"
       id="path11632-1"
       cx="310"
       cy="-315.6586"
       r="15.99965"
       transform="rotate(90)" />
    <circle
       style="fill:#ececec;fill-opacity:1;fill-rule:evenodd;stroke:none;stroke-width:0.0927288;stroke-linejoin:round;stroke-miterlimit:2;-inkscape-stroke:none;stop-color:#000000"
       id="path11632-1-7"
       cx="310"
       cy="-315.6586"
       r="12.642089"
       transform="rotate(90)" />
    <path
       style="fill:#e6e6e6;fill-opacity:1;stroke:#010101;stroke-width:1.51963;stroke-linecap:butt;stroke-linejoin:miter;stroke-miterlimit:4;stroke-dasharray:none;stroke-opacity:1"
       d="m 410.252,471.02009 c 0.58161,1.86893 1.14935,4.03154 1.5126,6.62197 0.36325,2.59042 0.52214,5.6083 0.41586,8.21415 -0.10628,2.60586 -0.4775,4.79942 -0.97812,6.95841 -0.50062,2.159 -1.13044,4.28316 -1.84033,6.01575 -0.70989,1.73259 -1.49947,3.07352 -2.27024,4.15651 -0.77078,1.08299 -1.52244,1.9081 -2.5915,2.74597 -1.06905,0.83787 -2.45518,1.68877 -3.86918,2.27486 -1.41401,0.5861 -2.85366,0.90736 -4.38822,1.09785 -1.53456,0.19049 -3.15518,0.2493 -4.67106,-0.001 -1.51587,-0.25051 -2.94272,-0.81714 -4.22731,-1.50057 -1.2846,-0.68342 -2.43599,-1.48715 -3.47967,-2.5372 -1.04369,-1.05004 -1.97995,-2.34667 -2.69531,-3.92336 -0.71536,-1.57668 -1.20683,-3.42258 -1.50244,-5.22781 -0.29561,-1.80522 -0.39372,-3.56427 -0.62493,-5.87117 -0.23121,-2.3069 -0.59556,-5.1614 -1.16965,-7.74995 -0.57409,-2.58856 -1.35156,-4.89173 -2.13603,-6.92472 -0.78448,-2.03299 -1.56064,-3.75922 -2.27205,-5.36855 -0.7114,-1.60932 -1.36772,-3.12462 -1.93266,-4.77908 -0.56494,-1.65445 -1.04633,-3.46634 -1.13944,-5.28688 -0.0931,-1.82054 0.20244,-3.65007 0.78994,-5.30194 0.5875,-1.65187 1.46744,-3.12603 2.31694,-4.27797 0.84951,-1.15193 1.66882,-1.98142 2.78692,-2.84905 1.11809,-0.86763 2.53506,-1.77308 4.00802,-2.40692 1.47295,-0.63385 2.99381,-0.99367 4.53325,-1.03361 1.53945,-0.0399 3.08719,0.24032 4.41575,0.58101 1.32856,0.34069 2.41772,0.73674 3.63734,1.42644 1.21963,0.6897 2.56513,1.67143 4.00274,2.95866 1.43761,1.28723 2.96704,2.87975 4.48701,4.72891 1.51998,1.84915 3.00712,3.92239 4.19041,6.00529 1.18329,2.08291 2.051,4.15892 2.78262,5.98455 0.73162,1.82562 1.32713,3.40072 1.90874,5.26966 z"
       id="path11942" />
    <path
       style="fill:#e6e6e6;fill-opacity:1;stroke:#000000;stroke-width:1.51963;stroke-linecap:butt;stroke-linejoin:miter;stroke-miterlimit:4;stroke-dasharray:none;stroke-opacity:1"
       d="m 345.65191,581.12327 c -1.08164,0.28395 -3.24425,0.85169 -5.86726,1.21964 -2.62301,0.36796 -5.70603,0.53626 -8.25589,0.41842 -2.54987,-0.11784 -4.63534,-0.53536 -6.7617,-1.04064 -2.12636,-0.50528 -4.32804,-1.10512 -6.09939,-1.80003 -1.77135,-0.69492 -3.11228,-1.48449 -4.19527,-2.25527 -1.08299,-0.77078 -1.9081,-1.52244 -2.74597,-2.5915 -0.83787,-1.06905 -1.68876,-2.45519 -2.23486,-3.89156 -0.5461,-1.43636 -0.78794,-2.92292 -0.91357,-4.50117 -0.12564,-1.57826 -0.13523,-3.24341 0.0765,-4.73953 0.2117,-1.49612 0.64671,-2.82817 1.26556,-4.06814 0.61884,-1.23997 1.42257,-2.39136 2.47262,-3.43505 1.05005,-1.04369 2.34668,-1.97995 3.92341,-2.7546 1.57672,-0.77465 3.42263,-1.38401 5.22778,-1.67966 1.80514,-0.29566 3.56419,-0.27553 5.87112,-0.44758 2.30694,-0.17205 5.16144,-0.5364 7.74999,-1.11049 2.58856,-0.5741 4.89173,-1.35156 6.92472,-2.13603 2.03299,-0.78447 3.75921,-1.56064 5.36854,-2.27205 1.60933,-0.7114 3.12463,-1.36772 4.77909,-1.93266 1.65445,-0.56495 3.46634,-1.04633 5.28688,-1.13944 1.82054,-0.0931 3.65008,0.20243 5.30194,0.78993 1.65186,0.5875 3.12603,1.46745 4.27797,2.31695 1.15194,0.8495 1.98142,1.66881 2.84905,2.78691 0.86763,1.1181 1.77308,2.53507 2.40692,4.00803 0.63384,1.47296 0.99367,2.99381 1.01283,4.48599 0.0192,1.49219 -0.30374,2.95119 -0.64384,4.27695 -0.3401,1.32575 -0.69472,2.50911 -1.36363,3.77607 -0.6689,1.26696 -1.65063,2.61246 -2.93787,4.05007 -1.28723,1.43761 -2.87974,2.96703 -4.7289,4.48701 -1.84916,1.51997 -3.92239,3.00712 -5.94691,4.2008 -2.02452,1.19368 -3.98373,2.08213 -5.80993,2.81393 -1.8262,0.73179 -3.51686,1.30613 -4.36258,1.59343 -0.84571,0.2873 -0.84567,0.28731 -1.92732,0.57127 z"
       id="path11942-3" />
    <rect
       style="fill:#c9c8cd;fill-opacity:1;fill-rule:evenodd;stroke:none;stroke-width:0.174337;stroke-linejoin:round;stroke-miterlimit:2;-inkscape-stroke:none;stop-color:#000000"
       id="rect12476"
       width="26.095198"
       height="82.360443"
       x="192.82935"
       y="-232.78043"
       rx="5.5506177"
       ry="5.4509301"
       transform="rotate(90)" />
    <rect
       style="fill:#c9c8cd;fill-opacity:1;fill-rule:evenodd;stroke:none;stroke-width:0.174337;stroke-linejoin:round;stroke-miterlimit:2;-inkscape-stroke:none;stop-color:#000000"
       id="rect12476-5"
       width="26.095198"
       height="82.360443"
       x="-204.6478"
       y="-247.05713"
       rx="5.5506177"
       ry="5.4509301"
       transform="scale(-1)" />
    <path
       clip-path="url(#clipPath16)"
       bx:origin="0.5 0.5"
       d="m 225.73466,207.72743 c 2.12787,-1.01694 2.12787,-2.68256 0,-3.7005 l -8.2442,-3.94168 c -2.12787,-1.01864 -3.86848,-0.54303 -3.86848,1.05597 v 9.47192 c 0,1.5991 1.74061,2.07292 3.86848,1.05688 l 8.2442,-3.94259 c 2.12787,-1.01694 2.12787,-2.68256 0,-3.7005 l -8.2442,-3.94168 c -2.12787,-1.01864 -3.86848,-0.54303 -3.86848,1.05597 v 9.47192 c 0,1.5991 1.74061,2.07292 3.86848,1.05688 z"
       style="fill:#aeaeae;fill-opacity:1;fill-rule:nonzero;stroke:none;stroke-width:0.966354"
       id="path90-6" />
    <path
       clip-path="url(#clipPath16)"
       bx:origin="0.5 0.5"
       d="m 157.46573,207.72743 c -2.12787,-1.01694 -2.12787,-2.68256 0,-3.7005 l 8.2442,-3.94168 c 2.12787,-1.01864 3.86848,-0.54303 3.86848,1.05597 v 9.47192 c 0,1.5991 -1.74061,2.07292 -3.86848,1.05688 l -8.2442,-3.94259 c -2.12787,-1.01694 -2.12787,-2.68256 0,-3.7005 l 8.2442,-3.94168 c 2.12787,-1.01864 3.86848,-0.54303 3.86848,1.05597 v 9.47192 c 0,1.5991 -1.74061,2.07292 -3.86848,1.05688 z"
       style="fill:#aeaeae;fill-opacity:1;fill-rule:nonzero;stroke:none;stroke-width:0.966354"
       id="path90-6-2" />
    <path
       clip-path="url(#clipPath16)"
       bx:origin="0.5 0.5"
       d="m 189.7497,240.01135 c 1.01694,2.12788 2.68256,2.12788 3.7005,0 l 3.94169,-8.24422 c 1.01863,-2.12789 0.54302,-3.8685 -1.05598,-3.8685 h -9.47192 c -1.5991,0 -2.07292,1.74061 -1.05687,3.8685 l 3.94258,8.24422 c 1.01694,2.12788 2.68256,2.12788 3.7005,0 l 3.94169,-8.24422 c 1.01863,-2.12789 0.54302,-3.8685 -1.05598,-3.8685 h -9.47192 c -1.5991,0 -2.07292,1.74061 -1.05687,3.8685 z"
       style="fill:#aeaeae;fill-opacity:1;fill-rule:nonzero;stroke:none;stroke-width:0.966354"
       id="path90-6-3" />
    <path
       clip-path="url(#clipPath16)"
       bx:origin="0.5 0.5"
       d="m 189.7497,171.74238 c 1.01694,-2.12779 2.68256,-2.12779 3.7005,0 l 3.94169,8.24426 c 1.01863,2.12789 0.54302,3.86849 -1.05598,3.86849 h -9.47192 c -1.5991,0 -2.07292,-1.7406 -1.05687,-3.86849 l 3.94258,-8.24426 c 1.01694,-2.12779 2.68256,-2.12779 3.7005,0 l 3.94169,8.24426 c 1.01863,2.12789 0.54302,3.86849 -1.05598,3.86849 h -9.47192 c -1.5991,0 -2.07292,-1.7406 -1.05687,-3.86849 z"
       style="fill:#aeaeae;fill-opacity:1;fill-rule:nonzero;stroke:none;stroke-width:0.966354"
       id="path90-6-2-6" />
    <circle
       style="fill:#949494;fill-opacity:1;fill-rule:evenodd;stroke:none;stroke-width:0.128333;stroke-linejoin:round;stroke-miterlimit:2;-inkscape-stroke:none;stop-color:#000000"
       id="path12853"
       cx="205.87698"
       cy="-191.6002"
       r="6.7373462"
       transform="rotate(90)" />
    <path
       style="opacity:1;fill:#f0cd40;fill-opacity:1;fill-rule:evenodd;stroke:#000000;stroke-width:4.80953;stroke-linejoin:round;stroke-miterlimit:2;stroke-dasharray:none;stroke-opacity:1;stop-color:#000000"
       id="path13862-0-2"
       transform="matrix(-0.20042387,0.74799205,-0.74799205,-0.20042387,11.195091,1254.1479)"
       d="m -1060.0689,90.779495 -38.9085,29.499515 -48.4455,-6.09307 -29.4995,-38.908514 6.0931,-48.445525 38.9085,-29.4995191 48.4455,6.093076 29.4995,38.9085121 z" />
    <circle
       style="fill:#ececec;fill-opacity:1;fill-rule:evenodd;stroke:none;stroke-width:1.73736;stroke-linejoin:round;stroke-miterlimit:2;stroke-dasharray:none;stroke-opacity:0.856362;stop-color:#000000"
       id="path14146"
       cx="120.79637"
       cy="-328.0665"
       r="39.860893"
       transform="rotate(90)" />
    <circle
       style="fill:none;fill-opacity:0.661121;fill-rule:evenodd;stroke:#cfcfcf;stroke-width:2.38999;stroke-linejoin:round;stroke-miterlimit:2;stroke-dasharray:none;stroke-opacity:1;stop-color:#000000"
       id="path14146-2"
       cx="120.79637"
       cy="-328.0665"
       r="32.02372"
       transform="rotate(90)" />
    <circle
       style="fill:none;fill-opacity:0.661121;fill-rule:evenodd;stroke:#cfcfcf;stroke-width:2.38999;stroke-linejoin:round;stroke-miterlimit:2;stroke-dasharray:none;stroke-opacity:1;stop-color:#000000"
       id="path14146-2-5"
       cx="120.80136"
       cy="-328.06934"
       r="22.999159"
       transform="rotate(90)" />
    <circle
       style="fill:none;fill-opacity:0.661121;fill-rule:evenodd;stroke:#cfcfcf;stroke-width:2.38999;stroke-linejoin:round;stroke-miterlimit:2;stroke-dasharray:none;stroke-opacity:1;stop-color:#000000"
       id="path14146-2-5-2"
       cx="120.79637"
       cy="-328.0665"
       r="10.615281"
       transform="rotate(90)" />
    <circle
       style="fill:#ffde32;fill-opacity:1;fill-rule:evenodd;stroke:#d1b000;stroke-width:2.40459;stroke-linejoin:round;stroke-miterlimit:2;stroke-dasharray:none;stroke-opacity:1;stop-color:#000000"
       id="path15249-8"
       cx="408.01483"
       cy="-190.77151"
       r="26.065742"
       transform="rotate(90)" />
    <path
       id="path47"
       bx:origin="0 0"
       style="fill:#459e9c;fill-opacity:1;stroke-width:1.90271"
       d="m 335.91122,493.56293 -0.0266,1.8784 0.0266,1.8769 -20.08652,5.68765 -0.0266,-3.05727 5.03915,-1.42005 0.058,-6.15948 -5.09716,-1.43653 0.0266,-3.05727 z m -10.97496,3.81223 6.8663,-1.93383 -6.75754,-1.90387 z" />
    <path
       id="path49"
       bx:origin="0 0"
       style="fill:#b8b8b8;fill-opacity:1;stroke-width:1.77724"
       d="m 402.9577,472.4054 0.004,-3.36141 -9.96965,5.57076 h -8.18219 v 2.93789 h 8.22912 l 9.92272,5.54412 -0.006,-3.36141 -6.60164,-3.66498 z" />
    <path
       id="path44"
       bx:origin="0 0"
       style="fill:#b8b8b8;fill-opacity:1;stroke-width:1.58683"
       d="m 352.34147,561.49829 0.0658,-3.08543 -8.84282,3.89182 -9.63416,-4.15027 0.0373,2.90278 6.21672,2.73621 -6.21672,2.73507 -0.0373,2.90278 9.63416,-4.15028 8.84282,3.89182 -0.0658,-3.08542 -5.32454,-2.29397 z" />
    <g
       aria-label="C"
       transform="matrix(0,0.88664988,-1.1184507,0,383.70522,1232.9966)"
       id="text17008"
       style="font-size:24.0108px;line-height:1.25;font-family:Digitalt;-inkscape-font-specification:Digitalt;text-align:center;letter-spacing:0px;word-spacing:0px;text-anchor:middle;opacity:0.521972;fill:#695800;fill-opacity:1;stroke:none;stroke-width:0.60027;stroke-opacity:1">
      <path
         d="m -925.00237,180.73697 c -0.54712,0.28138 -1.1216,0.49241 -1.72343,0.6331 -0.60183,0.14069 -1.23493,0.21103 -1.8993,0.21103 -2.36043,0 -4.16202,-0.77769 -5.40477,-2.33308 -1.24275,-1.55539 -1.86412,-3.80249 -1.86412,-6.74131 0,-2.94664 0.62137,-5.19765 1.86412,-6.75304 1.24275,-1.55539 3.04434,-2.33308 5.40477,-2.33308 0.66437,0 1.30137,0.0703 1.91102,0.21103 0.60965,0.14069 1.18022,0.35172 1.71171,0.6331 v 3.29927 c -1.07914,-0.47206 -1.08472,-0.45445 -1.7039,-0.68915 -0.65704,-0.22785 -1.16067,-0.34738 -1.75469,-0.34738 -1.26619,0 -2.22365,0.50413 -2.87238,1.51239 -0.64091,1.00045 -0.96137,2.48941 -0.96137,4.46686 0,1.96963 0.32046,3.45858 0.96137,4.46685 0.64873,1.00045 1.60619,1.50067 2.87238,1.50067 0.59402,0 1.06794,-0.14904 1.72797,-0.34919 0.58078,-0.21525 0.98634,-0.33226 1.73062,-0.82673 z"
         style="font-weight:bold;font-family:'DejaVu Sans Mono';-inkscape-font-specification:'DejaVu Sans Mono Bold';fill:#695800;fill-opacity:1;stroke:none;stroke-opacity:1"
         id="path34810" />
    </g>
  </g>
</svg>
