<?xml version="1.0" encoding="UTF-8" standalone="no"?>
<!-- Generator: Adobe Illustrator 16.0.0, SVG Export Plug-In . SVG Version: 6.00 Build 0)  -->

<svg
   xmlns:dc="http://purl.org/dc/elements/1.1/"
   xmlns:cc="http://creativecommons.org/ns#"
   xmlns:rdf="http://www.w3.org/1999/02/22-rdf-syntax-ns#"
   xmlns:svg="http://www.w3.org/2000/svg"
   xmlns="http://www.w3.org/2000/svg"
   xmlns:sodipodi="http://sodipodi.sourceforge.net/DTD/sodipodi-0.dtd"
   xmlns:inkscape="http://www.inkscape.org/namespaces/inkscape"
   version="1.1"
   id="Layer_1"
   x="0px"
   y="0px"
   width="376"
   height="398"
   viewBox="0 0 375.99999 398"
   enable-background="new 0 0 376.657 398.629"
   xml:space="preserve"
   sodipodi:docname="game.svg"
   inkscape:version="0.92.5 (2060ec1f9f, 2020-04-08)"><metadata
   id="metadata53"><rdf:RDF><cc:Work
       rdf:about=""><dc:format>image/svg+xml</dc:format><dc:type
         rdf:resource="http://purl.org/dc/dcmitype/StillImage" /><dc:title></dc:title></cc:Work></rdf:RDF></metadata><defs
   id="defs51">
	
	
	
	
	
	
	
	
	
	
	
	
	
	
	
	
	
	
	
	
	
	
</defs><sodipodi:namedview
   pagecolor="#ffffff"
   bordercolor="#666666"
   borderopacity="1"
   objecttolerance="10"
   gridtolerance="10"
   guidetolerance="10"
   inkscape:pageopacity="0"
   inkscape:pageshadow="2"
   inkscape:window-width="3840"
   inkscape:window-height="2065"
   id="namedview49"
   showgrid="false"
   inkscape:zoom="1.8415295"
   inkscape:cx="194.93517"
   inkscape:cy="197.62668"
   inkscape:window-x="0"
   inkscape:window-y="0"
   inkscape:window-maximized="1"
   inkscape:current-layer="Layer_1" />

<g
   id="g1686"
   transform="matrix(4.6231977,0,0,4.6231977,-1658.207,-975.12284)"><path
     style="fill:#4e5895;fill-opacity:1;stroke-width:0.21592326"
     inkscape:connector-curvature="0"
     d="m 373.03831,285.23564 h 55.18091 c 1.30224,0 2.36976,-1.06644 2.36976,-2.36976 V 220.1039 c 0,-1.30396 -1.06731,-2.36976 -2.36976,-2.36976 h -57.54894 c -1.30375,0 -2.36954,1.0658 -2.36954,2.36976 v 60.39417 z"
     id="path2-6" /><path
     style="fill:#ffffff;stroke-width:0.21592326"
     inkscape:connector-curvature="0"
     d="m 410.3628,230.6958 h -0.0212 -0.07 c -0.36901,0 -0.8177,-0.14359 -1.13619,-0.36966 l -1.06234,-0.63006 c -0.21376,-0.13712 -0.45041,-0.21355 -0.55622,-0.21355 h -16.50172 c -0.1045,0 -0.3364,0.0764 -0.54347,0.20556 l -1.10985,0.66007 c -0.28394,0.20405 -0.73284,0.34764 -1.09991,0.34764 l -19.9973,-1.24847 -0.54996,-0.035 v -0.54995 -8.7585 c 0,-1.63044 1.32512,-2.95383 2.95534,-2.95383 h 57.54873 c 1.63044,0 2.95556,1.32339 2.95556,2.95383 v 8.6948 0.5465 l -0.5465,0.0402 z"
     id="path4-0" /><path
     style="fill:#323133;fill-opacity:1;stroke-width:0.21592326"
     inkscape:connector-curvature="0"
     d="m 428.21922,217.73414 c 1.30224,0 2.36976,1.06645 2.36976,2.36976 v 8.69307 l -20.26526,1.31368 c -0.016,0.002 -0.0358,0.002 -0.0518,0.002 -0.25803,0 -0.58623,-0.11596 -0.80129,-0.26451 l -1.09992,-0.65338 c -0.24507,-0.15525 -0.59249,-0.29711 -0.85354,-0.29711 h -16.50172 c -0.26127,0 -0.60718,0.14186 -0.85527,0.29711 l -1.09646,0.65338 c -0.21873,0.14855 -0.54369,0.26451 -0.80302,0.26451 -0.0162,0 -0.0358,0 -0.0522,-0.002 l -19.90748,-1.24998 v -8.75677 c 0,-1.3031 1.0658,-2.36976 2.36803,-2.36976 h 57.55024 m 0,-1.16922 h -57.55045 c -1.95173,0 -3.53812,1.58703 -3.53812,3.53898 v 8.75677 1.09905 l 1.09667,0.0684 19.90748,1.24998 0.0376,0.003 0.0881,0.002 c 0.47978,0 1.03945,-0.1803 1.46201,-0.4692 l 1.03643,-0.61539 c 0.13712,-0.0848 0.25933,-0.12825 0.2969,-0.13538 l 16.46091,0.003 c 0.005,0.006 0.12567,0.0505 0.22866,0.11422 l 1.12604,0.67304 c 0.35714,0.24744 0.91854,0.42925 1.40005,0.42925 h 0.0376 l 0.0898,-0.005 20.26483,-1.31368 1.09473,-0.07 v -1.09754 -8.69307 c 2.2e-4,-1.95195 -1.58747,-3.53898 -3.5392,-3.53898"
     id="path6-6" /><polygon
     transform="matrix(0.21592326,0,0,0.21592326,358.67099,210.92673)"
     style="fill:#202020;fill-opacity:1"
     points="335.784,303.873 335.784,306.582 335.784,344.141 335.784,346.85 333.079,346.85 44.591,346.85 41.886,346.85 41.886,344.141 41.886,306.582 41.886,303.873 44.591,303.873 333.079,303.873 "
     id="polygon8-2" /><path
     style="fill:#202020;fill-opacity:1;stroke-width:0.21592326"
     inkscape:connector-curvature="0"
     d="m 430.58877,285.23715 h -62.28782 v -8.1131 h 62.28803 v 8.1131 z m 1.16987,-9.28405 h -1.16987 -62.28782 -1.17009 v 1.16922 8.11483 1.16987 h 1.17009 62.28803 1.16987 v -1.16987 -8.11483 -1.16922 z"
     id="path10-6" /><path
     style="fill:#58595c;fill-opacity:1;stroke-width:0.21592326"
     inkscape:connector-curvature="0"
     d="m 438.41231,214.88331 c 0,-1.30224 -1.06731,-2.36954 -2.36975,-2.36954 H 362.6267 c -1.14223,0 -2.09877,0.81662 -2.3188,1.893 -0.0343,0.15416 -0.049,0.31416 -0.049,0.47654 v 66.31802 c 0,7.81383 6.3937,14.21077 14.20883,14.21077 h 61.58153 c 1.30223,0 2.36285,-1.06817 2.36285,-2.36975 v -78.15904 z m -7.82354,67.98257 c 0,1.3031 -1.06731,2.36976 -2.36976,2.36976 h -54.48888 c -0.61668,0 -0.81922,-0.12394 -1.21414,-0.51994 l -3.79226,-3.79313 c -0.34613,-0.34612 -0.42451,-0.71384 -0.42451,-1.14806 V 220.1039 c 0,-1.30396 1.0658,-2.36976 2.36976,-2.36976 h 57.55024 c 1.30224,0 2.36976,1.0658 2.36976,2.36976 v 62.76198 z"
     id="path12-1" /><path
     style="fill:none;stroke:#323133;stroke-width:1.16974258;stroke-opacity:1"
     inkscape:connector-curvature="0"
     d="m 438.41231,214.88331 c 0,-1.30224 -1.06731,-2.36954 -2.36975,-2.36954 H 362.6267 c -1.14223,0 -2.09877,0.81662 -2.3188,1.893 -0.0343,0.15416 -0.049,0.31416 -0.049,0.47654 v 66.31802 c 0,7.81383 6.3937,14.21077 14.20883,14.21077 h 61.58153 c 1.30223,0 2.36285,-1.06817 2.36285,-2.36975 v -78.15904 z m -7.82354,67.98257 c 0,1.3031 -1.06731,2.36976 -2.36976,2.36976 h -54.48888 c -0.61668,0 -0.81922,-0.12394 -1.21414,-0.51994 l -3.79226,-3.79313 c -0.34613,-0.34612 -0.42451,-0.71384 -0.42451,-1.14806 V 220.1039 c 0,-1.30396 1.0658,-2.36976 2.36976,-2.36976 h 57.55024 c 1.30224,0 2.36976,1.0658 2.36976,2.36976 v 62.76198 z"
     id="path14-8" /><path
     style="fill:#323132;fill-opacity:1;stroke-width:0.21592326"
     inkscape:connector-curvature="0"
     d="m 436.04256,212.51398 c 1.30223,0 2.36975,1.06796 2.36975,2.36954 v 78.15926 c 0,1.30223 -1.06061,2.36976 -2.36284,2.36976 h -61.58175 c -7.81664,0 -14.20883,-6.39803 -14.20883,-14.21078 v -66.31845 c 0,-0.16151 0.0162,-0.32238 0.0473,-0.47568 0.22045,-1.07789 1.17829,-1.89386 2.32052,-1.89386 h 73.41586 m 0,-1.58704 H 362.6267 c -1.87011,0 -3.50033,1.33009 -3.87409,3.16263 -0.0538,0.24809 -0.0816,0.51994 -0.0816,0.79395 v 66.31802 c 0,8.71121 7.08574,15.79867 15.79673,15.79867 h 61.58153 C 438.22792,297 440,295.2236 440,293.04256 v -78.15925 c 0,-2.18018 -1.77532,-3.95658 -3.95744,-3.95658"
     id="path16-7" /><polygon
     transform="matrix(0.21592326,0,0,0.21592326,358.67099,210.92673)"
     style="fill:#323133;fill-opacity:1"
     points="221.247,357.061 188.34,379 155.434,357.061 "
     id="polygon18-9" /><polygon
     transform="matrix(0.21592326,0,0,0.21592326,358.67099,210.92673)"
     style="fill:#010101"
     points="94.608,60.644 94.608,48.034 96.604,48.034 106.066,57.221 106.066,48.034 107.926,48.034 108.364,48.034 108.364,60.644 106.542,60.644 96.944,51.303 96.944,60.644 "
     id="polygon20-2" /><path
     style="fill:#939598;stroke-width:0.21592326"
     inkscape:connector-curvature="0"
     d="m 404.80494,224.34917 h -2.19853 c -0.31806,0 -0.57781,0.26105 -0.57781,0.57846 v 1.5676 c 0,0.31568 0.25975,0.57781 0.57781,0.57781 h 2.19853 c 0.31633,0 0.57738,-0.26213 0.57738,-0.57781 v -1.5676 c 0,-0.31741 -0.26105,-0.57846 -0.57738,-0.57846 m 0.0928,2.1426 c 0,0.0613 -0.0505,0.11207 -0.11249,0.11207 h -2.1588 c -0.062,0 -0.1125,-0.0505 -0.1125,-0.11207 v -1.56242 c 0,-0.062 0.0505,-0.11012 0.1125,-0.11012 h 2.1588 c 0.062,0 0.11249,0.0481 0.11249,0.11012 z"
     id="path22-0" /><polygon
     transform="matrix(0.21592326,0,0,0.21592326,358.67099,210.92673)"
     style="fill:#010101"
     points="118.015,60.644 118.015,48.034 120.003,48.034 129.465,57.221 129.465,48.034 131.332,48.034 131.763,48.034 131.763,60.644 129.949,60.644 120.351,51.303 120.351,60.644 "
     id="polygon24-2" /><polygon
     transform="matrix(0.21592326,0,0,0.21592326,358.67099,210.92673)"
     style="fill:#010101"
     points="166.528,60.644 166.528,48.034 168.517,48.034 177.971,57.221 177.971,48.034 179.846,48.034 180.283,48.034 180.283,60.644 178.455,60.644 168.856,51.303 168.856,60.644 "
     id="polygon26-3" /><polygon
     transform="matrix(0.21592326,0,0,0.21592326,358.67099,210.92673)"
     style="fill:#010101"
     points="114.35,60.644 112.021,60.644 112.021,48.037 113.927,48.037 114.35,48.037 "
     id="polygon28-7" /><polygon
     transform="matrix(0.21592326,0,0,0.21592326,358.67099,210.92673)"
     style="fill:#010101"
     points="142.465,50.21 142.465,60.644 140.046,60.644 140.046,50.21 134.408,50.21 134.408,48.037 147.664,48.037 148.095,48.037 148.095,50.21 "
     id="polygon30-5" /><polygon
     transform="matrix(0.21592326,0,0,0.21592326,358.67099,210.92673)"
     style="fill:#010101"
     points="160.792,53.037 160.792,55.202 153.053,55.202 153.053,58.475 163.052,58.475 163.052,60.644 150.748,60.644 150.748,48.037 162.629,48.037 163.052,48.037 163.052,50.21 153.053,50.21 153.053,53.037 "
     id="polygon32-9" /><path
     style="fill:#010101;stroke-width:0.21592326"
     inkscape:connector-curvature="0"
     d="m 401.22623,221.69741 c -0.19779,-0.26191 -0.48972,-0.39902 -0.84059,-0.39902 h -2.02018 v 2.72193 h 2.02018 c 0.35087,0 0.6428,-0.13733 0.84059,-0.39579 0.18439,-0.24399 0.28221,-0.57522 0.28221,-0.96453 0,-0.38931 -0.098,-0.72205 -0.28221,-0.96259 m -0.82742,1.85543 h -1.54709 v -1.78374 h 0.0132 1.53392 c 0.48453,0 0.65576,0.48 0.65576,0.89112 0,0.41111 -0.17123,0.89262 -0.65576,0.89262"
     id="path34-2" /><path
     style="fill:#010101;stroke-width:0.21592326"
     inkscape:connector-curvature="0"
     d="m 404.80494,221.29904 h -2.19853 c -0.31806,0 -0.57781,0.26126 -0.57781,0.57867 v 1.56739 c 0,0.31589 0.25975,0.57608 0.57781,0.57608 h 2.19853 c 0.31633,0 0.57738,-0.26019 0.57738,-0.57608 v -1.56739 c 0,-0.31741 -0.26105,-0.57867 -0.57738,-0.57867 m 0.0928,2.14282 c 0,0.0594 -0.0505,0.11012 -0.11249,0.11012 h -2.1588 c -0.062,0 -0.1125,-0.0505 -0.1125,-0.11012 v -1.56242 c 0,-0.062 0.0505,-0.11034 0.1125,-0.11034 h 2.1588 c 0.062,0 0.11249,0.0484 0.11249,0.11034 z"
     id="path36-2" /><path
     style="fill:#010101;stroke-width:0.21592326"
     inkscape:connector-curvature="0"
     d="m 413.95469,225.9239 c 0.52383,0.20555 1.62525,0.37376 2.48743,0.37376 0.94294,0 1.33311,-0.32561 1.33311,-0.73047 0,-0.36534 -0.36232,-0.57932 -1.4035,-0.96021 -1.39206,-0.51498 -2.41186,-0.91962 -2.41186,-1.8334 0,-0.94575 1.22731,-1.50391 3.10044,-1.50391 1.00534,0 1.35125,0.0654 1.98757,0.18202 l 0.007,0.89587 c -0.62661,-0.11919 -1.18326,-0.32237 -2.04674,-0.32237 -0.92696,0 -1.31994,0.29365 -1.31994,0.59486 0,0.4407 0.60696,0.6495 1.67254,1.03061 1.48188,0.5303 2.30779,0.93905 2.30779,1.83491 0,0.92048 -1.03146,1.5879 -3.36192,1.5879 -0.95784,0 -1.61856,-0.0652 -2.35162,-0.18267 z"
     id="path38-8" /><path
     style="fill:#010101;stroke-width:0.21592326"
     inkscape:connector-curvature="0"
     d="m 411.97229,226.65264 c -0.54995,0.24874 -1.58617,0.40636 -2.49542,0.40636 h -3.46622 v -5.77702 h 3.46622 c 0.90925,0 1.94547,0.16064 2.49542,0.40809 1.33635,0.60459 1.77209,1.56739 1.77209,2.48118 0,0.91551 -0.43228,1.87831 -1.77209,2.48139 m -2.97823,-4.58643 h -1.10833 v 4.19561 h 1.10833 c 1.70213,0 2.77743,-0.72702 2.77743,-2.09057 0,-1.36356 -1.07552,-2.10504 -2.77743,-2.10504"
     id="path40-9" /><path
     style="fill:#010101;stroke-width:0.21592326"
     inkscape:connector-curvature="0"
     d="m 421.24771,224.63332 c -0.66548,0 -1.20744,0.54175 -1.20744,1.20831 0,0.6685 0.54196,1.21003 1.20744,1.21003 0.66936,0 1.21111,-0.54175 1.21111,-1.21003 0,-0.66677 -0.54196,-1.20831 -1.21111,-1.20831 m 0,2.21106 c -0.55125,0 -1.00167,-0.44956 -1.00167,-1.00297 0,-0.5547 0.45042,-1.00123 1.00167,-1.00123 0.55492,0 1.0021,0.44631 1.0021,1.00123 -2.2e-4,0.55341 -0.44718,1.00297 -1.0021,1.00297"
     id="path42-7" /><path
     style="fill:#010101;stroke-width:0.21592326"
     inkscape:connector-curvature="0"
     d="m 421.26067,225.95909 h -0.25436 v 0.54499 h -0.20254 v -1.30569 h 0.19563 0.007 0.43401 v 0.003 c 0.19908,0 0.36232,0.17857 0.36232,0.37938 0,0.18591 -0.13711,0.34612 -0.31676,0.36966 l 0.32647,0.55319 h -0.22823 z m -0.25436,-0.18526 h 0.40788 0.0132 c 0.10127,0 0.1831,-0.0922 0.1831,-0.19412 0,-0.1004 -0.0818,-0.19735 -0.1831,-0.19735 l -0.0132,0.002 -0.40788,-0.002 z"
     id="path44-3" /></g></svg>