<?xml version="1.0" encoding="UTF-8" standalone="no"?>
<!-- Created with Inkscape (http://www.inkscape.org/) -->

<svg
   xmlns:dc="http://purl.org/dc/elements/1.1/"
   xmlns:cc="http://creativecommons.org/ns#"
   xmlns:rdf="http://www.w3.org/1999/02/22-rdf-syntax-ns#"
   xmlns:svg="http://www.w3.org/2000/svg"
   xmlns="http://www.w3.org/2000/svg"
   xmlns:sodipodi="http://sodipodi.sourceforge.net/DTD/sodipodi-0.dtd"
   xmlns:inkscape="http://www.inkscape.org/namespaces/inkscape"
   width="310mm"
   height="320mm"
   viewBox="0 0 310 320"
   version="1.1"
   id="svg275"
   inkscape:version="0.92.5 (2060ec1f9f, 2020-04-08)"
   sodipodi:docname="console.svg">
  <defs
     id="defs269" />
  <sodipodi:namedview
     id="base"
     pagecolor="#ffffff"
     bordercolor="#666666"
     borderopacity="1.0"
     inkscape:pageopacity="0.0"
     inkscape:pageshadow="2"
     inkscape:zoom="0.49497475"
     inkscape:cx="407.06154"
     inkscape:cy="607.69975"
     inkscape:document-units="mm"
     inkscape:current-layer="layer1"
     showgrid="false"
     inkscape:window-width="1920"
     inkscape:window-height="1141"
     inkscape:window-x="0"
     inkscape:window-y="0"
     inkscape:window-maximized="1" />
  <metadata
     id="metadata272">
    <rdf:RDF>
      <cc:Work
         rdf:about="">
        <dc:format>image/svg+xml</dc:format>
        <dc:type
           rdf:resource="http://purl.org/dc/dcmitype/StillImage" />
        <dc:title></dc:title>
      </cc:Work>
    </rdf:RDF>
  </metadata>
  <g
     inkscape:label="Layer 1"
     inkscape:groupmode="layer"
     id="layer1"
     transform="translate(0,23)">
    <g
       id="g260"
       transform="matrix(0.01986649,0,0,0.01986649,153.93865,136.53029)">
      <path
         d="m 7209.245,-612.972 c 249.398,84.035 478.436,318.448 478.436,684.015 v 176.682 c -0.381,55.266 9.232,105.475 29.725,156.441 11.129,26.814 27.566,50.467 31.615,80.689 3.67,28.455 46.035,281.27 46.035,648.922 V 7021.76 c 0,508.416 -400.408,926.654 -908.312,948.408 -1144.814,50.211 -2289.76,99.533 -3435.457,75.5 -25.927,-0.375 -60.199,-1.77 -95.99,-7.838 -94.479,-15.307 -188.95,-31.494 -283.171,-49.322 -35.917,-6.961 -109.021,-10.369 -109.021,-10.369 h -5765.747 c 0,0 -72.657,3.408 -108.64,10.369 -94.405,17.828 -188.817,34.016 -283.485,49.322 -35.346,6.068 -69.433,7.463 -95.926,7.838 -1145.511,24.033 -2290.892,-25.289 -3435.838,-75.5 -508.029,-21.754 -908.756,-439.992 -908.374,-948.408 l 0.567,-5887.982 c 0,-367.652 41.924,-620.467 45.274,-648.922 4.179,-30.223 20.492,-53.875 31.495,-80.689 21.117,-50.967 30.542,-101.176 30.033,-156.441 V 71.109 c 0,-365.375 228.729,-599.915 478.694,-684.081 v -6666.099 c 0,-343.935 279.063,-622.866 622.491,-622.866 H 6586.246 c 344.001,0 622.999,278.932 622.999,622.866 v 6666.099"
         id="path2"
         inkscape:connector-curvature="0"
         style="fill:#f1f1f2" />
      <path
         d="m -7059.082,-613.354 c -249.721,83.917 -478.442,318.33 -478.442,684.272 v 176.301 c 0.189,36.166 -4.364,70.064 -13.024,103.703 h -71.65 c -41.924,0 -54.257,-26.809 -54,-75.881 l 14.924,-428.101 c 0,-388.52 260.909,-628.941 602.192,-636.404 v 176.11"
         id="path4"
         inkscape:connector-curvature="0"
         style="fill:#58595b" />
      <path
         d="m 7198.493,-613.736 v -175.097 c 341.598,6.957 602.631,247.38 602.631,635.773 l 14.676,428.101 c 0.248,49.072 -12.273,75.881 -53.875,75.881 h -71.842 c -8.344,-33.639 -12.898,-67.537 -12.516,-103.703 V 70.918 c 0.125,-366.073 -228.787,-600.488 -479.074,-684.654"
         id="path6"
         inkscape:connector-curvature="0"
         style="fill:#58595b" />
      <path
         d="m -7048.712,-242.859 c 0,222.655 175.73,405.471 397.937,415.203 1136.404,48.314 2273.131,72.092 3410.542,72.092 V -857.881 H 3400.952 V 244.436 c 1137.603,0 2274.454,-24.283 3410.918,-72.466 221.581,-9.489 397.376,-192.298 397.376,-414.829 v -7036.212 c 0,-343.935 -278.748,-622.866 -622.999,-622.866 H -6426.352 c -343.428,0 -622.491,278.932 -622.491,622.866 v 7036.212 z"
         id="path8"
         inkscape:connector-curvature="0"
         style="fill:none;stroke:#231f20;stroke-width:17.48329926" />
      <path
         d="m 6296.884,4128.867 c 0,208.801 -169.477,378.396 -378.279,378.396 -208.928,0 -378.273,-169.596 -378.273,-378.396 0,-208.678 169.346,-378.404 378.273,-378.404 208.802,0 378.279,169.469 378.279,378.404"
         id="path10"
         inkscape:connector-curvature="0"
         style="fill:#77787b" />
      <path
         d="m 5918.604,3750.586 c 208.934,0 378.279,169.346 378.279,378.281 0,208.928 -169.346,378.396 -378.279,378.396 -208.928,0 -378.273,-169.469 -378.273,-378.396 0,-208.935 169.346,-378.281 378.273,-378.281 z"
         id="path12"
         inkscape:connector-curvature="0"
         style="fill:none;stroke:#231f20;stroke-width:17.48329926" />
      <path
         d="m 6296.884,2489.545 c 0,208.678 -169.477,378.148 -378.279,378.148 -208.928,0 -378.654,-169.471 -378.654,-378.148 0,-208.803 169.727,-378.398 378.654,-378.398 208.802,-10e-4 378.279,169.472 378.279,378.398"
         id="path14"
         inkscape:connector-curvature="0"
         style="fill:#58595b" />
      <path
         d="m 5918.479,2111.146 c 208.928,0 378.404,169.346 378.404,378.398 0,208.936 -169.477,378.406 -378.404,378.406 -208.927,0 -378.398,-169.471 -378.398,-378.406 0,-209.052 169.471,-378.398 378.398,-378.398 z"
         id="path16"
         inkscape:connector-curvature="0"
         style="fill:none;stroke:#231f20;stroke-width:17.48329926" />
      <path
         d="m 7123.369,3309.08 c 0,208.928 -169.472,378.148 -378.655,378.148 -208.803,0 -378.273,-169.221 -378.273,-378.148 0,-208.934 169.471,-378.404 378.273,-378.404 209.183,0 378.655,169.47 378.655,378.404"
         id="path18"
         inkscape:connector-curvature="0"
         style="fill:#77787b" />
      <path
         d="m 6744.839,2930.551 c 208.935,0 378.404,169.471 378.404,378.529 0,208.928 -169.47,378.398 -378.404,378.398 -208.928,0 -378.398,-169.471 -378.398,-378.398 0,-209.059 169.47,-378.529 378.398,-378.529 z"
         id="path20"
         inkscape:connector-curvature="0"
         style="fill:none;stroke:#231f20;stroke-width:17.48329926" />
      <path
         d="m 5482.409,3309.08 c 0,208.928 -169.471,378.148 -378.272,378.148 -208.81,0 -378.155,-169.221 -378.155,-378.148 0,-208.934 169.346,-378.404 378.155,-378.404 208.801,0 378.272,169.47 378.272,378.404"
         id="path22"
         inkscape:connector-curvature="0"
         style="fill:#58595b" />
      <path
         d="m 5455.594,4128.867 v -311.119 c 0,-29.6 -12.142,-41.607 -41.478,-41.607 h -311.25 c -257.873,0 -466.926,-209.186 -466.926,-467.061 0,-257.748 209.053,-466.676 466.926,-466.676 h 311.25 c 29.467,0 41.478,-12.141 41.478,-41.484 v -311.117 c 0,-257.875 208.809,-467.184 466.934,-467.184 257.749,0 466.8,209.309 466.8,467.184 v 311.117 c 0,29.594 12.273,41.484 41.61,41.484 h 311.124 c 257.743,0 467.052,208.928 467.052,466.676 0,257.875 -209.309,467.061 -467.052,467.061 h -311.124 c -29.593,0 -41.61,12.141 -41.61,41.607 v 311.119 c 0,257.873 -208.801,467.057 -466.8,467.057 -258.126,0 -466.934,-209.184 -466.934,-467.057 z m 26.815,-819.787 c 0,208.928 -169.471,378.148 -378.272,378.148 -208.81,0 -378.155,-169.221 -378.155,-378.148 0,-208.934 169.346,-378.404 378.155,-378.404 208.801,0 378.272,169.47 378.272,378.404 z"
         id="path24"
         inkscape:connector-curvature="0"
         style="fill:none;stroke:#231f20;stroke-width:17.48329926" />
      <path
         d="m 6047.479,1292.377 h 762.112 c 107.126,0.25 194.01,-86.76 194.01,-193.754 0,-107.25 -86.884,-193.76 -194.01,-193.377 h -762.112 c -14.793,0 -20.992,5.941 -20.992,20.617 v 345.514 c 0,14.926 6.2,21 20.992,21"
         id="path26"
         inkscape:connector-curvature="0"
         style="fill:#58595b" />
      <path
         d="m 6047.479,1292.377 h 762.112 c 107.126,0.25 194.01,-86.76 194.01,-193.754 0,-107.25 -86.884,-193.76 -194.01,-193.377 h -762.112 c -14.793,0 -20.992,5.941 -20.992,20.617 v 345.514 c 0,14.926 6.2,21 20.992,21 z"
         id="path28"
         inkscape:connector-curvature="0"
         style="fill:none;stroke:#231f20;stroke-width:17.48329926" />
      <path
         d="m 5801.872,1292.377 h -762.871 c -106.486,0.25 -193.752,-86.76 -193.752,-193.754 0,-107.25 87.266,-193.76 193.752,-193.377 h 762.871 c 14.293,0 20.865,5.941 20.865,20.617 v 345.514 c 0,14.926 -6.572,21 -20.865,21"
         id="path30"
         inkscape:connector-curvature="0"
         style="fill:#58595b" />
      <path
         d="M 6809.592,870.717 H 5034.954 c -125.584,0 -228.405,101.941 -228.405,228.031 0,126.342 102.821,228.781 228.405,228.781 h 1774.638 c 125.966,0 228.406,-102.439 228.406,-228.781 0,-126.09 -102.44,-228.031 -228.406,-228.031 z m -1007.72,421.66 h -762.871 c -106.486,0.25 -193.752,-86.76 -193.752,-193.754 0,-107.25 87.266,-193.76 193.752,-193.377 h 762.871 c 14.293,0 20.865,5.941 20.865,20.617 v 345.514 c 0,14.926 -6.572,21 -20.865,21 z"
         id="path32"
         inkscape:connector-curvature="0"
         style="fill:none;stroke:#231f20;stroke-width:17.48329926" />
      <path
         d="m -3032.378,7349.447 c 0,16.945 -13.72,30.986 -31.048,30.986 h -63.232 c -16.953,0 -30.923,-14.041 -30.923,-30.986 V 7103.97 c 0,-16.951 13.971,-30.738 30.923,-30.738 h 63.232 c 17.328,0 31.048,13.787 31.048,30.738 v 245.477"
         id="path34"
         inkscape:connector-curvature="0"
         style="fill:#4c4c4e" />
      <path
         d="m 2943.883,7349.447 c 0,16.945 -13.912,30.986 -31.114,30.986 h -62.726 c -17.201,0 -31.113,-14.041 -31.113,-30.986 V 7103.97 c 0,-16.951 13.912,-30.738 31.113,-30.738 h 62.726 c 17.202,0 31.114,13.787 31.114,30.738 v 245.477"
         id="path36"
         inkscape:connector-curvature="0"
         style="fill:#4c4c4e" />
      <path
         d="m 3318.74,7349.447 c 0,16.945 -14.161,30.986 -31.106,30.986 h -62.983 c -17.452,0 -31.495,-14.041 -31.495,-30.986 V 7103.97 c 0,-16.951 14.043,-30.738 31.495,-30.738 h 62.726 c 17.203,0 31.238,13.787 31.238,30.738 v 245.477"
         id="path38"
         inkscape:connector-curvature="0"
         style="fill:#4c4c4e" />
      <path
         d="m -6933.623,3688.873 c -98.144,-243.713 -98.144,-515.879 0,-759.709 13.213,-32.885 31.87,-45.781 67.471,-45.781 h 637.6 c 29.086,0 41.419,-12.143 41.295,-41.236 v -637.033 c 0,-35.793 12.583,-54.508 45.721,-67.787 243.832,-97.762 515.938,-97.762 759.837,0 33.008,13.535 45.53,31.994 45.53,67.787 v 637.033 c 0,29.219 11.952,41.236 41.478,41.236 h 637.417 c 35.476,0 54,12.896 67.222,45.781 98.583,243.83 98.583,515.996 0,759.709 -13.346,33.135 -31.746,45.656 -67.222,45.656 h -637.417 c -29.526,0 -41.478,12.143 -41.478,41.479 v 637.416 c 0,35.162 -12.522,53.877 -45.53,66.773 -243.898,98.9 -516.005,98.9 -759.837,0 -33.139,-12.896 -45.721,-31.611 -45.721,-66.773 v -637.416 c 0.125,-29.592 -12.208,-41.479 -41.295,-41.479 h -637.6 c -35.601,0 -54.258,-12.521 -67.471,-45.656 z m 738.843,-47.682 c 59.188,0 100.796,41.482 100.796,100.926 M 2913.025,-436.738 v -421.144 m -528.903,421.144 V -857.882 M 80.326,-436.738 v -421.144 m -2832.825,421.144 v -421.144 m 5091.598,168.647 v 933.67 H 125.285 v -933.67 z M 3356.433,261.131 V -762.398 H 2959.822 V 261.131 Z m -6560.493,0 V -762.398 h 405.088 V 261.131 Z M 7209.245,-612.972 c 249.398,84.035 478.436,318.448 478.436,684.015 v 176.682 c -0.381,55.266 9.232,105.475 29.725,156.441 11.129,26.814 27.566,50.467 31.615,80.689 3.67,28.455 46.035,281.27 46.035,648.922 V 7021.76 c 0,508.416 -400.408,926.654 -908.312,948.408 -1144.814,50.211 -2289.76,99.533 -3435.457,75.5 -25.927,-0.375 -60.199,-1.77 -95.99,-7.838 -94.479,-15.307 -188.95,-31.494 -283.171,-49.322 -35.917,-6.961 -109.021,-10.369 -109.021,-10.369 h -5765.747 c 0,0 -72.657,3.408 -108.64,10.369 -94.405,17.828 -188.817,34.016 -283.485,49.322 -35.346,6.068 -69.433,7.463 -95.926,7.838 -1145.511,24.033 -2290.892,-25.289 -3435.838,-75.5 -508.029,-21.754 -908.756,-439.992 -908.374,-948.408 l 0.567,-5887.982 c 0,-367.652 41.924,-620.467 45.274,-648.922 4.179,-30.223 20.492,-53.875 31.495,-80.689 21.117,-50.967 30.542,-101.176 30.033,-156.441 V 71.109 c 0,-365.375 228.729,-599.915 478.694,-684.081 m 9432.964,857.156 v -680.921 h 528.903 v 680.921 z m -5136.621,0 V -436.737 H 80.326 v 680.416 z m 9961.744,-774.51 c 171.615,91.819 292.902,269.765 292.902,515.183 v 7013.25 c 0,288.738 -261.664,657.777 -651.321,657.777 -1063.374,-3.664 -2126.989,-2.525 -3190.612,3.291 -86.252,0.25 -172.761,0.756 -259.013,0.756 h -6641.435 c -86.501,0 -172.886,-0.506 -259.263,-0.756 -1063.241,-5.816 -2126.99,-7.08 -3190.355,-3.291 -389.973,0 -651.959,-369.039 -651.959,-657.777 V -15.143 c 0,-244.912 121.477,-423.238 293.225,-514.926"
         id="path40"
         inkscape:connector-curvature="0"
         style="fill:none;stroke:#231f20;stroke-width:17.48329926" />
      <path
         d="m -6194.78,3641.191 h -606.494 c -38.443,0 -57.606,-13.912 -69.366,-50.842 -61.403,-195.268 -61.403,-367.521 0,-562.793 11.76,-36.68 31.679,-48.691 69.366,-48.691 l 606.494,0.633 c 57.226,0.506 103.771,-46.037 103.514,-103.453 l -0.822,-606.305 c -0.125,-37.562 11.825,-57.541 48.565,-69.176 195.082,-61.594 367.526,-61.594 562.857,0 36.616,11.635 48.822,31.613 48.822,69.176 l -0.888,606.305 c 0,60.955 44.01,100.92 103.71,100.92 h 606.488 c 38.7,0 57.606,13.662 69.115,50.592 61.654,195.271 61.654,367.525 0,562.793 -11.383,36.68 -30.415,50.842 -69.115,50.842 h -606.488 c -59.7,0 -100.86,41.482 -100.86,100.926 v 606.047 c 0,38.951 -14.044,57.924 -50.658,69.434 -195.142,61.594 -367.777,61.594 -562.859,0 -36.74,-11.51 -50.585,-30.482 -50.585,-69.434 v -606.047"
         id="path42"
         inkscape:connector-curvature="0"
         style="fill:#58595b" />
      <path
         d="m -4999.189,1306.031 c 0,29.092 -23.527,52.236 -52.046,52.236 h -1421.469 c -28.771,0 -52.04,-23.145 -52.04,-52.236 V 891.084 c 0,-28.205 23.46,-51.473 52.04,-51.473 h 1421.469 c 28.52,0 52.046,23.395 52.046,51.473 z m 8607.547,5199.223 h -7056.19 c -64.062,0 -103.453,-37.18 -103.453,-104.717 V 559.35 c 0,-62.227 50.9,-103.961 103.453,-103.961 h 7056.19 c 75.507,0 103.585,51.98 103.585,103.961 v 5841.188 c 0,71.833 -50.973,104.716 -103.585,104.716 z M -5429.126,3309.08 c 0,184.396 -149.617,334.645 -333.887,334.389 -184.645,0 -334.261,-149.742 -334.261,-334.389 0,-184.27 149.617,-334.893 334.261,-334.393 184.27,0 333.887,149.618 333.887,334.393 z m -765.654,332.111 h -606.494 c -38.443,0 -57.606,-13.912 -69.366,-50.842 -61.403,-195.268 -61.403,-367.521 0,-562.793 11.76,-36.68 31.679,-48.691 69.366,-48.691 l 606.494,0.633 c 57.226,0.506 103.771,-46.037 103.514,-103.453 l -0.822,-606.305 c -0.125,-37.562 11.825,-57.541 48.565,-69.176 195.082,-61.594 367.526,-61.594 562.857,0 36.616,11.635 48.822,31.613 48.822,69.176 l -0.888,606.305 c 0,60.955 44.01,100.92 103.71,100.92 h 606.488 c 38.7,0 57.606,13.662 69.115,50.592 61.654,195.271 61.654,367.525 0,562.793 -11.383,36.68 -30.415,50.842 -69.115,50.842 h -606.488 c -59.7,0 -100.86,41.482 -100.86,100.926 v 606.047 c 0,38.951 -14.044,57.924 -50.658,69.434 -195.142,61.594 -367.777,61.594 -562.859,0 -36.74,-11.51 -50.585,-30.482 -50.585,-69.434 v -606.047"
         id="path44"
         inkscape:connector-curvature="0"
         style="fill:none;stroke:#231f20;stroke-width:17.48329926" />
      <path
         d="m -5249.095,1269.865 c 0,17.451 -14.167,31.361 -31.494,31.361 h -963.518 c -17.386,0 -31.239,-13.91 -31.239,-31.361 V 927.633 c 0,-17.201 13.853,-31.238 31.239,-31.238 h 963.518 c 17.328,0 31.494,14.037 31.494,31.238 v 342.232"
         id="path46"
         inkscape:connector-curvature="0"
         style="fill:#58595b" />
      <path
         d="m -5249.095,1269.865 c 0,17.451 -14.167,31.361 -31.494,31.361 h -963.518 c -17.386,0 -31.239,-13.91 -31.239,-31.361 V 927.633 c 0,-17.201 13.853,-31.238 31.239,-31.238 h 963.518 c 17.328,0 31.494,14.037 31.494,31.238 z"
         id="path48"
         inkscape:connector-curvature="0"
         style="fill:none;stroke:#231f20;stroke-width:17.48329926" />
      <path
         d="m -3385.547,-6998.935 c -85.937,0 -155.624,69.815 -155.624,155.81 v 5707.067 c 0,86.252 69.688,155.809 155.624,155.809 h 6931.936 c 85.495,0 155.31,-69.682 155.31,-155.809 v -5707.067 c 0,-85.995 -69.814,-155.81 -155.31,-155.81 h -6931.936"
         id="path50"
         inkscape:connector-curvature="0"
         style="fill:#58595b" />
      <path
         d="m 4417.647,-767.458 v -238.968 c 0,-42.998 34.91,-77.716 77.908,-77.716 h 238.902 c 42.747,0 77.783,34.843 77.783,77.716 v 238.843 c 0,42.998 -35.036,77.527 -77.783,77.527 h -238.902 c -42.997,-10e-4 -77.908,-34.53 -77.908,-77.402 z m 0,-6236.663 v -238.901 c 0,-42.879 34.91,-77.718 77.908,-77.718 h 238.902 c 42.747,0 77.783,34.969 77.783,77.718 v 238.901 c 0,43 -35.036,77.967 -77.783,77.967 h -238.902 c -42.997,0 -77.908,-34.967 -77.908,-77.967 z m -9068.98,6236.663 v -238.968 c 0,-42.998 34.845,-77.716 77.593,-77.716 h 238.835 c 42.939,0 77.533,34.843 77.533,77.716 v 238.843 c 0,42.998 -34.594,77.527 -77.533,77.527 h -238.835 c -42.747,-10e-4 -77.593,-34.53 -77.593,-77.402 z m 0,-6236.663 v -238.901 c 0,-42.879 34.845,-77.718 77.593,-77.718 h 238.835 c 42.939,0 77.533,34.969 77.533,77.718 v 238.901 c 0,43 -34.594,77.967 -77.533,77.967 h -238.835 c -42.747,0 -77.593,-34.967 -77.593,-77.967 z M 7473.693,6535.104 c 0,0 -467.058,5.436 -700.269,5.436 H 4339.239 c -120.023,0 -254.465,-46.414 -254.465,-176.684 V 596.529 c 0,-76.895 60.838,-176.176 254.465,-176.176 h 2434.186 c 0,0 467.059,1.645 700.269,4.936 0,50.336 -112.43,60.074 -162.515,60.074 h -2908.2 c -54.764,0 -86.758,66.648 -86.758,96.117 v 5797.426 c 0,51.605 36.291,96.123 86.758,96.123 h 2908.199 c 113.444,0 162.515,30.225 162.515,60.075 z m -14786.86,0 c 0,0 466.869,5.436 700.336,5.436 h 2434.06 c 120.207,0 254.399,-46.414 254.399,-176.684 V 596.529 c 0,-76.895 -60.647,-176.176 -254.399,-176.176 h -2434.06 c 0,0 -467.251,1.645 -700.336,4.936 0,50.336 111.99,60.074 162.266,60.074 h 2908.705 c 54.258,0 86.501,66.648 86.501,96.117 v 5797.426 c 0,51.605 -36.107,96.123 -86.501,96.123 h -2908.705 c -113.319,0 -162.266,30.225 -162.266,60.075 z m 3927.62,-13534.039 c -85.937,0 -155.624,69.815 -155.624,155.81 v 5707.067 c 0,86.252 69.688,155.809 155.624,155.809 h 6931.936 c 85.495,0 155.31,-69.682 155.31,-155.809 v -5707.067 c 0,-85.995 -69.814,-155.81 -155.31,-155.81 z"
         id="path52"
         inkscape:connector-curvature="0"
         style="fill:none;stroke:#231f20;stroke-width:17.48329926" />
      <path
         d="m -6114.601,-2972.731 c 0,-28.46 -23.203,-51.663 -52.04,-51.663 -28.646,0 -51.855,23.203 -51.855,51.663 0,29.021 23.209,51.981 51.855,51.981 28.704,0 52.04,-23.084 52.04,-51.981"
         id="path54"
         inkscape:connector-curvature="0"
         style="fill:#231f20" />
      <path
         d="m -5772.306,-2972.731 c 0,-28.46 -23.085,-51.663 -52.104,-51.663 -28.586,0 -51.789,23.203 -51.789,51.663 0,29.021 23.203,51.981 51.789,51.981 29.019,0 52.104,-23.084 52.104,-51.981"
         id="path56"
         inkscape:connector-curvature="0"
         style="fill:#231f20" />
      <path
         d="m -5429.882,-2972.731 c 0,-28.46 -23.211,-51.663 -51.98,-51.663 -28.588,0 -52.046,23.203 -52.046,51.663 0,29.021 23.585,51.981 52.046,51.981 28.644,0 51.98,-23.084 51.98,-51.981"
         id="path58"
         inkscape:connector-curvature="0"
         style="fill:#231f20" />
      <path
         d="m -5087.212,-2972.731 c 0,-28.46 -23.591,-51.663 -52.104,-51.663 -28.71,0 -51.922,23.203 -51.922,51.663 0,29.021 23.211,51.981 51.922,51.981 28.513,0 52.104,-23.084 52.104,-51.981"
         id="path60"
         inkscape:connector-curvature="0"
         style="fill:#231f20" />
      <path
         d="m -4744.79,-2972.731 c 0,-28.46 -23.592,-51.663 -51.98,-51.663 -29.092,0 -52.295,23.203 -52.295,51.663 0,29.021 23.203,51.981 52.295,51.981 28.388,0 51.98,-23.084 51.98,-51.981"
         id="path62"
         inkscape:connector-curvature="0"
         style="fill:#231f20" />
      <path
         d="m -4402.939,-2972.731 c 0,-28.46 -23.146,-51.663 -51.665,-51.663 -28.771,0 -51.664,23.203 -51.664,51.663 0,29.021 23.078,51.981 51.664,51.981 28.519,0 51.665,-23.084 51.665,-51.981"
         id="path64"
         inkscape:connector-curvature="0"
         style="fill:#231f20" />
      <path
         d="m -4060.145,-2972.731 c 0,-28.46 -23.519,-51.663 -52.296,-51.663 -28.52,0 -51.531,23.203 -51.531,51.663 0,29.021 23.012,51.981 51.531,51.981 28.778,0 52.296,-23.084 52.296,-51.981"
         id="path66"
         inkscape:connector-curvature="0"
         style="fill:#231f20" />
      <path
         d="m -6114.601,-2495.624 c 0,-28.704 -23.203,-51.914 -52.04,-51.914 -28.646,0 -51.855,23.209 -51.855,51.914 0,28.777 23.209,51.922 51.855,51.922 28.704,0.125 52.04,-23.02 52.04,-51.922"
         id="path68"
         inkscape:connector-curvature="0"
         style="fill:#231f20" />
      <path
         d="m -5772.306,-2495.624 c 0,-28.704 -23.085,-51.914 -52.104,-51.914 -28.586,0 -51.789,23.209 -51.789,51.914 0,28.777 23.203,51.922 51.789,51.922 29.019,0.125 52.104,-23.02 52.104,-51.922"
         id="path70"
         inkscape:connector-curvature="0"
         style="fill:#231f20" />
      <path
         d="m -5429.882,-2495.624 c 0,-28.704 -23.211,-51.914 -51.98,-51.914 -28.588,0 -52.046,23.209 -52.046,51.914 0,28.777 23.585,51.922 52.046,51.922 28.644,0.125 51.98,-23.02 51.98,-51.922"
         id="path72"
         inkscape:connector-curvature="0"
         style="fill:#231f20" />
      <path
         d="m -5087.212,-2495.624 c 0,-28.704 -23.591,-51.914 -52.104,-51.914 -28.71,0 -51.922,23.209 -51.922,51.914 0,28.777 23.211,51.922 51.922,51.922 28.513,0.125 52.104,-23.02 52.104,-51.922"
         id="path74"
         inkscape:connector-curvature="0"
         style="fill:#231f20" />
      <path
         d="m -4744.79,-2495.624 c 0,-28.704 -23.592,-51.914 -51.98,-51.914 -29.092,0 -52.295,23.209 -52.295,51.914 0,28.777 23.203,51.922 52.295,51.922 28.388,0.125 51.98,-23.02 51.98,-51.922"
         id="path76"
         inkscape:connector-curvature="0"
         style="fill:#231f20" />
      <path
         d="m -4402.939,-2495.624 c 0,-28.704 -23.146,-51.914 -51.665,-51.914 -28.771,0 -51.664,23.209 -51.664,51.914 0,28.777 23.078,51.922 51.664,51.922 28.519,0.125 51.665,-23.02 51.665,-51.922"
         id="path78"
         inkscape:connector-curvature="0"
         style="fill:#231f20" />
      <path
         d="m -4060.145,-2495.624 c 0,-28.704 -23.519,-51.914 -52.296,-51.914 -28.52,0 -51.531,23.209 -51.531,51.914 0,28.777 23.012,51.922 51.531,51.922 28.778,0.125 52.296,-23.02 52.296,-51.922"
         id="path80"
         inkscape:connector-curvature="0"
         style="fill:#231f20" />
      <path
         d="m -6114.601,-2018.634 c 0,-28.771 -23.203,-51.664 -52.04,-51.664 -28.646,0 -51.855,23.018 -51.855,51.664 0,28.769 23.209,51.914 51.855,51.914 28.704,0.124 52.04,-23.019 52.04,-51.914"
         id="path82"
         inkscape:connector-curvature="0"
         style="fill:#231f20" />
      <path
         d="m -5772.306,-2018.634 c 0,-28.771 -23.085,-51.664 -52.104,-51.664 -28.586,0 -51.789,23.018 -51.789,51.664 0,28.769 23.203,51.914 51.789,51.914 29.019,0.124 52.104,-23.019 52.104,-51.914"
         id="path84"
         inkscape:connector-curvature="0"
         style="fill:#231f20" />
      <path
         d="m -5429.882,-2018.634 c 0,-28.771 -23.211,-51.664 -51.98,-51.664 -28.588,0 -52.046,23.018 -52.046,51.664 0,28.769 23.585,51.914 52.046,51.914 28.644,0.124 51.98,-23.019 51.98,-51.914"
         id="path86"
         inkscape:connector-curvature="0"
         style="fill:#231f20" />
      <path
         d="m -5087.212,-2018.634 c 0,-28.771 -23.591,-51.664 -52.104,-51.664 -28.71,0 -51.922,23.018 -51.922,51.664 0,28.769 23.211,51.914 51.922,51.914 28.513,0.124 52.104,-23.019 52.104,-51.914"
         id="path88"
         inkscape:connector-curvature="0"
         style="fill:#231f20" />
      <path
         d="m -4744.79,-2018.634 c 0,-28.771 -23.592,-51.664 -51.98,-51.664 -29.092,0 -52.295,23.018 -52.295,51.664 0,28.769 23.203,51.914 52.295,51.914 28.388,0.124 51.98,-23.019 51.98,-51.914"
         id="path90"
         inkscape:connector-curvature="0"
         style="fill:#231f20" />
      <path
         d="m -4402.939,-2018.634 c 0,-28.771 -23.146,-51.664 -51.665,-51.664 -28.771,0 -51.664,23.018 -51.664,51.664 0,28.769 23.078,51.914 51.664,51.914 28.519,0.124 51.665,-23.019 51.665,-51.914"
         id="path92"
         inkscape:connector-curvature="0"
         style="fill:#231f20" />
      <path
         d="m -4060.145,-2018.634 c 0,-28.771 -23.519,-51.664 -52.296,-51.664 -28.52,0 -51.531,23.018 -51.531,51.664 0,28.769 23.012,51.914 51.531,51.914 28.778,0.124 52.296,-23.019 52.296,-51.914"
         id="path94"
         inkscape:connector-curvature="0"
         style="fill:#231f20" />
      <path
         d="m -6114.601,-1541.146 c 0,-28.771 -23.203,-52.295 -52.04,-52.295 -28.646,0 -51.855,23.524 -51.855,52.295 0,28.646 23.209,51.789 51.855,51.789 28.704,-0.125 52.04,-23.27 52.04,-51.789"
         id="path96"
         inkscape:connector-curvature="0"
         style="fill:#231f20" />
      <path
         d="m -5772.306,-1541.146 c 0,-28.771 -23.085,-52.295 -52.104,-52.295 -28.586,0 -51.789,23.524 -51.789,52.295 0,28.646 23.203,51.789 51.789,51.789 29.019,-0.125 52.104,-23.27 52.104,-51.789"
         id="path98"
         inkscape:connector-curvature="0"
         style="fill:#231f20" />
      <path
         d="m -5429.882,-1541.146 c 0,-28.771 -23.211,-52.295 -51.98,-52.295 -28.588,0 -52.046,23.524 -52.046,52.295 0,28.646 23.585,51.789 52.046,51.789 28.644,-0.125 51.98,-23.27 51.98,-51.789"
         id="path100"
         inkscape:connector-curvature="0"
         style="fill:#231f20" />
      <path
         d="m -5087.212,-1541.146 c 0,-28.771 -23.591,-52.295 -52.104,-52.295 -28.71,0 -51.922,23.524 -51.922,52.295 0,28.646 23.211,51.789 51.922,51.789 28.513,-0.125 52.104,-23.27 52.104,-51.789"
         id="path102"
         inkscape:connector-curvature="0"
         style="fill:#231f20" />
      <path
         d="m -4744.79,-1541.146 c 0,-28.771 -23.592,-52.295 -51.98,-52.295 -29.092,0 -52.295,23.524 -52.295,52.295 0,28.646 23.203,51.789 52.295,51.789 28.388,-0.125 51.98,-23.27 51.98,-51.789"
         id="path104"
         inkscape:connector-curvature="0"
         style="fill:#231f20" />
      <path
         d="m -4402.939,-1541.146 c 0,-28.771 -23.146,-52.295 -51.665,-52.295 -28.771,0 -51.664,23.524 -51.664,52.295 0,28.646 23.078,51.789 51.664,51.789 28.519,-0.125 51.665,-23.27 51.665,-51.789"
         id="path106"
         inkscape:connector-curvature="0"
         style="fill:#231f20" />
      <path
         d="m -4060.145,-1541.146 c 0,-28.771 -23.519,-52.295 -52.296,-52.295 -28.52,0 -51.531,23.524 -51.531,52.295 0,28.646 23.012,51.789 51.531,51.789 28.778,-0.125 52.296,-23.27 52.296,-51.789"
         id="path108"
         inkscape:connector-curvature="0"
         style="fill:#231f20" />
      <path
         d="m 4324.44,-2972.731 c 0,-28.46 -22.512,-51.663 -51.855,-51.663 -28.579,0 -51.598,23.203 -51.598,51.663 0,29.021 23.019,51.981 51.598,51.981 29.344,0 51.855,-23.084 51.855,-51.981"
         id="path110"
         inkscape:connector-curvature="0"
         style="fill:#231f20" />
      <path
         d="m 4667.053,-2972.731 c 0,-28.46 -23.15,-51.663 -51.729,-51.663 -28.963,0 -51.98,23.203 -51.98,51.663 0,29.021 23.145,51.981 51.98,51.981 28.578,0 51.729,-23.084 51.729,-51.981"
         id="path112"
         inkscape:connector-curvature="0"
         style="fill:#231f20" />
      <path
         d="m 5009.915,-2972.731 c 0,-28.46 -23.782,-51.663 -52.361,-51.663 -28.58,0 -51.348,23.203 -51.348,51.663 0,29.021 22.768,51.981 51.348,51.981 28.579,0 52.361,-23.084 52.361,-51.981"
         id="path114"
         inkscape:connector-curvature="0"
         style="fill:#231f20" />
      <path
         d="m 5352.015,-2972.731 c 0,-28.46 -23.144,-51.663 -51.724,-51.663 -28.712,0 -52.362,23.203 -52.362,51.663 0,29.021 23.65,51.981 52.362,51.981 28.58,0 51.724,-23.084 51.724,-51.981"
         id="path116"
         inkscape:connector-curvature="0"
         style="fill:#231f20" />
      <path
         d="m 5694.371,-2972.731 c 0,-28.46 -23.27,-51.663 -51.599,-51.663 -28.837,0 -52.23,23.203 -52.23,51.663 0,29.021 23.65,51.981 52.23,51.981 28.33,0 51.599,-23.084 51.599,-51.981"
         id="path118"
         inkscape:connector-curvature="0"
         style="fill:#231f20" />
      <path
         d="m 6036.477,-2972.731 c 0,-28.46 -23.651,-51.663 -51.599,-51.663 -28.712,0 -51.98,23.203 -51.98,51.663 0,29.021 23.395,51.981 51.98,51.981 27.947,0 51.599,-23.084 51.599,-51.981"
         id="path120"
         inkscape:connector-curvature="0"
         style="fill:#231f20" />
      <path
         d="m 6378.958,-2972.731 c 0,-28.46 -23.145,-51.663 -52.23,-51.663 -28.33,0 -51.474,23.203 -51.474,51.663 0,29.021 23.144,51.981 51.474,51.981 29.085,0 52.23,-23.084 52.23,-51.981"
         id="path122"
         inkscape:connector-curvature="0"
         style="fill:#231f20" />
      <path
         d="m 4324.44,-2495.624 c 0,-28.704 -22.512,-51.914 -51.855,-51.914 -28.579,0 -51.598,23.209 -51.598,51.914 0,28.777 23.019,51.922 51.598,51.922 29.344,0.125 51.855,-23.02 51.855,-51.922"
         id="path124"
         inkscape:connector-curvature="0"
         style="fill:#231f20" />
      <path
         d="m 4667.053,-2495.624 c 0,-28.704 -23.15,-51.914 -51.729,-51.914 -28.963,0 -51.98,23.209 -51.98,51.914 0,28.777 23.145,51.922 51.98,51.922 28.578,0.125 51.729,-23.02 51.729,-51.922"
         id="path126"
         inkscape:connector-curvature="0"
         style="fill:#231f20" />
      <path
         d="m 5009.915,-2495.624 c 0,-28.704 -23.782,-51.914 -52.361,-51.914 -28.58,0 -51.348,23.209 -51.348,51.914 0,28.777 22.768,51.922 51.348,51.922 28.579,0 52.361,-23.02 52.361,-51.922"
         id="path128"
         inkscape:connector-curvature="0"
         style="fill:#231f20" />
      <path
         d="m 5352.015,-2495.624 c 0,-28.704 -23.144,-51.914 -51.724,-51.914 -28.712,0 -52.362,23.209 -52.362,51.914 0,28.777 23.65,51.922 52.362,51.922 28.58,0 51.724,-23.02 51.724,-51.922"
         id="path130"
         inkscape:connector-curvature="0"
         style="fill:#231f20" />
      <path
         d="m 5694.371,-2495.624 c 0,-28.704 -23.27,-51.914 -51.599,-51.914 -28.837,0 -52.23,23.209 -52.23,51.914 0,28.777 23.65,51.922 52.23,51.922 28.33,0.125 51.599,-23.02 51.599,-51.922"
         id="path132"
         inkscape:connector-curvature="0"
         style="fill:#231f20" />
      <path
         d="m 6036.477,-2495.624 c 0,-28.704 -23.651,-51.914 -51.599,-51.914 -28.712,0 -51.98,23.209 -51.98,51.914 0,28.777 23.395,51.922 51.98,51.922 27.947,0.125 51.599,-23.02 51.599,-51.922"
         id="path134"
         inkscape:connector-curvature="0"
         style="fill:#231f20" />
      <path
         d="m 6378.958,-2495.624 c 0,-28.704 -23.145,-51.914 -52.23,-51.914 -28.33,0 -51.474,23.209 -51.474,51.914 0,28.777 23.144,51.922 51.474,51.922 29.085,0.125 52.23,-23.02 52.23,-51.922"
         id="path136"
         inkscape:connector-curvature="0"
         style="fill:#231f20" />
      <path
         d="m 4324.44,-2018.634 c 0,-28.771 -22.512,-51.664 -51.855,-51.664 -28.579,0 -51.598,23.018 -51.598,51.664 0,28.769 23.019,51.914 51.598,51.914 29.344,0.124 51.855,-23.019 51.855,-51.914"
         id="path138"
         inkscape:connector-curvature="0"
         style="fill:#231f20" />
      <path
         d="m 4667.053,-2018.634 c 0,-28.771 -23.15,-51.664 -51.729,-51.664 -28.963,0 -51.98,23.018 -51.98,51.664 0,28.769 23.145,51.914 51.98,51.914 28.578,0.124 51.729,-23.019 51.729,-51.914"
         id="path140"
         inkscape:connector-curvature="0"
         style="fill:#231f20" />
      <path
         d="m 5009.915,-2018.634 c 0,-28.771 -23.782,-51.664 -52.361,-51.664 -28.58,0 -51.348,23.018 -51.348,51.664 0,28.769 22.768,51.914 51.348,51.914 28.579,-10e-4 52.361,-23.019 52.361,-51.914"
         id="path142"
         inkscape:connector-curvature="0"
         style="fill:#231f20" />
      <path
         d="m 5352.015,-2018.634 c 0,-28.771 -23.144,-51.664 -51.724,-51.664 -28.712,0 -52.362,23.018 -52.362,51.664 0,28.769 23.65,51.914 52.362,51.914 28.58,-10e-4 51.724,-23.019 51.724,-51.914"
         id="path144"
         inkscape:connector-curvature="0"
         style="fill:#231f20" />
      <path
         d="m 5694.371,-2018.634 c 0,-28.771 -23.27,-51.664 -51.599,-51.664 -28.837,0 -52.23,23.018 -52.23,51.664 0,28.769 23.65,51.914 52.23,51.914 28.33,0.124 51.599,-23.019 51.599,-51.914"
         id="path146"
         inkscape:connector-curvature="0"
         style="fill:#231f20" />
      <path
         d="m 6036.477,-2018.634 c 0,-28.771 -23.651,-51.664 -51.599,-51.664 -28.712,0 -51.98,23.018 -51.98,51.664 0,28.769 23.395,51.914 51.98,51.914 27.947,0.124 51.599,-23.019 51.599,-51.914"
         id="path148"
         inkscape:connector-curvature="0"
         style="fill:#231f20" />
      <path
         d="m 6378.958,-2018.634 c 0,-28.771 -23.145,-51.664 -52.23,-51.664 -28.33,0 -51.474,23.018 -51.474,51.664 0,28.769 23.144,51.914 51.474,51.914 29.085,0.124 52.23,-23.019 52.23,-51.914"
         id="path150"
         inkscape:connector-curvature="0"
         style="fill:#231f20" />
      <path
         d="m 4324.44,-1541.146 c 0,-28.771 -22.512,-52.295 -51.855,-52.295 -28.579,0 -51.598,23.524 -51.598,52.295 0,28.646 23.019,51.789 51.598,51.789 29.344,-0.125 51.855,-23.27 51.855,-51.789"
         id="path152"
         inkscape:connector-curvature="0"
         style="fill:#231f20" />
      <path
         d="m 4667.053,-1541.146 c 0,-28.771 -23.15,-52.295 -51.729,-52.295 -28.963,0 -51.98,23.524 -51.98,52.295 0,28.646 23.145,51.789 51.98,51.789 28.578,-0.125 51.729,-23.27 51.729,-51.789"
         id="path154"
         inkscape:connector-curvature="0"
         style="fill:#231f20" />
      <path
         d="m 5009.915,-1541.146 c 0,-28.771 -23.782,-52.295 -52.361,-52.295 -28.58,0 -51.348,23.524 -51.348,52.295 0,28.646 22.768,51.789 51.348,51.789 28.579,0 52.361,-23.27 52.361,-51.789"
         id="path156"
         inkscape:connector-curvature="0"
         style="fill:#231f20" />
      <path
         d="m 5352.015,-1541.146 c 0,-28.771 -23.144,-52.295 -51.724,-52.295 -28.712,0 -52.362,23.524 -52.362,52.295 0,28.646 23.65,51.789 52.362,51.789 28.58,0 51.724,-23.27 51.724,-51.789"
         id="path158"
         inkscape:connector-curvature="0"
         style="fill:#231f20" />
      <path
         d="m 5694.371,-1541.146 c 0,-28.771 -23.27,-52.295 -51.599,-52.295 -28.837,0 -52.23,23.524 -52.23,52.295 0,28.646 23.65,51.789 52.23,51.789 28.33,-0.125 51.599,-23.27 51.599,-51.789"
         id="path160"
         inkscape:connector-curvature="0"
         style="fill:#231f20" />
      <path
         d="m 6036.477,-1541.146 c 0,-28.771 -23.651,-52.295 -51.599,-52.295 -28.712,0 -51.98,23.524 -51.98,52.295 0,28.646 23.395,51.789 51.98,51.789 27.947,-0.125 51.599,-23.27 51.599,-51.789"
         id="path162"
         inkscape:connector-curvature="0"
         style="fill:#231f20" />
      <path
         d="m 6378.958,-1541.146 c 0,-28.771 -23.145,-52.295 -52.23,-52.295 -28.33,0 -51.474,23.524 -51.474,52.295 0,28.646 23.144,51.789 51.474,51.789 29.085,-0.125 52.23,-23.27 52.23,-51.789"
         id="path164"
         inkscape:connector-curvature="0"
         style="fill:#231f20" />
      <path
         d="m 3294.714,5482.732 338.691,966.875 m -2.402,-5935.789 -285.704,101.684 m -6493.964,4867.23 -339.006,966.875 m 2.152,-5935.789 285.698,101.684"
         id="path166"
         inkscape:connector-curvature="0"
         style="fill:none;stroke:#231f20;stroke-width:17.48329926" />
      <path
         d="m 960.061,5876.188 c 0,0 0,116.607 0,118.504 -1.771,0 -28.08,0 -29.593,0 0,-1.896 0,-158.467 0,-159.73 1.513,0 24.408,0 25.164,0 l 120.274,116.352 c 0,0 0,-115.088 0,-116.352 1.646,0 23.524,0 23.524,0 0,0 4.555,0 5.562,0 0,1.514 0,158.086 0,159.73 -1.515,0 -22.131,0 -23.27,0 L 960.061,5876.188"
         id="path168"
         inkscape:connector-curvature="0"
         style="fill:#c6c8ca" />
      <path
         d="m 1257.392,5876.188 c 0,0 0,116.607 0,118.504 -1.645,0 -27.947,0 -29.975,0 0,-1.896 0,-158.467 0,-159.73 2.152,0 24.914,0 25.547,0 l 120.148,116.352 c 0,0 0,-115.088 0,-116.352 1.77,0 23.906,0 23.906,0 0,0 4.173,0 5.436,0 0,1.514 0,158.086 0,159.73 -1.52,0 -22.261,0 -23.268,0 l -121.794,-118.504"
         id="path170"
         inkscape:connector-curvature="0"
         style="fill:#c6c8ca" />
      <path
         d="m 1873.436,5876.188 c 0,0 0,116.607 0,118.504 -1.646,0 -27.954,0 -29.469,0 0,-1.896 0,-158.467 0,-159.73 1.515,0 24.408,0 25.165,0 l 119.642,116.352 c 0,0 0,-115.088 0,-116.352 2.151,0 24.282,0 24.282,0 0,0 4.304,0 5.567,0 0,1.514 0,158.086 0,159.73 -1.646,0 -22.512,0 -23.4,0 l -121.787,-118.504"
         id="path172"
         inkscape:connector-curvature="0"
         style="fill:#c6c8ca" />
      <path
         d="m 1175.694,5834.961 c 0,0 3.922,0 5.561,0 0,1.514 0,158.086 0,159.73 -1.896,0 -28.073,0 -29.469,0 0,-1.896 0,-158.467 0,-159.73 1.396,0 23.908,0 23.908,0"
         id="path174"
         inkscape:connector-curvature="0"
         style="fill:#c6c8ca" />
      <path
         d="m 1604.302,5834.961 c 0,0 4.172,0 5.567,0 0,1.006 0,25.67 0,27.314 -1.771,0 -71.334,0 -71.334,0 0,0 0,130.771 0,132.416 -1.514,0 -29.468,0 -30.856,0 0,-1.896 0,-132.416 0,-132.416 0,0 -69.813,0 -71.834,0 0,-1.645 0,-26.309 0,-27.314 2.02,0 168.457,0 168.457,0"
         id="path176"
         inkscape:connector-curvature="0"
         style="fill:#c6c8ca" />
      <path
         d="m 1794.515,5834.961 c 0,0 4.047,0 5.311,0 0,1.006 0,25.67 0,27.314 -1.771,0 -127.105,0 -127.105,0 v 35.918 c 0,0 96.756,0 98.525,0 0,1.521 0,25.803 0,27.316 -1.77,0 -98.525,0 -98.525,0 v 41.99 c 0,0 125.592,0 127.105,0 0,1.389 0,25.803 0,27.191 -1.771,0 -154.547,0 -156.316,0 0,-1.896 0,-158.467 0,-159.73 1.768,0 151.005,0 151.005,0"
         id="path178"
         inkscape:connector-curvature="0"
         style="fill:#c6c8ca" />
      <path
         d="m 2183.29,5967.5 h -90.812 v -105.225 h 90.812 c 28.704,0 38.824,28.33 38.824,52.105 0,24.79 -10.12,53.12 -38.824,53.12 m 49.064,-109.396 c -11.884,-15.18 -29.086,-23.4 -49.828,-23.4 0,0 -116.984,0 -118.879,0 0,1.521 0,158.092 0,159.863 1.895,0 118.879,0 118.879,0 20.742,0 37.944,-8.094 49.828,-23.145 10.503,-14.418 15.938,-34.021 15.938,-57.166 0,-22.637 -5.435,-41.865 -15.938,-56.152 z"
         id="path180"
         inkscape:connector-curvature="0"
         style="fill:#c6c8ca" />
      <path
         d="m 2448.245,5960.795 c 0,3.414 -3.166,6.705 -6.957,6.705 h -127.104 c -3.416,0 -6.449,-3.291 -6.449,-6.705 V 5868.6 c 0,-3.539 2.784,-6.58 6.449,-6.58 h 127.104 c 3.666,0 6.957,2.916 6.957,6.58 v 92.195 m -5.692,-125.834 h -129.125 c -18.847,0 -34.278,15.049 -34.278,33.891 v 92.074 c 0,18.84 15.432,33.891 34.278,33.891 h 129.125 c 18.59,0 34.021,-15.051 34.021,-33.891 v -92.074 c 0,-18.842 -15.431,-33.891 -34.021,-33.891 z"
         id="path182"
         inkscape:connector-curvature="0"
         style="fill:#c6c8ca" />
      <path
         d="m 2448.245,6140.26 c 0,3.541 -3.166,6.193 -6.957,6.193 h -127.104 c -3.416,0 -6.449,-2.652 -6.449,-6.193 v -92.074 c 0,-3.791 2.784,-6.318 6.449,-6.318 h 127.104 c 3.666,0 6.957,2.527 6.957,6.318 v 92.074 m -5.692,-125.965 h -129.125 c -18.847,0 -34.278,14.924 -34.278,33.891 v 92.074 c 0,18.717 15.432,33.891 34.278,33.891 h 129.125 c 18.59,0 34.021,-15.174 34.021,-33.891 v -92.074 c 0,-18.715 -15.431,-33.891 -34.021,-33.891 z"
         id="path184"
         inkscape:connector-curvature="0"
         style="fill:#c6c8ca" />
      <path
         d="m 2981.063,6106.365 c 30.48,12.521 95.49,22.387 146.2,22.387 55.396,0 78.54,-19.098 78.54,-43.006 0,-21.373 -21.756,-34.271 -82.712,-56.527 -82.08,-30.098 -141.772,-54.131 -141.772,-107.756 0,-55.771 71.959,-88.529 182.118,-88.529 58.937,0 79.421,3.672 117.108,10.627 l 0.257,52.738 c -36.681,-7.213 -69.688,-19.223 -120.398,-19.223 -54.64,0 -77.907,17.32 -77.907,35.41 0,25.672 35.916,37.938 98.642,60.324 87.141,31.363 135.581,55.27 135.581,108.008 0,54.133 -60.456,93.207 -198.057,93.207 -56.152,0 -94.597,-3.416 -137.6,-10.244 v -57.416"
         id="path186"
         inkscape:connector-curvature="0"
         style="fill:#c6c8ca" />
      <path
         d="m 2688.917,5879.854 h -65.003 V 6126.6 h 65.003 c 100.42,0 163.403,-42.748 163.403,-123.182 0,-80.186 -62.983,-123.564 -163.403,-123.564 m 175.412,269.89 c -32.244,14.293 -93.457,24.031 -146.826,24.031 h -203.999 v -339.953 h 203.999 c 53.369,0 114.582,9.102 146.826,23.9 78.797,35.285 103.961,92.576 103.961,145.945 0,53.626 -25.164,110.409 -103.961,146.077 z"
         id="path188"
         inkscape:connector-curvature="0"
         style="fill:#c6c8ca" />
      <polyline
         points="-2814.277,7123.699 -2794.739,7243.342 -2793.917,7243.342 -2777.979,7123.699    -2724.544,7123.699 -2703.427,7325.547 -2744.464,7325.547 -2753.762,7179.852 -2754.454,7179.852 -2760.777,7230.061    -2777.979,7325.547 -2808.967,7325.547 -2828.255,7228.666 -2835.27,7184.148 -2835.27,7179.852 -2835.776,7179.852    -2841.594,7325.547 -2884.466,7325.547 -2866.699,7123.699 -2814.277,7123.699  "
         id="polyline190"
         style="fill:#b2b4b6" />
      <rect
         x="-2664.1541"
         y="7123.6992"
         width="39.772999"
         height="201.84801"
         id="rect192"
         style="fill:#b2b4b6" />
      <path
         d="m -2475.206,7162.143 c -5.06,-1.645 -10.121,-2.4 -15.182,-2.4 -34.968,0 -50.079,31.994 -50.079,62.857 0,29.842 15.11,66.773 49.829,66.773 5.061,0 10.372,-1.008 15.301,-2.527 v 37.18 c -6.259,2.533 -11.951,3.541 -18.649,3.541 -57.232,0 -89.352,-51.848 -89.352,-104.717 0,-50.078 33.383,-101.553 87.64,-101.553 7.021,0 13.471,1.139 20.235,3.16 v 37.686"
         id="path194"
         inkscape:connector-curvature="0"
         style="fill:#b2b4b6" />
      <path
         d="m -2396.857,7303.283 c 0,14.043 -10.878,25.422 -25.295,25.422 -14.359,0 -25.362,-11.379 -25.362,-25.422 0,-13.91 11.003,-24.914 25.362,-24.914 14.417,0 25.295,11.004 25.295,24.914"
         id="path196"
         inkscape:connector-curvature="0"
         style="fill:#b2b4b6" />
      <path
         d="m 5879.022,2312.869 20.742,49.322 c 6.323,17.076 13.279,35.541 17.195,53.625 h 0.506 c 4.304,-18.084 9.614,-36.174 16.188,-53.625 l 21.757,-49.322 h 77.018 l -77.018,170.609 82.461,182.119 h -82.461 l -23.02,-56.152 c -6.574,-17.709 -10.622,-35.162 -15.432,-52.869 h -1.514 c -5.062,17.834 -9.107,35.16 -15.432,52.869 l -20.992,56.152 h -79.803 l 76.262,-182.119 -76.262,-170.609 h 79.805"
         id="path198"
         inkscape:connector-curvature="0"
         style="fill:#939598" />
      <polyline
         points="5099.708,3270.256 5107.802,3244.328 5141.06,3142.895 5223.522,3142.895 5136.638,3340.951    5136.638,3495.754 5063.284,3495.754 5063.284,3340.951 4974.498,3142.895 5054.808,3142.895 5093.127,3253.305 5099.708,3270.256     "
         id="polyline200"
         style="fill:#939598" />
      <path
         d="m 6698.808,3117.1 -85.12,352.6 h 71.841 l 13.279,-59.066 h 73.354 l 13.404,59.066 h 77.526 l -88.404,-352.6 h -75.88 m 62.476,238.269 h -51.35 l 15.682,-94.096 7.713,-53.627 h 1.139 l 8.351,53.627 z"
         id="path202"
         inkscape:connector-curvature="0"
         style="fill:#bbbdc0" />
      <path
         d="m 5955.792,4052.604 c 0,26.936 -17.076,44.393 -45.407,44.393 v -85.752 c 28.837,-1.895 45.407,15.937 45.407,41.359 m -47.558,252.687 c 68.931,0 124.452,-29.467 124.452,-99.023 0,-30.863 -15.432,-68.043 -46.67,-82.211 28.073,-17.828 40.471,-41.734 40.471,-72.848 0,-29.336 -13.662,-60.957 -38.7,-79.803 -24.033,-17.959 -49.323,-19.098 -78.415,-19.098 h -73.604 v 352.982 h 72.466 z m 50.209,-106.994 c 0,29.719 -17.833,49.705 -47.808,48.566 v -95.484 c 29.6,-0.764 47.808,18.715 47.808,46.918 z"
         id="path204"
         inkscape:connector-curvature="0"
         style="fill:#bbbdc0" />
      <path
         d="m 5101.478,1046.262 c -7.969,-6.199 -16.945,-11.891 -27.572,-11.891 -11.128,0 -18.84,7.211 -18.84,18.596 0,31.238 57.033,33.26 57.033,84.732 0,34.271 -19.096,59.824 -54.631,59.824 -10.122,0 -23.526,-3.547 -31.871,-9.74 v -35.791 c 8.345,6.066 16.945,10.113 27.823,10.113 12.647,0 21.749,-8.094 21.749,-20.992 0,-14.799 -10.872,-19.852 -22.006,-27.572 -21.242,-14.793 -35.028,-29.336 -35.028,-56.527 0,-30.23 17.326,-56.789 49.702,-56.789 12.648,0 23.02,3.414 33.641,9.488 v 36.549"
         id="path206"
         inkscape:connector-curvature="0"
         style="fill:#808285" />
      <polyline
         points="5222.766,1003.389 5222.766,1038.924 5184.064,1038.924 5184.064,1080.408 5217.954,1080.408    5217.954,1115.951 5184.064,1115.951 5184.064,1158.822 5222.766,1158.822 5222.766,1194.482 5146.502,1194.482 5146.502,1003.389    5222.766,1003.389  "
         id="polyline208"
         style="fill:#808285" />
      <polyline
         points="5306.614,1003.389 5306.614,1158.822 5343.288,1158.822 5343.288,1194.482 5268.671,1194.482    5268.671,1003.389 5306.614,1003.389  "
         id="polyline210"
         style="fill:#808285" />
      <polyline
         points="5452.816,1003.389 5452.816,1038.924 5414.622,1038.924 5414.622,1080.408 5448.513,1080.408    5448.513,1115.951 5414.622,1115.951 5414.622,1158.822 5453.316,1158.822 5453.316,1194.482 5376.929,1194.482 5376.929,1003.389    5452.816,1003.389  "
         id="polyline212"
         style="fill:#808285" />
      <path
         d="m 5581.815,1039.688 c -4.811,-1.52 -9.107,-2.533 -13.536,-2.533 -31.745,0 -45.399,29.975 -45.399,59.691 0,28.33 13.53,63.115 45.024,63.115 4.804,0 9.101,-1.27 13.911,-2.658 v 35.41 c -5.566,2.533 -11.133,3.289 -16.951,3.289 -51.848,0 -80.941,-49.07 -80.941,-98.898 0,-47.551 30.48,-96.623 79.428,-96.623 6.324,0 12.142,1.77 18.465,3.791 v 35.416"
         id="path214"
         inkscape:connector-curvature="0"
         style="fill:#808285" />
      <polyline
         points="5713.343,1003.389 5713.343,1038.924 5683.999,1038.924 5683.999,1194.482 5646.062,1194.482    5646.062,1038.924 5616.213,1038.924 5616.213,1003.389 5713.343,1003.389  "
         id="polyline216"
         style="fill:#808285" />
      <path
         d="m 6244.522,1046.262 c -7.338,-6.199 -16.945,-12.141 -26.811,-12.141 -12.272,0 -19.479,7.461 -19.479,18.846 0,31.238 57.417,33.26 57.417,84.732 0,34.271 -19.472,59.824 -55.015,59.824 -10.245,0 -23.525,-3.547 -32.376,-9.74 v -36.049 c 8.851,6.324 17.327,9.865 28.712,9.865 12.266,0 21.748,-7.713 21.748,-20.486 0,-14.799 -11.378,-19.852 -22.006,-27.572 -21.748,-14.793 -35.285,-29.336 -35.285,-56.783 0,-29.975 17.708,-56.533 50.085,-56.533 11.761,0 22.888,3.414 33.259,9.488 v 36.549"
         id="path218"
         inkscape:connector-curvature="0"
         style="fill:#808285" />
      <polyline
         points="6378.958,1003.389 6378.958,1038.924 6349.497,1038.924 6349.497,1194.482 6311.046,1194.482    6311.046,1038.924 6282.21,1038.924 6282.21,1003.389 6378.958,1003.389  "
         id="polyline220"
         style="fill:#808285" />
      <path
         d="m 6436.38,1003.389 -44.144,191.094 h 37.438 l 6.705,-32.119 h 38.318 l 7.08,32.119 H 6522 l -46.039,-191.094 h -39.581 m 32.501,129.125 h -26.178 l 7.713,-51.092 4.554,-29.344 h 0.25 l 4.047,29.344 z"
         id="path222"
         inkscape:connector-curvature="0"
         style="fill:#808285" />
      <path
         d="m 6591.05,1194.482 v -88.529 h 0.764 l 33.258,88.529 h 39.715 l -33.516,-87.008 c 18.973,-10.371 27.949,-28.33 27.949,-49.322 0,-52.361 -43.379,-54.764 -67.662,-54.764 h -37.938 v 191.094 h 37.43 m 0,-159.98 h 5.061 c 18.973,-1.139 25.803,9.99 25.803,24.025 0,15.432 -6.955,27.191 -24.282,27.191 l -6.581,-0.375 v -50.841 z"
         id="path224"
         inkscape:connector-curvature="0"
         style="fill:#808285" />
      <polyline
         points="6784.302,1003.389 6784.302,1038.924 6753.946,1038.924 6753.946,1194.482 6716.386,1194.482    6716.386,1038.924 6686.534,1038.924 6686.534,1003.389 6784.302,1003.389  "
         id="polyline226"
         style="fill:#808285" />
      <path
         d="m -6070.083,1199.799 v -78.92 l 8.034,0.383 c 33.201,0 54.949,-20.369 54.949,-56.027 0,-61.846 -53.624,-56.66 -61.147,-56.66 h -37.181 V 1199.8 h 35.345 m 0,-159.988 h 7.021 c 15.682,0 20.361,10.879 20.361,24.658 0,19.604 -9.865,26.309 -27.257,25.553 v -50.211 z"
         id="path228"
         inkscape:connector-curvature="0"
         style="fill:#808285" />
      <path
         d="m -5916.737,1005.541 c -31.743,0 -63.547,26.809 -63.547,98.768 0,71.84 31.804,98.65 63.547,98.65 31.995,0 63.365,-26.811 63.365,-98.65 0,-71.959 -31.37,-98.768 -63.365,-98.768 m -24.98,98.643 c 0,-17.201 1.713,-63.615 24.98,-63.615 23.585,0 25.671,46.414 25.671,63.615 0,15.176 -2.086,63.74 -25.671,63.74 -23.267,0 -24.98,-48.565 -24.98,-63.74 z"
         id="path230"
         inkscape:connector-curvature="0"
         style="fill:#808285" />
      <path
         d="m -5796.397,1008.574 15.3,91.188 c 2.028,13.529 2.404,27.059 3.608,40.846 h 0.506 c 1.704,-13.787 2.46,-27.316 5.186,-40.846 l 18.273,-91.188 h 28.206 l 23.076,132.033 h 0.509 c 1.138,-13.654 1.262,-26.811 3.349,-40.346 l 13.977,-91.562 h 37.812 l -37.812,191.1 h -30.797 l -18.399,-100.926 c -0.889,-11.635 -3.481,-23.27 -5.062,-34.904 h -0.506 c -1.705,11.635 -2.717,23.27 -5.435,34.904 l -20.867,100.926 h -30.924 l -36.553,-191.1 h 36.553"
         id="path232"
         inkscape:connector-curvature="0"
         style="fill:#808285" />
      <polyline
         points="-5543.583,1008.574 -5543.583,1043.734 -5579.756,1043.734 -5579.756,1085.719    -5548.011,1085.719 -5548.011,1121.129 -5579.756,1121.129 -5579.756,1164.133 -5542.952,1164.133 -5542.952,1199.799    -5615.357,1199.799 -5615.357,1008.574 -5543.583,1008.574  "
         id="polyline234"
         style="fill:#808285" />
      <path
         d="m -5469.155,1199.799 v -88.277 h 0.38 l 31.488,88.277 h 37.562 l -31.488,-87.014 c 17.893,-10.115 25.671,-28.58 25.671,-49.322 0,-52.361 -40.529,-54.889 -63.614,-54.889 h -35.476 v 191.225 h 35.477 m 0,-159.987 h 4.804 c 18.148,-0.889 23.965,9.99 23.965,23.65 0,15.807 -6.257,27.441 -22.445,27.441 l -6.199,-0.375 v -50.717 h -0.125 z"
         id="path236"
         inkscape:connector-curvature="0"
         style="fill:#808285" />
      <path
         d="m 7826.171,276.055 -14.676,-428.483 c 0,-388.394 -261.664,-628.375 -602.125,-635.141 v -6491.502 c 0,-343.935 -278.873,-622.485 -622.873,-622.485 h -13012.85 c -343.428,0 -622.491,278.551 -622.491,622.485 v 6490.49 c -341.026,6.83 -602.381,247.76 -602.381,636.153 l -14.735,428.483 c -0.374,48.816 11.891,75.631 54.008,75.631 h 70.321 c -4.685,17.195 -8.418,35.027 -15.939,52.355 -11.002,26.814 -27.315,50.84 -31.495,80.691 -3.224,28.578 -45.274,281.525 -45.274,649.045 l -0.567,5887.982 c -0.382,508.16 400.212,926.529 908.374,948.283 1144.946,50.08 2290.327,99.658 3435.838,75.5 26.494,-0.375 60.581,-1.389 95.926,-7.338 94.668,-15.805 189.08,-31.994 283.485,-49.447 35.983,-7.08 108.64,-10.619 108.64,-10.619 h 5766.004 c 0,0 72.972,3.539 109.014,10.619 94.221,17.453 188.699,33.643 283.17,49.447 35.792,5.949 70.063,6.963 96.116,7.338 1145.703,24.158 2290.643,-25.42 3435.332,-75.5 507.91,-21.754 908.314,-440.123 908.314,-948.283 V 1133.777 c 0,-367.52 -42.365,-620.467 -46.033,-649.045 -4.045,-29.852 -20.49,-53.877 -31.617,-80.691 -6.707,-17.453 -11.129,-35.16 -15.432,-52.355 h 70.318 c 41.862,0 54.384,-26.815 53.628,-75.631 z"
         id="path238"
         inkscape:connector-curvature="0"
         style="fill:none;stroke:#231f20;stroke-width:27.32579994" />
      <path
         d="m -6520.762,3309.08 c 0,-117.871 27.888,-229.42 76.071,-329.332 l -356.268,-0.756 c -37.878,0 -58.046,11.885 -69.682,48.689 -61.403,195.146 -61.403,367.9 0,562.668 11.503,37.188 30.923,50.967 69.682,50.967 h 357.539 c -48.947,-100.67 -77.342,-213.099 -77.342,-332.236"
         id="path240"
         inkscape:connector-curvature="0"
         style="fill:#4c4c4e" />
      <path
         d="m -6520.762,3309.08 c 0,-117.871 27.888,-229.42 76.071,-329.332 l -356.268,-0.756 c -37.878,0 -58.046,11.885 -69.682,48.689 -61.403,195.146 -61.403,367.9 0,562.668 11.503,37.188 30.923,50.967 69.682,50.967 h 357.539 c -48.947,-100.67 -77.342,-213.099 -77.342,-332.236 z"
         id="path242"
         inkscape:connector-curvature="0"
         style="fill:none;stroke:#231f20;stroke-width:17.48329926" />
      <path
         d="m -4653.543,3027.682 c -11.634,-36.805 -30.415,-50.586 -69.115,-50.586 h -360.572 c 49.196,100.039 77.591,212.85 77.591,331.729 0,119.135 -28.395,231.697 -77.591,332.242 h 360.572 c 38.7,0 57.481,-13.787 69.115,-50.967 61.653,-194.518 61.653,-367.272 0,-562.418"
         id="path244"
         inkscape:connector-curvature="0"
         style="fill:#4c4c4e" />
      <path
         d="m -4653.543,3027.682 c -11.634,-36.805 -30.415,-50.586 -69.115,-50.586 h -360.572 c 49.196,100.039 77.591,212.85 77.591,331.729 0,119.135 -28.395,231.697 -77.591,332.242 h 360.572 c 38.7,0 57.481,-13.787 69.115,-50.967 61.653,-194.518 61.653,-367.272 0,-562.418 z"
         id="path246"
         inkscape:connector-curvature="0"
         style="fill:none;stroke:#231f20;stroke-width:17.48329926" />
      <path
         d="m -5763.263,2551.646 c 118.884,0 230.558,28.074 331.161,76.77 l 0.382,-358.551 c 0,-37.562 -12.207,-57.414 -48.82,-69.176 -195.142,-61.719 -367.777,-61.719 -562.859,0 -36.607,11.762 -48.565,31.613 -48.565,69.176 l 0.382,357.281 c 99.596,-48.183 210.573,-75.5 328.319,-75.5"
         id="path248"
         inkscape:connector-curvature="0"
         style="fill:#4c4c4e" />
      <path
         d="m -5763.263,2551.646 c 118.884,0 230.558,28.074 331.161,76.77 l 0.382,-358.551 c 0,-37.562 -12.207,-57.414 -48.82,-69.176 -195.142,-61.719 -367.777,-61.719 -562.859,0 -36.607,11.762 -48.565,31.613 -48.565,69.176 l 0.382,357.281 c 99.596,-48.183 210.573,-75.5 328.319,-75.5 z"
         id="path250"
         inkscape:connector-curvature="0"
         style="fill:none;stroke:#231f20;stroke-width:17.48329926" />
      <path
         d="m -5763.263,4066.641 c -118.753,0 -230.75,-28.074 -330.597,-77.145 v 358.668 c 0,38.951 13.72,57.166 50.46,69.434 195.083,61.213 367.526,61.213 562.859,0 36.614,-12.268 50.658,-30.482 50.658,-69.434 v -359.432 c -100.802,49.329 -213.738,77.909 -333.38,77.909"
         id="path252"
         inkscape:connector-curvature="0"
         style="fill:#4c4c4e" />
      <path
         d="M 3324.688,5378.146 V 700.49 c 0,-74.998 -57.29,-108.764 -108.265,-108.764 h -6272.071 c -51.158,0 -107.875,27.316 -107.875,108.764 v 4677.656 c 0,82.455 54.124,108.26 107.875,108.26 h 6272.071 c 52.871,0 108.265,-41.992 108.265,-108.26 z M -5763.263,4066.641 c -118.753,0 -230.75,-28.074 -330.597,-77.145 v 358.668 c 0,38.951 13.72,57.166 50.46,69.434 195.083,61.213 367.526,61.213 562.859,0 36.614,-12.268 50.658,-30.482 50.658,-69.434 v -359.432 c -100.802,49.329 -213.738,77.909 -333.38,77.909 z"
         id="path254"
         inkscape:connector-curvature="0"
         style="fill:none;stroke:#231f20;stroke-width:17.48329926" />
      <path
         d="m 3324.688,5429.996 c 0,31.113 -23.4,56.533 -52.736,56.533 h -6380.844 c -29.026,0 -52.611,-25.295 -52.611,-56.533 V 645.602 c 0,-31.238 23.585,-56.533 52.611,-56.533 h 6380.844 c 29.461,0 52.736,25.17 52.736,56.533 z"
         id="path256"
         inkscape:connector-curvature="0" />
      <path
         d="m 3324.688,-1597.364 c 0,31.112 -23.4,56.475 -52.736,56.475 h -6380.844 c -29.026,0 -52.611,-25.231 -52.611,-56.475 v -4784.33 c 0,-31.239 23.585,-56.468 52.611,-56.468 h 6380.844 c 29.461,0 52.736,25.229 52.736,56.468 z"
         id="path258"
         inkscape:connector-curvature="0" />
    </g>
  </g>
</svg>
