<?xml version="1.0" encoding="UTF-8" standalone="no"?>
<svg
   width="64"
   height="64"
   version="1.1"
   viewBox="0 0 64 64"
   xmlns="http://www.w3.org/2000/svg"
   xmlns:svg="http://www.w3.org/2000/svg">
  <path
     id="button_lt"
     d="M 2,3 V 16 A 13,13 0 0 0 15,29 H 49 A 13,13 0 0 0 62,16 V 3 Z M 21.939453,7.4335941 H 26.04102 V 21.355469 h 4.28906 v 3.210937 h -8.390627 z m 9.667967,0 H 42.06055 V 10.65625 h -3.1875 V 24.566406 H 34.79492 V 10.65625 h -3.1875 z"
     fill="#ffffff" />
  <path
     id="button_rt"
     d="m 2.000002,35 v 13 a 13,13 0 0 0 13,13 h 33.999996 a 13,13 0 0 0 13,-13 V 35 Z m 19.119141,4.433594 h 4.546875 c 1.882812,0 3.273437,0.425781 4.171875,1.277344 0.898437,0.851562 1.347655,2.15625 1.347655,3.914062 0,2.039062 -0.699218,3.519531 -2.097655,4.441406 l 3.281245,7.5 h -4.324214 l -2.625,-6.46875 h -0.210938 v 6.46875 h -4.089843 z m 11.308595,0 h 10.45312 v 3.222656 h -3.1875 v 13.910156 h -4.07812 V 42.65625 h -3.1875 z m -7.218752,3.175781 v 4.324219 h 0.304688 c 0.539062,0 0.929687,-0.183594 1.171875,-0.550782 0.25,-0.367187 0.375,-0.921874 0.375,-1.664062 0,-0.75 -0.128906,-1.289062 -0.386719,-1.617188 -0.25,-0.328124 -0.644531,-0.492187 -1.183594,-0.492187 z"
     fill="#ffffff" />
</svg>
