<?xml version="1.0" encoding="UTF-8" standalone="no"?>
<svg
   width="64"
   height="64"
   version="1.1"
   viewBox="0 0 64 64"
   id="svg11"
   xmlns="http://www.w3.org/2000/svg"
   xmlns:svg="http://www.w3.org/2000/svg">
  <defs
     id="defs15" />
  <path
     id="outline_up"
     style="stroke:none;fill:#ffffff;fill-opacity:1"
     d="M 26 2 A 4 4 0 0 0 22 6 L 22 22 L 6 22 A 4 4 0 0 0 2 26 L 2 38 A 4 4 0 0 0 6 42 L 22 42 L 22 58 A 4 4 0 0 0 26 62 L 38 62 A 4 4 0 0 0 42 58 L 42 42 L 58 42 A 4 4 0 0 0 62 38 L 62 26 A 4 4 0 0 0 58 22 L 42 22 L 42 6 A 4 4 0 0 0 38 2 L 26 2 z M 13.966797 26 A 1.0001 1.0001 0 0 1 14.480469 26.123047 A 1.0001 1.0001 0 0 1 15 27 L 15 37 A 1.0001 1.0001 0 0 1 13.460938 37.841797 L 5.6601562 32.841797 A 1.0001 1.0001 0 0 1 5.6601562 31.158203 L 13.460938 26.158203 A 1.0001 1.0001 0 0 1 13.966797 26 z M 50.033203 26 A 1.0001 1.0001 0 0 1 50.539062 26.158203 L 58.339844 31.158203 A 1.0001 1.0001 0 0 1 58.339844 32.841797 L 50.539062 37.841797 A 1.0001 1.0001 0 0 1 49 37 L 49 27 A 1.0001 1.0001 0 0 1 49.519531 26.123047 A 1.0001 1.0001 0 0 1 50.033203 26 z " />
</svg>
