<?xml version="1.0" encoding="UTF-8" standalone="no"?>
<svg
   width="64"
   height="64"
   version="1.1"
   viewBox="0 0 64 64"
   id="svg11"
   xmlns="http://www.w3.org/2000/svg"
   xmlns:svg="http://www.w3.org/2000/svg">
  <defs
     id="defs15" />
  <path
     id="outline_up"
     style="fill:#ffffff;fill-opacity:1;stroke:none"
     d="M 26 2 A 4 4 0 0 0 22 6 L 22 22 L 6 22 A 4 4 0 0 0 2 26 L 2 38 A 4 4 0 0 0 6 42 L 22 42 L 22 58 A 4 4 0 0 0 26 62 L 38 62 A 4 4 0 0 0 42 58 L 42 42 L 58 42 A 4 4 0 0 0 62 38 L 62 26 A 4 4 0 0 0 58 22 L 42 22 L 42 6 A 4 4 0 0 0 38 2 L 26 2 z M 31.671875 5.2558594 A 1.0001 1.0001 0 0 1 32.841797 5.6601562 L 37.841797 13.460938 A 1.0001 1.0001 0 0 1 38 13.966797 A 1.0001 1.0001 0 0 1 37.876953 14.480469 A 1.0001 1.0001 0 0 1 37 15 L 27 15 A 1.0001 1.0001 0 0 1 26.158203 13.460938 L 31.158203 5.6601562 A 1.0001 1.0001 0 0 1 31.671875 5.2558594 z M 27 49 L 37 49 A 1.0001 1.0001 0 0 1 37.876953 49.519531 A 1.0001 1.0001 0 0 1 38 50.033203 A 1.0001 1.0001 0 0 1 37.841797 50.539062 L 32.841797 58.339844 A 1.0001 1.0001 0 0 1 31.158203 58.339844 L 26.158203 50.539062 A 1.0001 1.0001 0 0 1 27 49 z " />
</svg>
