<?xml version="1.0" encoding="UTF-8" standalone="no"?>
<svg
   width="64"
   height="64"
   version="1.1"
   viewBox="0 0 64 64"
   id="svg11"
   xmlns="http://www.w3.org/2000/svg"
   xmlns:svg="http://www.w3.org/2000/svg">
  <defs
     id="defs15" />
  <path
     id="outline_up"
     style="stroke:none;fill:#ffffff;fill-opacity:1"
     d="M 26 2 A 4 4 0 0 0 22 6 L 22 22 L 6 22 A 4 4 0 0 0 2 26 L 2 38 A 4 4 0 0 0 6 42 L 22 42 L 22 58 A 4 4 0 0 0 26 62 L 38 62 A 4 4 0 0 0 42 58 L 42 42 L 58 42 A 4 4 0 0 0 62 38 L 62 26 A 4 4 0 0 0 58 22 L 42 22 L 42 6 A 4 4 0 0 0 38 2 L 26 2 z M 32 5.2011719 C 32.32252 5.2011719 32.645027 5.3534061 32.841797 5.6601562 L 37.841797 13.460938 C 38.267517 14.126373 37.79 14.999487 37 15 L 27 15 C 26.63474 14.999956 26.298557 14.800792 26.123047 14.480469 C 26.036697 14.323367 25.994 14.145954 26 13.966797 C 26.006 13.787018 26.060903 13.612262 26.158203 13.460938 L 31.158203 5.6601562 C 31.354973 5.3534062 31.67748 5.2011717 32 5.2011719 z M 13.966797 26 A 1.0001 1.0001 0 0 1 14.480469 26.123047 A 1.0001 1.0001 0 0 1 15 27 L 15 37 A 1.0001 1.0001 0 0 1 13.460938 37.841797 L 5.6601562 32.841797 A 1.0001 1.0001 0 0 1 5.6601562 31.158203 L 13.460938 26.158203 A 1.0001 1.0001 0 0 1 13.966797 26 z M 50.033203 26 A 1.0001 1.0001 0 0 1 50.539062 26.158203 L 58.339844 31.158203 A 1.0001 1.0001 0 0 1 58.339844 32.841797 L 50.539062 37.841797 A 1.0001 1.0001 0 0 1 49 37 L 49 27 A 1.0001 1.0001 0 0 1 49.519531 26.123047 A 1.0001 1.0001 0 0 1 50.033203 26 z M 27 49 L 37 49 C 37.79 49.000512 38.267517 49.873626 37.841797 50.539062 L 32.841797 58.339844 C 32.448267 58.953344 31.551733 58.953344 31.158203 58.339844 L 26.158203 50.539062 C 26.060903 50.38774 26.006 50.212982 26 50.033203 C 25.994 49.854046 26.036647 49.676634 26.123047 49.519531 C 26.298557 49.199208 26.63474 49.000044 27 49 z " />
</svg>
