<?xml version="1.0" encoding="UTF-8" standalone="no"?>
<svg
   xmlns:dc="http://purl.org/dc/elements/1.1/"
   xmlns:cc="http://creativecommons.org/ns#"
   xmlns:rdf="http://www.w3.org/1999/02/22-rdf-syntax-ns#"
   xmlns:svg="http://www.w3.org/2000/svg"
   xmlns="http://www.w3.org/2000/svg"
   xmlns:sodipodi="http://sodipodi.sourceforge.net/DTD/sodipodi-0.dtd"
   xmlns:inkscape="http://www.inkscape.org/namespaces/inkscape"
   viewBox="0 0 155 155"
   height="155"
   width="155"
   xml:space="preserve"
   version="1.1"
   id="svg2"
   inkscape:version="0.92.5 (2060ec1f9f, 2020-04-08)"
   sodipodi:docname="game.svg"><sodipodi:namedview
     pagecolor="#ffffff"
     bordercolor="#666666"
     borderopacity="1"
     objecttolerance="10"
     gridtolerance="10"
     guidetolerance="10"
     inkscape:pageopacity="0"
     inkscape:pageshadow="2"
     inkscape:window-width="3840"
     inkscape:window-height="2065"
     id="namedview177"
     showgrid="false"
     inkscape:zoom="2.7987726"
     inkscape:cx="81.011196"
     inkscape:cy="201.50895"
     inkscape:window-x="0"
     inkscape:window-y="0"
     inkscape:window-maximized="1"
     inkscape:current-layer="svg2" /><metadata
     id="metadata8"><rdf:RDF><cc:Work
         rdf:about=""><dc:format>image/svg+xml</dc:format><dc:type
           rdf:resource="http://purl.org/dc/dcmitype/StillImage" /><dc:title></dc:title></cc:Work></rdf:RDF></metadata><defs
     id="defs6"><clipPath
       id="clipPath16"
       clipPathUnits="userSpaceOnUse"><path
         id="path18"
         d="M 0,172.02 H 172.02 V 0 H 0 Z"
         inkscape:connector-curvature="0" /></clipPath><linearGradient
       id="linearGradient206"
       spreadMethod="pad"
       gradientTransform="matrix(20.823595,0,0,-20.823595,130.58289,87.014198)"
       gradientUnits="userSpaceOnUse"
       y2="0"
       x2="1"
       y1="0"
       x1="0"><stop
         id="stop208"
         offset="0"
         style="stop-opacity:1;stop-color:#ef4e26" /><stop
         id="stop210"
         offset="0.5"
         style="stop-opacity:1;stop-color:#e5e543" /><stop
         id="stop212"
         offset="1"
         style="stop-opacity:1;stop-color:#ef4e26" /></linearGradient><linearGradient
       id="linearGradient228"
       spreadMethod="pad"
       gradientTransform="matrix(10.411851,0,0,-10.411851,137.44432,90.499291)"
       gradientUnits="userSpaceOnUse"
       y2="0"
       x2="1"
       y1="0"
       x1="0"><stop
         id="stop230"
         offset="0"
         style="stop-opacity:1;stop-color:#ef4e26" /><stop
         id="stop232"
         offset="0.4"
         style="stop-opacity:1;stop-color:#e5e543" /><stop
         id="stop234"
         offset="1"
         style="stop-opacity:1;stop-color:#fbae1f" /></linearGradient><linearGradient
       id="linearGradient250"
       spreadMethod="pad"
       gradientTransform="matrix(10.412209,0,0,-10.412209,134.26407,83.311134)"
       gradientUnits="userSpaceOnUse"
       y2="0"
       x2="1"
       y1="0"
       x1="0"><stop
         id="stop252"
         offset="0"
         style="stop-opacity:1;stop-color:#fbae1f" /><stop
         id="stop254"
         offset="0.6"
         style="stop-opacity:1;stop-color:#e5e543" /><stop
         id="stop256"
         offset="1"
         style="stop-opacity:1;stop-color:#ef4e26" /></linearGradient><clipPath
       id="clipPath264"
       clipPathUnits="userSpaceOnUse"><path
         id="path266"
         d="M 0,172.02 H 172.02 V 0 H 0 Z"
         inkscape:connector-curvature="0" /></clipPath><pattern
       y="0"
       x="0"
       height="6"
       width="6"
       patternUnits="userSpaceOnUse"
       id="EMFhbasepattern" /><linearGradient
       id="SVGID_1_"
       gradientUnits="userSpaceOnUse"
       x1="478.70651"
       y1="416.1619"
       x2="478.70651"
       y2="513.92462"
       gradientTransform="translate(-0.0898,-416.1621)"><stop
         offset="0"
         style="stop-color:#33438A"
         id="stop2" /><stop
         offset="1"
         style="stop-color:#0098DF"
         id="stop4" /></linearGradient><linearGradient
       id="SVGID_2_"
       gradientUnits="userSpaceOnUse"
       x1="270.46481"
       y1="416.1619"
       x2="270.46481"
       y2="513.92462"
       gradientTransform="translate(-0.0898,-416.1621)"><stop
         offset="0"
         style="stop-color:#33438A"
         id="stop9" /><stop
         offset="1"
         style="stop-color:#0098DF"
         id="stop11" /></linearGradient><linearGradient
       id="SVGID_3_"
       gradientUnits="userSpaceOnUse"
       x1="88.399399"
       y1="416.1619"
       x2="88.399399"
       y2="513.92462"
       gradientTransform="translate(-0.0898,-416.1621)"><stop
         offset="0"
         style="stop-color:#33438A"
         id="stop16" /><stop
         offset="1"
         style="stop-color:#0098DF"
         id="stop18" /></linearGradient></defs><g
     transform="translate(-485.258,-289.63515)"
     id="g7028"><path
       sodipodi:nodetypes="ssccssccssccssssssscsccs"
       inkscape:connector-curvature="0"
       id="rect6860"
       d="m 489.11344,290.2703 c -1.99304,0 -3.59744,1.6044 -3.59744,3.59744 v 9.01785 115.09788 13.40018 C 485.516,438.373 491.143,444 498.13234,444 h 11.38942 108.89678 9.01785 c 1.99302,0 3.59848,-1.6044 3.59848,-3.59744 v -9.01891 -108.84378 c 0,0 0.13466,-1.6693 0.46188,-2.42203 0.27369,-0.62961 0.68209,-1.33612 1.25913,-1.80766 1.15493,-0.94381 4.74596,-0.83019 4.74596,-0.83019 1.38395,0 2.49816,-1.11418 2.49816,-2.49816 v -22.21337 c 0,-1.38398 -1.11421,-2.49816 -2.49816,-2.49816 h -10.0264 c -0.005,0 -0.009,10e-4 -0.0135,10e-4 -0.009,-6e-5 -0.0168,-10e-4 -0.0254,-10e-4 H 618.4187 498.1325 Z"
       style="opacity:1;vector-effect:none;fill:#bfc3c7;fill-opacity:1;stroke:none;stroke-width:0.21605712;stroke-linecap:butt;stroke-linejoin:round;stroke-miterlimit:4;stroke-dasharray:none;stroke-dashoffset:0;stroke-opacity:1;paint-order:normal" /><path
       id="rect6923"
       d="m 500.42268,300.90752 c -2.47727,0 -4.47201,1.86805 -4.47201,4.18822 v 118.92214 l 10.00003,10.00108 h 109.04134 c 2.47725,0 4.47092,-1.86805 4.47092,-4.18822 v -124.735 c 0,-2.32017 -1.99367,-4.18822 -4.47092,-4.18822 z"
       style="opacity:1;vector-effect:none;fill:#9ca2a7;fill-opacity:1;stroke:none;stroke-width:0.3742694;stroke-linecap:butt;stroke-linejoin:round;stroke-miterlimit:4;stroke-dasharray:none;stroke-dashoffset:0;stroke-opacity:1;paint-order:normal"
       inkscape:connector-curvature="0" /><path
       id="rect6923-9"
       d="m 502.51538,302.42125 c -2.36486,0 -4.2691,1.80282 -4.2691,4.04198 v 114.76971 l 9.5463,9.65187 h 104.09396 c 2.36485,0 4.26805,-1.80282 4.26805,-4.04198 v -120.3796 c 0,-2.23916 -1.9032,-4.04198 -4.26805,-4.04198 z"
       style="opacity:1;vector-effect:none;fill:#fafaff;fill-opacity:1;stroke:none;stroke-width:0.35923922;stroke-linecap:butt;stroke-linejoin:round;stroke-miterlimit:4;stroke-dasharray:none;stroke-dashoffset:0;stroke-opacity:1;paint-order:normal"
       inkscape:connector-curvature="0" /><g
       transform="matrix(0.18416112,0,0,0.18416112,510.49201,309.55867)"
       id="g4756"><path
         style="fill:#929497"
         inkscape:connector-curvature="0"
         d="m 265.842,53.988 c 0,0.637 -0.526,1.16 -1.165,1.16 H 242.44 a 1.16,1.16 0 0 1 -1.163,-1.16 V 37.904 c 0,-0.639 0.517,-1.157 1.163,-1.157 h 22.237 c 0.64,0 1.165,0.517 1.165,1.157 z m -0.965,-22.066 h -22.642 c -3.278,0 -5.94,2.682 -5.94,5.95 v 16.153 c 0,3.263 2.662,5.943 5.94,5.943 h 22.643 c 3.278,0 5.947,-2.68 5.947,-5.943 V 37.871 c 0,-3.267 -2.67,-5.949 -5.948,-5.949"
         id="path2" /><path
         style="fill:#c02424"
         inkscape:connector-curvature="0"
         d="m 326.764,27.334 c 0,0 16.665,-2.669 16.665,-13.044 C 343.43,4.148 325.684,0 306.804,0 289.764,0 278.561,2.082 278.561,2.082 v 9.214 c 7.734,-1.87 15.131,-3.464 25.213,-3.464 10.82,0 19.08,3.228 19.08,7.79 0,5.5 -8.168,8.64 -25.743,8.64 h -8.077 v 8.29 h 7.503 c 18.513,0 29.041,2.785 29.041,9.581 0,6.067 -9.406,9.753 -21.135,9.753 -10.227,0 -19.583,-2.178 -27.17,-4.284 v 9.94 c 3.644,0.625 13.314,2.568 31.325,2.568 19.952,0 37.313,-6.416 37.313,-17.726 0.002,-9.484 -12.026,-15.05 -19.147,-15.05"
         id="path4" /><path
         style="fill:#221d1f"
         inkscape:connector-curvature="0"
         d="M 5.196,7.754 V 28.539 H 0 V 0.484 H 4.437 L 25.473,20.918 V 0.484 h 5.128 v 28.055 h -4.059 z m 52.074,0 V 28.539 H 52.076 V 0.484 h 4.432 L 77.544,20.918 V 0.484 h 5.133 V 28.539 H 78.62 Z m 107.925,0 v 20.785 h -5.192 V 0.484 h 4.432 l 21.034,20.434 V 0.484 h 5.132 v 28.055 h -4.054 z M 42.967,0.485 h 0.96 V 28.538 H 38.735 V 0.485 Z m 75.08,0 h 0.956 V 5.31 h -12.527 v 23.227 h -5.395 V 5.31 H 88.563 V 0.485 Z m 33.275,0 h 0.973 V 5.31 h -22.263 v 6.296 h 17.221 v 4.825 h -17.22 v 7.274 h 22.262 v 4.832 H 124.893 V 0.484 h 26.43 z m 68.159,23.22 H 203.528 V 5.31 h 15.953 c 4.991,0 6.768,4.961 6.768,9.192 0,4.25 -1.777,9.204 -6.768,9.204 m 8.522,-19.123 c -2.027,-2.676 -5.035,-4.099 -8.67,-4.099 h -20.814 v 28.055 h 20.814 c 3.636,0 6.643,-1.42 8.671,-4.099 1.901,-2.495 2.911,-5.92 2.911,-9.939 0,-3.995 -1.01,-7.436 -2.912,-9.918 m 37.839,17.97 c 0,0.633 -0.526,1.154 -1.165,1.154 H 242.44 a 1.16,1.16 0 0 1 -1.163,-1.154 V 6.47 c 0,-0.635 0.517,-1.152 1.163,-1.152 h 22.237 c 0.64,0 1.165,0.517 1.165,1.152 V 22.554 Z M 264.877,0.484 h -22.642 c -3.278,0 -5.94,2.684 -5.94,5.951 v 16.16 c 0,3.264 2.662,5.944 5.94,5.944 h 22.643 c 3.278,0 5.947,-2.68 5.947,-5.945 V 6.435 c 0,-3.266 -2.67,-5.95 -5.948,-5.95 m 168.788,47.713 c 5.388,2.126 16.76,3.85 25.63,3.85 9.714,0 13.745,-3.335 13.745,-7.518 0,-3.754 -3.74,-5.96 -14.469,-9.893 -14.34,-5.301 -24.858,-9.472 -24.858,-18.891 0,-9.755 12.654,-15.493 31.955,-15.493 10.362,0 13.92,0.655 20.504,1.862 l 0.046,9.256 c -6.462,-1.23 -12.19,-3.341 -21.09,-3.341 -9.536,0 -13.597,3.027 -13.597,6.148 0,4.529 6.255,6.693 17.237,10.607 15.281,5.47 23.784,9.692 23.784,18.915 0,9.489 -10.646,16.34 -34.66,16.34 -9.866,0 -16.664,-0.65 -24.226,-1.866 V 48.198 Z M 382.545,8.431 h -11.427 v 43.262 h 11.427 c 17.544,0 28.611,-7.501 28.611,-21.543 0,-14.037 -11.067,-21.719 -28.61,-21.719 m 30.683,47.293 c -5.659,2.56 -16.348,4.184 -25.702,4.184 H 351.805 V 0.38 h 35.722 c 9.354,0 20.043,1.646 25.707,4.199 13.758,6.211 18.25,16.152 18.25,25.571 0,9.426 -4.45,19.352 -18.255,25.574 M 497.398,51.8 h -1.879 v -1.01 h 4.987 v 1.01 h -1.903 v 5.594 h -1.205 z m 9.455,2.899 c -0.037,-0.853 -0.087,-1.881 -0.076,-2.772 h -0.033 a 33.922,33.922 0 0 1 -0.78,2.527 l -0.972,2.86 h -0.92 l -0.88,-2.821 a 32.362,32.362 0 0 1 -0.667,-2.566 h -0.02 a 153.3,153.3 0 0 1 -0.12,2.813 l -0.146,2.654 h -1.128 l 0.443,-6.604 h 1.587 l 0.864,2.654 c 0.231,0.775 0.441,1.56 0.607,2.296 h 0.031 c 0.175,-0.718 0.4,-1.532 0.655,-2.305 l 0.908,-2.645 h 1.57 l 0.383,6.604 h -1.176 z"
         id="path6" /></g><path
       id="rect6923-9-3"
       d="m 498.24628,325.07891 v 90.06881 h 117.90831 v -90.06881 z"
       style="opacity:1;vector-effect:none;fill:#c53d44;fill-opacity:1;stroke:none;stroke-width:0.35923922;stroke-linecap:butt;stroke-linejoin:round;stroke-miterlimit:4;stroke-dasharray:none;stroke-dashoffset:0;stroke-opacity:1;paint-order:normal"
       inkscape:connector-curvature="0" /></g></svg>