<?xml version="1.0" encoding="UTF-8" standalone="no"?>
<!-- Created with Inkscape (http://www.inkscape.org/) -->

<svg
   xmlns:dc="http://purl.org/dc/elements/1.1/"
   xmlns:cc="http://creativecommons.org/ns#"
   xmlns:rdf="http://www.w3.org/1999/02/22-rdf-syntax-ns#"
   xmlns:svg="http://www.w3.org/2000/svg"
   xmlns="http://www.w3.org/2000/svg"
   xmlns:xlink="http://www.w3.org/1999/xlink"
   xmlns:sodipodi="http://sodipodi.sourceforge.net/DTD/sodipodi-0.dtd"
   xmlns:inkscape="http://www.inkscape.org/namespaces/inkscape"
   width="362"
   height="186"
   viewBox="0 0 95.779163 49.212501"
   version="1.1"
   id="svg8"
   inkscape:version="0.92.5 (2060ec1f9f, 2020-04-08)"
   sodipodi:docname="game.svg">
  <defs
     id="defs2">
    <inkscape:perspective
       sodipodi:type="inkscape:persp3d"
       inkscape:vp_x="0 : 66.145834 : 1"
       inkscape:vp_y="0 : 1000 : 0"
       inkscape:vp_z="185.20832 : 66.145834 : 1"
       inkscape:persp3d-origin="92.604163 : 44.097222 : 1"
       id="perspective8057" />
    <clipPath
       id="A">
      <path
         inkscape:connector-curvature="0"
         d="M 0,-1 V 82 H 55.9 V 318 H 1.5 v 82 h 195 V 318 H 140.6 V 82 H 195 V -1 Z m 554,1 v 82 h 55.9 v 236 h -54.4 v 82 h 139 V 172 l 82.7,228 1.68,0.04 81.2,-228 v 228 h 140 v -82 h -55.9 v -236 h 54.4 v -82 h -156 l -64.7,183 -65.5,-183 z"
         id="path2" />
      <path
         inkscape:connector-curvature="0"
         id="B"
         d="m 222,0 v 82 h 55.9 v 130 h 215 v -24.9 c 0,0 18,-14 23.8,-27.4 l 11.5,-25.9 c 0,0 5.35,-14.5 5.35,-27.4 l -2.3,-25.9 c 0,0 -3.62,-21.1 -9.92,-27.3 l -22.3,-25.9 c 0,0 -28.3,-27.4 -65.9,-27.4 z m 140,82 h 82 v 76 h -82 z" />
      <use
         height="100%"
         width="100%"
         y="0"
         x="0"
         transform="matrix(1,0,0,-1,0,400)"
         xlink:href="#B"
         id="use5" />
    </clipPath>
  </defs>
  <sodipodi:namedview
     id="base"
     pagecolor="#ffffff"
     bordercolor="#666666"
     borderopacity="1.0"
     inkscape:pageopacity="0.0"
     inkscape:pageshadow="2"
     inkscape:zoom="1.2471043"
     inkscape:cx="-116.08228"
     inkscape:cy="275.03515"
     inkscape:document-units="mm"
     inkscape:current-layer="layer1"
     showgrid="false"
     units="px"
     inkscape:window-width="3840"
     inkscape:window-height="2065"
     inkscape:window-x="0"
     inkscape:window-y="0"
     inkscape:window-maximized="1"
     inkscape:snap-global="false"
     showguides="false" />
  <metadata
     id="metadata5">
    <rdf:RDF>
      <cc:Work
         rdf:about="">
        <dc:format>image/svg+xml</dc:format>
        <dc:type
           rdf:resource="http://purl.org/dc/dcmitype/StillImage" />
        <dc:title></dc:title>
      </cc:Work>
    </rdf:RDF>
  </metadata>
  <g
     inkscape:label="Layer 1"
     inkscape:groupmode="layer"
     id="layer1"
     transform="translate(0,-247.78748)">
    <g
       transform="matrix(0.18439354,0,0,0.18439396,58.49949,102.93963)"
       id="layer1-1">
      <path
         inkscape:connector-curvature="0"
         id="path986"
         style="fill:#3b3b3b;fill-opacity:1;fill-rule:nonzero;stroke:none"
         d="m 181.76913,1030.0746 h 11.28375 v 7.3612 H 181.76913 Z M 2.1478797,845.89083 l -1.20499996,1.1075 -0.3875,1.39875 0.19375,201.53002 0.46624996,1.0325 1.03,0.6587 196.1087503,0.1738 1.305,-0.7338 0.65875,-1.225 -0.2725,-179.79497 h -1.39875 v -8.19875 l 1.10625,0.2725 v -2.7975 l -15.095,-13.25 -2.99125,-0.175 -0.9325,0.835 h -16.04625 l -1.39875,1.39875 -3.26375,0.0975 H 52.23163 l 10e-4,-0.9325 -26.5,-0.195 0.0962,-1.03 -23.6837503,-0.17375 0.002,10e-4 z" />
      <g
         transform="matrix(1.25,0,0,-1.25,0.56249974,848.4047)"
         id="g988">
        <path
           inkscape:connector-curvature="0"
           id="path990"
           style="fill:none;stroke:#424242;stroke-width:0.89999998;stroke-linecap:round;stroke-linejoin:round;stroke-miterlimit:10;stroke-dasharray:none;stroke-opacity:1"
           d="m 0,0 0.149,-161.224 0.373,-0.821 0.821,-0.522 156.897,-0.149 1.044,0.597 0.523,0.969 -0.224,143.841 h -1.119 v 6.566 l 0.895,-0.224 v 2.238 L 147.273,1.865 144.885,2.014 144.139,1.343 H 131.307 L 130.188,0.224 127.577,0.149 H 41.332 v 0.746 l -21.188,0.15 0.074,0.82 -18.95,0.149 -0.97,-0.895 z" />
      </g>
      <g
         transform="matrix(1.25,0,0,-1.25,26.022,846.72595)"
         id="g992">
        <path
           inkscape:connector-curvature="0"
           id="path994"
           style="fill:none;stroke:#858586;stroke-width:0.60000002;stroke-linecap:round;stroke-linejoin:round;stroke-miterlimit:10;stroke-dasharray:none;stroke-opacity:1"
           d="m 0,0 v -52.896 l 0.373,-0.671 0.522,-0.224 h 23.128" />
      </g>
      <path
         inkscape:connector-curvature="0"
         id="path996"
         style="fill:#292929;fill-opacity:1;fill-rule:nonzero;stroke:none"
         d="M 6.9978797,1037.5321 H 18.28163 v -7.3675 H 6.9978797 Z" />
      <g
         transform="matrix(1.25,0,0,-1.25,176.16713,1046.6958)"
         id="g998">
        <path
           inkscape:connector-curvature="0"
           id="path1000"
           style="fill:#ffffff;fill-opacity:1;fill-rule:nonzero;stroke:none"
           d="m 0,0 v 87.757 l -0.895,1.044 -119.37,-0.149 -1.045,-0.746 V -0.112 Z" />
      </g>
      <path
         inkscape:connector-curvature="0"
         id="path1002"
         style="fill:#b2b2b2;fill-opacity:1;fill-rule:nonzero;stroke:none"
         d="m 113.86288,856.71208 h 28.8325 v 54.09 h -28.8325 z m -61.57,-11.055 v 67.1275 l 1.94375,1.49625 h 103.18625 l 1.71,-1.885 v -66.735 H 52.29663 l -0.004,-0.004 z" />
    </g>
    <g
       id="g6044"
       transform="matrix(0.98935695,0,0,0.98935695,-125.09597,4.2461555)">
      <g
         transform="matrix(0.35277779,0,0,-0.35277779,176.40136,271.03236)"
         id="g112">
        <path
           id="path114"
           style="fill:#1f1e21;fill-opacity:1;fill-rule:nonzero;stroke:none"
           d="m 0,0 c 0,38.919 -31.549,70.469 -70.468,70.469 -38.919,0 -70.468,-31.55 -70.468,-70.469 0,-38.918 31.549,-70.468 70.468,-70.468 C -31.549,-70.468 0,-38.918 0,0"
           inkscape:connector-curvature="0" />
      </g>
      <g
         transform="matrix(0.35277779,0,0,-0.35277779,175.38988,271.03236)"
         id="g116">
        <path
           id="path118"
           style="fill:#9a9b9c;fill-opacity:1;fill-rule:nonzero;stroke:none"
           d="m 0,0 c 0,37.334 -30.266,67.601 -67.601,67.601 -37.334,0 -67.6,-30.267 -67.6,-67.601 0,-37.335 30.266,-67.6 67.6,-67.6 C -30.266,-67.6 0,-37.335 0,0"
           inkscape:connector-curvature="0" />
      </g>
      <g
         transform="matrix(0.35277779,0,0,-0.35277779,156.60689,271.03218)"
         id="g120">
        <path
           id="path122"
           style="fill:#1f1e21;fill-opacity:1;fill-rule:nonzero;stroke:none"
           d="m 0,0 c 0,7.929 -6.428,14.358 -14.357,14.358 -7.93,0 -14.358,-6.429 -14.358,-14.358 0,-7.93 6.428,-14.358 14.358,-14.358 C -6.428,-14.358 0,-7.93 0,0"
           inkscape:connector-curvature="0" />
      </g>
      <g
         transform="matrix(0.35277779,0,0,-0.35277779,170.09581,285.25509)"
         id="g124">
        <path
           id="path126"
           style="fill:#ffffff;fill-opacity:1;fill-rule:nonzero;stroke:none"
           d="m 0,0 c -12.099,-15.792 -31.165,-25.965 -52.594,-25.965 -21.429,0 -40.477,10.173 -52.594,25.965 -8.569,11.16 -13.67,25.139 -13.67,40.317 0,36.606 29.674,66.264 66.264,66.264 36.608,0 66.282,-29.658 66.282,-66.264 C 13.688,25.139 8.585,11.16 0.017,0 Z m -52.594,109.627 c -38.275,0 -69.309,-31.035 -69.309,-69.31 0,-38.277 31.034,-69.311 69.309,-69.311 38.291,0 69.311,31.034 69.311,69.311 0,38.275 -31.02,69.31 -69.311,69.31"
           inkscape:connector-curvature="0" />
      </g>
      <g
         transform="matrix(0.35277779,0,0,-0.35277779,151.53913,278.00335)"
         id="g128">
        <path
           id="path130"
           style="fill:#c4c5c6;fill-opacity:1;fill-rule:nonzero;stroke:none"
           d="m 0,0 c -10.917,0 -19.762,8.844 -19.762,19.761 0,10.918 8.845,19.761 19.762,19.761 10.917,0 19.776,-8.843 19.776,-19.761 C 19.776,8.844 10.917,0 0,0 m 0,41.093 c -11.776,0 -21.316,-9.556 -21.316,-21.332 0,-11.776 9.54,-21.332 21.316,-21.332 11.775,0 21.332,9.556 21.332,21.332 0,11.776 -9.557,21.332 -21.332,21.332"
           inkscape:connector-curvature="0" />
      </g>
      <g
         transform="matrix(0.35277779,0,0,-0.35277779,151.53949,277.5579)"
         id="g132">
        <path
           id="path134"
           style="fill:#9a9b9c;fill-opacity:1;fill-rule:nonzero;stroke:none"
           d="m 0,0 c -10.205,0 -18.482,8.294 -18.482,18.498 0,10.205 8.277,18.482 18.482,18.482 10.22,0 18.497,-8.277 18.497,-18.482 C 18.497,8.294 10.22,0 0,0 m 0,38.259 c -10.917,0 -19.762,-8.844 -19.762,-19.761 0,-10.918 8.845,-19.761 19.762,-19.761 10.917,0 19.776,8.843 19.776,19.761 0,10.917 -8.859,19.761 -19.776,19.761"
           inkscape:connector-curvature="0" />
      </g>
      <g
         transform="matrix(0.35277779,0,0,-0.35277779,151.53949,264.50974)"
         id="g136">
        <path
           id="path138"
           style="fill:#58595b;fill-opacity:1;fill-rule:nonzero;stroke:none"
           d="m 0,0 c -10.205,0 -18.482,-8.276 -18.482,-18.48 0,-10.205 8.277,-18.499 18.482,-18.499 10.22,0 18.497,8.294 18.497,18.499 C 18.497,-8.276 10.22,0 0,0"
           inkscape:connector-curvature="0" />
      </g>
      <g
         transform="matrix(0.35277779,0,0,-0.35277779,155.17475,271.03218)"
         id="g140">
        <path
           id="path142"
           style="fill:#1f1e21;fill-opacity:1;fill-rule:nonzero;stroke:none"
           d="m 0,0 c 0,-5.687 -4.61,-10.299 -10.298,-10.299 -5.687,0 -10.298,4.612 -10.298,10.299 0,5.687 4.611,10.298 10.298,10.298 C -4.61,10.298 0,5.687 0,0"
           inkscape:connector-curvature="0" />
      </g>
      <g
         transform="matrix(0.35277779,0,0,-0.35277779,151.53949,264.79535)"
         id="g144">
        <path
           id="path146"
           style="fill:#3a3a3c;fill-opacity:1;fill-rule:nonzero;stroke:none"
           d="m 0,0 c -9.745,0 -17.673,-7.927 -17.673,-17.671 0,-9.753 7.928,-17.689 17.673,-17.689 9.753,0 17.687,7.936 17.687,17.689 C 17.687,-7.927 9.753,0 0,0 m 0,-36.979 c -10.639,0 -19.292,8.662 -19.292,19.308 0,10.636 8.653,19.291 19.292,19.291 10.646,0 19.307,-8.655 19.307,-19.291 0,-10.646 -8.661,-19.308 -19.307,-19.308"
           inkscape:connector-curvature="0" />
      </g>
      <g
         transform="matrix(0.35277779,0,0,-0.35277779,151.53913,274.38925)"
         id="g148">
        <path
           id="path150"
           style="fill:#3a3a3c;fill-opacity:1;fill-rule:nonzero;stroke:none"
           d="m 0,0 c -5.243,0 -9.509,4.265 -9.509,9.508 0,5.252 4.266,9.525 9.509,9.525 5.252,0 9.524,-4.273 9.524,-9.525 C 9.524,4.265 5.252,0 0,0 m 0,20.652 c -6.136,0 -11.128,-4.999 -11.128,-11.144 0,-6.136 4.992,-11.128 11.128,-11.128 6.145,0 11.144,4.992 11.144,11.128 0,6.145 -4.999,11.144 -11.144,11.144"
           inkscape:connector-curvature="0" />
      </g>
      <path
         style="fill:#d40000;fill-opacity:1;fill-rule:nonzero;stroke:none;stroke-width:0.28222224"
         d="M 153.63594,261.68129 Z"
         id="path3443-1"
         inkscape:connector-curvature="0" />
      <path
         style="fill:#d40000;fill-opacity:1;fill-rule:nonzero;stroke:none;stroke-width:0.28222224"
         d="M 153.63594,261.3914 Z"
         id="path3445-1"
         inkscape:connector-curvature="0" />
      <path
         style="fill:#d40000;fill-opacity:1;fill-rule:nonzero;stroke:none;stroke-width:0.28222224"
         d="M 153.63594,261.10605 Z"
         id="path3447-2"
         inkscape:connector-curvature="0" />
      <path
         style="fill:#d40000;fill-opacity:1;fill-rule:nonzero;stroke:none;stroke-width:0.28222224"
         d="M 153.63594,261.24872 Z"
         id="path3449-5"
         inkscape:connector-curvature="0" />
      <path
         style="fill:#d40000;fill-opacity:1;fill-rule:nonzero;stroke:none;stroke-width:0.28222224"
         d="M 153.63594,261.82396 Z"
         id="path3451-5"
         inkscape:connector-curvature="0" />
      <path
         style="fill:#d40000;fill-opacity:1;fill-rule:nonzero;stroke:none;stroke-width:0.28222224"
         d="M 153.63594,261.53407 Z"
         id="path3453-4"
         inkscape:connector-curvature="0" />
      <path
         style="fill:#d40000;fill-opacity:1;fill-rule:nonzero;stroke:none;stroke-width:0.28222224"
         d="M 153.63594,260.96338 Z"
         id="path3455-5"
         inkscape:connector-curvature="0" />
    </g>
  </g>
</svg>
