<?xml version="1.0" encoding="UTF-8" standalone="no"?>
<svg
   xmlns:dc="http://purl.org/dc/elements/1.1/"
   xmlns:cc="http://creativecommons.org/ns#"
   xmlns:rdf="http://www.w3.org/1999/02/22-rdf-syntax-ns#"
   xmlns:svg="http://www.w3.org/2000/svg"
   xmlns="http://www.w3.org/2000/svg"
   xmlns:sodipodi="http://sodipodi.sourceforge.net/DTD/sodipodi-0.dtd"
   xmlns:inkscape="http://www.inkscape.org/namespaces/inkscape"
   width="64"
   height="64"
   version="1.1"
   viewBox="0 0 64 64"
   id="svg4"
   sodipodi:docname="button_start_XBOX.svg"
   inkscape:version="0.92.5 (2060ec1f9f, 2020-04-08)">
  <metadata
     id="metadata10">
    <rdf:RDF>
      <cc:Work
         rdf:about="">
        <dc:format>image/svg+xml</dc:format>
        <dc:type
           rdf:resource="http://purl.org/dc/dcmitype/StillImage" />
        <dc:title />
      </cc:Work>
    </rdf:RDF>
  </metadata>
  <defs
     id="defs8" />
  <sodipodi:namedview
     pagecolor="#ffffff"
     bordercolor="#666666"
     borderopacity="1"
     objecttolerance="10"
     gridtolerance="10"
     guidetolerance="10"
     inkscape:pageopacity="0"
     inkscape:pageshadow="2"
     inkscape:window-width="3840"
     inkscape:window-height="2065"
     id="namedview6"
     showgrid="false"
     inkscape:pagecheckerboard="true"
     inkscape:zoom="10.114756"
     inkscape:cx="54.855698"
     inkscape:cy="22.84784"
     inkscape:window-x="0"
     inkscape:window-y="0"
     inkscape:window-maximized="1"
     inkscape:current-layer="svg4" />
  <path
     style="opacity:1;fill:#ffffff;fill-opacity:0.99427478;stroke:none;stroke-width:3.00568366;stroke-linecap:round;stroke-linejoin:round;stroke-miterlimit:4;stroke-dasharray:none;stroke-opacity:1;paint-order:stroke fill markers"
     d="M 32,3 A 28.999998,28.999998 0 0 0 3,32 28.999998,28.999998 0 0 0 32,61 28.999998,28.999998 0 0 0 61,32 28.999998,28.999998 0 0 0 32,3 Z M 15.1393,18.994908 h 33.7214 c 0.194964,0 0.37709,0.04431 0.532018,0.139579 0.154927,0.09528 0.301408,0.270435 0.301408,0.497628 v 2.751116 c 0,0.227193 -0.146481,0.40033 -0.301408,0.495605 -0.154928,0.09528 -0.337054,0.139579 -0.532018,0.139579 H 15.1393 c -0.194964,0 -0.37709,-0.04431 -0.532018,-0.139579 -0.154927,-0.09528 -0.301408,-0.268412 -0.301408,-0.495605 v -2.751116 c 0,-0.227193 0.146481,-0.402353 0.301408,-0.497628 0.154928,-0.09528 0.337054,-0.139579 0.532018,-0.139579 z m 0,8.963379 h 33.7214 c 0.194964,0 0.37709,0.04431 0.532018,0.139579 0.154927,0.09528 0.301408,0.268411 0.301408,0.495606 v 2.751116 c 0,0.227191 -0.146481,0.400329 -0.301408,0.495604 -0.154928,0.09528 -0.337054,0.139579 -0.532018,0.139579 H 15.1393 c -0.194964,0 -0.37709,-0.04431 -0.532018,-0.139579 -0.154927,-0.09527 -0.301408,-0.268413 -0.301408,-0.495604 v -2.751116 c 0,-0.227196 0.146481,-0.400331 0.301408,-0.495606 0.154928,-0.09528 0.337054,-0.139579 0.532018,-0.139579 z m 0,8.961356 h 33.7214 c 0.194964,0 0.37709,0.04431 0.532018,0.139579 0.154927,0.09528 0.301408,0.268413 0.301408,0.495605 v 2.751116 c 0,0.227193 -0.146481,0.40033 -0.301408,0.495606 -0.154928,0.09528 -0.337054,0.139578 -0.532018,0.139578 H 15.1393 c -0.194964,0 -0.37709,-0.0443 -0.532018,-0.139578 -0.154927,-0.09528 -0.301408,-0.268413 -0.301408,-0.495606 v -2.751116 c 0,-0.227192 0.146481,-0.40033 0.301408,-0.495605 0.154928,-0.09527 0.337054,-0.139579 0.532018,-0.139579 z"
     id="path4749"
     inkscape:connector-curvature="0" />
</svg>
