<?xml version="1.0" encoding="UTF-8"?>
<svg width="64" height="64" version="1.1" viewBox="0 0 64 64" xmlns="http://www.w3.org/2000/svg">
 <circle id="outline_east" cx="50" cy="32" r="10" fill="none" stroke="#fff" stroke-width="2" />
 <circle id="outline_south" cx="32" cy="50" r="10" fill="none" stroke="#fff" stroke-width="2" />
 <circle id="outline_north" cx="32" cy="14" r="10" fill="none" stroke="#fff" stroke-width="2" />
 <circle id="outline_west" cx="32" cy="14" r="10" style="fill:none;stroke:#ffffff;stroke-width:2" />
<path id="button_north" d="M 14,22 A 10,10 0 0 0 4,32 10,10 0 0 0 14,42 10,10 0 0 0 24,32 10,10 0 0 0 14,22 Z m -3.894531,4.289062 h 2.75 l 1.171875,2.90625 1.015625,-2.90625 h 2.84375 l -2.414063,5.578126 2.609375,5.84375 h -2.820312 l -1.3125,-3.257813 -1.203125,3.257813 H 9.917969 l 2.609375,-5.929688 z" style="fill:#ffffff" />
</svg>
