<?xml version="1.0" encoding="UTF-8"?>
<svg width="64" height="64" version="1.1" viewBox="0 0 64 64" xmlns="http://www.w3.org/2000/svg">
 <circle id="outline_east" cx="50" cy="32" r="10" fill="none" stroke="#fff" stroke-width="2" />
 <circle id="outline_south" cx="32" cy="50" r="10" fill="none" stroke="#fff" stroke-width="2" />
 <circle id="outline_north" cx="32" cy="14" r="10" fill="none" stroke="#fff" stroke-width="2" />
 <path id="button_square" d="M 14,21 A 11,11 0 0 0 3,32 11,11 0 0 0 14,43 11,11 0 0 0 25,32 11,11 0 0 0 14,21 Z m -5.5,4.714286 h 11 A 0.78579286,0.78579286 0 0 1 20.285714,26.5 v 11 A 0.78579286,0.78579286 0 0 1 19.5,38.285714 H 8.5 A 0.78579286,0.78579286 0 0 1 7.714286,37.5 v -11 A 0.78579286,0.78579286 0 0 1 8.5,25.714286 Z m 0.785714,1.571428 v 9.428572 h 9.428572 v -9.428572 z" style="fill:#ffffff;stroke-width:0.39285716"/>
</svg>
