<?xml version="1.0" encoding="UTF-8" standalone="no"?>
<svg
   xmlns:dc="http://purl.org/dc/elements/1.1/"
   xmlns:cc="http://creativecommons.org/ns#"
   xmlns:rdf="http://www.w3.org/1999/02/22-rdf-syntax-ns#"
   xmlns:svg="http://www.w3.org/2000/svg"
   xmlns="http://www.w3.org/2000/svg"
   xmlns:xlink="http://www.w3.org/1999/xlink"
   xmlns:sodipodi="http://sodipodi.sourceforge.net/DTD/sodipodi-0.dtd"
   xmlns:inkscape="http://www.inkscape.org/namespaces/inkscape"
   width="216"
   height="216"
   version="1.1"
   viewBox="0 0 216 216"
   id="svg2"
   sodipodi:docname="game.svg"
   inkscape:version="0.92.5 (2060ec1f9f, 2020-04-08)">
  <metadata
     id="metadata8">
    <rdf:RDF>
      <cc:Work
         rdf:about="">
        <dc:format>image/svg+xml</dc:format>
        <dc:type
           rdf:resource="http://purl.org/dc/dcmitype/StillImage" />
        <dc:title></dc:title>
      </cc:Work>
    </rdf:RDF>
  </metadata>
  <defs
     id="defs6">
    <clipPath
       id="clipPath16"
       clipPathUnits="userSpaceOnUse">
      <path
         inkscape:connector-curvature="0"
         id="path18"
         d="M 0,172.02 H 172.02 V 0 H 0 Z" />
    </clipPath>
    <linearGradient
       id="linearGradient206"
       spreadMethod="pad"
       gradientTransform="matrix(20.823595,0,0,-20.823595,130.58289,87.014198)"
       gradientUnits="userSpaceOnUse"
       y2="0"
       x2="1"
       y1="0"
       x1="0">
      <stop
         id="stop208"
         offset="0"
         style="stop-opacity:1;stop-color:#ef4e26" />
      <stop
         id="stop210"
         offset="0.5"
         style="stop-opacity:1;stop-color:#e5e543" />
      <stop
         id="stop212"
         offset="1"
         style="stop-opacity:1;stop-color:#ef4e26" />
    </linearGradient>
    <linearGradient
       id="linearGradient228"
       spreadMethod="pad"
       gradientTransform="matrix(10.411851,0,0,-10.411851,137.44432,90.499291)"
       gradientUnits="userSpaceOnUse"
       y2="0"
       x2="1"
       y1="0"
       x1="0">
      <stop
         id="stop230"
         offset="0"
         style="stop-opacity:1;stop-color:#ef4e26" />
      <stop
         id="stop232"
         offset="0.4"
         style="stop-opacity:1;stop-color:#e5e543" />
      <stop
         id="stop234"
         offset="1"
         style="stop-opacity:1;stop-color:#fbae1f" />
    </linearGradient>
    <linearGradient
       id="linearGradient250"
       spreadMethod="pad"
       gradientTransform="matrix(10.412209,0,0,-10.412209,134.26407,83.311134)"
       gradientUnits="userSpaceOnUse"
       y2="0"
       x2="1"
       y1="0"
       x1="0">
      <stop
         id="stop252"
         offset="0"
         style="stop-opacity:1;stop-color:#fbae1f" />
      <stop
         id="stop254"
         offset="0.6"
         style="stop-opacity:1;stop-color:#e5e543" />
      <stop
         id="stop256"
         offset="1"
         style="stop-opacity:1;stop-color:#ef4e26" />
    </linearGradient>
    <clipPath
       id="clipPath264"
       clipPathUnits="userSpaceOnUse">
      <path
         inkscape:connector-curvature="0"
         id="path266"
         d="M 0,172.02 H 172.02 V 0 H 0 Z" />
    </clipPath>
    <clipPath
       id="clipPath5332">
      <path
         d="M 242.805,695.386 H 579.33 V 553.03 H 242.805 Z"
         id="path5334"
         inkscape:connector-curvature="0" />
    </clipPath>
    <radialGradient
       cx="0"
       cy="0"
       r="1"
       fx="0"
       fy="0"
       id="radialGradient6072"
       xlink:href="#radialGradient5340"
       gradientUnits="userSpaceOnUse"
       gradientTransform="matrix(207.42525,-21.509659,-19.788208,-190.87936,415.48047,501.28809)"
       spreadMethod="pad" />
    <radialGradient
       cx="0"
       cy="0"
       r="1"
       fx="0"
       fy="0"
       id="radialGradient5340"
       gradientUnits="userSpaceOnUse"
       gradientTransform="matrix(207.42525,-21.509659,-19.788208,-190.87936,415.48047,501.28809)"
       spreadMethod="pad">
      <stop
         id="stop5342"
         style="stop-color:#ffffff;stop-opacity:1"
         offset="0" />
      <stop
         id="stop5344"
         style="stop-color:#000000;stop-opacity:1"
         offset="0.95506299" />
      <stop
         id="stop5346"
         style="stop-color:#000000;stop-opacity:1"
         offset="0.95506299" />
      <stop
         id="stop5348"
         style="stop-color:#000000;stop-opacity:1"
         offset="1" />
    </radialGradient>
    <clipPath
       id="clipPath5368">
      <path
         d="M 481.117,609.926 H 625.518 V 355.03 H 481.117 Z"
         id="path5370"
         inkscape:connector-curvature="0" />
    </clipPath>
    <radialGradient
       cx="0"
       cy="0"
       r="1"
       fx="0"
       fy="0"
       id="radialGradient6074"
       xlink:href="#radialGradient5376"
       gradientUnits="userSpaceOnUse"
       gradientTransform="matrix(-59.413574,-151.80127,-183.85619,71.964798,430.58789,518.58398)"
       spreadMethod="pad" />
    <radialGradient
       cx="0"
       cy="0"
       r="1"
       fx="0"
       fy="0"
       id="radialGradient5376"
       gradientUnits="userSpaceOnUse"
       gradientTransform="matrix(-59.413574,-151.80127,-183.85619,71.964798,430.58789,518.58398)"
       spreadMethod="pad">
      <stop
         id="stop5378"
         style="stop-color:#ffffff;stop-opacity:1"
         offset="0" />
      <stop
         id="stop5380"
         style="stop-color:#000000;stop-opacity:1"
         offset="0.95506299" />
      <stop
         id="stop5382"
         style="stop-color:#000000;stop-opacity:1"
         offset="0.95506299" />
      <stop
         id="stop5384"
         style="stop-color:#000000;stop-opacity:1"
         offset="1" />
    </radialGradient>
    <linearGradient
       x1="0"
       y1="0"
       x2="1"
       y2="0"
       id="linearGradient6076"
       xlink:href="#linearGradient5412"
       gradientUnits="userSpaceOnUse"
       gradientTransform="matrix(112.95387,139.48642,139.48642,-112.95386,242.33008,465.07959)"
       spreadMethod="pad" />
    <linearGradient
       x1="0"
       y1="0"
       x2="1"
       y2="0"
       id="linearGradient5412"
       gradientUnits="userSpaceOnUse"
       gradientTransform="matrix(112.95387,139.48642,139.48642,-112.95386,242.33008,465.07959)"
       spreadMethod="pad">
      <stop
         id="stop5414"
         style="stop-color:#ffff00;stop-opacity:1"
         offset="0" />
      <stop
         id="stop5416"
         style="stop-color:#9dff00;stop-opacity:1"
         offset="0.5" />
      <stop
         id="stop5418"
         style="stop-color:#458c41;stop-opacity:1"
         offset="1" />
    </linearGradient>
    <linearGradient
       x1="0"
       y1="0"
       x2="1"
       y2="0"
       id="linearGradient6078"
       xlink:href="#linearGradient5434"
       gradientUnits="userSpaceOnUse"
       gradientTransform="matrix(138.34399,-205.10341,-205.10341,-138.34399,228.25391,725.86377)"
       spreadMethod="pad" />
    <linearGradient
       x1="0"
       y1="0"
       x2="1"
       y2="0"
       id="linearGradient5434"
       gradientUnits="userSpaceOnUse"
       gradientTransform="matrix(138.34399,-205.10341,-205.10341,-138.34399,228.25391,725.86377)"
       spreadMethod="pad">
      <stop
         id="stop5436"
         style="stop-color:#4a7d62;stop-opacity:1"
         offset="0" />
      <stop
         id="stop5438"
         style="stop-color:#000000;stop-opacity:1"
         offset="1" />
    </linearGradient>
    <linearGradient
       x1="0"
       y1="0"
       x2="1"
       y2="0"
       id="linearGradient6080"
       xlink:href="#linearGradient5454"
       gradientUnits="userSpaceOnUse"
       gradientTransform="matrix(221.12239,149.14896,149.14896,-221.12239,150.16309,295.60059)"
       spreadMethod="pad" />
    <linearGradient
       x1="0"
       y1="0"
       x2="1"
       y2="0"
       id="linearGradient5454"
       gradientUnits="userSpaceOnUse"
       gradientTransform="matrix(221.12239,149.14896,149.14896,-221.12239,150.16309,295.60059)"
       spreadMethod="pad">
      <stop
         id="stop5456"
         style="stop-color:#ffff00;stop-opacity:1"
         offset="0" />
      <stop
         id="stop5458"
         style="stop-color:#9dff00;stop-opacity:1"
         offset="0.421341" />
      <stop
         id="stop5460"
         style="stop-color:#9dff00;stop-opacity:1"
         offset="0.421341" />
      <stop
         id="stop5462"
         style="stop-color:#5c5c5c;stop-opacity:1"
         offset="1" />
    </linearGradient>
    <linearGradient
       x1="0"
       y1="0"
       x2="1"
       y2="0"
       id="linearGradient6082"
       xlink:href="#linearGradient5478"
       gradientUnits="userSpaceOnUse"
       gradientTransform="matrix(179.03551,310.09863,310.09863,-179.03551,150.04297,206.6123)"
       spreadMethod="pad" />
    <linearGradient
       x1="0"
       y1="0"
       x2="1"
       y2="0"
       id="linearGradient5478"
       gradientUnits="userSpaceOnUse"
       gradientTransform="matrix(179.03551,310.09863,310.09863,-179.03551,150.04297,206.6123)"
       spreadMethod="pad">
      <stop
         id="stop5480"
         style="stop-color:#4a7d62;stop-opacity:1"
         offset="0" />
      <stop
         id="stop5482"
         style="stop-color:#182920;stop-opacity:1"
         offset="1" />
    </linearGradient>
    <linearGradient
       x1="0"
       y1="0"
       x2="1"
       y2="0"
       id="linearGradient6084"
       xlink:href="#linearGradient5498"
       gradientUnits="userSpaceOnUse"
       gradientTransform="matrix(-123.55646,119.31706,119.31706,123.55647,588.98633,485.63184)"
       spreadMethod="pad" />
    <linearGradient
       x1="0"
       y1="0"
       x2="1"
       y2="0"
       id="linearGradient5498"
       gradientUnits="userSpaceOnUse"
       gradientTransform="matrix(-123.55646,119.31706,119.31706,123.55647,588.98633,485.63184)"
       spreadMethod="pad">
      <stop
         id="stop5500"
         style="stop-color:#ffff00;stop-opacity:1"
         offset="0" />
      <stop
         id="stop5502"
         style="stop-color:#9dff00;stop-opacity:1"
         offset="0.47752401" />
      <stop
         id="stop5504"
         style="stop-color:#4a4a4a;stop-opacity:1"
         offset="1" />
    </linearGradient>
    <linearGradient
       x1="0"
       y1="0"
       x2="1"
       y2="0"
       id="linearGradient6086"
       xlink:href="#linearGradient5520"
       gradientUnits="userSpaceOnUse"
       gradientTransform="matrix(19.704803,160.48279,160.48279,-19.704803,528.9707,540.91943)"
       spreadMethod="pad" />
    <linearGradient
       x1="0"
       y1="0"
       x2="1"
       y2="0"
       id="linearGradient5520"
       gradientUnits="userSpaceOnUse"
       gradientTransform="matrix(19.704803,160.48279,160.48279,-19.704803,528.9707,540.91943)"
       spreadMethod="pad">
      <stop
         id="stop5522"
         style="stop-color:#000000;stop-opacity:1"
         offset="0" />
      <stop
         id="stop5524"
         style="stop-color:#45755c;stop-opacity:1"
         offset="0.87078899" />
      <stop
         id="stop5526"
         style="stop-color:#45755c;stop-opacity:1"
         offset="1" />
    </linearGradient>
    <linearGradient
       x1="0"
       y1="0"
       x2="1"
       y2="0"
       id="linearGradient6088"
       xlink:href="#linearGradient5542"
       gradientUnits="userSpaceOnUse"
       gradientTransform="matrix(57.405304,123.10608,123.10608,-57.405304,544.34863,308.62207)"
       spreadMethod="pad" />
    <linearGradient
       x1="0"
       y1="0"
       x2="1"
       y2="0"
       id="linearGradient5542"
       gradientUnits="userSpaceOnUse"
       gradientTransform="matrix(57.405304,123.10608,123.10608,-57.405304,544.34863,308.62207)"
       spreadMethod="pad">
      <stop
         id="stop5544"
         style="stop-color:#ffff00;stop-opacity:1"
         offset="0" />
      <stop
         id="stop5546"
         style="stop-color:#aeff00;stop-opacity:1"
         offset="0.41572601" />
      <stop
         id="stop5548"
         style="stop-color:#575757;stop-opacity:1"
         offset="1" />
    </linearGradient>
    <linearGradient
       x1="0"
       y1="0"
       x2="1"
       y2="0"
       id="linearGradient6090"
       xlink:href="#linearGradient5564"
       gradientUnits="userSpaceOnUse"
       gradientTransform="matrix(-55.596222,315.30197,315.30197,55.596237,625.08789,206.5918)"
       spreadMethod="pad" />
    <linearGradient
       x1="0"
       y1="0"
       x2="1"
       y2="0"
       id="linearGradient5564"
       gradientUnits="userSpaceOnUse"
       gradientTransform="matrix(-55.596222,315.30197,315.30197,55.596237,625.08789,206.5918)"
       spreadMethod="pad">
      <stop
         id="stop5566"
         style="stop-color:#4a7d62;stop-opacity:1"
         offset="0" />
      <stop
         id="stop5568"
         style="stop-color:#000000;stop-opacity:1"
         offset="0.83146697" />
      <stop
         id="stop5570"
         style="stop-color:#000000;stop-opacity:1"
         offset="0.83146697" />
      <stop
         id="stop5572"
         style="stop-color:#000000;stop-opacity:1"
         offset="1" />
    </linearGradient>
  </defs>
  <sodipodi:namedview
     pagecolor="#ffffff"
     bordercolor="#666666"
     borderopacity="1"
     objecttolerance="10"
     gridtolerance="10"
     guidetolerance="10"
     inkscape:pageopacity="0"
     inkscape:pageshadow="2"
     inkscape:window-width="3840"
     inkscape:window-height="2065"
     id="namedview4"
     showgrid="false"
     inkscape:zoom="3.5037693"
     inkscape:cx="84.820946"
     inkscape:cy="128.74651"
     inkscape:window-x="0"
     inkscape:window-y="0"
     inkscape:window-maximized="1"
     inkscape:current-layer="svg2" />
  <ellipse
     style="opacity:1;fill:none;fill-opacity:1;stroke:#c5cd77;stroke-width:10.67797947;stroke-linecap:round;stroke-linejoin:round;stroke-miterlimit:4;stroke-dasharray:none;stroke-opacity:1;paint-order:stroke fill markers"
     id="path3096"
     cx="108"
     cy="108"
     r="32.697418" />
  <g
     transform="matrix(1.25,0,0,-1.25,432.53802,209.169)"
     id="g1985">
    <path
       inkscape:connector-curvature="0"
       id="path1983"
       style="fill:#ffffff;fill-opacity:1;fill-rule:nonzero;stroke:none"
       d="m 0,0 c -14.768,-19.276 -38.038,-31.691 -64.194,-31.691 -26.156,0 -49.405,12.415 -64.193,31.691 -10.459,13.622 -16.686,30.683 -16.686,49.208 0,44.68 36.219,80.879 80.879,80.879 44.681,0 80.9,-36.199 80.9,-80.879 C 16.706,30.683 10.478,13.622 0.02,0 Z m -64.194,133.804 c -46.716,0 -84.596,-37.879 -84.596,-84.596 0,-46.717 37.88,-84.596 84.596,-84.596 46.737,0 84.597,37.879 84.597,84.596 0,46.717 -37.86,84.596 -84.597,84.596" />
  </g>
  <g
     id="g3695">
    <path
       d="M 210.26536,108 C 210.26536,51.520416 164.47958,5.7346423 108,5.7346423 51.520416,5.7346423 5.7346423,51.520416 5.7346423,108 c 0,56.47958 45.7857737,102.26536 102.2653577,102.26536 56.47958,0 102.26536,-45.78578 102.26536,-102.26536"
       style="fill:#86bd33;fill-opacity:1;fill-rule:nonzero;stroke:none;stroke-width:1.18899381"
       id="path22"
       inkscape:connector-curvature="0" />
    <circle
       r="36.008797"
       cy="108"
       cx="108"
       id="path3164"
       style="opacity:1;fill:#afdf5e;fill-opacity:1;stroke:none;stroke-width:3.23769617;stroke-linecap:round;stroke-linejoin:round;stroke-miterlimit:4;stroke-dasharray:none;stroke-opacity:1;paint-order:stroke fill markers" />
    <circle
       style="opacity:1;fill:#f0f0f0;fill-opacity:1;stroke:none;stroke-width:2.41650939;stroke-linecap:round;stroke-linejoin:round;stroke-miterlimit:4;stroke-dasharray:none;stroke-opacity:1;paint-order:stroke fill markers"
       id="circle3263"
       cx="108"
       cy="108"
       r="26.875776" />
    <path
       inkscape:connector-curvature="0"
       id="rect1644"
       d="m 106.87722,3.0068241 c -33.455126,0 -63.121181,16.5904739 -81.582924,42.1684979 H 188.46014 C 169.9984,19.597298 140.33234,3.0068241 106.87722,3.0068241 Z"
       style="opacity:1;fill:#0e0e0e;fill-opacity:1;stroke:none;stroke-width:0.47693577;stroke-linecap:round;stroke-linejoin:round;stroke-miterlimit:4;stroke-dasharray:none;stroke-opacity:1;paint-order:stroke fill markers" />
    <g
       transform="matrix(1.25,0,0,-1.25,188.22969,169.49744)"
       id="g114">
      <path
         inkscape:connector-curvature="0"
         id="path116"
         style="fill:#ffffff;fill-opacity:1;fill-rule:nonzero;stroke:none"
         d="m 0,0 c -14.768,-19.276 -38.038,-31.691 -64.194,-31.691 -26.156,0 -49.405,12.415 -64.193,31.691 -10.459,13.622 -16.686,30.683 -16.686,49.208 0,44.68 36.219,80.879 80.879,80.879 44.681,0 80.9,-36.199 80.9,-80.879 C 16.706,30.683 10.478,13.622 0.02,0 Z m -64.194,133.804 c -46.716,0 -84.596,-37.879 -84.596,-84.596 0,-46.717 37.88,-84.596 84.596,-84.596 46.737,0 84.597,37.879 84.597,84.596 0,46.717 -37.86,84.596 -84.597,84.596" />
    </g>
    <g
       style="opacity:0.98999999;fill:#c6c6c6;fill-opacity:1;stroke:none;stroke-opacity:1"
       transform="matrix(0.80653734,0,0,-0.80653734,107.9919,126.19716)"
       id="g122">
      <path
         inkscape:connector-curvature="0"
         id="path124"
         style="fill:#c6c6c6;fill-opacity:1;fill-rule:nonzero;stroke:none;stroke-opacity:1"
         d="m 0,0 c -12.455,0 -22.558,10.122 -22.558,22.577 0,12.456 10.103,22.558 22.558,22.558 12.475,0 22.577,-10.102 22.577,-22.558 C 22.577,10.122 12.475,0 0,0 m 0,46.697 c -13.325,0 -24.12,-10.795 -24.12,-24.12 0,-13.325 10.795,-24.119 24.12,-24.119 13.325,0 24.139,10.794 24.139,24.119 0,13.325 -10.814,24.12 -24.139,24.12" />
    </g>
    <g
       transform="matrix(0.04128679,0,0,0.04128679,90.498606,11.864238)"
       id="g5834">
      <g
         transform="matrix(1.25,0,0,-1.25,-97.211226,943.55044)"
         id="g5328">
        <g
           id="g5330" />
        <g
           id="g5350">
          <g
             clip-path="url(#clipPath5332)"
             id="g5352">
            <g
               id="g5354">
              <g
                 id="g5356">
                <g
                   id="g5358">
                  <g
                     id="g5360">
                    <path
                       d="m 417.093,553.03 -174.288,83.727 c 0,0 175.192,135.82 336.525,-5.986 z"
                       id="path5362"
                       style="fill:url(#radialGradient6072);stroke:none"
                       inkscape:connector-curvature="0" />
                  </g>
                </g>
              </g>
            </g>
          </g>
        </g>
      </g>
      <g
         transform="matrix(1.25,0,0,-1.25,-97.211226,943.55044)"
         id="g5364">
        <g
           id="g5366" />
        <g
           id="g5386">
          <g
             clip-path="url(#clipPath5368)"
             id="g5388">
            <g
               id="g5390">
              <g
                 id="g5392">
                <g
                   id="g5394">
                  <g
                     id="g5396">
                    <path
                       d="m 481.117,501.931 114.419,107.995 c 0,0 101.094,-174.088 -67.989,-254.896 z"
                       id="path5398"
                       style="fill:url(#radialGradient6074);stroke:none"
                       inkscape:connector-curvature="0" />
                  </g>
                </g>
              </g>
            </g>
          </g>
        </g>
      </g>
      <g
         transform="matrix(1.25,0,0,-1.25,-97.211226,943.55044)"
         id="g5400">
        <g
           id="g5402">
          <g
             id="g5408">
            <g
               id="g5410">
              <path
                 d="M 344.644,507.724 V 382.227 c 24.426,20.367 48.894,41.889 72.242,64.093 v 0 108.361 c 0,0 -131.226,43.744 -214.074,95.919 v 0 c 34.127,-38.852 90.552,-100.237 141.832,-142.876"
                 id="path5420"
                 style="fill:url(#linearGradient6076);stroke:none"
                 inkscape:connector-curvature="0" />
            </g>
          </g>
        </g>
      </g>
      <g
         transform="matrix(1.25,0,0,-1.25,-97.211226,943.55044)"
         id="g5422">
        <g
           id="g5424">
          <g
             id="g5430">
            <g
               id="g5432">
              <path
                 d="m 202.812,650.6 c 82.848,-52.175 214.074,-95.919 214.074,-95.919 v 0 14.449 c 0,0 -170.67,56.89 -245.62,118.295 v 0 c 0,0 12.187,-14.789 31.546,-36.825"
                 id="path5440"
                 style="fill:url(#linearGradient6078);stroke:none"
                 inkscape:connector-curvature="0" />
            </g>
          </g>
        </g>
      </g>
      <g
         transform="matrix(1.25,0,0,-1.25,-97.211226,943.55044)"
         id="g5442">
        <g
           id="g5444">
          <g
             id="g5450">
            <g
               id="g5452">
              <path
                 d="m 176.804,256.105 c 42.305,28.866 104.913,73.64 167.84,126.122 v 0 102.02 c 0,0 -85.697,-130.065 -167.84,-228.142"
                 id="path5464"
                 style="fill:url(#linearGradient6080);stroke:none"
                 inkscape:connector-curvature="0" />
            </g>
          </g>
        </g>
      </g>
      <g
         transform="matrix(1.25,0,0,-1.25,-97.211226,943.55044)"
         id="g5466">
        <g
           id="g5468">
          <g
             id="g5474">
            <g
               id="g5476">
              <path
                 d="m 124.31,221.469 c 0,0 20.413,12.745 52.494,34.636 v 0 c 82.143,98.077 167.84,228.142 167.84,228.142 v 0 23.477 c 0,0 -127.325,-193.242 -220.334,-286.255"
                 id="path5484"
                 style="fill:url(#linearGradient6082);stroke:none"
                 inkscape:connector-curvature="0" />
            </g>
          </g>
        </g>
      </g>
      <g
         transform="matrix(1.25,0,0,-1.25,-97.211226,943.55044)"
         id="g5486">
        <g
           id="g5488">
          <g
             id="g5494">
            <g
               id="g5496">
              <path
                 d="M 416.886,554.681 V 446.32 c 23.349,-22.204 47.817,-43.726 72.243,-64.093 v 0 125.497 c 51.28,42.639 107.709,104.024 141.837,142.876 v 0 c -82.853,-52.175 -214.08,-95.919 -214.08,-95.919"
                 id="path5506"
                 style="fill:url(#linearGradient6084);stroke:none"
                 inkscape:connector-curvature="0" />
            </g>
          </g>
        </g>
      </g>
      <g
         transform="matrix(1.25,0,0,-1.25,-97.211226,943.55044)"
         id="g5508">
        <g
           id="g5510">
          <g
             id="g5516">
            <g
               id="g5518">
              <path
                 d="m 416.886,569.13 v -14.449 c 0,0 131.227,43.744 214.08,95.919 v 0 c 19.355,22.036 31.542,36.825 31.542,36.825 v 0 C 587.558,626.02 416.886,569.13 416.886,569.13"
                 id="path5528"
                 style="fill:url(#linearGradient6086);stroke:none"
                 inkscape:connector-curvature="0" />
            </g>
          </g>
        </g>
      </g>
      <g
         transform="matrix(1.25,0,0,-1.25,-97.211226,943.55044)"
         id="g5530">
        <g
           id="g5532">
          <g
             id="g5538">
            <g
               id="g5540">
              <path
                 d="m 489.129,382.227 c 62.933,-52.482 125.537,-97.256 167.845,-126.122 v 0 C 574.832,354.182 489.129,484.247 489.129,484.247 v 0 z"
                 id="path5550"
                 style="fill:url(#linearGradient6088);stroke:none"
                 inkscape:connector-curvature="0" />
            </g>
          </g>
        </g>
      </g>
      <g
         transform="matrix(1.25,0,0,-1.25,-97.211226,943.55044)"
         id="g5552">
        <g
           id="g5554">
          <g
             id="g5560">
            <g
               id="g5562">
              <path
                 d="m 489.129,484.247 c 0,0 85.703,-130.065 167.845,-228.142 v 0 c 32.077,-21.891 52.491,-34.636 52.491,-34.636 v 0 C 616.454,314.482 489.129,507.724 489.129,507.724 v 0 z"
                 id="path5574"
                 style="fill:url(#linearGradient6090);stroke:none"
                 inkscape:connector-curvature="0" />
            </g>
          </g>
        </g>
      </g>
    </g>
    <rect
       y="45.064247"
       x="26.033897"
       height="1.0090659"
       width="164.67953"
       id="rect2555"
       style="opacity:1;fill:#ffffff;fill-opacity:1;stroke:none;stroke-width:0.37267801;stroke-linecap:round;stroke-linejoin:round;stroke-miterlimit:4;stroke-dasharray:none;stroke-opacity:1;paint-order:stroke fill markers" />
    <g
       style="font-style:normal;font-variant:normal;font-weight:normal;font-stretch:normal;font-size:20.44046021px;line-height:12.77528667px;font-family:'namco regular';-inkscape-font-specification:'namco regular, ';letter-spacing:0px;word-spacing:0px;fill:#111609;fill-opacity:1;stroke:none;stroke-width:0.51101148px;stroke-linecap:butt;stroke-linejoin:miter;stroke-opacity:1"
       transform="matrix(0.58624679,0,0,0.58624679,50.964929,86.718816)"
       id="g190">
      <path
         style="fill:#111609;fill-opacity:1"
         inkscape:connector-curvature="0"
         id="path186"
         d="m 174.571,133.666 h -0.396 l -0.477,1.504 a 0.643,0.643 0 0 0 -0.118,0.316 1.786,1.786 0 0 1 -0.119,-0.276 l -0.516,-1.544 h -0.396 v 2.138 h 0.238 v -1.821 l 0.634,1.821 h 0.236 l 0.635,-1.782 v 1.782 h 0.277 v -2.138 z m -3.01,0.276 h 0.673 v -0.276 h -1.663 v 0.276 h 0.713 v 1.862 h 0.277 z m -9.795,-0.273 -11.928,9.651 -11.869,-9.651 h -6.713 l 15.285,12.349 -15.285,12.348 h 6.713 l 11.869,-9.711 11.928,9.711 h 6.653 l -15.225,-12.348 15.225,-12.349 z m -32.488,12.349 c 0,-5.515 -1.438,-9.59 -4.195,-12.349 h -24.396 c -2.878,2.759 -4.316,6.834 -4.316,12.349 0,5.514 1.438,9.59 4.316,12.349 h 24.396 c 2.757,-2.76 4.195,-6.895 4.195,-12.349 z m -4.076,0 c 0,1.858 -0.418,3.775 -1.199,5.755 l -1.139,2.577 h -20.021 l -1.139,-2.577 c -0.839,-1.979 -1.199,-3.896 -1.199,-5.755 0,-2.937 0.78,-5.695 2.338,-8.272 h 20.021 c 1.559,2.576 2.338,5.335 2.338,8.272 z m -35.064,1.019 v -2.038 l 1.798,-0.96 c -0.42,-4.615 -1.798,-8.091 -4.136,-10.37 H 63.403 c -2.338,2.219 -3.776,5.695 -4.136,10.31 h -3.955 v 4.077 h 3.955 c 0.36,4.614 1.798,8.032 4.136,10.311 H 87.8 c 2.338,-2.339 3.715,-5.755 4.136,-10.311 z m -4.556,-9.292 a 17.578,17.578 0 0 1 2.218,6.233 H 63.403 c 0.36,-2.337 1.079,-4.375 2.218,-6.233 z m 2.218,10.311 a 17.869,17.869 0 0 1 -2.218,6.294 H 65.621 c -1.139,-1.858 -1.858,-3.956 -2.218,-6.294 z" />
      <path
         style="fill:#111609;fill-opacity:1"
         inkscape:connector-curvature="0"
         id="path188"
         d="M 41.885,146.018 57.109,133.669 H 50.396 L 38.528,143.32 26.6,133.669 h -6.594 l 15.165,12.349 -15.165,12.348 H 26.6 l 11.928,-9.711 11.868,9.711 h 6.713 z" />
    </g>
    <circle
       style="opacity:1;fill:#ffffff;fill-opacity:1;stroke:none;stroke-width:1.26171553;stroke-linecap:round;stroke-linejoin:round;stroke-miterlimit:4;stroke-dasharray:none;stroke-opacity:1;paint-order:stroke fill markers"
       id="circle3168"
       cx="108"
       cy="108"
       r="14.032465" />
    <path
       inkscape:connector-curvature="0"
       id="path3174"
       style="fill:none;fill-opacity:1;fill-rule:nonzero;stroke:#919191;stroke-width:1.46700001;stroke-miterlimit:4;stroke-dasharray:none;stroke-opacity:1"
       d="M 214.31828,108 C 214.31828,49.282049 166.71795,1.6817183 108,1.6817183 49.282048,1.6817183 1.6817188,49.282049 1.6817188,108 c 0,58.71795 47.6003292,106.31828 106.3182812,106.31828 58.71795,0 106.31828,-47.60033 106.31828,-106.31828" />
  </g>
  <ellipse
     r="27.44659"
     cy="108"
     cx="108"
     id="ellipse3261"
     style="opacity:1;fill:#e4e4e4;fill-opacity:1;stroke:none;stroke-width:2.46783352;stroke-linecap:round;stroke-linejoin:round;stroke-miterlimit:4;stroke-dasharray:none;stroke-opacity:1;paint-order:stroke fill markers" />
</svg>
