<?xml version="1.0" encoding="UTF-8" standalone="no"?>
<svg
   xmlns:dc="http://purl.org/dc/elements/1.1/"
   xmlns:cc="http://creativecommons.org/ns#"
   xmlns:rdf="http://www.w3.org/1999/02/22-rdf-syntax-ns#"
   xmlns:svg="http://www.w3.org/2000/svg"
   xmlns="http://www.w3.org/2000/svg"
   xmlns:sodipodi="http://sodipodi.sourceforge.net/DTD/sodipodi-0.dtd"
   xmlns:inkscape="http://www.inkscape.org/namespaces/inkscape"
   viewBox="0 0 420.51501 340.495"
   height="340.495"
   width="420.51501"
   xml:space="preserve"
   version="1.1"
   id="svg2"
   sodipodi:docname="console.svg"
   inkscape:version="0.92.5 (2060ec1f9f, 2020-04-08)"><sodipodi:namedview
     pagecolor="#ffffff"
     bordercolor="#666666"
     borderopacity="1"
     objecttolerance="10"
     gridtolerance="10"
     guidetolerance="10"
     inkscape:pageopacity="0"
     inkscape:pageshadow="2"
     inkscape:window-width="1920"
     inkscape:window-height="1141"
     id="namedview63"
     showgrid="false"
     inkscape:zoom="1.3862171"
     inkscape:cx="117.8869"
     inkscape:cy="162.22215"
     inkscape:window-x="0"
     inkscape:window-y="0"
     inkscape:window-maximized="1"
     inkscape:current-layer="svg2" /><metadata
     id="metadata8"><rdf:RDF><cc:Work
         rdf:about=""><dc:format>image/svg+xml</dc:format><dc:type
           rdf:resource="http://purl.org/dc/dcmitype/StillImage" /><dc:title /></cc:Work></rdf:RDF></metadata><defs
     id="defs6"><clipPath
       id="clipPath28"
       clipPathUnits="userSpaceOnUse"><path
         id="path30"
         d="m 0,272.396 336.412,0 L 336.412,0 0,0 0,272.396 Z" /></clipPath><meshgradient
       inkscape:collect="always"
       id="meshgradient884"
       gradientUnits="userSpaceOnUse"
       x="0"
       y="0"><meshrow
         id="meshrow896"><meshpatch
           id="meshpatch894"><stop
             id="stop886"
             style="stop-color:#ffffff;stop-opacity:1"
             path="c 112.137,0  224.275,0  336.412,0" /><stop
             id="stop888"
             style="stop-color:#000000;stop-opacity:1"
             path="c 0,90.7987  0,181.597  0,272.396" /><stop
             id="stop890"
             style="stop-color:#ffffff;stop-opacity:1"
             path="c -112.137,0  -224.275,0  -336.412,0" /><stop
             id="stop892"
             style="stop-color:#000000;stop-opacity:1"
             path="c 0,-90.7987  0,-181.597  0,-272.396" /></meshpatch></meshrow></meshgradient><meshgradient
       inkscape:collect="always"
       id="meshgradient898"
       gradientUnits="userSpaceOnUse"
       x="0"
       y="0"><meshrow
         id="meshrow910"><meshpatch
           id="meshpatch908"><stop
             id="stop900"
             style="stop-color:#ffffff;stop-opacity:1"
             path="c 112.137,0  224.275,0  336.412,0" /><stop
             id="stop902"
             style="stop-color:#000000;stop-opacity:1"
             path="c 0,90.7987  0,181.597  0,272.396" /><stop
             id="stop904"
             style="stop-color:#ffffff;stop-opacity:1"
             path="c -112.137,0  -224.275,0  -336.412,0" /><stop
             id="stop906"
             style="stop-color:#000000;stop-opacity:1"
             path="c 0,-90.7987  0,-181.597  0,-272.396" /></meshpatch></meshrow></meshgradient><meshgradient
       inkscape:collect="always"
       id="meshgradient912"
       gradientUnits="userSpaceOnUse"
       x="0"
       y="0"><meshrow
         id="meshrow924"><meshpatch
           id="meshpatch922"><stop
             id="stop914"
             style="stop-color:#ffffff;stop-opacity:1"
             path="c 112.137,0  224.275,0  336.412,0" /><stop
             id="stop916"
             style="stop-color:#000000;stop-opacity:1"
             path="c 0,90.7987  0,181.597  0,272.396" /><stop
             id="stop918"
             style="stop-color:#ffffff;stop-opacity:1"
             path="c -112.137,0  -224.275,0  -336.412,0" /><stop
             id="stop920"
             style="stop-color:#000000;stop-opacity:1"
             path="c 0,-90.7987  0,-181.597  0,-272.396" /></meshpatch></meshrow></meshgradient><meshgradient
       inkscape:collect="always"
       id="meshgradient926"
       gradientUnits="userSpaceOnUse"
       x="0"
       y="0"><meshrow
         id="meshrow938"><meshpatch
           id="meshpatch936"><stop
             id="stop928"
             style="stop-color:#ffffff;stop-opacity:1"
             path="c 112.137,0  224.275,0  336.412,0" /><stop
             id="stop930"
             style="stop-color:#000000;stop-opacity:1"
             path="c 0,90.7987  0,181.597  0,272.396" /><stop
             id="stop932"
             style="stop-color:#ffffff;stop-opacity:1"
             path="c -112.137,0  -224.275,0  -336.412,0" /><stop
             id="stop934"
             style="stop-color:#000000;stop-opacity:1"
             path="c 0,-90.7987  0,-181.597  0,-272.396" /></meshpatch></meshrow></meshgradient><meshgradient
       inkscape:collect="always"
       id="meshgradient940"
       gradientUnits="userSpaceOnUse"
       x="0"
       y="0"><meshrow
         id="meshrow952"><meshpatch
           id="meshpatch950"><stop
             id="stop942"
             style="stop-color:#ffffff;stop-opacity:1"
             path="c 112.137,0  224.275,0  336.412,0" /><stop
             id="stop944"
             style="stop-color:#000000;stop-opacity:1"
             path="c 0,90.7987  0,181.597  0,272.396" /><stop
             id="stop946"
             style="stop-color:#ffffff;stop-opacity:1"
             path="c -112.137,0  -224.275,0  -336.412,0" /><stop
             id="stop948"
             style="stop-color:#000000;stop-opacity:1"
             path="c 0,-90.7987  0,-181.597  0,-272.396" /></meshpatch></meshrow></meshgradient><meshgradient
       inkscape:collect="always"
       id="meshgradient954"
       gradientUnits="userSpaceOnUse"
       x="0"
       y="0"><meshrow
         id="meshrow966"><meshpatch
           id="meshpatch964"><stop
             id="stop956"
             style="stop-color:#ffffff;stop-opacity:1"
             path="c 112.137,0  224.275,0  336.412,0" /><stop
             id="stop958"
             style="stop-color:#000000;stop-opacity:1"
             path="c 0,90.7987  0,181.597  0,272.396" /><stop
             id="stop960"
             style="stop-color:#ffffff;stop-opacity:1"
             path="c -112.137,0  -224.275,0  -336.412,0" /><stop
             id="stop962"
             style="stop-color:#000000;stop-opacity:1"
             path="c 0,-90.7987  0,-181.597  0,-272.396" /></meshpatch></meshrow></meshgradient><meshgradient
       inkscape:collect="always"
       id="meshgradient968"
       gradientUnits="userSpaceOnUse"
       x="0"
       y="0"><meshrow
         id="meshrow980"><meshpatch
           id="meshpatch978"><stop
             id="stop970"
             style="stop-color:#ffffff;stop-opacity:1"
             path="c 112.137,0  224.275,0  336.412,0" /><stop
             id="stop972"
             style="stop-color:#000000;stop-opacity:1"
             path="c 0,90.7987  0,181.597  0,272.396" /><stop
             id="stop974"
             style="stop-color:#ffffff;stop-opacity:1"
             path="c -112.137,0  -224.275,0  -336.412,0" /><stop
             id="stop976"
             style="stop-color:#000000;stop-opacity:1"
             path="c 0,-90.7987  0,-181.597  0,-272.396" /></meshpatch></meshrow></meshgradient><meshgradient
       inkscape:collect="always"
       id="meshgradient982"
       gradientUnits="userSpaceOnUse"
       x="0"
       y="0"><meshrow
         id="meshrow994"><meshpatch
           id="meshpatch992"><stop
             id="stop984"
             style="stop-color:#ffffff;stop-opacity:1"
             path="c 112.137,0  224.275,0  336.412,0" /><stop
             id="stop986"
             style="stop-color:#000000;stop-opacity:1"
             path="c 0,90.7987  0,181.597  0,272.396" /><stop
             id="stop988"
             style="stop-color:#ffffff;stop-opacity:1"
             path="c -112.137,0  -224.275,0  -336.412,0" /><stop
             id="stop990"
             style="stop-color:#000000;stop-opacity:1"
             path="c 0,-90.7987  0,-181.597  0,-272.396" /></meshpatch></meshrow></meshgradient></defs><g
     id="g1405"><path
       id="path12"
       style="fill:#848484;fill-opacity:1;fill-rule:nonzero;stroke:none;stroke-width:1.25"
       d="M 59.095,340.495 H 86.89125 V 328.63625 H 59.095 Z"
       inkscape:connector-curvature="0" /><path
       id="path14"
       style="fill:#848484;fill-opacity:1;fill-rule:nonzero;stroke:none;stroke-width:1.25"
       d="m 93.0075,340.495 h 27.79625 V 328.63625 H 93.0075 Z"
       inkscape:connector-curvature="0" /><path
       id="path16"
       style="fill:#dcdcdc;fill-opacity:1;fill-rule:nonzero;stroke:none;stroke-width:1.25"
       d="M 0,333.55375 H 420.515 V 0 H 0 Z"
       inkscape:connector-curvature="0" /><path
       id="path18"
       style="fill:#a3a3a3;fill-opacity:1;fill-rule:nonzero;stroke:none;stroke-width:1.25"
       d="m 318.365,333.55375 h 65.36875 V 0 H 318.365 Z"
       inkscape:connector-curvature="0" /><path
       id="path20"
       style="fill:#050505;fill-opacity:1;fill-rule:nonzero;stroke:none;stroke-width:1.25"
       d="m 318.365,40.5025 h 65.36875 V 0 H 318.365 Z"
       inkscape:connector-curvature="0" /><path
       id="path22"
       style="fill:#050505;fill-opacity:1;fill-rule:nonzero;stroke:none;stroke-width:1.25"
       d="M 383.73375,333.55375 H 318.365 V 293.0525 h 65.36875 z"
       inkscape:connector-curvature="0" /><g
       transform="matrix(1.25,0,0,-1.25,320.58962,333.41537)"
       id="g32"
       style="fill:url(#meshgradient884);fill-opacity:1"><path
         id="path34"
         style="fill:#212121;fill-opacity:1;fill-rule:nonzero;stroke:none"
         d="m 0,0 c -0.92,0 -1.668,0.748 -1.668,1.668 v 12.643 c 0,0.919 0.748,1.668 1.668,1.668 h 48.736 c 0.92,0 1.668,-0.749 1.668,-1.668 V 1.668 C 50.404,0.748 49.656,0 48.736,0 Z"
         inkscape:connector-curvature="0" /></g><g
       transform="matrix(1.25,0,0,-1.25,381.51037,313.30338)"
       id="g36"
       style="fill:url(#meshgradient898);fill-opacity:1"><path
         id="path38"
         style="fill:#000000;fill-opacity:1;fill-rule:nonzero;stroke:none"
         d="m 0,0 h -48.737 c -0.983,0 -1.779,-0.796 -1.779,-1.779 v -12.642 c 0,-0.983 0.796,-1.78 1.779,-1.78 H 0 c 0.982,0 1.779,0.797 1.779,1.78 V -1.779 C 1.779,-0.796 0.982,0 0,0 m 0,-0.222 c 0.858,0 1.556,-0.699 1.556,-1.557 v -12.642 c 0,-0.859 -0.698,-1.557 -1.556,-1.557 h -48.737 c -0.858,0 -1.557,0.698 -1.557,1.557 v 12.642 c 0,0.858 0.699,1.557 1.557,1.557 H 0"
         inkscape:connector-curvature="0" /></g><g
       transform="matrix(1.25,0,0,-1.25,320.58962,313.16388)"
       id="g40"
       style="fill:url(#meshgradient912);fill-opacity:1"><path
         id="path42"
         style="fill:#212121;fill-opacity:1;fill-rule:nonzero;stroke:none"
         d="m 0,0 c -0.92,0 -1.668,0.748 -1.668,1.667 v 12.644 c 0,0.918 0.748,1.667 1.668,1.667 h 48.736 c 0.92,0 1.668,-0.749 1.668,-1.667 V 1.667 C 50.404,0.748 49.656,0 48.736,0 Z"
         inkscape:connector-curvature="0" /></g><g
       transform="matrix(1.25,0,0,-1.25,381.51037,293.0525)"
       id="g44"
       style="fill:url(#meshgradient926);fill-opacity:1"><path
         id="path46"
         style="fill:#000000;fill-opacity:1;fill-rule:nonzero;stroke:none"
         d="m 0,0 h -48.737 c -0.983,0 -1.779,-0.796 -1.779,-1.779 v -12.643 c 0,-0.982 0.796,-1.779 1.779,-1.779 H 0 c 0.982,0 1.779,0.797 1.779,1.779 V -1.779 C 1.779,-0.796 0.982,0 0,0 m 0,-0.222 c 0.858,0 1.556,-0.699 1.556,-1.557 v -12.643 c 0,-0.858 -0.698,-1.556 -1.556,-1.556 h -48.737 c -0.858,0 -1.557,0.698 -1.557,1.556 v 12.643 c 0,0.858 0.699,1.557 1.557,1.557 H 0"
         inkscape:connector-curvature="0" /></g><g
       transform="matrix(1.25,0,0,-1.25,320.58962,40.363)"
       id="g48"
       style="fill:url(#meshgradient940);fill-opacity:1"><path
         id="path50"
         style="fill:#212121;fill-opacity:1;fill-rule:nonzero;stroke:none"
         d="M 0,0 C -0.92,0 -1.668,0.748 -1.668,1.667 V 14.31 c 0,0.919 0.748,1.668 1.668,1.668 h 48.736 c 0.92,0 1.668,-0.749 1.668,-1.668 V 1.667 C 50.404,0.748 49.656,0 48.736,0 Z"
         inkscape:connector-curvature="0" /></g><g
       transform="matrix(1.25,0,0,-1.25,381.51037,20.25225)"
       id="g52"
       style="fill:url(#meshgradient954);fill-opacity:1"><path
         id="path54"
         style="fill:#000000;fill-opacity:1;fill-rule:nonzero;stroke:none"
         d="m 0,0 h -48.737 c -0.983,0 -1.779,-0.796 -1.779,-1.779 v -12.642 c 0,-0.983 0.796,-1.779 1.779,-1.779 H 0 c 0.982,0 1.779,0.796 1.779,1.779 V -1.779 C 1.779,-0.796 0.982,0 0,0 m 0,-0.222 c 0.858,0 1.556,-0.699 1.556,-1.557 v -12.642 c 0,-0.859 -0.698,-1.557 -1.556,-1.557 h -48.737 c -0.858,0 -1.557,0.698 -1.557,1.557 v 12.642 c 0,0.858 0.699,1.557 1.557,1.557 H 0"
         inkscape:connector-curvature="0" /></g><g
       transform="matrix(1.25,0,0,-1.25,320.58962,20.11275)"
       id="g56"
       style="fill:url(#meshgradient968);fill-opacity:1"><path
         id="path58"
         style="fill:#212121;fill-opacity:1;fill-rule:nonzero;stroke:none"
         d="m 0,0 c -0.92,0 -1.668,0.749 -1.668,1.668 v 12.643 c 0,0.919 0.748,1.668 1.668,1.668 h 48.736 c 0.92,0 1.668,-0.749 1.668,-1.668 V 1.668 C 50.404,0.749 49.656,0 48.736,0 Z"
         inkscape:connector-curvature="0" /></g><g
       transform="matrix(1.25,0,0,-1.25,381.51037,6.25e-4)"
       id="g60"
       style="fill:url(#meshgradient982);fill-opacity:1"><path
         id="path62"
         style="fill:#000000;fill-opacity:1;fill-rule:nonzero;stroke:none"
         d="m 0,0 h -48.737 c -0.983,0 -1.779,-0.796 -1.779,-1.779 v -12.642 c 0,-0.984 0.796,-1.78 1.779,-1.78 H 0 c 0.982,0 1.779,0.796 1.779,1.78 V -1.779 C 1.779,-0.796 0.982,0 0,0 m 0,-0.222 c 0.858,0 1.556,-0.699 1.556,-1.557 v -12.642 c 0,-0.859 -0.698,-1.558 -1.556,-1.558 h -48.737 c -0.858,0 -1.557,0.699 -1.557,1.558 v 12.642 c 0,0.858 0.699,1.557 1.557,1.557 H 0"
         inkscape:connector-curvature="0" /></g><path
       id="path64"
       style="fill:#dcdcdc;fill-opacity:1;fill-rule:nonzero;stroke:none;stroke-width:1.25"
       d="M 383.73375,288.27125 H 318.365 v 4.78 h 65.36875 z"
       inkscape:connector-curvature="0" /><path
       id="path66"
       style="fill:#dcdcdc;fill-opacity:1;fill-rule:nonzero;stroke:none;stroke-width:1.25"
       d="M 383.73375,279.42375 H 318.365 v 4.77875 h 65.36875 z"
       inkscape:connector-curvature="0" /><path
       id="path68"
       style="fill:#dcdcdc;fill-opacity:1;fill-rule:nonzero;stroke:none;stroke-width:1.25"
       d="M 383.73375,270.57375 H 318.365 v 4.78 h 65.36875 z"
       inkscape:connector-curvature="0" /><path
       id="path70"
       style="fill:#dcdcdc;fill-opacity:1;fill-rule:nonzero;stroke:none;stroke-width:1.25"
       d="M 383.73375,261.725 H 318.365 v 4.78 h 65.36875 z"
       inkscape:connector-curvature="0" /><path
       id="path72"
       style="fill:#dcdcdc;fill-opacity:1;fill-rule:nonzero;stroke:none;stroke-width:1.25"
       d="M 383.73375,252.8775 H 318.365 v 4.77875 h 65.36875 z"
       inkscape:connector-curvature="0" /><path
       id="path74"
       style="fill:#dcdcdc;fill-opacity:1;fill-rule:nonzero;stroke:none;stroke-width:1.25"
       d="M 383.73375,244.02875 H 318.365 v 4.77875 h 65.36875 z"
       inkscape:connector-curvature="0" /><path
       id="path76"
       style="fill:#dcdcdc;fill-opacity:1;fill-rule:nonzero;stroke:none;stroke-width:1.25"
       d="M 383.73375,235.1775 H 318.365 v 4.78 h 65.36875 z"
       inkscape:connector-curvature="0" /><path
       id="path78"
       style="fill:#dcdcdc;fill-opacity:1;fill-rule:nonzero;stroke:none;stroke-width:1.25"
       d="M 383.73375,226.33 H 318.365 v 4.78 h 65.36875 z"
       inkscape:connector-curvature="0" /><path
       id="path80"
       style="fill:#dcdcdc;fill-opacity:1;fill-rule:nonzero;stroke:none;stroke-width:1.25"
       d="M 383.73375,217.48125 H 318.365 V 222.26 h 65.36875 z"
       inkscape:connector-curvature="0" /><path
       id="path82"
       style="fill:#dcdcdc;fill-opacity:1;fill-rule:nonzero;stroke:none;stroke-width:1.25"
       d="M 383.73375,208.6325 H 318.365 v 4.77875 h 65.36875 z"
       inkscape:connector-curvature="0" /><path
       id="path84"
       style="fill:#dcdcdc;fill-opacity:1;fill-rule:nonzero;stroke:none;stroke-width:1.25"
       d="M 383.73375,199.78375 H 318.365 v 4.77875 h 65.36875 z"
       inkscape:connector-curvature="0" /><path
       id="path86"
       style="fill:#dcdcdc;fill-opacity:1;fill-rule:nonzero;stroke:none;stroke-width:1.25"
       d="M 383.73375,190.935 H 318.365 v 4.77875 h 65.36875 z"
       inkscape:connector-curvature="0" /><path
       id="path88"
       style="fill:#dcdcdc;fill-opacity:1;fill-rule:nonzero;stroke:none;stroke-width:1.25"
       d="M 383.73375,182.08375 H 318.365 v 4.7825 h 65.36875 z"
       inkscape:connector-curvature="0" /><path
       id="path90"
       style="fill:#dcdcdc;fill-opacity:1;fill-rule:nonzero;stroke:none;stroke-width:1.25"
       d="M 383.73375,173.2375 H 318.365 v 4.78 h 65.36875 z"
       inkscape:connector-curvature="0" /><path
       id="path92"
       style="fill:#dcdcdc;fill-opacity:1;fill-rule:nonzero;stroke:none;stroke-width:1.25"
       d="M 383.73375,164.3875 H 318.365 v 4.77875 h 65.36875 z"
       inkscape:connector-curvature="0" /><path
       id="path94"
       style="fill:#dcdcdc;fill-opacity:1;fill-rule:nonzero;stroke:none;stroke-width:1.25"
       d="M 383.73375,155.53875 H 318.365 v 4.77875 h 65.36875 z"
       inkscape:connector-curvature="0" /><path
       id="path96"
       style="fill:#dcdcdc;fill-opacity:1;fill-rule:nonzero;stroke:none;stroke-width:1.25"
       d="M 383.73375,146.69 H 318.365 v 4.78125 h 65.36875 z"
       inkscape:connector-curvature="0" /><path
       id="path98"
       style="fill:#dcdcdc;fill-opacity:1;fill-rule:nonzero;stroke:none;stroke-width:1.25"
       d="M 383.73375,137.84125 H 318.365 V 142.62 h 65.36875 z"
       inkscape:connector-curvature="0" /><path
       id="path100"
       style="fill:#dcdcdc;fill-opacity:1;fill-rule:nonzero;stroke:none;stroke-width:1.25"
       d="M 383.73375,128.9925 H 318.365 v 4.78 h 65.36875 z"
       inkscape:connector-curvature="0" /><path
       id="path102"
       style="fill:#dcdcdc;fill-opacity:1;fill-rule:nonzero;stroke:none;stroke-width:1.25"
       d="M 383.73375,120.1425 H 318.365 v 4.78 h 65.36875 z"
       inkscape:connector-curvature="0" /><path
       id="path104"
       style="fill:#dcdcdc;fill-opacity:1;fill-rule:nonzero;stroke:none;stroke-width:1.25"
       d="M 383.73375,111.29375 H 318.365 v 4.77875 h 65.36875 z"
       inkscape:connector-curvature="0" /><path
       id="path106"
       style="fill:#dcdcdc;fill-opacity:1;fill-rule:nonzero;stroke:none;stroke-width:1.25"
       d="M 383.73375,102.445 H 318.365 v 4.78 h 65.36875 z"
       inkscape:connector-curvature="0" /><path
       id="path108"
       style="fill:#dcdcdc;fill-opacity:1;fill-rule:nonzero;stroke:none;stroke-width:1.25"
       d="M 383.73375,93.59625 H 318.365 v 4.78 h 65.36875 z"
       inkscape:connector-curvature="0" /><path
       id="path110"
       style="fill:#dcdcdc;fill-opacity:1;fill-rule:nonzero;stroke:none;stroke-width:1.25"
       d="M 383.73375,84.7475 H 318.365 v 4.77875 h 65.36875 z"
       inkscape:connector-curvature="0" /><path
       id="path112"
       style="fill:#dcdcdc;fill-opacity:1;fill-rule:nonzero;stroke:none;stroke-width:1.25"
       d="M 383.73375,75.89875 H 318.365 v 4.78 h 65.36875 z"
       inkscape:connector-curvature="0" /><path
       id="path114"
       style="fill:#dcdcdc;fill-opacity:1;fill-rule:nonzero;stroke:none;stroke-width:1.25"
       d="M 383.73375,67.05 H 318.365 v 4.78125 h 65.36875 z"
       inkscape:connector-curvature="0" /><path
       id="path116"
       style="fill:#dcdcdc;fill-opacity:1;fill-rule:nonzero;stroke:none;stroke-width:1.25"
       d="M 383.73375,58.20125 H 318.365 v 4.78 h 65.36875 z"
       inkscape:connector-curvature="0" /><path
       id="path118"
       style="fill:#dcdcdc;fill-opacity:1;fill-rule:nonzero;stroke:none;stroke-width:1.25"
       d="M 383.73375,49.35125 H 318.365 V 54.13 h 65.36875 z"
       inkscape:connector-curvature="0" /><path
       id="path120"
       style="fill:#dcdcdc;fill-opacity:1;fill-rule:nonzero;stroke:none;stroke-width:1.25"
       d="M 383.73375,40.5025 H 318.365 v 4.78 h 65.36875 z"
       inkscape:connector-curvature="0" /><path
       id="path122"
       style="fill:#a3a3a3;fill-opacity:1;fill-rule:nonzero;stroke:none;stroke-width:1.25"
       d="M 318.365,333.55375 H 42.94625 v -41.07 H 318.365 Z"
       inkscape:connector-curvature="0" /><path
       id="path124"
       style="fill:#dcdcdc;fill-opacity:1;fill-rule:nonzero;stroke:none;stroke-width:1.25"
       d="M 317.39875,333.55375 H 43.855 v -40.2275 h 273.54375 z"
       inkscape:connector-curvature="0" /></g></svg>