<?xml version="1.0" encoding="UTF-8" standalone="no"?>
<svg
   xmlns:dc="http://purl.org/dc/elements/1.1/"
   xmlns:cc="http://creativecommons.org/ns#"
   xmlns:rdf="http://www.w3.org/1999/02/22-rdf-syntax-ns#"
   xmlns:svg="http://www.w3.org/2000/svg"
   xmlns="http://www.w3.org/2000/svg"
   xmlns:sodipodi="http://sodipodi.sourceforge.net/DTD/sodipodi-0.dtd"
   xmlns:inkscape="http://www.inkscape.org/namespaces/inkscape"
   width="64"
   height="64"
   version="1.1"
   viewBox="0 0 64 64"
   id="svg4"
   sodipodi:docname="button_select.svg"
   inkscape:version="0.92.5 (2060ec1f9f, 2020-04-08)">
  <metadata
     id="metadata10">
    <rdf:RDF>
      <cc:Work
         rdf:about="">
        <dc:format>image/svg+xml</dc:format>
        <dc:type
           rdf:resource="http://purl.org/dc/dcmitype/StillImage" />
        <dc:title></dc:title>
      </cc:Work>
    </rdf:RDF>
  </metadata>
  <defs
     id="defs8" />
  <sodipodi:namedview
     pagecolor="#ffffff"
     bordercolor="#666666"
     borderopacity="1"
     objecttolerance="10"
     gridtolerance="10"
     guidetolerance="10"
     inkscape:pageopacity="0"
     inkscape:pageshadow="2"
     inkscape:window-width="3840"
     inkscape:window-height="2065"
     id="namedview6"
     showgrid="false"
     inkscape:pagecheckerboard="true"
     inkscape:zoom="36.789578"
     inkscape:cx="18.777877"
     inkscape:cy="25.18767"
     inkscape:window-x="0"
     inkscape:window-y="0"
     inkscape:window-maximized="1"
     inkscape:current-layer="svg4" />
  <path
     style="opacity:1;fill:#ffffff;fill-opacity:1;stroke:none;stroke-width:2.90203953;stroke-linecap:round;stroke-linejoin:round;stroke-miterlimit:4;stroke-dasharray:none;stroke-opacity:1;paint-order:stroke fill markers"
     d="M 32 4 A 28 28 0 0 0 4 32 A 28 28 0 0 0 32 60 A 28 28 0 0 0 60 32 A 28 28 0 0 0 32 4 z M 16.753906 17.449219 L 35.835938 17.449219 C 36.393147 17.449219 36.793046 17.744044 37.025391 18.070312 C 37.22676 18.353077 37.3125 18.688429 37.3125 18.980469 L 37.3125 22.609375 L 34.617188 22.609375 L 34.617188 20.146484 L 17.972656 20.146484 L 17.972656 32.542969 L 20.552734 32.542969 L 20.552734 35.236328 L 16.753906 35.236328 C 16.202539 35.236328 15.797678 34.952129 15.560547 34.619141 C 15.356368 34.332427 15.273433 33.997118 15.273438 33.705078 L 15.273438 18.980469 C 15.273435 18.688422 15.359189 18.353071 15.560547 18.070312 C 15.794869 17.741264 16.196693 17.449219 16.753906 17.449219 z M 28.166016 28.763672 L 47.248047 28.763672 C 47.804636 28.763672 48.205471 29.0562 48.439453 29.384766 C 48.640582 29.667185 48.726562 30.002224 48.726562 30.294922 L 48.726562 45.019531 C 48.726562 45.31225 48.64239 45.648622 48.439453 45.933594 C 48.203635 46.264756 47.800837 46.550781 47.248047 46.550781 L 28.166016 46.550781 C 27.613224 46.550781 27.21042 46.264728 26.974609 45.933594 C 26.771647 45.648605 26.685547 45.312229 26.685547 45.019531 L 26.685547 30.294922 C 26.685547 30.002203 26.773505 29.667168 26.974609 29.384766 C 27.208594 29.056192 27.609423 28.763672 28.166016 28.763672 z M 29.384766 31.460938 L 29.384766 43.855469 L 46.029297 43.855469 L 46.029297 31.460938 L 29.384766 31.460938 z "
     id="path4749" />
</svg>
