<?xml version="1.0" encoding="UTF-8" standalone="no"?>
<svg
   xmlns:dc="http://purl.org/dc/elements/1.1/"
   xmlns:cc="http://creativecommons.org/ns#"
   xmlns:rdf="http://www.w3.org/1999/02/22-rdf-syntax-ns#"
   xmlns:svg="http://www.w3.org/2000/svg"
   xmlns="http://www.w3.org/2000/svg"
   xmlns:sodipodi="http://sodipodi.sourceforge.net/DTD/sodipodi-0.dtd"
   xmlns:inkscape="http://www.inkscape.org/namespaces/inkscape"
   width="64"
   height="64"
   version="1.1"
   viewBox="0 0 64 64"
   id="svg4"
   sodipodi:docname="button_back_PS5.svg"
   inkscape:version="0.92.5 (2060ec1f9f, 2020-04-08)">
  <metadata
     id="metadata10">
    <rdf:RDF>
      <cc:Work
         rdf:about="">
        <dc:format>image/svg+xml</dc:format>
        <dc:type
           rdf:resource="http://purl.org/dc/dcmitype/StillImage" />
        <dc:title />
      </cc:Work>
    </rdf:RDF>
  </metadata>
  <defs
     id="defs8" />
  <sodipodi:namedview
     pagecolor="#ffffff"
     bordercolor="#666666"
     borderopacity="1"
     objecttolerance="10"
     gridtolerance="10"
     guidetolerance="10"
     inkscape:pageopacity="0"
     inkscape:pageshadow="2"
     inkscape:window-width="3840"
     inkscape:window-height="2065"
     id="namedview6"
     showgrid="false"
     inkscape:pagecheckerboard="true"
     inkscape:zoom="4.9884174"
     inkscape:cx="-254.62816"
     inkscape:cy="122.63383"
     inkscape:window-x="0"
     inkscape:window-y="0"
     inkscape:window-maximized="1"
     inkscape:current-layer="svg4" />
  <path
     style="opacity:1;fill:#ffffff;fill-opacity:1;stroke:none;stroke-width:1.01710236;stroke-linecap:round;stroke-linejoin:miter;stroke-miterlimit:4;stroke-dasharray:none;stroke-opacity:1;paint-order:stroke fill markers"
     d="M 32,3 A 29,29 0 0 0 3,32 29,29 0 0 0 32,61 29,29 0 0 0 61,32 29,29 0 0 0 32,3 Z m -1.822615,8.92899 h 3.212333 c 0.167588,0 0.301409,0.187162 0.301409,0.420759 V 33.42613 c 0,0.233597 -0.133821,0.422782 -0.301409,0.422782 h -3.212333 c -0.167588,0 -0.303431,-0.189185 -0.303431,-0.422782 V 12.349749 c 0,-0.233597 0.135843,-0.420759 0.303431,-0.420759 z m -15.359723,8.862234 c 0.07571,0.02178 0.144668,0.0724 0.188128,0.147671 l 7.842703,13.583636 c 0.08692,0.150547 0.03995,0.341011 -0.105189,0.424804 l -2.78146,1.606166 c -0.145135,0.0838 -0.331817,0.02918 -0.418736,-0.121372 L 11.700405,22.848493 c -0.08692,-0.150546 -0.03995,-0.338987 0.105189,-0.422782 l 2.78146,-1.606166 c 0.07257,-0.0419 0.154897,-0.0501 0.230608,-0.02832 z m 34.364676,0 c 0.07571,-0.02178 0.158041,-0.01358 0.230608,0.02832 l 2.78146,1.606166 c 0.145136,0.08379 0.192108,0.272234 0.105189,0.422782 l -7.842703,13.583636 c -0.08692,0.150547 -0.2736,0.205167 -0.418736,0.121372 l -2.78146,-1.606166 C 41.111561,34.863544 41.064588,34.673077 41.151507,34.52253 L 48.99421,20.938895 c 0.04346,-0.07528 0.112418,-0.12589 0.188128,-0.147671 z"
     id="path4873"
     inkscape:connector-curvature="0" />
  <circle
     style="opacity:1;fill:#e9e9e9;fill-opacity:1;stroke:none;stroke-width:1.28596556;stroke-linecap:round;stroke-linejoin:miter;stroke-miterlimit:4;stroke-dasharray:none;stroke-opacity:1;paint-order:stroke fill markers"
     id="path4744-0"
     cx="32"
     cy="32"
     r="0" />
</svg>
