<?xml version="1.0" encoding="UTF-8"?>
<svg width="64" height="64" version="1.1" viewBox="0 0 64 64" xmlns="http://www.w3.org/2000/svg">
 <circle id="outline_east" cx="50" cy="32" r="10" fill="none" stroke="#fff" stroke-width="2" />
 <circle id="outline_south" cx="32" cy="50" r="10" fill="none" stroke="#fff" stroke-width="2" />
 <circle id="outline_north" cx="32" cy="14" r="10" fill="none" stroke="#fff" stroke-width="2" />
 <circle id="outline_west" cx="14" cy="32" r="10" fill="none" stroke="#fff" stroke-width="2" />
 <path id="circle" d="M 50,21 A 11,11 0 0 0 39,32 11,11 0 0 0 50,43 11,11 0 0 0 61,32 11,11 0 0 0 50,21 Z m 0,3.535715 c 4.113215,0 7.464285,3.351188 7.464285,7.464285 0,4.113097 -3.351189,7.464285 -7.464285,7.464285 -4.113097,0 -7.464285,-3.351188 -7.464285,-7.464285 0,-4.113097 3.351188,-7.464285 7.464285,-7.464285 z m 0,1.571428 c -3.263857,0 -5.892857,2.629 -5.892857,5.892857 0,3.263857 2.629,5.892857 5.892857,5.892857 3.263857,0 5.892857,-2.629 5.892857,-5.892857 0,-3.263857 -2.629,-5.892857 -5.892857,-5.892857 z" style="fill:#ffffff;stroke-width:0.39285716"/>
</svg>
