<?xml version="1.0" encoding="UTF-8" standalone="no"?>
<svg
   xmlns:dc="http://purl.org/dc/elements/1.1/"
   xmlns:cc="http://creativecommons.org/ns#"
   xmlns:rdf="http://www.w3.org/1999/02/22-rdf-syntax-ns#"
   xmlns:svg="http://www.w3.org/2000/svg"
   xmlns="http://www.w3.org/2000/svg"
   xmlns:sodipodi="http://sodipodi.sourceforge.net/DTD/sodipodi-0.dtd"
   xmlns:inkscape="http://www.inkscape.org/namespaces/inkscape"
   width="64"
   height="64"
   version="1.1"
   viewBox="0 0 64 64"
   id="svg4"
   sodipodi:docname="button_start.svg"
   inkscape:version="0.92.5 (2060ec1f9f, 2020-04-08)">
  <metadata
     id="metadata10">
    <rdf:RDF>
      <cc:Work
         rdf:about="">
        <dc:format>image/svg+xml</dc:format>
        <dc:type
           rdf:resource="http://purl.org/dc/dcmitype/StillImage" />
        <dc:title />
      </cc:Work>
    </rdf:RDF>
  </metadata>
  <defs
     id="defs8" />
  <sodipodi:namedview
     pagecolor="#ffffff"
     bordercolor="#666666"
     borderopacity="1"
     objecttolerance="10"
     gridtolerance="10"
     guidetolerance="10"
     inkscape:pageopacity="0"
     inkscape:pageshadow="2"
     inkscape:window-width="3840"
     inkscape:window-height="2065"
     id="namedview6"
     showgrid="false"
     inkscape:pagecheckerboard="true"
     inkscape:zoom="22.940221"
     inkscape:cx="50.938226"
     inkscape:cy="35.790928"
     inkscape:window-x="0"
     inkscape:window-y="0"
     inkscape:window-maximized="1"
     inkscape:current-layer="svg4" />
  <path
     style="opacity:1;fill:#ffffff;fill-opacity:0.99427478;stroke:none;stroke-width:2.90203929;stroke-linecap:round;stroke-linejoin:round;stroke-miterlimit:4;stroke-dasharray:none;stroke-opacity:1;paint-order:stroke fill markers"
     d="M 32 4 A 27.999998 27.999998 0 0 0 4 32 A 27.999998 27.999998 0 0 0 32 60 A 27.999998 27.999998 0 0 0 60 32 A 27.999998 27.999998 0 0 0 32 4 z M 15.720703 19.443359 L 48.279297 19.443359 C 48.467538 19.443359 48.643383 19.486135 48.792969 19.578125 C 48.942554 19.670113 49.083984 19.839235 49.083984 20.058594 L 49.083984 22.714844 C 49.083984 22.934202 48.942554 23.101369 48.792969 23.193359 C 48.643383 23.285345 48.467538 23.328125 48.279297 23.328125 L 15.720703 23.328125 C 15.532462 23.328125 15.356617 23.285349 15.207031 23.193359 C 15.057446 23.101371 14.916016 22.934202 14.916016 22.714844 L 14.916016 20.058594 C 14.916016 19.839235 15.057446 19.670115 15.207031 19.578125 C 15.356617 19.486139 15.532462 19.443359 15.720703 19.443359 z M 15.720703 28.097656 L 48.279297 28.097656 C 48.467538 28.097656 48.643383 28.140432 48.792969 28.232422 C 48.942554 28.32441 49.083984 28.491578 49.083984 28.710938 L 49.083984 31.367188 C 49.083984 31.586545 48.942554 31.753713 48.792969 31.845703 C 48.643383 31.937689 48.467538 31.980469 48.279297 31.980469 L 15.720703 31.980469 C 15.532462 31.980469 15.356617 31.937693 15.207031 31.845703 C 15.057446 31.753715 14.916016 31.586545 14.916016 31.367188 L 14.916016 28.710938 C 14.916016 28.491577 15.057446 28.324412 15.207031 28.232422 C 15.356617 28.140436 15.532462 28.097656 15.720703 28.097656 z M 15.720703 36.75 L 48.279297 36.75 C 48.467538 36.75 48.643383 36.792777 48.792969 36.884766 C 48.942554 36.976754 49.083984 37.143923 49.083984 37.363281 L 49.083984 40.019531 C 49.083984 40.23889 48.942554 40.406057 48.792969 40.498047 C 48.643383 40.590032 48.467538 40.632812 48.279297 40.632812 L 15.720703 40.632812 C 15.532462 40.632812 15.356617 40.590037 15.207031 40.498047 C 15.057446 40.406058 14.916016 40.23889 14.916016 40.019531 L 14.916016 37.363281 C 14.916016 37.143923 15.057446 36.976756 15.207031 36.884766 C 15.356617 36.79278 15.532462 36.75 15.720703 36.75 z "
     id="path4749" />
</svg>
