<?xml version="1.0" encoding="UTF-8" standalone="no"?>
<!-- Created with Inkscape (http://www.inkscape.org/) -->

<svg
   xmlns:dc="http://purl.org/dc/elements/1.1/"
   xmlns:cc="http://creativecommons.org/ns#"
   xmlns:rdf="http://www.w3.org/1999/02/22-rdf-syntax-ns#"
   xmlns:svg="http://www.w3.org/2000/svg"
   xmlns="http://www.w3.org/2000/svg"
   xmlns:sodipodi="http://sodipodi.sourceforge.net/DTD/sodipodi-0.dtd"
   xmlns:inkscape="http://www.inkscape.org/namespaces/inkscape"
   width="42"
   height="42"
   viewBox="0 0 11.1125 11.1125"
   version="1.1"
   id="svg4925"
   inkscape:version="0.92.5 (2060ec1f9f, 2020-04-08)"
   sodipodi:docname="gamepad_playstation.svg">
  <defs
     id="defs4919">
    <clipPath
       id="clipPath16"
       clipPathUnits="userSpaceOnUse">
      <path
         inkscape:connector-curvature="0"
         id="path18"
         d="M 0,428.623 H 265.712 V 0 H 0 Z" />
    </clipPath>
  </defs>
  <sodipodi:namedview
     id="base"
     pagecolor="#ffffff"
     bordercolor="#666666"
     borderopacity="1.0"
     inkscape:pageopacity="0.0"
     inkscape:pageshadow="2"
     inkscape:zoom="23.890046"
     inkscape:cx="27.458701"
     inkscape:cy="15.063512"
     inkscape:document-units="mm"
     inkscape:current-layer="layer1"
     showgrid="false"
     units="px"
     inkscape:window-width="3840"
     inkscape:window-height="2065"
     inkscape:window-x="0"
     inkscape:window-y="0"
     inkscape:window-maximized="1" />
  <metadata
     id="metadata4922">
    <rdf:RDF>
      <cc:Work
         rdf:about="">
        <dc:format>image/svg+xml</dc:format>
        <dc:type
           rdf:resource="http://purl.org/dc/dcmitype/StillImage" />
        <dc:title />
      </cc:Work>
    </rdf:RDF>
  </metadata>
  <g
     inkscape:label="Layer 1"
     inkscape:groupmode="layer"
     id="layer1"
     transform="translate(0,-285.88748)">
    <g
       id="g14725"
       transform="translate(4.3347377e-7,2.6668856e-5)">
      <path
         inkscape:connector-curvature="0"
         id="path30-4"
         d="m 2.918825,288.73845 c -0.3626261,0 -0.616968,0.0767 -0.6457872,0.22565 -0.01881,0.097 -0.050224,0.30821 -0.078304,0.49129 -0.41776,0.24637 -0.6988306,0.69994 -0.6988306,1.22 0,0.0214 0.00244,0.0421 0.00334,0.0631 -0.162574,0.97662 -0.2776564,1.9435 -0.3645706,2.39876 -0.15520473,0.81336 1.2039422,1.49728 1.7192908,0.55737 0.2440554,-0.44511 0.4645608,-0.87975 0.6276849,-1.20611 0.1572849,0.27068 0.4470001,0.45466 0.7826057,0.45466 0.3725061,0 0.6916645,-0.22473 0.8318607,-0.54559 h 0.9038486 c 0.1406855,0.31961 0.458946,0.5435 0.8305979,0.5435 0.3414904,0 0.6363897,-0.19031 0.7914465,-0.46899 0.164161,0.32858 0.3886006,0.7719 0.6356832,1.22253 0.5153483,0.93993 1.8802691,0.25485 1.7192919,-0.55737 -0.088057,-0.44424 -0.2047877,-1.44363 -0.3708866,-2.43665 9.23e-5,-0.006 8.063e-4,-0.0131 8.063e-4,-0.0198 0,-0.53576 -0.2975275,-1.00202 -0.7362977,-1.24274 -0.026471,-0.17238 -0.057632,-0.38042 -0.075777,-0.47403 -0.028798,-0.14887 -0.2831807,-0.22565 -0.6457867,-0.22565 -0.3626265,0 -0.6169468,0.0768 -0.6457865,0.22565 -0.020408,0.10559 -0.053047,0.32285 -0.085459,0.53464 -0.043019,0.0282 -0.087115,0.055 -0.1267154,0.0876 H 5.8530379 c -0.010012,0.0164 -0.028546,0.0278 -0.049255,0.0278 H 5.2775551 c -0.020687,0 -0.03798,-0.0113 -0.047992,-0.0278 h -1.411553 c -0.054123,-0.045 -0.1129686,-0.0841 -0.1734445,-0.12082 -0.029054,-0.1895 -0.060403,-0.40239 -0.079566,-0.5014 -0.028798,-0.14887 -0.2836438,-0.22565 -0.6462072,-0.22565 z"
         style="fill:#c2c2c2;fill-opacity:1;fill-rule:nonzero;stroke:#010101;stroke-width:0.12790291;stroke-miterlimit:4;stroke-dasharray:none;stroke-opacity:1" />
      <path
         inkscape:connector-curvature="0"
         d="m 4.9385609,292.0328 c 0,0.37663 -0.3054025,0.68198 -0.6820351,0.68198 -0.3766326,0 -0.6819521,-0.30535 -0.6819521,-0.68198 0,-0.37666 0.3053195,-0.68199 0.6819521,-0.68199 0.3766326,0 0.6820351,0.30533 0.6820351,0.68199"
         style="fill:#878787;fill-opacity:1;fill-rule:nonzero;stroke:none;stroke-width:0.02068842"
         id="path78-7" />
      <path
         inkscape:connector-curvature="0"
         d="m 4.8520894,292.0328 c 0,0.32888 -0.266653,0.59553 -0.5955575,0.59553 -0.3288837,0 -0.595475,-0.26665 -0.595475,-0.59553 0,-0.32891 0.2665913,-0.59553 0.595475,-0.59553 0.3289045,0 0.5955575,0.26662 0.5955575,0.59553"
         style="fill:#5a5a5a;fill-opacity:1;fill-rule:nonzero;stroke:none;stroke-width:0.02068842"
         id="path82-2" />
      <path
         inkscape:connector-curvature="0"
         d="m 7.9044385,289.64912 c -0.056376,0 -0.1021387,0.0457 -0.1021387,0.10218 v 0.53847 H 7.2626631 c -0.056417,0 -0.1010629,0.0457 -0.1010629,0.10221 v 0.57294 c 0,0.0564 0.044645,0.10218 0.1010629,0.10218 h 0.5396367 v 0.53846 c 0,0.0565 0.045763,0.10221 0.1021387,0.10221 h 0.5729657 c 0.056417,0 0.1010216,-0.0457 0.1010216,-0.10221 v -0.53846 h 0.5396366 c 0.056417,0 0.1010212,-0.0457 0.1010212,-0.10218 v -0.57294 c 0,-0.0564 -0.044605,-0.10221 -0.1010212,-0.10221 H 8.5784258 v -0.53847 c 0,-0.0564 -0.044605,-0.10218 -0.1010216,-0.10218 z"
         style="fill:#878787;fill-opacity:1;fill-rule:nonzero;stroke:none;stroke-width:0.02068842"
         id="path86-4" />
      <path
         inkscape:connector-curvature="0"
         d="m 4.5344498,290.69783 h 0.4095271 c 0.00492,0 0.00896,0.004 0.00896,0.009 v 0.22701 c 0,0.005 -0.00403,0.009 -0.00896,0.009 H 4.5344498 c -0.00496,0 -0.00894,-0.004 -0.00894,-0.009 v -0.22701 c 0,-0.005 0.00397,-0.009 0.00894,-0.009"
         style="fill:#5a5a5a;fill-opacity:1;fill-rule:nonzero;stroke:none;stroke-width:0.02068842"
         id="path90-2" />
      <path
         inkscape:connector-curvature="0"
         d="m 5.3469959,291.51393 h 0.4094858 c 0.00497,0 0.00902,0.004 0.00902,0.009 v 0.22703 c 0,0.005 -0.00406,0.009 -0.00902,0.009 H 5.3469959 c -0.00496,0 -0.00898,-0.004 -0.00898,-0.009 v -0.22703 c 0,-0.005 0.00402,-0.009 0.00898,-0.009"
         style="fill:#5a5a5a;fill-opacity:1;fill-rule:nonzero;stroke:none;stroke-width:0.02068842"
         id="path94-2" />
      <path
         inkscape:connector-curvature="0"
         d="m 6.499405,290.82029 c 0,0.0533 -0.3121883,0.12245 -0.3121883,0.12245 -0.03455,0.009 -0.057617,-0.006 -0.057617,-0.0576 v -0.1297 c 0,-0.0514 0.025219,-0.0661 0.057617,-0.0576 0,0 0.3121883,0.0722 0.3121883,0.12246"
         style="fill:#5a5a5a;fill-opacity:1;fill-rule:nonzero;stroke:none;stroke-width:0.02068842"
         id="path102-0" />
      <path
         inkscape:connector-curvature="0"
         d="m 8.4929289,290.03008 c 0,0.16709 -0.1354885,0.30257 -0.3025681,0.30257 -0.1670797,0 -0.3025681,-0.13548 -0.3025681,-0.30257 0,-0.16711 0.1354884,-0.30257 0.3025681,-0.30257 0.1670796,0 0.3025681,0.13546 0.3025681,0.30257"
         style="fill:#5a5a5a;fill-opacity:1;fill-rule:nonzero;stroke:none;stroke-width:0.02068842"
         id="path106-9" />
      <path
         inkscape:connector-curvature="0"
         d="m 8.4929289,291.33161 c 0,0.16711 -0.1354885,0.30257 -0.3025681,0.30257 -0.1670797,0 -0.3025681,-0.13546 -0.3025681,-0.30257 0,-0.16711 0.1354884,-0.30256 0.3025681,-0.30256 0.1670796,0 0.3025681,0.13545 0.3025681,0.30256"
         style="fill:#5a5a5a;fill-opacity:1;fill-rule:nonzero;stroke:none;stroke-width:0.02068842"
         id="path110-5" />
      <path
         inkscape:connector-curvature="0"
         d="m 8.5385468,290.68084 c 0,-0.16708 0.1354886,-0.30259 0.3025681,-0.30259 0.1671211,0 0.3025681,0.13551 0.3025681,0.30259 0,0.1671 -0.135447,0.30257 -0.3025681,0.30257 -0.1670795,0 -0.3025681,-0.13547 -0.3025681,-0.30257"
         style="fill:#5a5a5a;fill-opacity:1;fill-rule:nonzero;stroke:none;stroke-width:0.02068842"
         id="path114-0" />
      <path
         inkscape:connector-curvature="0"
         d="m 7.2370362,290.68084 c 0,-0.16708 0.1354471,-0.30259 0.3025681,-0.30259 0.167121,0 0.3025681,0.13551 0.3025681,0.30259 0,0.1671 -0.1354471,0.30257 -0.3025681,0.30257 -0.167121,0 -0.3025681,-0.13547 -0.3025681,-0.30257"
         style="fill:#5a5a5a;fill-opacity:1;fill-rule:nonzero;stroke:none;stroke-width:0.02068842"
         id="path118-7" />
      <path
         inkscape:connector-curvature="0"
         d="m 2.6289716,289.63142 c -0.056455,0 -0.1021799,0.0457 -0.1021799,0.10219 v 0.53847 H 1.9871552 c -0.056455,0 -0.1010216,0.0457 -0.1010216,0.10218 v 0.57293 c 0,0.0565 0.044561,0.10218 0.1010216,0.10218 h 0.5396365 v 0.53846 c 0,0.0565 0.045718,0.10219 0.1021799,0.10219 h 0.5728832 c 0.056455,0 0.1010216,-0.0457 0.1010216,-0.10219 v -0.53846 h 0.5396365 c 0.056459,0 0.1010629,-0.0457 0.1010629,-0.10218 v -0.57293 c 0,-0.0565 -0.044605,-0.10218 -0.1010629,-0.10218 H 3.3028764 v -0.53847 c 0,-0.0565 -0.044562,-0.10219 -0.1010216,-0.10219 z"
         style="fill:#878787;fill-opacity:1;fill-rule:nonzero;stroke:none;stroke-width:0.02068842"
         id="path122-8" />
      <path
         inkscape:connector-curvature="0"
         d="m 7.5127736,292.0328 c 0,0.37663 -0.3053611,0.68198 -0.6819936,0.68198 -0.3766327,0 -0.6819938,-0.30535 -0.6819938,-0.68198 0,-0.37666 0.3053611,-0.68199 0.6819938,-0.68199 0.3766325,0 0.6819936,0.30533 0.6819936,0.68199"
         style="fill:#878787;fill-opacity:1;fill-rule:nonzero;stroke:none;stroke-width:0.02068842"
         id="path126-0" />
      <path
         inkscape:connector-curvature="0"
         d="m 7.4263022,292.0328 c 0,0.32888 -0.2666116,0.59553 -0.5955161,0.59553 -0.3289251,0 -0.595516,-0.26665 -0.595516,-0.59553 0,-0.32891 0.2665909,-0.59553 0.595516,-0.59553 0.3289045,0 0.5955161,0.26662 0.5955161,0.59553"
         style="fill:#5a5a5a;fill-opacity:1;fill-rule:nonzero;stroke:none;stroke-width:0.02068842"
         id="path130-6" />
      <path
         inkscape:connector-curvature="0"
         d="m 3.2572624,290.45455 c -0.012333,8.1e-4 -0.023649,0.007 -0.03103,0.0172 l -0.1285787,0.16305 c -0.011959,0.0155 -0.011959,0.0372 0,0.0528 l 0.128579,0.16424 c 0.00817,0.0108 0.020895,0.0172 0.034468,0.0172 l 0.2985335,8.1e-4 c 0.011584,1.1e-4 0.022696,-0.005 0.030949,-0.0127 0.00815,-0.008 0.012725,-0.0194 0.012644,-0.0309 v -0.32265 c 2.069e-4,-0.0237 -0.018745,-0.0432 -0.042476,-0.0436 L 3.261838,290.454 c -0.00155,-6e-5 -0.00301,-6e-5 -0.00456,0"
         style="fill:#5a5a5a;fill-opacity:1;fill-rule:nonzero;stroke:none;stroke-width:0.02068842"
         id="path150-6" />
      <path
         inkscape:connector-curvature="0"
         d="m 2.5724422,290.4513 c 0.012285,8.1e-4 0.02356,0.007 0.030949,0.0172 l 0.1286193,0.16303 c 0.012,0.0155 0.012,0.0372 0,0.0528 l -0.1286193,0.16414 c -0.00815,0.0108 -0.020855,0.0172 -0.034428,0.0172 l -0.2984927,8.1e-4 c -0.011626,9e-5 -0.022737,-0.005 -0.030989,-0.0126 -0.00815,-0.008 -0.012725,-0.0194 -0.012644,-0.0309 v -0.32261 c -2.069e-4,-0.0238 0.018745,-0.0432 0.042476,-0.0436 l 0.298513,-0.006 c 0.00155,-7e-5 0.00309,-7e-5 0.00464,0"
         style="fill:#5a5a5a;fill-opacity:1;fill-rule:nonzero;stroke:none;stroke-width:0.02068842"
         id="path154-9" />
      <path
         inkscape:connector-curvature="0"
         d="m 3.1210105,291.00313 c -0.00105,-0.0123 -0.00733,-0.0236 -0.017254,-0.0309 l -0.1630449,-0.1286 c -0.015561,-0.012 -0.037262,-0.012 -0.052821,0 l -0.1641626,0.1286 c -0.010802,0.008 -0.017172,0.0209 -0.017214,0.0345 l -0.00114,0.29852 c -4.07e-5,0.0116 0.00456,0.0227 0.012684,0.0309 0.00821,0.008 0.019364,0.0128 0.030973,0.0127 h 0.3226357 c 0.02369,1.9e-4 0.043152,-0.0188 0.043608,-0.0425 l 0.00579,-0.2985 c 4.16e-5,-0.002 4.16e-5,-0.003 0,-0.005"
         style="fill:#5a5a5a;fill-opacity:1;fill-rule:nonzero;stroke:none;stroke-width:0.02068842"
         id="path158-5" />
      <path
         inkscape:connector-curvature="0"
         d="m 3.1242414,290.3183 c -0.00105,0.0123 -0.00733,0.0236 -0.017214,0.031 l -0.1630042,0.12856 c -0.0156,0.012 -0.037303,0.012 -0.052863,0 l -0.1641623,-0.12852 c -0.010843,-0.008 -0.017173,-0.021 -0.017214,-0.0345 l -0.00114,-0.29853 c -8.22e-5,-0.0116 0.00448,-0.0227 0.012684,-0.0309 0.00821,-0.008 0.019364,-0.0128 0.030973,-0.0127 h 0.3225942 c 0.023772,-1.6e-4 0.043201,0.0188 0.043649,0.0425 l 0.00571,0.29847 c 8.3e-5,0.002 8.3e-5,0.003 0,0.005"
         style="fill:#5a5a5a;fill-opacity:1;fill-rule:nonzero;stroke:none;stroke-width:0.02068842"
         id="path162-7" />
    </g>
  </g>
</svg>
