<?xml version="1.0" encoding="UTF-8" standalone="no"?>
<!-- Created with Inkscape (http://www.inkscape.org/) -->

<svg
   xmlns:dc="http://purl.org/dc/elements/1.1/"
   xmlns:cc="http://creativecommons.org/ns#"
   xmlns:rdf="http://www.w3.org/1999/02/22-rdf-syntax-ns#"
   xmlns:svg="http://www.w3.org/2000/svg"
   xmlns="http://www.w3.org/2000/svg"
   xmlns:sodipodi="http://sodipodi.sourceforge.net/DTD/sodipodi-0.dtd"
   xmlns:inkscape="http://www.inkscape.org/namespaces/inkscape"
   width="256"
   height="256"
   viewBox="0 0 67.733333 67.733333"
   version="1.1"
   id="svg4925"
   inkscape:version="0.92.5 (2060ec1f9f, 2020-04-08)"
   sodipodi:docname="lightgun_nintendo.svg">
  <defs
     id="defs4919" />
  <sodipodi:namedview
     id="base"
     pagecolor="#ffffff"
     bordercolor="#666666"
     borderopacity="1.0"
     inkscape:pageopacity="0.0"
     inkscape:pageshadow="2"
     inkscape:zoom="6.2210771"
     inkscape:cx="38.783136"
     inkscape:cy="171.167"
     inkscape:document-units="mm"
     inkscape:current-layer="layer1"
     showgrid="false"
     units="px"
     inkscape:window-width="3840"
     inkscape:window-height="2065"
     inkscape:window-x="0"
     inkscape:window-y="0"
     inkscape:window-maximized="1"
     inkscape:snap-bbox="true"
     inkscape:snap-global="false"
     showguides="false" />
  <metadata
     id="metadata4922">
    <rdf:RDF>
      <cc:Work
         rdf:about="">
        <dc:format>image/svg+xml</dc:format>
        <dc:type
           rdf:resource="http://purl.org/dc/dcmitype/StillImage" />
        <dc:title />
      </cc:Work>
    </rdf:RDF>
  </metadata>
  <g
     inkscape:label="Layer 1"
     inkscape:groupmode="layer"
     id="layer1"
     transform="translate(0,-229.26665)">
    <g
       id="g5776"
       transform="matrix(1.0413714,0,0,1.0413714,-1.3431313,-10.886191)">
      <path
         sodipodi:nodetypes="ccccc"
         inkscape:connector-curvature="0"
         id="rect4757"
         d="m 29.364774,252.27701 h 28.506047 l 2.234438,3.92733 H 29.364774 Z"
         style="opacity:1;vector-effect:none;fill:#60615b;fill-opacity:1;stroke:#000000;stroke-width:0.13626042;stroke-linecap:butt;stroke-linejoin:miter;stroke-miterlimit:4;stroke-dasharray:none;stroke-dashoffset:0;stroke-opacity:1;paint-order:normal" />
      <path
         inkscape:connector-curvature="0"
         id="rect4757-4"
         d="m 29.36454,252.27702 v 0.37775 h 28.721243 l -0.214974,-0.37775 z"
         style="opacity:1;vector-effect:none;fill:#565651;fill-opacity:1;stroke:#000000;stroke-width:0.13626041;stroke-linecap:butt;stroke-linejoin:miter;stroke-miterlimit:4;stroke-dasharray:none;stroke-dashoffset:0;stroke-opacity:1;paint-order:normal" />
      <path
         sodipodi:nodetypes="ccccc"
         inkscape:connector-curvature="0"
         id="rect4760"
         d="m 41.859211,255.93906 h 16.172926 l -0.58633,0.93534 H 41.859211 Z"
         style="opacity:1;vector-effect:none;fill:#60615b;fill-opacity:1;stroke:#000000;stroke-width:0.13626042;stroke-linecap:butt;stroke-linejoin:miter;stroke-miterlimit:4;stroke-dasharray:none;stroke-dashoffset:0;stroke-opacity:1;paint-order:normal" />
      <path
         sodipodi:nodetypes="ccccc"
         inkscape:connector-curvature="0"
         id="path4802"
         d="m 31.116661,254.53328 c -0.210262,-0.0144 -0.470576,-0.005 -0.681182,-0.004 l -1.503724,-2.71187 0.50835,-0.23135 z"
         style="fill:#d1cdc2;fill-opacity:1;stroke:#000000;stroke-width:0.16271874;stroke-linecap:butt;stroke-linejoin:miter;stroke-miterlimit:4;stroke-dasharray:none;stroke-opacity:1;paint-order:stroke fill markers" />
      <path
         sodipodi:nodetypes="ccccc"
         inkscape:connector-curvature="0"
         id="path4802-6"
         d="m 30.470535,254.50506 c -0.210263,-0.0144 -0.470577,-0.005 -0.681182,-0.004 l -1.503724,-2.71187 0.508349,-0.23135 z"
         style="fill:#d1cdc2;fill-opacity:1;stroke:#000000;stroke-width:0.16271874;stroke-linecap:butt;stroke-linejoin:miter;stroke-miterlimit:4;stroke-dasharray:none;stroke-opacity:1;paint-order:stroke fill markers" />
      <path
         sodipodi:nodetypes="ccccc"
         inkscape:connector-curvature="0"
         id="path4802-6-2"
         d="m 29.833968,254.49184 c -0.210262,-0.0144 -0.470577,-0.005 -0.681182,-0.004 l -1.503724,-2.71187 0.50835,-0.23135 z"
         style="fill:#d1cdc2;fill-opacity:1;stroke:#000000;stroke-width:0.16271874;stroke-linecap:butt;stroke-linejoin:miter;stroke-miterlimit:4;stroke-dasharray:none;stroke-opacity:1;paint-order:stroke fill markers" />
      <path
         sodipodi:nodetypes="ccccc"
         inkscape:connector-curvature="0"
         id="path4802-6-2-5"
         d="m 29.197401,254.47863 c -0.210262,-0.0144 -0.470577,-0.005 -0.681182,-0.004 l -1.503724,-2.71187 0.50835,-0.23135 z"
         style="fill:#d1cdc2;fill-opacity:1;stroke:#000000;stroke-width:0.16271874;stroke-linecap:butt;stroke-linejoin:miter;stroke-miterlimit:4;stroke-dasharray:none;stroke-opacity:1;paint-order:stroke fill markers" />
      <path
         sodipodi:nodetypes="ccccc"
         inkscape:connector-curvature="0"
         id="path4802-6-2-5-8"
         d="m 28.565769,254.46552 c -0.210262,-0.0144 -0.470576,-0.005 -0.681181,-0.004 l -1.503725,-2.71187 0.50835,-0.23135 z"
         style="fill:#d1cdc2;fill-opacity:1;stroke:#000000;stroke-width:0.16271874;stroke-linecap:butt;stroke-linejoin:miter;stroke-miterlimit:4;stroke-dasharray:none;stroke-opacity:1;paint-order:stroke fill markers" />
      <path
         sodipodi:nodetypes="ccccc"
         inkscape:connector-curvature="0"
         id="path4802-6-2-5-8-6"
         d="m 27.929202,254.45231 c -0.210262,-0.0144 -0.470575,-0.005 -0.681181,-0.004 l -1.503725,-2.71187 0.50835,-0.23135 z"
         style="fill:#d1cdc2;fill-opacity:1;stroke:#000000;stroke-width:0.16271874;stroke-linecap:butt;stroke-linejoin:miter;stroke-miterlimit:4;stroke-dasharray:none;stroke-opacity:1;paint-order:stroke fill markers" />
      <path
         sodipodi:nodetypes="ccccc"
         inkscape:connector-curvature="0"
         id="path4802-6-2-5-8-6-2"
         d="m 27.302506,254.4393 c -0.210262,-0.0144 -0.470575,-0.005 -0.681181,-0.004 l -1.503725,-2.71187 0.50835,-0.23135 z"
         style="fill:#d1cdc2;fill-opacity:1;stroke:#000000;stroke-width:0.16271874;stroke-linecap:butt;stroke-linejoin:miter;stroke-miterlimit:4;stroke-dasharray:none;stroke-opacity:1;paint-order:stroke fill markers" />
      <path
         sodipodi:nodetypes="ccccc"
         inkscape:connector-curvature="0"
         id="path4802-6-2-5-8-6-2-8"
         d="m 26.675811,254.42629 c -0.210262,-0.0144 -0.470575,-0.005 -0.681181,-0.004 l -1.503725,-2.71187 0.50835,-0.23135 z"
         style="fill:#d1cdc2;fill-opacity:1;stroke:#000000;stroke-width:0.16271874;stroke-linecap:butt;stroke-linejoin:miter;stroke-miterlimit:4;stroke-dasharray:none;stroke-opacity:1;paint-order:stroke fill markers" />
      <path
         inkscape:connector-curvature="0"
         id="rect4757-0"
         d="m 29.36454,255.76259 v 0.44184 H 60.1053 l -0.251148,-0.44184 z"
         style="opacity:1;vector-effect:none;fill:#4e4e4a;fill-opacity:1;stroke:#000000;stroke-width:0.13626041;stroke-linecap:butt;stroke-linejoin:miter;stroke-miterlimit:4;stroke-dasharray:none;stroke-dashoffset:0;stroke-opacity:1;paint-order:normal" />
      <path
         sodipodi:nodetypes="ccccc"
         inkscape:connector-curvature="0"
         id="path4802-6-2-5-8-6-2-8-4"
         d="m 26.049115,254.41328 c -0.210262,-0.0144 -0.470575,-0.005 -0.681181,-0.004 l -1.503725,-2.71187 0.50835,-0.23135 z"
         style="fill:#d1cdc2;fill-opacity:1;stroke:#000000;stroke-width:0.16271874;stroke-linecap:butt;stroke-linejoin:miter;stroke-miterlimit:4;stroke-dasharray:none;stroke-opacity:1;paint-order:stroke fill markers" />
      <path
         sodipodi:nodetypes="ccccccccccccscc"
         inkscape:connector-curvature="0"
         id="path4800"
         d="m 43.03283,254.49339 c -5.874764,-0.0355 -11.855495,-0.043 -17.730451,-0.062 l -1.074937,-1.94047 -14.853683,-0.0279 -0.53049,2.12195 1.535625,2.56868 1.242462,0.0279 0.251283,-0.26524 12.061637,0.0419 1.261761,2.30117 16.151442,-1.12126 1.84772,-3.38563 c 0,0 0.03855,-0.0915 -0.02952,-0.18308 -0.0604,-0.0813 -0.132846,-0.076 -0.132846,-0.076 z"
         style="fill:#d1cdc2;fill-opacity:1;stroke:#23211c;stroke-width:0.13626042;stroke-linecap:butt;stroke-linejoin:miter;stroke-miterlimit:4;stroke-dasharray:none;stroke-opacity:1" />
      <path
         inkscape:connector-curvature="0"
         id="path4765"
         d="m 56.344034,250.93007 -3.387054,1.37117 h 4.928563 l -0.485284,-0.82336 z"
         style="fill:#4e4e4a;fill-opacity:1;stroke:#000000;stroke-width:0.13626042;stroke-linecap:butt;stroke-linejoin:miter;stroke-miterlimit:4;stroke-dasharray:none;stroke-opacity:1" />
      <circle
         r="0.49186778"
         cy="251.66638"
         cx="56.349934"
         id="path4783"
         style="opacity:1;vector-effect:none;fill:#70706c;fill-opacity:1;stroke:#0e0e0d;stroke-width:0.10583333;stroke-linecap:butt;stroke-linejoin:miter;stroke-miterlimit:4;stroke-dasharray:none;stroke-dashoffset:0;stroke-opacity:1;paint-order:normal" />
      <circle
         r="0.1269418"
         cy="251.66638"
         cx="56.349934"
         id="path4783-4"
         style="opacity:1;vector-effect:none;fill:#000000;fill-opacity:1;stroke:none;stroke-width:0.00808962;stroke-linecap:butt;stroke-linejoin:miter;stroke-miterlimit:4;stroke-dasharray:none;stroke-dashoffset:0;stroke-opacity:1;paint-order:normal" />
      <path
         inkscape:connector-curvature="0"
         id="path4942"
         d="m 14.486072,250.41171 -0.207304,0.01 -1.357329,0.89761 3.095393,-0.002 z"
         style="fill:#4e4e4a;fill-opacity:1;stroke:#000000;stroke-width:0.13626042;stroke-linecap:butt;stroke-linejoin:miter;stroke-miterlimit:4;stroke-dasharray:none;stroke-opacity:1" />
      <path
         sodipodi:nodetypes="cccccc"
         inkscape:connector-curvature="0"
         id="path4924"
         d="m 22.712455,251.30496 -9.777655,0.005 -1.939669,1.14009 13.232289,0.0451 -0.31768,-0.57529 z"
         style="fill:#60615b;fill-opacity:1;stroke:#000000;stroke-width:0.13626042;stroke-linecap:butt;stroke-linejoin:miter;stroke-miterlimit:4;stroke-dasharray:none;stroke-opacity:1" />
      <path
         inkscape:connector-curvature="0"
         id="path4962"
         d="m 25.091375,259.03186 0.141203,0.21268 1.17169,-0.0942 -0.08391,0.2764 -0.08884,0.46395 -0.04442,0.4146 -0.01481,0.46889 0.07404,0.60215 0.157943,0.61696 0.167812,0.45409 0.09871,0.2221 -0.03455,0.16288 -0.09871,0.0987 h -0.256656 l -3.415497,-0.01 z"
         style="fill:#a4180a;fill-opacity:1;stroke:#000000;stroke-width:0.13626042;stroke-linecap:butt;stroke-linejoin:miter;stroke-miterlimit:4;stroke-dasharray:none;stroke-opacity:1" />
      <path
         sodipodi:nodetypes="ccccccaaaasasccsccaaacaaccccccccccaaaaaaaaaaaaaaaaccc"
         inkscape:connector-curvature="0"
         id="path4960"
         d="m 11.872639,256.91628 12.061637,0.0419 1.157099,2.0768 -2.280288,3.97816 0.118456,0.16782 -5.172596,8.39067 c 0,0 -0.222213,0.37579 -0.286272,0.58241 -0.05416,0.17467 -0.06423,0.36063 -0.07897,0.54292 -0.01566,0.19353 -0.03291,0.38962 -0.0099,0.58241 0.01065,0.0891 0.01702,0.18667 0.0679,0.26064 0.02212,0.0322 0.04344,0.0177 0.09522,0.0681 0.08499,0.0828 0.06627,0.20336 0.04416,0.30301 -0.02984,0.13453 -0.117212,0.26226 -0.22704,0.3455 -0.201792,0.15294 -0.612026,0.29614 -0.612026,0.29614 l -2.092731,0.59228 c 0,0 -1.493921,0.4003 -2.196234,0.5883 -0.317501,0.085 -0.597364,0.12244 -0.597364,0.12244 l -2.09273,-0.0198 c 0,0 -0.812047,-0.0423 -1.214179,-0.0987 -0.1661584,-0.0233 -0.3352214,-0.0433 -0.4935704,-0.0987 -0.108334,-0.038 -0.212308,-0.0916 -0.306014,-0.15795 -0.06271,-0.0444 -0.167812,-0.15794 -0.167812,-0.15794 0,0 -0.01276,-0.33562 -0.0099,-0.50344 0.0084,-0.48762 0.01907,-0.97695 0.07897,-1.46096 0.04653,-0.37594 0.217168,-1.11547 0.217168,-1.11547 l 0.276399,-1.00688 0.4935694,-1.2043 0.592283,-1.14508 0.671251,-1.18457 0.908168,-1.25366 0.730482,-0.8983 0.819324,-0.93778 0.858809,-0.82919 0.641639,-0.60216 c 0,0 0.419927,-0.37606 0.621898,-0.57254 0.06088,-0.0592 0.122084,-0.11841 0.177682,-0.18262 0.08832,-0.10199 0.184917,-0.20092 0.246786,-0.32081 0.07732,-0.14985 0.111105,-0.31919 0.14807,-0.4837 0.04993,-0.22225 0.09055,-0.44855 0.09872,-0.67619 0.0065,-0.1797 -0.01374,-0.36003 -0.03949,-0.53799 -0.02219,-0.1533 -0.05384,-0.30583 -0.09871,-0.45409 -0.05222,-0.17252 -0.106501,-0.34779 -0.197424,-0.50344 -0.115615,-0.1979 -0.280716,-0.36295 -0.434341,-0.53305 -0.11852,-0.13123 -0.239646,-0.26146 -0.375113,-0.37511 -0.153852,-0.12908 -0.317529,-0.24885 -0.493569,-0.3455 -0.165518,-0.0909 -0.344035,-0.1575 -0.523182,-0.21717 -0.164305,-0.0547 -0.333752,-0.0937 -0.503443,-0.12833 -0.12722,-0.0259 -0.262552,-0.016 -0.384982,-0.0592 -0.06851,-0.0242 -0.134604,-0.0607 -0.188483,-0.10947 -0.08705,-0.0788 -0.148053,-0.18347 -0.206373,-0.28534 -0.03885,-0.0679 -0.09431,-0.21479 -0.09431,-0.21479 v 0 z"
         style="fill:#60615b;fill-opacity:1;stroke:#000000;stroke-width:0.13626042;stroke-linecap:butt;stroke-linejoin:miter;stroke-miterlimit:4;stroke-dasharray:none;stroke-opacity:1" />
      <circle
         r="0.68405128"
         cy="253.74031"
         cx="12.982473"
         id="path4964"
         style="opacity:1;vector-effect:none;fill:#2d2d2a;fill-opacity:1;stroke:none;stroke-width:0.0384771;stroke-linecap:butt;stroke-linejoin:miter;stroke-miterlimit:4;stroke-dasharray:none;stroke-dashoffset:0;stroke-opacity:1;paint-order:normal" />
      <circle
         r="0.68405128"
         cy="254.4174"
         cx="23.885414"
         id="path4964-5"
         style="opacity:1;vector-effect:none;fill:#2d2d2a;fill-opacity:1;stroke:none;stroke-width:0.0384771;stroke-linecap:butt;stroke-linejoin:miter;stroke-miterlimit:4;stroke-dasharray:none;stroke-dashoffset:0;stroke-opacity:1;paint-order:normal" />
      <circle
         r="0.68405128"
         cy="255.71568"
         cx="39.71632"
         id="path4964-5-4"
         style="opacity:1;vector-effect:none;fill:#2d2d2a;fill-opacity:1;stroke:none;stroke-width:0.0384771;stroke-linecap:butt;stroke-linejoin:miter;stroke-miterlimit:4;stroke-dasharray:none;stroke-dashoffset:0;stroke-opacity:1;paint-order:normal" />
      <path
         inkscape:connector-curvature="0"
         id="path4996"
         d="m 18.250516,262.7466 2.862695,-1.61891 0.384986,-0.15794 0.306012,0.0691 0.187554,0.23691 0.08884,0.29615 -0.04936,0.29614 -7.018544,11.76667 -3.158841,0.86868 -3.3760084,-0.11845 -0.167815,-0.16782 -0.187555,-0.28627 0.217171,-0.95752 0.3060114,-0.96739 0.394856,-1.15495 0.414598,-0.8983 0.878552,-1.38199 0.621895,-0.88842 0.779838,-0.84894 0.779838,-0.74036 1.06611,-0.72061 1.283277,-0.68112 1.42148,-0.81933 z"
         style="fill:none;fill-opacity:1;stroke:#0e0e0d;stroke-width:0.16245417;stroke-linecap:butt;stroke-linejoin:miter;stroke-miterlimit:4;stroke-dasharray:none;stroke-opacity:1" />
      <circle
         r="0.11575521"
         cy="256.41266"
         cx="56.865025"
         id="path5320"
         style="opacity:1;vector-effect:none;fill:#000000;fill-opacity:1;stroke:none;stroke-width:0.12209989;stroke-linecap:butt;stroke-linejoin:miter;stroke-miterlimit:4;stroke-dasharray:none;stroke-dashoffset:0;stroke-opacity:1;paint-order:normal" />
      <path
         sodipodi:nodetypes="cccccc"
         inkscape:connector-curvature="0"
         id="path5444"
         d="m 42.651068,255.75174 -1.37356,2.20193 -16.335171,0.82751 0.27982,0.48198 16.149918,-1.12087 z"
         style="fill:#8c8d86;fill-opacity:1;stroke:#000000;stroke-width:0.13626041;stroke-linecap:butt;stroke-linejoin:miter;stroke-miterlimit:4;stroke-dasharray:none;stroke-opacity:1" />
    </g>
  </g>
</svg>
