<?xml version="1.0" encoding="UTF-8" standalone="no"?>
<!-- Created with Inkscape (http://www.inkscape.org/) -->

<svg
   xmlns:dc="http://purl.org/dc/elements/1.1/"
   xmlns:cc="http://creativecommons.org/ns#"
   xmlns:rdf="http://www.w3.org/1999/02/22-rdf-syntax-ns#"
   xmlns:svg="http://www.w3.org/2000/svg"
   xmlns="http://www.w3.org/2000/svg"
   xmlns:sodipodi="http://sodipodi.sourceforge.net/DTD/sodipodi-0.dtd"
   xmlns:inkscape="http://www.inkscape.org/namespaces/inkscape"
   width="42"
   height="42"
   viewBox="0 0 11.1125 11.1125"
   version="1.1"
   id="svg4925"
   inkscape:version="0.92.5 (2060ec1f9f, 2020-04-08)"
   sodipodi:docname="wii_remote_nintendo.svg">
  <defs
     id="defs4919" />
  <sodipodi:namedview
     id="base"
     pagecolor="#ffffff"
     bordercolor="#666666"
     borderopacity="1.0"
     inkscape:pageopacity="0.0"
     inkscape:pageshadow="2"
     inkscape:zoom="22.627417"
     inkscape:cx="-16.659924"
     inkscape:cy="14.555913"
     inkscape:document-units="mm"
     inkscape:current-layer="layer1"
     showgrid="false"
     units="px"
     inkscape:window-width="3840"
     inkscape:window-height="2065"
     inkscape:window-x="0"
     inkscape:window-y="0"
     inkscape:window-maximized="1" />
  <metadata
     id="metadata4922">
    <rdf:RDF>
      <cc:Work
         rdf:about="">
        <dc:format>image/svg+xml</dc:format>
        <dc:type
           rdf:resource="http://purl.org/dc/dcmitype/StillImage" />
        <dc:title />
      </cc:Work>
    </rdf:RDF>
  </metadata>
  <g
     inkscape:label="Layer 1"
     inkscape:groupmode="layer"
     id="layer1"
     transform="translate(0,-285.88748)">
    <g
       id="g5266">
      <path
         inkscape:connector-curvature="0"
         id="path6"
         d="m 4.492749,286.76443 c -0.150954,0 -0.274402,0.12397 -0.274402,0.27492 v 9.05681 c 0,0.15095 0.123448,0.27492 0.274402,0.27492 h 2.1270018 c 0.1509541,0 0.2744021,-0.12397 0.2744021,-0.27492 v -9.05681 c 0,-0.15095 -0.123448,-0.27492 -0.2744021,-0.27492 z"
         style="fill:#f8f8f8;stroke:#000000;stroke-width:0.079375;stroke-miterlimit:4;stroke-dasharray:none;stroke-opacity:1;fill-opacity:1" />
      <g
         transform="matrix(0.03430772,0,0,0.03430772,13.275487,277.84072)"
         id="g16">
        <polyline
           style="fill:#5c5c5c"
           id="polyline8"
           points="-231.1,505.2 -236.1,505.2 -236.1,510.2 -231.1,510.2 -231.1,505.2    " />
        <polyline
           style="fill:#5c5c5c"
           id="polyline10"
           points="-196.8,505.2 -201.8,505.2 -201.8,510.2 -196.8,510.2 -196.8,505.2    " />
        <polyline
           style="fill:#5c5c5c"
           id="polyline12"
           points="-213.9,505.2 -218.9,505.2 -218.9,510.2 -213.9,510.2 -213.9,505.2    " />
        <polyline
           style="fill:#11b3ef"
           id="polyline14"
           points="-248.2,505.2 -253.2,505.2 -253.2,510.2 -248.2,510.2 -248.2,505.2    " />
      </g>
      <circle
         style="stroke-width:0.03430772"
         id="circle18"
         r="0.051461581"
         cy="292.64108"
         cx="5.8135581" />
      <circle
         style="stroke-width:0.03430772"
         id="circle20"
         r="0.051461581"
         cy="292.64108"
         cx="5.5562501" />
      <circle
         style="stroke-width:0.03430772"
         id="circle22"
         r="0.051461581"
         cy="292.64108"
         cx="5.2989421" />
      <circle
         style="stroke-width:0.03430772"
         id="circle24"
         r="0.051461581"
         cy="292.43521"
         cx="5.8135581" />
      <circle
         style="stroke-width:0.03430772"
         id="circle26"
         r="0.051461581"
         cy="292.43521"
         cx="5.5562501" />
      <circle
         style="stroke-width:0.03430772"
         id="circle28"
         r="0.051461581"
         cy="292.43521"
         cx="5.2989421" />
      <circle
         style="stroke-width:0.03430772"
         id="circle30"
         r="0.034307718"
         cy="292.22937"
         cx="5.8135581" />
      <circle
         style="stroke-width:0.03430772"
         id="circle32"
         r="0.034307718"
         cy="292.22937"
         cx="5.5562501" />
      <circle
         style="stroke-width:0.03430772"
         id="circle34"
         r="0.034307718"
         cy="292.22937"
         cx="5.2989421" />
      <circle
         style="stroke-width:0.03430772"
         id="circle36"
         r="0.017153859"
         cy="292.02353"
         cx="5.8135581" />
      <circle
         style="stroke-width:0.03430772"
         id="circle38"
         r="0.017153859"
         cy="292.02353"
         cx="5.5562501" />
      <circle
         style="stroke-width:0.03430772"
         id="circle40"
         r="0.017153859"
         cy="292.02353"
         cx="5.2989421" />
      <circle
         style="stroke-width:0.03430772"
         id="circle42"
         r="0.017153859"
         cy="293.05276"
         cx="5.8135581" />
      <circle
         style="stroke-width:0.03430772"
         id="circle44"
         r="0.017153859"
         cy="293.05276"
         cx="5.5562501" />
      <circle
         style="stroke-width:0.03430772"
         id="circle46"
         r="0.017153859"
         cy="293.05276"
         cx="5.2989421" />
      <circle
         style="stroke-width:0.03430772"
         id="circle48"
         r="0.034307718"
         cy="292.84692"
         cx="5.8135581" />
      <circle
         style="stroke-width:0.03430772"
         id="circle50"
         r="0.034307718"
         cy="292.84692"
         cx="5.5562501" />
      <circle
         style="stroke-width:0.03430772"
         id="circle52"
         r="0.034307718"
         cy="292.84692"
         cx="5.2989421" />
      <path
         style="fill:#b0b2b4;stroke-width:0.03430772;fill-opacity:1"
         inkscape:connector-curvature="0"
         id="path56"
         d="M 5.6677502,287.6047 H 5.44475 c -0.024015,0 -0.0446,0.0309 -0.0446,0.072 v 0.40827 H 4.9918881 c -0.041169,0 -0.072046,0.0206 -0.072046,0.0446 v 0.223 c 0,0.024 0.030877,0.0446 0.072046,0.0446 H 5.40015 v 0.40826 c 0,0.0412 0.020585,0.072 0.0446,0.072 h 0.2230002 c 0.024015,0 0.0446,-0.0309 0.0446,-0.072 v -0.40826 H 6.120612 c 0.041169,0 0.072046,-0.0206 0.072046,-0.0446 v -0.223 c 0,-0.024 -0.030877,-0.0446 -0.072046,-0.0446 H 5.7123503 v -0.40827 c -0.00343,-0.0412 -0.020585,-0.072 -0.0446,-0.072" />
      <rect
         style="fill:#818285;stroke-width:0.03430772"
         id="rect58"
         height="0.034307718"
         width="0.23672327"
         y="288.22568"
         x="5.026196" />
      <rect
         style="fill:#818285;stroke-width:0.03430772"
         id="rect60"
         height="0.034307718"
         width="0.23672327"
         y="288.22568"
         x="5.8461504" />
      <rect
         style="fill:#818285;stroke-width:0.03430772"
         id="rect62"
         height="0.23672327"
         width="0.034307718"
         y="287.70074"
         x="5.5373812" />
      <rect
         style="fill:#818285;stroke-width:0.03430772"
         id="rect64"
         height="0.23672327"
         width="0.034307718"
         y="288.54474"
         x="5.5373812" />
      <path
         style="fill:#bdbebf;stroke-width:0.03430772"
         inkscape:connector-curvature="0"
         id="path66"
         d="m 4.8426494,287.41257 c -0.1338001,0 -0.240154,-0.10635 -0.240154,-0.24015 0,-0.1338 0.1063539,-0.24015 0.240154,-0.24015 0.1338001,0 0.2401541,0.10635 0.2401541,0.24015 0,0.1338 -0.106354,0.24015 -0.2401541,0.24015 z" />
      <circle
         style="fill:#e7e8e9;stroke-width:0.03430772"
         id="circle68"
         r="0.22986172"
         cy="287.16898"
         cx="4.8426495" />
      <path
         style="fill:#bf1e2e;stroke-width:0.03430772"
         inkscape:connector-curvature="0"
         id="path70"
         d="m 4.8426494,287.30622 c -0.061754,0 -0.1097847,-0.048 -0.1097847,-0.10978 0,-0.0618 0.048031,-0.10979 0.1097847,-0.10979 0.061754,0 0.1097847,0.048 0.1097847,0.10979 0,0.0618 -0.048031,0.10978 -0.1097847,0.10978 z m 0,-0.18526 c -0.041169,0 -0.075477,0.0343 -0.075477,0.0755 0,0.0412 0.034308,0.0755 0.075477,0.0755 0.041169,0 0.075477,-0.0343 0.075477,-0.0755 0,-0.0412 -0.034308,-0.0755 -0.075477,-0.0755 z" />
      <rect
         style="fill:#e7e8e9;stroke-width:0.03430772"
         id="rect72"
         height="0.20241556"
         width="0.075476989"
         y="287.02832"
         x="4.8049111" />
      <rect
         style="fill:#bf1e2e;stroke-width:0.03430772"
         id="rect74"
         height="0.16810784"
         width="0.034307718"
         y="287.04205"
         x="4.8254952" />
      <path
         style="fill:#b0b2b4;stroke-width:0.03430772;fill-opacity:1"
         inkscape:connector-curvature="0"
         id="path76"
         d="m 5.55625,290.20522 c -0.2504463,0 -0.4528619,-0.20584 -0.4528619,-0.45629 0,-0.25045 0.2024156,-0.45629 0.4528619,-0.45629 0.2504464,0 0.4528619,0.20584 0.4528619,0.45629 0,0.25045 -0.2024155,0.45629 -0.4528619,0.45629 z" />
      <path
         style="fill:#b0b2b4;stroke-width:0.03430772;fill-opacity:1"
         inkscape:connector-curvature="0"
         id="path84"
         d="m 5.5562499,291.35453 c -0.1338001,0 -0.240154,-0.10635 -0.240154,-0.24015 0,-0.1338 0.1063539,-0.24016 0.240154,-0.24016 0.1338001,0 0.2401541,0.10636 0.2401541,0.24016 0,0.1338 -0.106354,0.24015 -0.2401541,0.24015" />
      <path
         style="fill:#b0b2b4;stroke-width:0.03430772;fill-opacity:1"
         inkscape:connector-curvature="0"
         id="path92"
         d="m 4.8460801,291.35453 c -0.1338001,0 -0.240154,-0.10635 -0.240154,-0.24015 0,-0.1338 0.1063539,-0.24016 0.240154,-0.24016 0.1338001,0 0.2401541,0.10636 0.2401541,0.24016 0,0.1338 -0.1097847,0.24015 -0.2401541,0.24015 z" />
      <path
         style="fill:#b0b2b4;stroke-width:0.03430772;fill-opacity:1"
         inkscape:connector-curvature="0"
         id="path100"
         d="m 6.2664197,291.35453 c -0.1338001,0 -0.240154,-0.10635 -0.240154,-0.24015 0,-0.1338 0.1063539,-0.24016 0.240154,-0.24016 0.1338002,0 0.2401541,0.10636 0.2401541,0.24016 0,0.1338 -0.1063539,0.24015 -0.2401541,0.24015 z" />
      <path
         style="fill:#b0b2b4;stroke-width:0.03430772;fill-opacity:1"
         inkscape:connector-curvature="0"
         id="path112"
         d="m 5.5562499,294.04083 c -0.1886924,0 -0.3396464,-0.15096 -0.3396464,-0.33965 0,-0.18869 0.150954,-0.33965 0.3396464,-0.33965 0.1886925,0 0.3396465,0.15096 0.3396465,0.33965 0,0.18869 -0.150954,0.33965 -0.3396465,0.33965 z" />
      <path
         style="fill:#b0b2b4;stroke-width:0.03430772;fill-opacity:1"
         inkscape:connector-curvature="0"
         id="path120"
         d="m 5.5562499,294.97056 c -0.1886924,0 -0.3396464,-0.15095 -0.3396464,-0.33964 0,-0.18869 0.150954,-0.33965 0.3396464,-0.33965 0.1886925,0 0.3396465,0.15096 0.3396465,0.33965 0,0.18869 -0.150954,0.33964 -0.3396465,0.33964 z" />
      <rect
         style="fill:#7a7b7e;stroke-width:0.03430772;fill-opacity:1"
         id="rect126"
         height="0.33278489"
         width="0.068615437"
         y="295.66016"
         x="5.9233427" />
      <rect
         style="fill:#7a7b7e;stroke-width:0.03430772;fill-opacity:1"
         id="rect128"
         height="0.072046205"
         width="0.068615437"
         y="295.52979"
         x="5.9233427" />
      <rect
         style="fill:#7a7b7e;stroke-width:0.03430772;fill-opacity:1"
         id="rect130"
         height="0.33278489"
         width="0.068615437"
         y="295.66016"
         x="5.7552347" />
      <rect
         style="fill:#7a7b7e;stroke-width:0.03430772;fill-opacity:1"
         id="rect132"
         height="0.072046205"
         width="0.068615437"
         y="295.52979"
         x="5.7552347" />
      <polygon
         transform="matrix(0.03430772,0,0,0.03430772,13.206872,277.84072)"
         style="fill:#7a7b7e;fill-opacity:1"
         id="polygon134"
         points="-226.3,515.5 -223.6,525.3 -220.8,515.5 -218.9,516.1 -222.6,529.2 -224.5,529.2 -227.3,519.5 -230.1,529.2 -232,529.2 -235.7,516.1 -233.8,515.5 -231,525.3 -228.2,515.5 " />
      <rect
         y="291.8157"
         x="3.3556859"
         height="1.6210666"
         width="4.0409198"
         id="rect5212"
         style="opacity:1;vector-effect:none;fill:none;fill-opacity:1;stroke:none;stroke-width:0.10874375;stroke-linecap:round;stroke-linejoin:round;stroke-miterlimit:4;stroke-dasharray:none;stroke-dashoffset:0;stroke-opacity:1;paint-order:normal" />
      <rect
         y="287.48111"
         x="3.993932"
         height="1.5779947"
         width="2.6900308"
         id="rect5214"
         style="opacity:1;vector-effect:none;fill:none;fill-opacity:1;stroke:none;stroke-width:0.10874375;stroke-linecap:round;stroke-linejoin:round;stroke-miterlimit:4;stroke-dasharray:none;stroke-dashoffset:0;stroke-opacity:1;paint-order:normal" />
    </g>
  </g>
</svg>
