<?xml version="1.0" encoding="UTF-8" standalone="no"?>
<!-- Created with Inkscape (http://www.inkscape.org/) -->

<svg
   xmlns:dc="http://purl.org/dc/elements/1.1/"
   xmlns:cc="http://creativecommons.org/ns#"
   xmlns:rdf="http://www.w3.org/1999/02/22-rdf-syntax-ns#"
   xmlns:svg="http://www.w3.org/2000/svg"
   xmlns="http://www.w3.org/2000/svg"
   xmlns:sodipodi="http://sodipodi.sourceforge.net/DTD/sodipodi-0.dtd"
   xmlns:inkscape="http://www.inkscape.org/namespaces/inkscape"
   width="42"
   height="42"
   viewBox="0 0 11.1125 11.1125"
   version="1.1"
   id="svg4925"
   inkscape:version="0.92.5 (2060ec1f9f, 2020-04-08)"
   sodipodi:docname="wii_remote_nunchuck_nintendo.svg">
  <defs
     id="defs4919" />
  <sodipodi:namedview
     id="base"
     pagecolor="#ffffff"
     bordercolor="#666666"
     borderopacity="1.0"
     inkscape:pageopacity="0.0"
     inkscape:pageshadow="2"
     inkscape:zoom="32"
     inkscape:cx="3.7670704"
     inkscape:cy="20.243876"
     inkscape:document-units="mm"
     inkscape:current-layer="layer1"
     showgrid="false"
     units="px"
     inkscape:window-width="3840"
     inkscape:window-height="2065"
     inkscape:window-x="0"
     inkscape:window-y="0"
     inkscape:window-maximized="1"
     inkscape:snap-bbox="true" />
  <metadata
     id="metadata4922">
    <rdf:RDF>
      <cc:Work
         rdf:about="">
        <dc:format>image/svg+xml</dc:format>
        <dc:type
           rdf:resource="http://purl.org/dc/dcmitype/StillImage" />
        <dc:title />
      </cc:Work>
    </rdf:RDF>
  </metadata>
  <g
     inkscape:label="Layer 1"
     inkscape:groupmode="layer"
     id="layer1"
     transform="translate(0,-285.88748)">
    <g
       id="g5629"
       transform="matrix(0.97763205,0,0,0.97763205,0.12423766,6.4933408)">
      <path
         id="path188"
         d="m 3.330473,296.25878 c -0.6814899,0 -0.8835396,-1.82872 -1.0821648,-3.5958 -0.034246,-0.29793 -0.068491,-0.60615 -0.1027371,-0.89723 -0.1678041,-1.35271 0.1335583,-2.01708 0.4177977,-2.33556 0.2260218,-0.25684 0.5239596,-0.3904 0.8629922,-0.3904 0.3390326,0 0.6369704,0.13356 0.8629921,0.3904 0.2808149,0.31848 0.5821773,0.98285 0.4177978,2.33556 -0.034246,0.29108 -0.068491,0.5993 -0.1027372,0.89723 -0.1952006,1.76708 -0.4006749,3.5958 -1.0821647,3.5958 z"
         inkscape:connector-curvature="0"
         style="fill:#ffffff;fill-opacity:1;stroke:#000000;stroke-width:0.10556875;stroke-miterlimit:4;stroke-dasharray:none;stroke-opacity:1" />
      <polygon
         transform="matrix(0.03424572,0,0,0.03424572,15.149569,277.85171)"
         id="polygon192"
         points="-326.6,358.3 -320.1,374.1 -326.6,389.8 -342.3,396.4 -358.1,389.8 -364.6,374.1 -358.1,358.3 -342.3,351.8 "
         style="fill:#b0b2b4;fill-opacity:1" />
      <circle
         style="fill:#efefef;fill-opacity:1;stroke-width:0.03424572"
         cx="3.4272597"
         cy="290.66302"
         r="0.51368582"
         id="circle198" />
    </g>
    <g
       id="g5624"
       transform="matrix(0.97763205,0,0,0.97763205,0.12423766,6.4932822)">
      <path
         inkscape:connector-curvature="0"
         id="path6"
         d="m 6.6137471,286.68123 c -0.150954,0 -0.274402,0.12359 -0.274402,0.27409 v 9.02943 c 0,0.1505 0.123448,0.27409 0.274402,0.27409 h 2.1270018 c 0.1509541,0 0.2744021,-0.12359 0.2744021,-0.27409 v -9.02943 c 0,-0.1505 -0.123448,-0.27409 -0.2744021,-0.27409 z"
         style="fill:#fefefe;fill-opacity:1;stroke:#000000;stroke-width:0.10556875;stroke-miterlimit:4;stroke-dasharray:none;stroke-opacity:1" />
      <g
         transform="matrix(0.03430772,0,0,0.03420402,15.396485,277.78449)"
         id="g16">
        <polyline
           style="fill:#5c5c5c"
           id="polyline8"
           points="-231.1,505.2 -236.1,505.2 -236.1,510.2 -231.1,510.2 -231.1,505.2    " />
        <polyline
           style="fill:#5c5c5c"
           id="polyline10"
           points="-196.8,505.2 -201.8,505.2 -201.8,510.2 -196.8,510.2 -196.8,505.2    " />
        <polyline
           style="fill:#5c5c5c"
           id="polyline12"
           points="-213.9,505.2 -218.9,505.2 -218.9,510.2 -213.9,510.2 -213.9,505.2    " />
        <polyline
           style="fill:#11b3ef"
           id="polyline14"
           points="-248.2,505.2 -253.2,505.2 -253.2,510.2 -248.2,510.2 -248.2,505.2    " />
      </g>
      <path
         style="fill:#b0b2b4;fill-opacity:1;stroke-width:0.03425583"
         inkscape:connector-curvature="0"
         id="path56"
         d="M 7.7887483,287.51896 H 7.5657481 c -0.024015,0 -0.0446,0.0308 -0.0446,0.0718 v 0.40704 H 7.1128862 c -0.041169,0 -0.072046,0.0205 -0.072046,0.0445 v 0.22233 c 0,0.0239 0.030877,0.0445 0.072046,0.0445 h 0.4082619 v 0.40703 c 0,0.0411 0.020585,0.0718 0.0446,0.0718 h 0.2230002 c 0.024015,0 0.0446,-0.0308 0.0446,-0.0718 v -0.40703 h 0.4082618 c 0.041169,0 0.072046,-0.0205 0.072046,-0.0445 v -0.22233 c 0,-0.0239 -0.030877,-0.0445 -0.072046,-0.0445 H 7.8333484 v -0.40704 c -0.00343,-0.0411 -0.020585,-0.0718 -0.0446,-0.0718" />
      <rect
         style="fill:#818285;stroke-width:0.03425583"
         id="rect58"
         height="0.034204017"
         width="0.23672327"
         y="288.13806"
         x="7.1471944" />
      <rect
         style="fill:#818285;stroke-width:0.03425583"
         id="rect60"
         height="0.034204017"
         width="0.23672327"
         y="288.13806"
         x="7.9671488" />
      <rect
         style="fill:#818285;stroke-width:0.03425583"
         id="rect62"
         height="0.23600774"
         width="0.034307718"
         y="287.61472"
         x="7.6583796" />
      <rect
         style="fill:#818285;stroke-width:0.03425583"
         id="rect64"
         height="0.23600774"
         width="0.034307718"
         y="288.45615"
         x="7.6583796" />
      <path
         style="fill:#bdbebf;stroke-width:0.03425583"
         inkscape:connector-curvature="0"
         id="path66"
         d="m 6.9636475,287.32741 c -0.1338001,0 -0.240154,-0.10603 -0.240154,-0.23942 0,-0.1334 0.1063539,-0.23943 0.240154,-0.23943 0.1338001,0 0.2401541,0.10603 0.2401541,0.23943 0,0.13339 -0.106354,0.23942 -0.2401541,0.23942 z" />
      <ellipse
         ry="0.22916692"
         rx="0.22986172"
         style="fill:#e7e8e9;stroke-width:0.03425583"
         id="circle68"
         cy="287.08456"
         cx="6.9636478" />
      <path
         style="fill:#bf1e2e;stroke-width:0.03425583"
         inkscape:connector-curvature="0"
         id="path70"
         d="m 6.9636475,287.22138 c -0.061754,0 -0.1097847,-0.0478 -0.1097847,-0.10945 0,-0.0616 0.048031,-0.10945 0.1097847,-0.10945 0.061754,0 0.1097847,0.0478 0.1097847,0.10945 0,0.0616 -0.048031,0.10945 -0.1097847,0.10945 z m 0,-0.1847 c -0.041169,0 -0.075477,0.0342 -0.075477,0.0753 0,0.0411 0.034308,0.0753 0.075477,0.0753 0.041169,0 0.075477,-0.0342 0.075477,-0.0753 0,-0.0411 -0.034308,-0.0753 -0.075477,-0.0753 z" />
      <rect
         style="fill:#e7e8e9;stroke-width:0.03425583"
         id="rect72"
         height="0.20180373"
         width="0.075476989"
         y="286.94434"
         x="6.9259095" />
      <rect
         style="fill:#bf1e2e;stroke-width:0.03425583"
         id="rect74"
         height="0.16759971"
         width="0.034307718"
         y="286.95801"
         x="6.9464936" />
      <path
         style="fill:#b0b2b4;fill-opacity:1;stroke-width:0.03425583"
         inkscape:connector-curvature="0"
         id="path76"
         d="m 7.6772481,290.11162 c -0.2504463,0 -0.4528619,-0.20522 -0.4528619,-0.45491 0,-0.24969 0.2024156,-0.45491 0.4528619,-0.45491 0.2504464,0 0.4528619,0.20522 0.4528619,0.45491 0,0.24969 -0.2024155,0.45491 -0.4528619,0.45491 z" />
      <path
         style="fill:#b0b2b4;fill-opacity:1;stroke-width:0.03425583"
         inkscape:connector-curvature="0"
         id="path84"
         d="m 7.677248,291.25746 c -0.1338001,0 -0.240154,-0.10603 -0.240154,-0.23943 0,-0.13339 0.1063539,-0.23943 0.240154,-0.23943 0.1338001,0 0.2401541,0.10604 0.2401541,0.23943 0,0.1334 -0.106354,0.23943 -0.2401541,0.23943" />
      <path
         style="fill:#b0b2b4;fill-opacity:1;stroke-width:0.03425583"
         inkscape:connector-curvature="0"
         id="path92"
         d="m 6.9670782,291.25746 c -0.1338001,0 -0.240154,-0.10603 -0.240154,-0.23943 0,-0.13339 0.1063539,-0.23943 0.240154,-0.23943 0.1338001,0 0.2401541,0.10604 0.2401541,0.23943 0,0.1334 -0.1097847,0.23943 -0.2401541,0.23943 z" />
      <path
         style="fill:#b0b2b4;fill-opacity:1;stroke-width:0.03425583"
         inkscape:connector-curvature="0"
         id="path100"
         d="m 8.3874178,291.25746 c -0.1338001,0 -0.240154,-0.10603 -0.240154,-0.23943 0,-0.13339 0.1063539,-0.23943 0.240154,-0.23943 0.1338002,0 0.2401541,0.10604 0.2401541,0.23943 0,0.1334 -0.1063539,0.23943 -0.2401541,0.23943 z" />
      <path
         style="fill:#b0b2b4;fill-opacity:1;stroke-width:0.03425583"
         inkscape:connector-curvature="0"
         id="path112"
         d="m 7.677248,293.93564 c -0.1886924,0 -0.3396464,-0.15051 -0.3396464,-0.33863 0,-0.18812 0.150954,-0.33862 0.3396464,-0.33862 0.1886925,0 0.3396465,0.1505 0.3396465,0.33862 0,0.18812 -0.150954,0.33863 -0.3396465,0.33863 z" />
      <path
         style="fill:#b0b2b4;fill-opacity:1;stroke-width:0.03425583"
         inkscape:connector-curvature="0"
         id="path120"
         d="m 7.677248,294.86256 c -0.1886924,0 -0.3396464,-0.1505 -0.3396464,-0.33862 0,-0.18812 0.150954,-0.33862 0.3396464,-0.33862 0.1886925,0 0.3396465,0.1505 0.3396465,0.33862 0,0.18812 -0.150954,0.33862 -0.3396465,0.33862 z" />
      <rect
         style="fill:#7a7b7e;fill-opacity:1;stroke-width:0.03425583"
         id="rect126"
         height="0.331779"
         width="0.068615437"
         y="295.55008"
         x="8.0443411" />
      <rect
         style="fill:#7a7b7e;fill-opacity:1;stroke-width:0.03425583"
         id="rect128"
         height="0.071828432"
         width="0.068615437"
         y="295.4201"
         x="8.0443411" />
      <rect
         style="fill:#7a7b7e;fill-opacity:1;stroke-width:0.03425583"
         id="rect130"
         height="0.331779"
         width="0.068615437"
         y="295.55008"
         x="7.8762331" />
      <rect
         style="fill:#7a7b7e;fill-opacity:1;stroke-width:0.03425583"
         id="rect132"
         height="0.071828432"
         width="0.068615437"
         y="295.4201"
         x="7.8762331" />
      <polygon
         transform="matrix(0.03430772,0,0,0.03420402,15.32787,277.78449)"
         style="fill:#7a7b7e;fill-opacity:1"
         id="polygon134"
         points="-227.3,519.5 -230.1,529.2 -232,529.2 -235.7,516.1 -233.8,515.5 -231,525.3 -228.2,515.5 -226.3,515.5 -223.6,525.3 -220.8,515.5 -218.9,516.1 -222.6,529.2 -224.5,529.2 " />
      <rect
         y="287.39575"
         x="6.1149302"
         height="1.573225"
         width="2.6900308"
         id="rect5214"
         style="opacity:1;vector-effect:none;fill:none;fill-opacity:1;stroke:none;stroke-width:0.10857928;stroke-linecap:round;stroke-linejoin:round;stroke-miterlimit:4;stroke-dasharray:none;stroke-dashoffset:0;stroke-opacity:1;paint-order:normal" />
      <ellipse
         ry="0.051306032"
         rx="0.051461581"
         style="stroke-width:0.03425583"
         id="circle18-5"
         cy="292.54013"
         cx="7.934556" />
      <ellipse
         ry="0.051306032"
         rx="0.051461581"
         style="stroke-width:0.03425583"
         id="circle20-6"
         cy="292.54013"
         cx="7.677248" />
      <ellipse
         ry="0.051306032"
         rx="0.051461581"
         style="stroke-width:0.03425583"
         id="circle22-6"
         cy="292.54013"
         cx="7.41994" />
      <ellipse
         ry="0.051306032"
         rx="0.051461581"
         style="stroke-width:0.03425583"
         id="circle24-4"
         cy="292.33487"
         cx="7.934556" />
      <ellipse
         ry="0.051306032"
         rx="0.051461581"
         style="stroke-width:0.03425583"
         id="circle26-0"
         cy="292.33487"
         cx="7.677248" />
      <ellipse
         ry="0.051306032"
         rx="0.051461581"
         style="stroke-width:0.03425583"
         id="circle28-0"
         cy="292.33487"
         cx="7.41994" />
      <ellipse
         ry="0.034204017"
         rx="0.034307718"
         style="stroke-width:0.03425583"
         id="circle30-4"
         cy="292.12964"
         cx="7.934556" />
      <ellipse
         ry="0.034204017"
         rx="0.034307718"
         style="stroke-width:0.03425583"
         id="circle32-6"
         cy="292.12964"
         cx="7.677248" />
      <ellipse
         ry="0.034204017"
         rx="0.034307718"
         style="stroke-width:0.03425583"
         id="circle34-2"
         cy="292.12964"
         cx="7.41994" />
      <ellipse
         ry="0.017102009"
         rx="0.017153859"
         style="stroke-width:0.03425583"
         id="circle36-6"
         cy="291.92444"
         cx="7.934556" />
      <ellipse
         ry="0.017102009"
         rx="0.017153859"
         style="stroke-width:0.03425583"
         id="circle38-7"
         cy="291.92444"
         cx="7.677248" />
      <ellipse
         ry="0.017102009"
         rx="0.017153859"
         style="stroke-width:0.03425583"
         id="circle40-5"
         cy="291.92444"
         cx="7.41994" />
      <ellipse
         ry="0.017102009"
         rx="0.017153859"
         style="stroke-width:0.03425583"
         id="circle42-6"
         cy="292.95056"
         cx="7.934556" />
      <ellipse
         ry="0.017102009"
         rx="0.017153859"
         style="stroke-width:0.03425583"
         id="circle44-9"
         cy="292.95056"
         cx="7.677248" />
      <ellipse
         ry="0.017102009"
         rx="0.017153859"
         style="stroke-width:0.03425583"
         id="circle46-8"
         cy="292.95056"
         cx="7.41994" />
      <ellipse
         ry="0.034204017"
         rx="0.034307718"
         style="stroke-width:0.03425583"
         id="circle48-7"
         cy="292.74533"
         cx="7.934556" />
      <ellipse
         ry="0.034204017"
         rx="0.034307718"
         style="stroke-width:0.03425583"
         id="circle50-2"
         cy="292.74533"
         cx="7.677248" />
      <ellipse
         ry="0.034204017"
         rx="0.034307718"
         style="stroke-width:0.03425583"
         id="circle52-8"
         cy="292.74533"
         cx="7.41994" />
    </g>
  </g>
</svg>
