<?xml version="1.0" encoding="UTF-8" standalone="no"?>
<svg
   xmlns:dc="http://purl.org/dc/elements/1.1/"
   xmlns:cc="http://creativecommons.org/ns#"
   xmlns:rdf="http://www.w3.org/1999/02/22-rdf-syntax-ns#"
   xmlns:svg="http://www.w3.org/2000/svg"
   xmlns="http://www.w3.org/2000/svg"
   xmlns:sodipodi="http://sodipodi.sourceforge.net/DTD/sodipodi-0.dtd"
   xmlns:inkscape="http://www.inkscape.org/namespaces/inkscape"
   id="svg"
   version="1.1"
   width="400"
   height="400"
   viewBox="0, 0, 400,400"
   sodipodi:docname="gamepad_generic.svg"
   inkscape:version="0.92.5 (2060ec1f9f, 2020-04-08)">
  <metadata
     id="metadata17">
    <rdf:RDF>
      <cc:Work
         rdf:about="">
        <dc:format>image/svg+xml</dc:format>
        <dc:type
           rdf:resource="http://purl.org/dc/dcmitype/StillImage" />
      </cc:Work>
    </rdf:RDF>
  </metadata>
  <defs
     id="defs15" />
  <sodipodi:namedview
     pagecolor="#ffffff"
     bordercolor="#666666"
     borderopacity="1"
     objecttolerance="10"
     gridtolerance="10"
     guidetolerance="10"
     inkscape:pageopacity="0"
     inkscape:pageshadow="2"
     inkscape:window-width="3840"
     inkscape:window-height="2065"
     id="namedview13"
     showgrid="false"
     inkscape:zoom="2.1087891"
     inkscape:cx="-11.236968"
     inkscape:cy="222.1241"
     inkscape:window-x="0"
     inkscape:window-y="0"
     inkscape:window-maximized="1"
     inkscape:current-layer="svg" />
  <path
     style="fill:#262626;fill-rule:evenodd;stroke:none"
     inkscape:connector-curvature="0"
     d="m 87.936,158.017 c -34.522,0.304 -34.046,0.277 -36.837,2.056 -6.278,4.001 -7.181,6.614 -7.022,20.304 L 44.2,191 l 1.181,2.132 c 1.312,2.369 5.309,6.296 7.221,7.094 1.162,0.486 59.358,1.199 122.198,1.497 l 16.2,0.077 0.115,3.679 0.114,3.679 -1.514,0.24 c -0.833,0.132 -2.145,0.337 -2.915,0.457 -0.77,0.12 -2.12,0.543 -3,0.94 -0.88,0.397 -2.77,1.209 -4.2,1.804 -8.971,3.732 -25.068,12.325 -26.085,13.925 -1.616,2.542 3.163,15.161 5.966,15.754 1.994,0.423 77.75,0.419 80.224,-0.003 2.303,-0.394 2.701,-1.04 5.136,-8.349 2.283,-6.853 2.112,-7.366 -3.441,-10.33 -0.66,-0.352 -3.09,-1.657 -5.4,-2.899 -11.551,-6.21 -21.108,-10.554 -24.058,-10.935 -4.047,-0.521 -3.99,-0.455 -3.858,-4.458 l 0.116,-3.504 16.4,-0.077 c 75.233,-0.352 120.816,-0.983 122.4,-1.694 2.598,-1.167 6.796,-5.851 7.573,-8.45 0.891,-2.98 0.952,-20.785 0.082,-23.669 -0.978,-3.239 -4.264,-6.897 -7.809,-8.693 -2.945,-1.492 -148.768,-2.168 -258.91,-1.2 m 230.664,2.367 c 16.903,0.227 26.395,0.501 27.128,0.783 2.851,1.098 6.544,5.336 6.978,8.007 l 0.231,1.423 -2.132,-1.917 c -1.173,-1.054 -3.139,-2.404 -4.369,-2.998 L 344.2,164.6 H 199.96 c -107.741,0.001 -144.483,0.117 -145.2,0.46 -0.528,0.253 -1.59,0.687 -2.36,0.964 -0.77,0.278 -2.443,1.396 -3.719,2.484 -2.256,1.926 -2.311,1.948 -2.062,0.836 0.698,-3.119 3.694,-6.786 6.526,-7.989 2.662,-1.131 199.76,-1.852 265.455,-0.971 m -184.4,9.976 c 3.946,1.831 5.999,5.385 5.71,9.888 -0.793,12.352 -19.027,12.352 -19.82,0 -0.398,-6.203 3.729,-10.63 9.91,-10.63 1.691,0 3.159,0.259 4.2,0.742 m 55.737,3.118 c 5.936,3.415 3.166,13.322 -3.726,13.322 -8.755,0 -10.159,-12.363 -1.639,-14.428 1.688,-0.409 3.314,-0.074 5.365,1.106 m 27.768,-0.824 c 5.063,2.619 5.384,9.805 0.596,13.327 -4.902,3.604 -11.92,-0.146 -11.887,-6.352 0.032,-5.986 6.034,-9.693 11.291,-6.975 m -7.497,3.058 c -2.349,2.349 -1.819,6.349 1.059,8.001 1.248,0.716 4.333,0.951 4.333,0.33 0,-0.196 0.407,-0.458 0.904,-0.583 1.267,-0.318 2.298,-2.268 2.285,-4.322 -0.027,-4.329 -5.495,-6.512 -8.581,-3.426 m 43.302,1.491 c 1.273,1.896 1.49,1.898 2.673,0.023 0.967,-1.531 1.911,-2.045 2.375,-1.294 0.113,0.183 -0.431,1.279 -1.21,2.435 l -1.416,2.102 1.444,2.174 c 1.26,1.898 1.358,2.208 0.765,2.435 -0.64,0.246 -2.941,-1.916 -2.941,-2.763 0,-0.76 -0.775,-0.192 -1.753,1.285 -0.644,0.974 -1.369,1.6 -1.853,1.6 -1.045,0 -1.031,-0.055 0.647,-2.583 l 1.442,-2.171 -1.413,-2.108 c -0.777,-1.159 -1.319,-2.259 -1.204,-2.445 0.409,-0.661 1.52,-0.066 2.444,1.31 m 12.305,-0.791 c 0.691,0.574 0.781,2.62 0.134,3.02 -0.307,0.189 -0.234,0.4 0.225,0.658 3.169,1.773 0.513,5.279 -3.812,5.033 L 260.2,185 l -0.124,-1.944 c -0.097,-1.527 -0.29,-1.987 -0.9,-2.146 -1.012,-0.265 -0.997,-1.186 0.024,-1.51 0.613,-0.195 0.8,-0.605 0.8,-1.76 0,-0.829 0.135,-1.646 0.3,-1.815 0.437,-0.451 4.828,0.017 5.515,0.587 m 9.718,0.258 c 1.474,0.935 2.239,3.178 1.699,4.981 -1.361,4.541 -7.796,4.901 -9.243,0.517 -1.51,-4.576 3.379,-8.139 7.544,-5.498 m 5.177,0.783 c 1.202,1.847 1.207,1.849 1.698,0.9 0.708,-1.37 2.045,-2.753 2.662,-2.753 0.853,0 0.616,0.943 -0.659,2.629 -1.491,1.971 -1.494,2.455 -0.022,4.4 1.4,1.851 1.513,2.571 0.402,2.571 -0.519,0 -1.205,-0.625 -1.914,-1.743 l -1.105,-1.743 -1.186,1.742 c -0.652,0.958 -1.501,1.743 -1.886,1.743 -1.003,10e-4 -0.85,-0.772 0.511,-2.57 0.654,-0.864 1.189,-1.867 1.189,-2.229 0,-0.362 -0.535,-1.365 -1.189,-2.229 -1.381,-1.825 -1.514,-2.571 -0.458,-2.571 0.455,0 1.229,0.732 1.957,1.853 m 15.416,-1.393 c 1.603,0.843 1.994,2.562 0.845,3.711 -0.345,0.346 -0.431,0.629 -0.19,0.629 0.607,0 1.291,1.944 1.003,2.85 -0.889,2.803 -6.984,2.584 -6.984,-0.25 0,-0.849 0.946,-0.744 1.8,0.2 0.867,0.958 2.697,1.047 3.428,0.166 0.756,-0.911 -0.007,-1.92 -1.638,-2.166 -0.729,-0.11 -1.401,-0.425 -1.491,-0.7 -0.17,-0.514 0.095,-0.656 2.027,-1.081 0.879,-0.193 1.098,-0.442 1,-1.133 -0.158,-1.111 -2.316,-1.463 -3.109,-0.506 -0.633,0.762 -1.617,0.813 -1.617,0.082 0,-1.61 3.122,-2.752 4.926,-1.802 m 8.42,0.369 c 1.13,0.889 1.406,1.971 0.503,1.971 -0.303,0 -0.775,-0.27 -1.049,-0.6 -0.73,-0.88 -2.263,-0.731 -2.977,0.289 -0.841,1.2 -0.784,1.625 0.151,1.125 3.047,-1.631 6.148,2.62 3.803,5.212 -1.275,1.408 -4.322,1.081 -5.344,-0.573 -2.749,-4.448 1.169,-10.369 4.913,-7.424 m 7.208,-0.377 c 1.621,0.739 2.538,3.78 1.878,6.231 -1.246,4.627 -6.513,3.929 -7.09,-0.939 -0.483,-4.082 2.104,-6.708 5.212,-5.292 m -128.372,0.93 c -1.215,1.214 -1.275,2.938 -0.153,4.364 1.761,2.239 5.971,0.78 5.971,-2.069 0,-2.88 -3.753,-4.36 -5.818,-2.295 m 32.202,-0.59 c 1.096,0.586 1.662,2.557 1.153,4.016 -1.224,3.512 -6.784,2.132 -6.197,-1.537 0.386,-2.409 2.883,-3.636 5.044,-2.479 M 261.6,178.2 c 0,0.967 0.117,1.039 1.5,0.924 1.192,-0.099 1.5,-0.288 1.5,-0.924 0,-0.636 -0.308,-0.825 -1.5,-0.924 -1.383,-0.115 -1.5,-0.043 -1.5,0.924 m 10,-0.725 c -3.178,1.213 -2.37,6.525 0.993,6.525 1.104,0 3.008,-2.203 2.998,-3.469 -0.016,-2.06 -2.206,-3.736 -3.991,-3.056 m 37.213,0.309 c -1.505,1.814 -0.55,6.216 1.348,6.216 1.399,0 2.01,-1.033 2.01,-3.4 0,-2.998 -1.891,-4.583 -3.358,-2.816 m -7.533,3.096 c -1.123,1.123 -0.387,3.12 1.149,3.12 1.729,0 2.534,-1.78 1.342,-2.971 -0.748,-0.749 -1.827,-0.813 -2.491,-0.149 m -39.68,1.52 c 0,1.816 1.321,2.231 3.111,0.977 1.686,-1.181 0.665,-2.577 -1.885,-2.577 -1.164,0 -1.226,0.081 -1.226,1.6 m -52.756,41.853 c 0.701,0.845 0.074,1.178 -0.773,0.411 -1.093,-0.989 -1.976,-0.809 -2.677,0.548 -1.164,2.25 1.421,4.95 2.858,2.984 0.769,-1.051 1.478,-0.56 0.732,0.506 -1.881,2.685 -5.83,-0.207 -4.784,-3.503 0.529,-1.666 3.538,-2.279 4.644,-0.946 M 185.6,224.8 c 0,0.66 0.102,1.2 0.226,1.2 0.124,0 0.68,-0.54 1.235,-1.2 0.556,-0.66 1.295,-1.2 1.644,-1.2 0.511,0 0.466,0.18 -0.235,0.926 -1.136,1.208 -1.097,1.942 0.18,3.46 0.577,0.686 0.92,1.375 0.763,1.531 -0.158,0.156 -0.901,-0.437 -1.651,-1.317 -1.448,-1.699 -2.142,-1.538 -2.156,0.5 -0.003,0.495 -0.186,0.9 -0.406,0.9 -0.231,0 -0.4,-1.267 -0.4,-3 0,-1.733 0.169,-3 0.4,-3 0.22,0 0.4,0.54 0.4,1.2 m 6,1.8 c 0,2.4 -0.12,3 -0.6,3 -0.48,0 -0.6,-0.6 -0.6,-3 0,-2.4 0.12,-3 0.6,-3 0.48,0 0.6,0.6 0.6,3 m 3.417,-1.038 c 1.383,2.295 1.783,2.253 1.783,-0.186 0,-0.977 0.18,-1.776 0.4,-1.776 0.231,0 0.4,1.267 0.4,3 0,3.688 -0.513,3.877 -2.44,0.9 l -1.36,-2.1 -0.121,2.1 c -0.185,3.209 -0.879,2.498 -0.879,-0.9 0,-3.632 0.51,-3.87 2.217,-1.038 M 202.6,224 c -0.44,0.189 -1.295,0.356 -1.9,0.372 -1.976,0.05 -1.492,1.628 0.5,1.628 2.025,0 2.106,0.71 0.1,0.876 -2.456,0.203 -2.136,1.683 0.4,1.846 2.723,0.175 2.35,0.878 -0.466,0.878 h -2.366 l -0.151,-2.7 c -0.193,-3.426 -0.281,-3.305 2.407,-3.272 1.641,0.02 2.053,0.124 1.476,0.372 m 11.4,-0.043 c -0.923,0.255 -1.009,0.483 -1.118,2.96 -0.065,1.475 -0.282,2.683 -0.482,2.683 -0.2,0 -0.417,-1.208 -0.482,-2.683 -0.109,-2.477 -0.195,-2.705 -1.118,-2.96 -0.638,-0.177 -0.059,-0.277 1.6,-0.277 1.659,0 2.238,0.1 1.6,0.277 m -55.531,4.663 c 8.177,2.299 15.004,3.027 20.331,2.168 1.87,-0.301 4.199,-0.518 5.175,-0.482 0.977,0.037 2.012,-0.129 2.3,-0.368 0.379,-0.315 0.836,-0.306 1.649,0.03 1.315,0.545 5.827,0.337 6.6,-0.305 0.389,-0.323 0.736,-0.304 1.303,0.071 0.901,0.596 7.305,0.849 8.114,0.321 0.338,-0.22 0.993,-0.127 1.746,0.248 1.082,0.54 1.344,0.535 2.572,-0.051 1.587,-0.756 2.779,-0.837 3.165,-0.214 0.149,0.242 0.832,0.351 1.523,0.242 0.689,-0.108 3.847,0.237 7.019,0.768 l 5.765,0.963 5.835,-1.013 c 5.52,-0.958 13.35,-2.775 14.187,-3.292 0.211,-0.131 0.038,0.24 -0.385,0.823 -0.807,1.115 -1.157,1.246 -7.568,2.821 -9.83,2.415 -25.646,4.23 -36.982,4.243 -18.551,0.023 -46.026,-4.617 -47.14,-7.96 -0.134,-0.4 0.019,-0.481 0.53,-0.285 0.395,0.151 2.313,0.724 4.261,1.272"
     id="path0" />
  <path
     style="fill:#6b8c8b;fill-rule:evenodd;stroke:none"
     inkscape:connector-curvature="0"
     d="m 125.936,173.155 c -5.234,3.319 -4.458,10.996 1.357,13.426 3.618,1.512 7.619,-0.108 9.546,-3.865 C 139.32,177.878 135.568,172 130,172 c -1.786,0 -2.615,0.235 -4.064,1.155 m 6.282,4.227 c 1.376,1.376 1.305,3.157 -0.187,4.649 -2.256,2.255 -5.631,0.918 -5.631,-2.231 0,-3.054 3.661,-4.575 5.818,-2.418 m -4.148,0.744 c -1.626,1.73 -0.64,3.874 1.781,3.874 1.535,0 2.149,-0.645 2.149,-2.257 0,-2.312 -2.364,-3.284 -3.93,-1.617"
     id="path2" />
  <path
     style="fill:#989a98;fill-rule:evenodd;stroke:none"
     inkscape:connector-curvature="0"
     d="m 58.521,158.298 c 2.156,0.073 5.576,0.072 7.6,0 2.023,-0.073 0.259,-0.132 -3.921,-0.131 -4.18,0 -5.836,0.059 -3.679,0.131 M 339.1,158.295 c 1.155,0.081 3.045,0.081 4.2,0 1.155,-0.081 0.21,-0.147 -2.1,-0.147 -2.31,0 -3.255,0.066 -2.1,0.147 m -77.746,19.082 c -0.122,0.317 -0.137,0.902 -0.034,1.3 0.125,0.483 0.203,0.366 0.234,-0.353 0.04,-0.938 0.238,-1.096 1.546,-1.233 l 1.5,-0.157 -1.513,-0.067 c -0.996,-0.044 -1.588,0.13 -1.733,0.51 m -50.126,0.943 c -0.111,3.633 3.87,4.628 4.794,1.198 0.237,-0.879 0.329,-1.701 0.204,-1.825 -0.124,-0.125 -0.226,0.102 -0.226,0.502 0,0.681 -0.048,0.685 -0.731,0.067 -0.927,-0.839 -2.216,-0.849 -2.901,-0.023 -0.482,0.58 -0.557,0.571 -0.821,-0.1 -0.253,-0.644 -0.294,-0.62 -0.319,0.181 m 47.37,1.683 c -0.137,0.221 0.078,0.519 0.477,0.662 0.399,0.142 0.888,0.348 1.087,0.458 0.199,0.111 0.233,-0.007 0.076,-0.261 -0.157,-0.254 -0.555,-0.462 -0.885,-0.462 -0.33,0 -0.489,-0.18 -0.353,-0.4 0.136,-0.22 0.157,-0.4 0.047,-0.4 -0.11,0 -0.312,0.181 -0.449,0.403 m 3.707,0.68 c 0.497,0.096 1.217,0.092 1.6,-0.008 0.382,-0.1 -0.025,-0.179 -0.905,-0.174 -0.88,0.004 -1.193,0.086 -0.695,0.182 m -1.004,1.917 c 0.004,0.88 0.086,1.193 0.182,0.695 0.096,-0.497 0.092,-1.217 -0.008,-1.6 -0.1,-0.382 -0.179,0.025 -0.174,0.905 m -70.422,22.867 c -0.052,2.175 -0.246,3.334 -0.579,3.468 -0.392,0.158 -0.389,0.209 0.013,0.233 0.778,0.048 0.938,-0.765 0.785,-4.005 l -0.139,-2.963 -0.08,3.267 m 18.321,3.738 c 0.33,0.211 1.125,0.386 1.767,0.389 1.547,0.008 1.21,-0.223 -0.767,-0.526 -1.09,-0.167 -1.409,-0.123 -1,0.137 m -9.095,14.682 c 0.609,0.092 1.509,0.09 2,-0.005 0.492,-0.095 -0.005,-0.171 -1.105,-0.168 -1.1,0.003 -1.503,0.081 -0.895,0.173 m 11.195,0 c 0.605,0.091 1.595,0.091 2.2,0 0.605,-0.092 0.11,-0.167 -1.1,-0.167 -1.21,0 -1.705,0.075 -1.1,0.167"
     id="path3" />
  <path
     style="fill:#848684;fill-rule:evenodd;stroke:none"
     inkscape:connector-curvature="0"
     d="m 260.101,177.8 c 0.004,0.88 0.086,1.193 0.182,0.695 0.096,-0.497 0.092,-1.217 -0.008,-1.6 -0.1,-0.382 -0.179,0.025 -0.174,0.905 m -49.292,1.138 c -0.032,2.651 3.07,4.142 4.849,2.332 0.839,-0.854 1.342,-2.47 0.769,-2.47 -0.235,0 -0.427,0.347 -0.427,0.771 0,2.547 -3.293,2.792 -4.411,0.329 -0.424,-0.935 -0.775,-1.368 -0.78,-0.962 M 260.114,183 c 0.003,1.1 0.081,1.503 0.173,0.895 0.092,-0.609 0.09,-1.509 -0.005,-2 -0.095,-0.492 -0.171,0.005 -0.168,1.105 m -69.18,43.4 c 0,1.65 0.071,2.325 0.157,1.5 0.087,-0.825 0.087,-2.175 0,-3 -0.086,-0.825 -0.157,-0.15 -0.157,1.5 m 2.421,-0.1 c -0.017,2.213 0.007,2.318 0.133,0.581 l 0.153,-2.119 0.789,0.919 c 0.717,0.836 0.711,0.783 -0.06,-0.581 -1.067,-1.885 -0.991,-1.975 -1.015,1.2 m 5.976,0.3 c 0.002,1.54 0.074,2.121 0.161,1.291 0.087,-0.83 0.085,-2.09 -0.003,-2.8 -0.089,-0.71 -0.16,-0.031 -0.158,1.509 m 12.8,0 c 0.002,1.54 0.074,2.121 0.161,1.291 0.087,-0.83 0.085,-2.09 -0.003,-2.8 -0.089,-0.71 -0.16,-0.031 -0.158,1.509 m -24.569,0.929 c 0.243,0.455 0.639,0.948 0.88,1.097 0.314,0.194 0.312,0.036 -0.004,-0.555 -0.243,-0.455 -0.639,-0.948 -0.88,-1.097 -0.314,-0.194 -0.312,-0.036 0.004,0.555 m 8.106,0.071 c 0.245,0.741 1.532,1.045 1.532,0.363 0,-0.273 -0.118,-0.378 -0.263,-0.233 -0.145,0.145 -0.534,0.04 -0.865,-0.233 -0.493,-0.407 -0.566,-0.388 -0.404,0.103 M 160.5,242.687 c 0.605,0.091 1.595,0.091 2.2,0 0.605,-0.092 0.11,-0.167 -1.1,-0.167 -1.21,0 -1.705,0.075 -1.1,0.167 m 76.207,0.003 c 0.719,0.089 1.799,0.087 2.4,-0.004 0.601,-0.091 0.013,-0.164 -1.307,-0.162 -1.32,0.002 -1.812,0.077 -1.093,0.166 M 181.9,243.1 c 9.735,0.06 25.665,0.06 35.4,0 9.735,-0.06 1.77,-0.109 -17.7,-0.109 -19.47,0 -27.435,0.049 -17.7,0.109"
     id="path4" />
  <path
     style="fill:#7c7c7c;fill-rule:evenodd;stroke:none"
     inkscape:connector-curvature="0"
     d="m 86.8,160.436 c -36.085,0.337 -33.691,0.118 -36.948,3.375 -3.623,3.623 -4.626,7.646 -1.171,4.697 1.276,-1.088 2.949,-2.206 3.719,-2.484 0.77,-0.277 1.832,-0.711 2.36,-0.964 0.717,-0.343 37.459,-0.459 145.2,-0.46 H 344.2 l 2.236,1.082 c 1.23,0.594 3.196,1.944 4.369,2.998 l 2.132,1.917 -0.231,-1.423 c -0.434,-2.671 -4.127,-6.909 -6.978,-8.007 -2.736,-1.053 -173.034,-1.534 -258.928,-0.731 m -39.222,2.264 -1.378,1.5 1.5,-1.378 c 1.396,-1.284 1.684,-1.622 1.378,-1.622 -0.066,0 -0.741,0.675 -1.5,1.5 m 78.222,7.66 c -3.946,1.831 -5.999,5.385 -5.71,9.888 0.793,12.352 19.027,12.352 19.82,0 0.398,-6.203 -3.729,-10.63 -9.91,-10.63 -1.691,0 -3.159,0.259 -4.2,0.742 m 229.554,4.04 c 0,2.75 0.064,3.875 0.142,2.5 0.078,-1.375 0.078,-3.625 0,-5 -0.078,-1.375 -0.142,-0.25 -0.142,2.5 m -221.29,-1.245 c 5.234,3.319 4.458,10.996 -1.357,13.426 -3.618,1.512 -7.619,-0.108 -9.546,-3.865 C 120.68,177.878 124.432,172 130,172 c 1.786,0 2.615,0.235 4.064,1.155 m 50.508,-0.783 c -7.079,1.716 -7.803,11.704 -1.012,13.974 6.32,2.112 11.667,-4.042 8.868,-10.208 -1.203,-2.648 -4.985,-4.462 -7.856,-3.766 m 25.639,0.304 c -6.941,3.755 -4.133,14.524 3.788,14.524 4.635,0 7.613,-3.001 7.587,-7.647 -0.033,-5.913 -6.232,-9.661 -11.375,-6.877 m 7.431,3.353 c 1.934,2.333 1.245,6.833 -1.138,7.431 -0.497,0.125 -0.904,0.387 -0.904,0.583 0,1.487 -5.067,-0.233 -6.165,-2.092 -3.1,-5.247 4.325,-10.603 8.207,-5.922 m 39.107,0.271 c -0.497,0.633 -0.483,0.648 0.146,0.155 0.382,-0.299 0.976,-0.436 1.321,-0.304 0.36,0.138 0.522,0.072 0.381,-0.156 -0.378,-0.611 -1.241,-0.468 -1.848,0.305 m 3.503,-0.384 c -0.108,0.174 0.466,0.254 1.276,0.177 2.474,-0.234 2.765,-0.398 0.796,-0.447 -1.032,-0.025 -1.965,0.096 -2.072,0.27 m -72.033,1.142 c 2.06,2.223 0.559,5.342 -2.572,5.342 -2.921,0 -4.325,-3.358 -2.265,-5.418 1.376,-1.376 3.523,-1.342 4.837,0.076 m -60.837,0.324 c -2.075,2.075 -0.64,5.818 2.231,5.818 1.701,0 3.587,-1.886 3.587,-3.587 0,-2.871 -3.743,-4.306 -5.818,-2.231 m 83.869,-0.444 c -1.105,1.332 -0.509,6.053 0.622,4.923 0.115,-0.115 -0.08,-0.621 -0.432,-1.124 -0.789,-1.126 -0.802,-1.819 -0.062,-3.237 0.624,-1.196 0.575,-1.409 -0.128,-0.562 m -80.14,0.885 c 0.991,0.694 1.232,2.874 0.409,3.697 -0.693,0.693 -2.736,0.59 -3.589,-0.182 -2.118,-1.917 0.822,-5.167 3.18,-3.515 m 85.413,1.058 c 0.036,1.575 -0.981,3.119 -2.053,3.119 -0.332,0 -0.498,0.106 -0.368,0.237 1.108,1.107 3.4,-2.17 2.738,-3.914 -0.3,-0.79 -0.346,-0.709 -0.317,0.558 m 39.854,0.35 c -0.702,0.986 -0.775,1.324 -0.369,1.7 0.392,0.362 0.443,0.354 0.224,-0.034 -0.156,-0.276 0.1,-1.041 0.569,-1.7 0.469,-0.658 0.762,-1.197 0.652,-1.197 -0.11,0 -0.594,0.554 -1.076,1.231 M 263,179.2 l -1.6,0.286 1.476,0.057 c 0.812,0.031 1.588,-0.123 1.724,-0.343 0.136,-0.22 0.192,-0.374 0.124,-0.343 -0.068,0.031 -0.844,0.185 -1.724,0.343 m 38.219,-0.02 c -0.319,0.202 -0.724,0.278 -0.9,0.17 -0.175,-0.108 -0.319,0.013 -0.319,0.269 0,0.292 0.262,0.354 0.7,0.167 1.422,-0.608 2.926,-0.663 3.604,-0.132 0.63,0.494 0.644,0.48 0.147,-0.154 -0.589,-0.752 -2.285,-0.92 -3.232,-0.32 m 5.29,1.22 c 0,0.99 0.078,1.395 0.173,0.9 0.096,-0.495 0.096,-1.305 0,-1.8 -0.095,-0.495 -0.173,-0.09 -0.173,0.9 m -53.362,-0.702 c 0.468,0.596 0.45,0.858 -0.123,1.8 l -0.671,1.102 0.823,-0.944 c 1.004,-1.151 1.019,-1.405 0.124,-2.107 -0.634,-0.497 -0.648,-0.483 -0.153,0.149 m 16.146,0.702 c 0,0.77 0.082,1.085 0.183,0.7 0.1,-0.385 0.1,-1.015 0,-1.4 -0.101,-0.385 -0.183,-0.07 -0.183,0.7 m 23.685,-0.365 c -0.41,0.664 0.416,1.254 1.476,1.053 0.868,-0.164 0.856,-0.184 -0.154,-0.234 -1.324,-0.065 -1.461,-0.729 -0.2,-0.972 0.9,-0.173 0.9,-0.173 0.024,-0.228 -0.482,-0.029 -0.998,0.142 -1.146,0.381 m 7.902,0.845 c -0.553,0.553 -0.643,2.172 -0.138,2.484 0.188,0.117 0.257,-0.234 0.153,-0.778 -0.104,-0.545 0.034,-1.26 0.307,-1.588 0.592,-0.714 0.359,-0.799 -0.322,-0.118 m 54.473,4.12 c 0,2.64 0.065,3.668 0.144,2.284 0.078,-1.383 0.077,-3.543 -0.002,-4.8 -0.079,-1.256 -0.143,-0.124 -0.142,2.516 M 306.8,183.064 c 0,0.218 0.495,0.833 1.1,1.366 l 1.1,0.97 -1,-1.2 c -0.55,-0.66 -1.045,-1.275 -1.1,-1.367 -0.055,-0.091 -0.1,0.012 -0.1,0.231 m -45.495,2.023 c 0.609,0.092 1.509,0.09 2,-0.005 0.492,-0.095 -0.005,-0.171 -1.105,-0.168 -1.1,0.003 -1.503,0.081 -0.895,0.173 m 89.28,12.213 -1.985,2.1 2.1,-1.985 c 1.951,-1.844 2.283,-2.215 1.985,-2.215 -0.063,0 -1.008,0.945 -2.1,2.1 m -286.109,3.799 c 2.792,0.068 7.472,0.069 10.4,0 2.928,-0.068 0.644,-0.124 -5.076,-0.125 -5.72,0 -8.116,0.056 -5.324,0.125 m 260.024,0 c 2.805,0.069 7.395,0.069 10.2,0 2.805,-0.069 0.51,-0.125 -5.1,-0.125 -5.61,0 -7.905,0.056 -5.1,0.125 M 91.929,201.5 c 6.45,0.062 16.89,0.062 23.2,0 6.309,-0.062 1.031,-0.113 -11.729,-0.113 -12.76,0 -17.922,0.051 -11.471,0.113 m 192.571,0 c 6.325,0.062 16.675,0.062 23,0 6.325,-0.062 1.15,-0.113 -11.5,-0.113 -12.65,0 -17.825,0.051 -11.5,0.113 m -141.37,0.4 c 8.871,0.06 23.271,0.06 32,0 8.728,-0.06 1.47,-0.109 -16.13,-0.109 -17.6,0 -24.742,0.049 -15.87,0.109 m 65.137,-0.033 c -0.368,0.368 -0.338,6.842 0.033,7.073 0.165,0.102 0.242,-1.416 0.172,-3.375 l -0.129,-3.56 32.129,-0.105 32.128,-0.105 -32.033,-0.097 c -17.619,-0.054 -32.154,0.022 -32.3,0.169 M 184.8,226.6 c 0,3.907 0.582,3.904 0.66,-0.004 0.034,-1.648 -0.101,-2.996 -0.3,-2.996 -0.198,0 -0.36,1.35 -0.36,3 m 2.365,-1.963 c -0.504,0.537 -0.724,1.106 -0.541,1.401 0.206,0.335 0.116,0.424 -0.277,0.274 -0.39,-0.15 -0.605,0.058 -0.647,0.627 -0.049,0.643 0.021,0.712 0.287,0.282 0.292,-0.472 0.46,-0.48 0.983,-0.046 0.65,0.54 0.778,0.358 0.644,-0.915 -0.043,-0.407 0.3,-1.142 0.761,-1.634 0.646,-0.687 0.701,-0.893 0.239,-0.893 -0.33,0 -0.982,0.407 -1.449,0.904 m 3.314,1.863 c -0.064,2.524 0.032,3.1 0.521,3.1 0.488,0 0.587,-0.579 0.528,-3.1 l -0.072,-3.1 -0.246,3 -0.246,3 -0.203,-3 -0.202,-3 -0.08,3.1 m 2.381,0 c -0.033,1.705 0.075,3.1 0.24,3.1 0.165,0 0.249,-0.945 0.186,-2.1 -0.206,-3.782 -0.365,-4.155 -0.426,-1 m 3.94,-1.333 c 0,0.862 -0.121,1.882 -0.268,2.266 -0.183,0.476 -0.119,0.606 0.2,0.409 0.304,-0.188 0.468,0.022 0.468,0.596 0,0.876 -0.01,0.877 -0.858,0.124 -0.854,-0.758 -0.856,-0.757 -0.386,0.138 1.003,1.912 1.644,1.093 1.644,-2.1 0,-1.733 -0.169,-3 -0.4,-3 -0.22,0 -0.4,0.705 -0.4,1.567 m 1.982,-1.367 c -0.119,0.22 -0.149,1.615 -0.065,3.1 l 0.151,2.7 h 2.366 c 1.301,0 2.366,-0.163 2.366,-0.361 0,-0.503 -3.983,-0.736 -4.072,-0.239 -0.04,0.22 -0.175,-0.95 -0.3,-2.6 -0.125,-1.65 -0.326,-2.82 -0.446,-2.6 m 6.005,0.613 c -1.917,1.917 -0.407,5.224 2.315,5.068 1.541,-0.089 3.355,-1.881 1.904,-1.881 -0.417,0 -0.609,0.215 -0.484,0.542 0.404,1.051 -2.63,0.594 -3.165,-0.478 -0.323,-0.648 -0.532,-0.771 -0.68,-0.4 -0.118,0.295 -0.228,0.03 -0.245,-0.588 -0.018,-0.618 0.122,-1.028 0.31,-0.912 0.36,0.222 1.418,-1.737 1.106,-2.049 -0.1,-0.1 -0.577,0.214 -1.061,0.698 m 3.065,-0.497 c -0.29,0.47 0.85,1.515 1.234,1.131 0.146,-0.146 -0.017,-0.549 -0.362,-0.895 -0.375,-0.374 -0.728,-0.47 -0.872,-0.236 m -7.752,0.36 c 0.385,0.1 1.015,0.1 1.4,0 0.385,-0.101 0.07,-0.183 -0.7,-0.183 -0.77,0 -1.085,0.082 -0.7,0.183 m 12.233,2.525 c -0.073,1.54 -0.013,2.8 0.134,2.8 0.147,-0.001 0.327,-1.261 0.4,-2.802 0.073,-1.54 0.013,-2.8 -0.134,-2.8 -0.147,0.001 -0.327,1.261 -0.4,2.802 m -18.49,-2.07 c -0.331,0.535 1.331,2.932 1.822,2.629 0.347,-0.214 0.023,-0.986 -0.975,-2.321 -0.384,-0.514 -0.658,-0.614 -0.847,-0.308 m 5.757,1.78 c 0,0.354 0.489,0.463 1.6,0.358 0.88,-0.084 1.6,-0.314 1.6,-0.511 0,-0.197 -0.72,-0.358 -1.6,-0.358 -1.031,0 -1.6,0.182 -1.6,0.511 m 46.272,0.243 c 0.312,1.192 -3.867,2.432 -14.306,4.244 l -5.835,1.013 -5.765,-0.963 c -3.172,-0.531 -6.33,-0.876 -7.019,-0.768 -0.691,0.109 -1.374,0 -1.523,-0.242 -0.386,-0.623 -1.578,-0.542 -3.165,0.214 -1.228,0.586 -1.49,0.591 -2.572,0.051 -0.753,-0.375 -1.408,-0.468 -1.746,-0.248 -0.809,0.528 -7.213,0.275 -8.114,-0.321 -0.567,-0.375 -0.914,-0.394 -1.303,-0.071 -0.773,0.642 -5.285,0.85 -6.6,0.305 -0.813,-0.336 -1.27,-0.345 -1.649,-0.03 -0.288,0.239 -1.323,0.405 -2.3,0.368 -0.976,-0.036 -3.305,0.181 -5.175,0.482 -5.441,0.878 -12.614,0.07 -20.998,-2.365 -4.04,-1.173 -4.497,-1.224 -4.017,-0.447 1.968,3.183 29.477,7.639 47.033,7.617 22.22,-0.026 50.766,-5.942 45.219,-9.37 -0.199,-0.123 -0.273,0.116 -0.165,0.531 m -57.546,2.15 c 0.469,0.468 0.98,0.724 1.136,0.567 0.367,-0.367 -0.46,-1.194 -1.321,-1.321 -0.544,-0.08 -0.51,0.058 0.185,0.754"
     id="path5" />
  <path
     style="fill:#bcbcbc;fill-rule:evenodd;stroke:none"
     inkscape:connector-curvature="0"
     d="m 351.2,162.2 c 0.746,0.77 1.447,1.4 1.557,1.4 0.11,0 -0.411,-0.63 -1.157,-1.4 -0.746,-0.77 -1.447,-1.4 -1.557,-1.4 -0.11,0 0.411,0.63 1.157,1.4 m -139.568,15.749 c -0.027,0.799 0.063,0.87 0.568,0.451 0.655,-0.544 0.821,-0.984 0.234,-0.621 -0.201,0.124 -0.457,0 -0.568,-0.277 -0.112,-0.276 -0.217,-0.075 -0.234,0.447 m 4,-0.425 c -0.019,0.309 -0.236,0.4 -0.532,0.223 -0.301,-0.181 -0.267,-0.014 0.085,0.42 0.599,0.737 1.063,0.281 0.68,-0.667 -0.155,-0.385 -0.209,-0.379 -0.233,0.024 m 61.261,2.876 c 0,0.77 0.082,1.085 0.183,0.7 0.1,-0.385 0.1,-1.015 0,-1.4 -0.101,-0.385 -0.183,-0.07 -0.183,0.7 M 54.9,201.091 c 0.825,0.087 2.175,0.087 3,0 0.825,-0.086 0.15,-0.157 -1.5,-0.157 -1.65,0 -2.325,0.071 -1.5,0.157 m 286.591,-0.002 c 0.71,0.088 1.97,0.09 2.8,0.003 0.83,-0.087 0.249,-0.159 -1.291,-0.161 -1.54,-0.002 -2.219,0.069 -1.509,0.158"
     id="path6" />
  <path
     style="fill:#cecece;fill-rule:evenodd;stroke:none"
     inkscape:connector-curvature="0"
     d="m 164.5,157.5 c 25.025,0.057 65.975,0.057 91,0 25.025,-0.057 4.55,-0.103 -45.5,-0.103 -50.05,0 -70.525,0.046 -45.5,0.103 m 95.967,20.2 c -0.048,1.357 -0.232,1.9 -0.643,1.9 -0.317,0 -0.678,0.163 -0.801,0.363 -0.123,0.199 0.151,0.264 0.61,0.144 1.05,-0.274 1.261,-0.826 1.061,-2.765 -0.152,-1.465 -0.163,-1.447 -0.227,0.358 m -48.329,-0.683 c -0.313,0.815 -0.106,0.95 0.862,0.561 l 0.8,-0.322 -0.8,-0.034 c -0.665,-0.028 -0.699,-0.099 -0.2,-0.422 0.42,-0.271 0.446,-0.39 0.087,-0.394 -0.281,-0.003 -0.619,0.272 -0.749,0.611 m 2.483,0.144 c -0.743,0.291 -0.738,0.315 0.1,0.534 0.598,0.157 0.879,0.05 0.879,-0.332 0,-0.31 -0.045,-0.55 -0.1,-0.535 -0.055,0.016 -0.45,0.165 -0.879,0.333 m 98.68,3.439 c 0.004,0.88 0.086,1.193 0.182,0.695 0.096,-0.497 0.092,-1.217 -0.008,-1.6 -0.1,-0.382 -0.179,0.025 -0.174,0.905 m -17.472,-0.2 c 0.197,0.33 0.37,0.78 0.383,1 0.013,0.22 0.241,0.355 0.506,0.3 0.276,-0.057 0.482,0.337 0.482,0.924 0,0.563 -0.168,0.92 -0.372,0.793 -0.205,-0.126 -0.476,-0.063 -0.602,0.141 -0.127,0.205 0.086,0.326 0.472,0.271 1.168,-0.167 1.085,-1.922 -0.144,-3.042 -0.596,-0.543 -0.922,-0.717 -0.725,-0.387 m -35.309,2.4 c 0,1.21 0.075,1.705 0.167,1.1 0.091,-0.605 0.091,-1.595 0,-2.2 -0.092,-0.605 -0.167,-0.11 -0.167,1.1 M 64.5,201.499 c 2.805,0.069 7.395,0.069 10.2,0 2.805,-0.069 0.51,-0.125 -5.1,-0.125 -5.61,0 -7.905,0.056 -5.1,0.125 m 260,0 c 2.805,0.069 7.395,0.069 10.2,0 2.805,-0.069 0.51,-0.125 -5.1,-0.125 -5.61,0 -7.905,0.056 -5.1,0.125 M 208.542,205.4 c -0.001,1.98 0.066,2.84 0.15,1.912 0.084,-0.928 0.085,-2.548 0.003,-3.6 -0.083,-1.052 -0.152,-0.292 -0.153,1.688 m 29.258,37.4 -2.4,0.266 2.2,0.061 c 1.21,0.033 2.47,-0.114 2.8,-0.327 0.33,-0.213 0.42,-0.36 0.2,-0.327 -0.22,0.034 -1.48,0.181 -2.8,0.327 m -77.093,0.29 c 0.719,0.089 1.799,0.087 2.4,-0.004 0.601,-0.091 0.013,-0.164 -1.307,-0.162 -1.32,0.002 -1.812,0.077 -1.093,0.166"
     id="path7" />
  <path
     style="fill:#c4c4c4;fill-rule:evenodd;stroke:none"
     inkscape:connector-curvature="0"
     d="m 82.529,157.9 c 6.781,0.061 17.761,0.061 24.4,0 6.639,-0.062 1.091,-0.112 -12.329,-0.112 -13.42,0 -18.852,0.05 -12.071,0.112 m 227.371,0 c 4.895,0.063 12.905,0.063 17.8,0 4.895,-0.064 0.89,-0.116 -8.9,-0.116 -9.79,0 -13.795,0.052 -8.9,0.116"
     id="path8" />
</svg>
