<?xml version="1.0" encoding="UTF-8"?>
<svg width="64" height="64" version="1.1" viewBox="0 0 64 64" xmlns="http://www.w3.org/2000/svg">
  <path
     d="m12 2 h40 a10 10 90 0 1 10 10 v40 a10 10 90 0 1 -10 10 h-40 a10 10 90 0 1 -10 -10 v-40 a10 10 90 0 1 10 -10 z" fill="none" stroke="#777" stroke-linejoin="round" stroke-width="4"/>
  <path
     d="m 55.554591,20.997725 c 0,-0.759826 -0.30393,-1.519651 -0.851005,-2.066726 l -4.133451,-4.133451 c -0.547073,-0.547074 -1.3069,-0.851005 -2.066725,-0.851005 -0.759825,0 -1.519651,0.303931 -2.066726,0.851005 l -19.93782,19.968215 -8.935548,-8.96594 c -0.547075,-0.547075 -1.306901,-0.851005 -2.066726,-0.851005 -0.759825,0 -1.519652,0.30393 -2.066725,0.851005 l -4.1334513,4.13345 c -0.5470748,0.547075 -0.8510047,1.3069 -0.8510047,2.066725 0,0.759826 0.3039299,1.519651 0.8510047,2.066725 l 11.0022733,11.002274 4.133451,4.133451 c 0.547074,0.547075 1.306899,0.851005 2.066726,0.851005 0.759825,0 1.51965,-0.30393 2.066725,-0.851005 L 32.69904,45.068997 54.703586,23.064451 c 0.547075,-0.547075 0.851005,-1.306901 0.851005,-2.066726 z"
     style="fill:#777777;stroke:none;stroke-width:1.36160743"/>
</svg>
