<?xml version="1.0" encoding="UTF-8"?>
<svg width="43.916" height="21.959" version="1.1" viewBox="0 0 43.916 21.959" xmlns="http://www.w3.org/2000/svg">
  <path
     style="fill:#b3b3b3;fill-opacity:1;stroke-width:0.74354357"
     d="M 10.491203,0.17871838 C 4.9585292,0.17871839 0.45799999,5.0240707 0.45799999,10.979499 c 0,5.95543 4.50053021,10.800782 10.03320301,10.800782 h 22.933594 c 5.53267,0 10.033203,-4.845352 10.033203,-10.800782 0,-5.9554283 -4.500533,-10.80078062 -10.033203,-10.80078062 z m 0,3.08593752 c 3.951701,0 7.166015,3.4611877 7.166015,7.7148431 0,4.253654 -3.214314,7.714844 -7.166015,7.714844 -3.9517019,0 -7.1660155,-3.46119 -7.1660155,-7.714844 0,-4.2536554 3.2143137,-7.7148431 7.1660155,-7.7148431 z m 0,1.5429688 c -3.1612188,0 -5.7343748,2.7691042 -5.7343748,6.1718743 -1e-7,3.402769 2.5731559,6.171875 5.7343748,6.171875 3.161215,0 5.732422,-2.769106 5.732422,-6.171875 0,-3.4027701 -2.571207,-6.1718743 -5.732422,-6.1718743 z"/>
</svg>
