<?xml version="1.0" encoding="UTF-8" standalone="no"?>
<svg
   xmlns:dc="http://purl.org/dc/elements/1.1/"
   xmlns:cc="http://creativecommons.org/ns#"
   xmlns:rdf="http://www.w3.org/1999/02/22-rdf-syntax-ns#"
   xmlns:svg="http://www.w3.org/2000/svg"
   xmlns="http://www.w3.org/2000/svg"
   xmlns:sodipodi="http://sodipodi.sourceforge.net/DTD/sodipodi-0.dtd"
   xmlns:inkscape="http://www.inkscape.org/namespaces/inkscape"
   width="43.916"
   height="21.959"
   version="1.1"
   id="svg8"
   sodipodi:docname="off.svg"
   inkscape:version="0.92.5 (2060ec1f9f, 2020-04-08)">
  <metadata
     id="metadata14">
    <rdf:RDF>
      <cc:Work
         rdf:about="">
        <dc:format>image/svg+xml</dc:format>
        <dc:type
           rdf:resource="http://purl.org/dc/dcmitype/StillImage" />
        <dc:title />
      </cc:Work>
    </rdf:RDF>
  </metadata>
  <defs
     id="defs12" />
  <sodipodi:namedview
     pagecolor="#ffffff"
     bordercolor="#666666"
     borderopacity="1"
     objecttolerance="10"
     gridtolerance="10"
     guidetolerance="10"
     inkscape:pageopacity="0"
     inkscape:pageshadow="2"
     inkscape:window-width="1920"
     inkscape:window-height="1139"
     id="namedview10"
     showgrid="false"
     inkscape:zoom="16.21277"
     inkscape:cx="19.031461"
     inkscape:cy="7.2502934"
     inkscape:window-x="0"
     inkscape:window-y="0"
     inkscape:window-maximized="1"
     inkscape:current-layer="svg8"
     inkscape:pagecheckerboard="false" />
  <path
     style="fill:#b3b3b3;fill-opacity:1;stroke-width:0.74354357"
     d="M 10.433594 0.15820312 C 4.9009198 0.15820313 0.40039062 5.0035554 0.40039062 10.958984 C 0.40039062 16.914414 4.9009208 21.759766 10.433594 21.759766 L 33.367188 21.759766 C 38.899858 21.759766 43.400391 16.914414 43.400391 10.958984 C 43.400391 5.0035554 38.899858 0.15820312 33.367188 0.15820312 L 10.433594 0.15820312 z M 10.433594 3.2441406 C 14.385295 3.2441406 17.599609 6.7053283 17.599609 10.958984 C 17.599609 15.212638 14.385295 18.673828 10.433594 18.673828 C 6.4818917 18.673828 3.2675781 15.212638 3.2675781 10.958984 C 3.2675781 6.7053283 6.4818918 3.2441406 10.433594 3.2441406 z M 10.433594 4.7871094 C 7.2723748 4.7871094 4.6992188 7.5562136 4.6992188 10.958984 C 4.6992187 14.361753 7.2723747 17.130859 10.433594 17.130859 C 13.594809 17.130859 16.166016 14.361753 16.166016 10.958984 C 16.166016 7.5562136 13.594809 4.7871094 10.433594 4.7871094 z "
     id="path6" />
</svg>
