<?xml version="1.0" encoding="UTF-8" standalone="no"?>
<!-- Generator: Adobe Illustrator 13.0.0, SVG Export Plug-In . SVG Version: 6.00 Build 14948)  -->

<svg
   xmlns:dc="http://purl.org/dc/elements/1.1/"
   xmlns:cc="http://creativecommons.org/ns#"
   xmlns:rdf="http://www.w3.org/1999/02/22-rdf-syntax-ns#"
   xmlns:svg="http://www.w3.org/2000/svg"
   xmlns="http://www.w3.org/2000/svg"
   xmlns:sodipodi="http://sodipodi.sourceforge.net/DTD/sodipodi-0.dtd"
   xmlns:inkscape="http://www.inkscape.org/namespaces/inkscape"
   version="1.1"
   x="0px"
   y="0px"
   width="1280px"
   height="720px"
   viewBox="0 0 1280 720"
   enable-background="new 0 0 1280 720"
   xml:space="preserve"
   id="svg80"
   sodipodi:docname="splash.svg"
   inkscape:version="0.92.5 (2060ec1f9f, 2020-04-08)"><metadata
   id="metadata86"><rdf:RDF><cc:Work
       rdf:about=""><dc:format>image/svg+xml</dc:format><dc:type
         rdf:resource="http://purl.org/dc/dcmitype/StillImage" /></cc:Work></rdf:RDF></metadata><defs
   id="defs84" /><sodipodi:namedview
   pagecolor="#ffffff"
   bordercolor="#666666"
   borderopacity="1"
   objecttolerance="10"
   gridtolerance="10"
   guidetolerance="10"
   inkscape:pageopacity="0"
   inkscape:pageshadow="2"
   inkscape:window-width="1920"
   inkscape:window-height="1141"
   id="namedview82"
   showgrid="false"
   inkscape:zoom="6.1518288"
   inkscape:cx="164.58784"
   inkscape:cy="190.56614"
   inkscape:window-x="0"
   inkscape:window-y="0"
   inkscape:window-maximized="1"
   inkscape:current-layer="svg80" />
<g
   id="Layer_2">
</g>
<g
   id="Ebene_1">
	<path
   fill="#C90012"
   d="M431.529,442.097L431.529,442.097L431.529,442.097z"
   id="path3" />
	<path
   fill="#C90012"
   d="M431.529,359.216L431.529,359.216L431.529,359.216z"
   id="path5" />
	<path
   fill="#C90012"
   d="M431.529,276.306L431.529,276.306L431.529,276.306z"
   id="path7" />
	<path
   fill="#C90012"
   d="M431.529,317.753L431.529,317.753L431.529,317.753z"
   id="path9" />
	<path
   fill="#C90012"
   d="M431.529,483.544L431.529,483.544L431.529,483.544z"
   id="path11" />
	<path
   fill="#C90012"
   d="M431.529,400.642L431.529,400.642L431.529,400.642z"
   id="path13" />
	<path
   fill="#C90012"
   d="M431.529,234.842L431.529,234.842L431.529,234.842z"
   id="path15" />
	<linearGradient
   id="SVGID_1_"
   gradientUnits="userSpaceOnUse"
   x1="118.3125"
   y1="542.3223"
   x2="323.8018"
   y2="227.3384">
		<stop
   offset="0"
   style="stop-color:#004E73"
   id="stop17" />
		<stop
   offset="1"
   style="stop-color:#00A1B0"
   id="stop19" />
	</linearGradient>
	<path
   fill="url(#SVGID_1_)"
   d="M431.529,245.951c0-6.11-4.999-11.108-11.105-11.108H69.563c-6.112,0-14.644,3.534-18.963,7.855   l-25.745,25.745C20.533,272.764,17,281.296,17,287.406v226.468c0,6.111,4.999,11.109,11.106,11.109h350.86   c6.107,0,14.644-3.535,18.963-7.854l25.741-25.736c4.32-4.316,7.854-12.853,7.854-18.965L431.529,245.951z"
   id="path22" />
	<path
   opacity="0.2"
   enable-background="new    "
   d="M382.22,392.789l-25.729-25.729c-4.319-4.318-12.854-7.854-18.963-7.853H318.28   c-6.112,0.001-11.11,0.001-11.11,0.001s3.532-3.534,7.854-7.855l67.196-67.193c4.32-4.321,2.854-7.855-3.253-7.855H276.832   c-6.111,0-14.643,3.534-18.963,7.855L25.142,516.86c-1.825,1.821-3.517,3.514-4.871,4.866c2.012,2.011,4.786,3.259,7.836,3.259   c0.005,0,0.01,0,0.016,0h99.953h167.988c6.111,0,11.122-0.013,11.133-0.023c0.015-0.016,3.559-3.562,7.88-7.88l67.144-67.132   c4.32-4.316,7.854-12.853,7.854-18.963v-19.235C390.073,405.64,386.54,397.104,382.22,392.789z"
   id="path24" />
	<linearGradient
   id="SVGID_2_"
   gradientUnits="userSpaceOnUse"
   x1="144.813"
   y1="540.373"
   x2="399.8003"
   y2="288.3857">
		<stop
   offset="0.3077"
   style="stop-color:#D3D3D3"
   id="stop26" />
		<stop
   offset="0.6752"
   style="stop-color:#FFFFFF"
   id="stop28" />
	</linearGradient>
	<path
   fill="url(#SVGID_2_)"
   d="M276.824,400.649c-6.108,0-14.643-3.536-18.96-7.857l-25.71-25.718   c-4.321-4.321-7.857-12.855-7.865-18.966l-0.012-19.246c-0.008-6.11,3.525-14.643,7.846-18.964l25.741-25.737   c4.321-4.321,12.852-7.855,18.963-7.855h102.14c6.107,0,7.573,3.534,3.253,7.855l-25.741,25.737   c-4.32,4.321-12.852,7.855-18.963,7.855h-60.688c-6.112,0-11.11,4.998-11.11,11.108v19.246c0,6.11,4.998,11.108,11.106,11.106   l60.702-0.007c6.107-0.002,14.644,3.533,18.963,7.853l25.729,25.729c4.32,4.314,7.854,12.851,7.854,18.963v19.235   c0,6.109-3.532,14.646-7.854,18.963l-25.74,25.74c-4.321,4.316-12.853,7.854-18.964,7.854h-60.688   c-6.112,0-14.643-3.536-18.963-7.854l-25.741-25.74c-4.32-4.316-2.858-7.854,3.253-7.854h102.14c6.112,0,11.11-4.998,11.11-11.108   V411.75c0-6.112,0-11.11,0.003-11.11c0.004,0-4.994,0-11.103,0L276.824,400.649z"
   id="path31" />
	<g
   opacity="0.2"
   id="g35">
		<path
   d="M17.008,370.877c0-6.109,0-11.238,0-11.393c0-0.155,3.532-3.818,7.854-8.138l67.185-67.186    c4.321-4.321,12.855-7.855,18.963-7.855h102.15c6.108,0,7.574,3.534,3.253,7.855l-67.197,67.182    c-4.32,4.321-7.853,7.855-7.853,7.855s4.998,0.002,11.11,0.006l19.228,0.007c6.108,0.004,10.75,4.993,10.318,11.086l-1.114,15.593    c-0.433,6.092-1.707,11.997-2.833,13.122c-1.125,1.125-5.576,5.58-9.896,9.896l-25.201,25.201    c-4.32,4.315-7.885,7.885-7.922,7.918c-0.034,0.034,4.933,0.064,11.041,0.062h17.979c6.108-0.004,14.784,3.379,19.281,7.519    l26.836,24.694c4.497,4.137,8.181,7.623,8.058,7.75c-0.126,0.126-3.766,3.762-8.087,8.083l-34.827,34.85l-147.212,0.002    c-6.107,0-11.105-4.998-11.105-11.11L17.008,370.877z"
   id="path33" />
	</g>
	<linearGradient
   id="SVGID_3_"
   gradientUnits="userSpaceOnUse"
   x1="71.27"
   y1="465.9541"
   x2="326.2573"
   y2="213.9668">
		<stop
   offset="0.3077"
   style="stop-color:#D3D3D3"
   id="stop37" />
		<stop
   offset="0.6752"
   style="stop-color:#FFFFFF"
   id="stop39" />
	</linearGradient>
	<path
   fill="url(#SVGID_3_)"
   d="M111.01,442.097c-6.107,0-11.104-4.998-11.104-11.108v-19.235c0-6.112,4.998-11.11,11.104-11.11   h60.69c6.108,0,11.106-4.998,11.106-11.108V370.33c0-6.112-4.998-11.11-11.106-11.11h-60.69c-6.107,0-11.104-4.998-11.104-11.108   v-19.246c0-6.11,4.998-11.108,11.104-11.108h60.69c6.108,0,14.643-3.534,18.964-7.854l25.749-25.741   c4.321-4.319,2.855-7.853-3.253-7.853H111.01c-6.107,0-14.643,3.534-18.963,7.855L66.31,309.9   c-4.32,4.321-7.857,12.854-7.857,18.964v102.125c0,6.11,3.537,14.646,7.857,18.963l25.737,25.74   c4.321,4.316,12.855,7.854,18.963,7.854h102.143c6.112,0,7.574-3.536,3.253-7.855l-25.741-25.744   c-4.32-4.321-12.854-7.857-18.964-7.857L111.01,442.097z"
   id="path42" />
	<g
   id="g76">
		<path
   fill="#FFFFFF"
   d="M558.605,326.562c-1.623,3.8-3.851,7.115-6.683,9.943c-2.832,2.836-6.146,5.06-9.947,6.682    c-3.796,1.623-7.838,2.434-12.116,2.434h-8.496c-4.283,0-8.324-0.812-12.121-2.434c-3.8-1.623-7.115-3.846-9.942-6.682    c-2.836-2.828-5.063-6.143-6.683-9.943c-1.626-3.796-2.435-7.838-2.435-12.121v-47.858c0-4.282,0.809-8.324,2.435-12.12    c1.619-3.801,3.847-7.115,6.683-9.947c2.827-2.833,6.144-5.056,9.942-6.682c3.796-1.619,7.838-2.434,12.121-2.434h8.496    c4.278,0,8.319,0.815,12.116,2.434c3.8,1.626,7.115,3.85,9.947,6.682s5.06,6.146,6.683,9.947c1.623,3.796,2.434,7.838,2.434,12.12    v24.964h-58.114v23.618c0,2.556,0.481,4.956,1.45,7.202c0.965,2.243,2.277,4.195,3.936,5.852c1.66,1.657,3.608,2.97,5.854,3.938    c2.243,0.964,4.643,1.447,7.199,1.447h8.495c2.554,0,4.953-0.482,7.199-1.447c2.243-0.968,4.195-2.281,5.853-3.938    c1.657-1.657,2.971-3.609,3.938-5.852c0.964-2.246,1.451-4.646,1.451-7.202v-7.042l12.739,2.07v4.248    C561.038,318.724,560.229,322.765,558.605,326.562z M548.299,265.855c0-2.553-0.486-4.952-1.451-7.199    c-0.968-2.243-2.28-4.194-3.938-5.852c-1.656-1.658-3.608-2.97-5.852-3.938c-2.248-0.964-4.646-1.45-7.199-1.45h-8.496    c-2.557,0-4.956,0.486-7.199,1.45c-2.246,0.969-4.194,2.281-5.855,3.938c-1.656,1.657-2.97,3.609-3.934,5.852    c-0.969,2.247-1.451,4.646-1.451,7.199V281.6h45.375V265.855L548.299,265.855z"
   id="path44" />
		<path
   fill="#FFFFFF"
   d="M698.506,343.55v-77.695c0-2.553-0.482-4.952-1.45-7.199c-0.969-2.243-2.276-4.194-3.938-5.853    c-1.652-1.657-3.608-2.97-5.853-3.938c-2.246-0.964-4.646-1.45-7.198-1.45h-6.317c-2.558,0-4.956,0.486-7.202,1.45    c-2.243,0.969-4.21,2.281-5.901,3.938c-1.695,1.657-3.023,3.609-3.991,5.853c-0.966,2.247-1.445,4.646-1.445,7.199v77.695h-12.644    v-77.695c0-2.553-0.481-4.952-1.449-7.199c-0.969-2.243-2.296-4.194-3.987-5.853c-1.69-1.657-3.658-2.97-5.905-3.938    c-2.242-0.964-4.643-1.45-7.199-1.45h-6.317c-2.558,0-4.956,0.486-7.198,1.45c-2.247,0.969-4.195,2.281-5.854,3.938    c-1.657,1.657-2.97,3.609-3.936,5.853c-0.968,2.247-1.45,4.646-1.45,7.199v77.695h-12.74V237.474h4.244l6.942,10.773    c2.899-3.938,6.54-7.061,10.931-9.376c4.382-2.312,9.166-3.471,14.344-3.471h1.037c6.009,0,11.428,1.485,16.266,4.455    c4.833,2.97,8.563,6.908,11.188,11.811c1.312-2.419,2.936-4.627,4.868-6.629c1.934-2.005,4.075-3.712,6.423-5.128    c2.35-1.416,4.905-2.522,7.668-3.318c2.761-0.792,5.627-1.19,8.597-1.19h1.037c4.278,0,8.319,0.815,12.12,2.434    c3.797,1.626,7.114,3.85,9.946,6.682c2.828,2.832,5.057,6.146,6.684,9.947c1.618,3.796,2.435,7.838,2.435,12.12v76.968h-12.747    v-0.002H698.506z"
   id="path46" />
		<path
   fill="#FFFFFF"
   d="M803.343,343.55l-7.046-10.773c-2.9,3.938-6.525,7.061-10.878,9.376    c-4.348,2.312-9.115,3.467-14.294,3.467h-3.211c-4.286,0-8.323-0.812-12.12-2.434c-3.801-1.623-7.114-3.846-9.946-6.682    c-2.832-2.828-5.061-6.143-6.684-9.943c-1.622-3.796-2.434-7.838-2.434-12.121v-76.966h12.743v77.691    c0,2.556,0.481,4.956,1.446,7.202c0.969,2.243,2.28,4.195,3.938,5.852c1.657,1.657,3.609,2.97,5.853,3.938    c2.242,0.964,4.646,1.447,7.203,1.447h8.496c2.549,0,4.952-0.482,7.193-1.447c2.243-0.968,4.198-2.281,5.854-3.938    c1.657-1.657,2.971-3.609,3.936-5.852c0.969-2.246,1.454-4.646,1.454-7.202v-77.691h12.736V343.55H803.343z"
   id="path48" />
		<path
   fill="#FFFFFF"
   d="M837.319,343.55V195h12.739v148.55H837.319z"
   id="path50" />
		<path
   fill="#FFFFFF"
   d="M946.404,343.55l-7.047-10.567c-2.899,3.8-6.524,6.854-10.881,9.17c-4.348,2.312-9.115,3.467-14.289,3.467    h-3.216c-4.282,0-8.319-0.812-12.116-2.434c-3.805-1.623-7.118-3.846-9.946-6.682c-2.836-2.828-5.063-6.143-6.683-9.943    c-1.627-3.796-2.436-7.838-2.436-12.121v-1.037c0-4.279,0.809-8.32,2.436-12.121c1.618-3.796,3.847-7.111,6.683-9.943    c2.828-2.832,6.144-5.06,9.946-6.682c3.797-1.623,7.834-2.434,12.116-2.434h26.937v-16.368c0-2.553-0.481-4.952-1.45-7.199    c-0.969-2.243-2.276-4.194-3.938-5.852c-1.652-1.657-3.608-2.97-5.853-3.938c-2.246-0.964-4.646-1.45-7.198-1.45h-7.459    c-2.558,0-4.956,0.486-7.197,1.45c-2.248,0.969-4.195,2.281-5.856,3.938c-1.652,1.657-2.97,3.609-3.935,5.852    c-0.969,2.247-1.45,4.646-1.45,7.199v3.835l-12.74-2.075v-1.033c0-4.282,0.812-8.324,2.436-12.12    c1.622-3.801,3.851-7.115,6.683-9.947c2.828-2.833,6.146-5.056,9.942-6.682c3.796-1.619,7.839-2.434,12.12-2.434h7.459    c4.278,0,8.319,0.815,12.117,2.434c3.8,1.626,7.113,3.85,9.949,6.682c2.828,2.832,5.057,6.146,6.68,9.947    c1.622,3.796,2.434,7.838,2.434,12.12v76.968H946.404L946.404,343.55z M937.907,292.167h-26.937c-2.558,0-4.956,0.486-7.199,1.451    c-2.245,0.968-4.193,2.296-5.852,3.988c-1.661,1.695-2.971,3.663-3.938,5.905c-0.97,2.247-1.451,4.646-1.451,7.203v4.451    c0,2.556,0.481,4.956,1.451,7.202c0.968,2.243,2.275,4.195,3.938,5.852c1.656,1.657,3.604,2.97,5.852,3.938    c2.243,0.964,4.644,1.447,7.199,1.447h8.496c2.553,0,4.952-0.482,7.198-1.447c2.242-0.968,4.198-2.281,5.853-3.938    c1.661-1.657,2.971-3.609,3.938-5.852c0.969-2.246,1.45-4.646,1.45-7.202L937.907,292.167L937.907,292.167z"
   id="path52" />
		<path
   fill="#FFFFFF"
   d="M1014.771,343.55c-3.864,0-7.509-0.724-10.931-2.174c-3.418-1.451-6.389-3.456-8.909-6.009    c-2.52-2.557-4.523-5.526-6.009-8.91c-1.485-3.383-2.225-7.007-2.225-10.876V249.59h-19.063v-12.116h19.063v-25.485l12.739-2.07    v27.555h26.937v12.116h-26.937v66.611c0,2.143,0.398,4.129,1.194,5.955c0.788,1.833,1.879,3.437,3.261,4.818    c1.383,1.381,3.004,2.472,4.868,3.264c1.866,0.792,3.864,1.189,6.009,1.189h11.604v12.121L1014.771,343.55L1014.771,343.55z"
   id="path54" />
		<path
   fill="#FFFFFF"
   d="M1052.996,211.989V195h14.814v16.989H1052.996z M1054.033,343.55V237.474h12.74V343.55H1054.033z"
   id="path56" />
		<path
   fill="#FFFFFF"
   d="M1164.93,326.562c-1.623,3.8-3.852,7.115-6.679,9.943c-2.837,2.836-6.149,5.06-9.95,6.682    c-3.797,1.623-7.838,2.434-12.116,2.434h-8.496c-4.282,0-8.319-0.812-12.116-2.434c-3.805-1.623-7.119-3.846-9.946-6.682    c-2.837-2.828-5.062-6.143-6.683-9.943c-1.627-3.796-2.436-7.838-2.436-12.121v-47.858c0-4.282,0.809-8.324,2.436-12.12    c1.619-3.801,3.846-7.115,6.683-9.947c2.827-2.833,6.144-5.056,9.946-6.682c3.797-1.619,7.834-2.434,12.116-2.434h8.496    c4.278,0,8.319,0.815,12.116,2.434c3.801,1.626,7.114,3.85,9.95,6.682c2.827,2.832,5.056,6.146,6.679,9.947    c1.622,3.796,2.435,7.838,2.435,12.12v47.858C1167.363,318.724,1166.552,322.765,1164.93,326.562z M1154.622,265.855    c0-2.553-0.481-4.952-1.449-7.199c-0.97-2.243-2.276-4.194-3.938-5.852c-1.653-1.657-3.608-2.97-5.853-3.938    c-2.246-0.964-4.646-1.45-7.199-1.45h-8.496c-2.557,0-4.955,0.486-7.197,1.45c-2.247,0.969-4.194,2.281-5.853,3.938    c-1.661,1.657-2.971,3.609-3.938,5.852c-0.97,2.247-1.45,4.646-1.45,7.199v49.309c0,2.556,0.48,4.956,1.45,7.202    c0.968,2.243,2.276,4.195,3.938,5.852c1.656,1.657,3.604,2.97,5.853,3.938c2.242,0.964,4.643,1.447,7.197,1.447h8.496    c2.554,0,4.953-0.482,7.199-1.447c2.243-0.968,4.197-2.281,5.853-3.938c1.661-1.657,2.97-3.609,3.938-5.852    c0.968-2.246,1.449-4.646,1.449-7.202V265.855z"
   id="path58" />
		<path
   fill="#FFFFFF"
   d="M1250.964,343.55v-77.695c0-2.553-0.485-4.952-1.451-7.199c-0.969-2.243-2.28-4.194-3.935-5.853    c-1.661-1.657-3.612-2.97-5.855-3.938c-2.242-0.964-4.646-1.45-7.197-1.45h-8.492c-2.558,0-4.96,0.486-7.203,1.45    c-2.241,0.969-4.193,2.281-5.854,3.938c-1.652,1.657-2.97,3.609-3.935,5.853c-0.969,2.247-1.45,4.646-1.45,7.199v77.695h-12.74    V237.474h4.248l6.938,10.773c2.9-3.938,6.541-7.061,10.931-9.376c4.382-2.312,9.166-3.471,14.349-3.471h3.211    c4.281,0,8.319,0.815,12.12,2.434c3.797,1.626,7.11,3.85,9.942,6.682s5.061,6.146,6.683,9.947    c1.623,3.796,2.436,7.838,2.436,12.12v76.968L1250.964,343.55L1250.964,343.55z"
   id="path60" />
		<path
   fill="#FFFFFF"
   d="M563.109,496.258c0,4.278-0.865,8.198-2.588,11.757c-1.729,3.562-4.075,6.613-7.045,9.17    c-2.971,2.559-6.406,4.539-10.308,5.955c-3.903,1.416-7.995,2.12-12.276,2.12H522.4c-4.283,0-8.377-0.812-12.277-2.434    c-3.903-1.623-7.32-3.843-10.257-6.684c-2.937-2.823-5.28-6.14-7.042-9.942c-1.76-3.797-2.641-7.838-2.641-12.116v-4.248    l12.739-2.074v7.042c0,2.558,0.531,4.961,1.604,7.202c1.07,2.243,2.503,4.194,4.301,5.854c1.795,1.653,3.866,2.971,6.217,3.936    c2.346,0.965,4.799,1.447,7.354,1.447h8.491c2.558,0,5.006-0.376,7.355-1.135c2.347-0.766,4.438-1.853,6.27-3.269    c1.829-1.416,3.28-3.123,4.352-5.129c1.068-1.997,1.604-4.277,1.604-6.835c0-3.797-0.826-6.903-2.487-9.323    c-1.657-2.419-3.851-4.438-6.575-6.062c-2.729-1.623-5.836-2.964-9.322-4.034c-3.49-1.071-7.064-2.145-10.725-3.215    c-3.663-1.071-7.236-2.296-10.725-3.674c-3.485-1.388-6.594-3.2-9.322-5.442c-2.729-2.242-4.918-5.06-6.575-8.442    c-1.661-3.384-2.487-7.593-2.487-12.638c0-4.278,0.826-8.196,2.487-11.757c1.657-3.561,3.899-6.613,6.731-9.17    s6.127-4.539,9.894-5.955c3.763-1.416,7.785-2.128,12.067-2.128h7.459c4.282,0,8.323,0.819,12.12,2.435    c3.796,1.631,7.115,3.852,9.947,6.683c2.827,2.834,5.056,6.146,6.683,9.951c1.618,3.797,2.434,7.838,2.434,12.116v0.413    l-12.744,2.074v-3.215c0-2.55-0.48-4.953-1.45-7.195c-0.97-2.241-2.276-4.193-3.935-5.854c-1.657-1.653-3.608-2.972-5.854-3.937    c-2.243-0.964-4.644-1.453-7.198-1.453h-7.459c-2.554,0-4.957,0.384-7.199,1.142c-2.243,0.766-4.195,1.853-5.853,3.261    c-1.657,1.424-2.971,3.13-3.938,5.128c-0.97,2.006-1.451,4.287-1.451,6.844c0,3.658,0.831,6.646,2.488,8.955    c1.657,2.319,3.85,4.271,6.579,5.855c2.725,1.592,5.833,2.916,9.322,3.985c3.486,1.072,7.042,2.175,10.67,3.314    c3.625,1.141,7.181,2.436,10.67,3.889c3.486,1.446,6.595,3.314,9.323,5.588c2.729,2.28,4.922,5.129,6.579,8.552    C562.282,486.989,563.109,491.214,563.109,496.258z"
   id="path62" />
		<path
   fill="#FFFFFF"
   d="M626.196,523.194c-3.865,0-7.509-0.729-10.927-2.175c-3.421-1.455-6.392-3.461-8.909-6.01    c-2.521-2.557-4.522-5.524-6.009-8.908c-1.484-3.385-2.229-7.013-2.229-10.877v-65.996h-19.059v-12.116h19.059v-25.479    l12.74-2.072v27.555H637.8v12.117h-26.937v66.613c0,2.145,0.397,4.126,1.193,5.955c0.792,1.829,1.879,3.438,3.262,4.813    c1.381,1.386,3.004,2.473,4.867,3.27c1.868,0.788,3.869,1.188,6.008,1.188h11.604v12.123L626.196,523.194L626.196,523.194z"
   id="path64" />
		<path
   fill="#FFFFFF"
   d="M727.821,523.194l-7.042-10.57c-2.899,3.804-6.527,6.856-10.876,9.169    c-4.353,2.313-9.116,3.468-14.3,3.468h-3.207c-4.285,0-8.327-0.812-12.123-2.434c-3.802-1.623-7.114-3.844-9.943-6.685    c-2.836-2.823-5.063-6.139-6.682-9.941c-1.627-3.796-2.436-7.839-2.436-12.116v-1.041c0-4.277,0.809-8.32,2.436-12.116    c1.617-3.797,3.846-7.109,6.682-9.941c2.829-2.832,6.144-5.062,9.943-6.684c3.796-1.622,7.838-2.435,12.123-2.435h26.933v-16.372    c0-2.549-0.485-4.953-1.449-7.195c-0.97-2.241-2.28-4.193-3.936-5.854c-1.661-1.653-3.612-2.972-5.854-3.937    c-2.242-0.964-4.646-1.453-7.199-1.453h-7.459c-2.557,0-4.955,0.489-7.201,1.453c-2.243,0.965-4.194,2.281-5.853,3.937    c-1.657,1.66-2.971,3.612-3.936,5.854c-0.97,2.242-1.45,4.646-1.45,7.195v3.834l-12.744-2.074v-1.032    c0-4.278,0.813-8.319,2.436-12.116c1.623-3.806,3.85-7.117,6.683-9.95c2.832-2.832,6.146-5.052,9.946-6.684    c3.796-1.614,7.838-2.435,12.119-2.435h7.459c4.283,0,8.32,0.818,12.121,2.435c3.797,1.632,7.109,3.852,9.941,6.684    c2.832,2.833,5.061,6.146,6.684,9.95c1.623,3.797,2.435,7.838,2.435,12.116v76.972L727.821,523.194L727.821,523.194z     M719.328,471.81h-26.932c-2.562,0-4.961,0.482-7.202,1.447c-2.247,0.974-4.193,2.296-5.854,3.988    c-1.657,1.699-2.971,3.666-3.936,5.908c-0.969,2.241-1.45,4.646-1.45,7.202v4.446c0,2.559,0.481,4.96,1.45,7.202    c0.965,2.243,2.276,4.194,3.936,5.855c1.661,1.651,3.607,2.97,5.854,3.935c2.241,0.965,4.643,1.447,7.202,1.447h8.491    c2.554,0,4.957-0.482,7.199-1.447c2.241-0.965,4.193-2.28,5.854-3.935c1.652-1.661,2.966-3.612,3.936-5.855    c0.964-2.242,1.449-4.646,1.449-7.202L719.328,471.81L719.328,471.81z"
   id="path66" />
		<path
   fill="#FFFFFF"
   d="M796.193,523.194c-3.869,0-7.514-0.729-10.928-2.175c-3.421-1.455-6.392-3.461-8.908-6.01    c-2.526-2.557-4.523-5.524-6.01-8.908c-1.484-3.385-2.229-7.013-2.229-10.877v-65.996h-19.059v-12.116h19.059v-25.479    l12.741-2.072v27.555h26.932v12.117H780.86v66.613c0,2.145,0.395,4.126,1.188,5.955c0.796,1.829,1.883,3.438,3.266,4.813    c1.382,1.386,3.005,2.473,4.867,3.27c1.864,0.788,3.869,1.188,6.01,1.188h11.6v12.123L796.193,523.194L796.193,523.194z"
   id="path68" />
		<path
   fill="#FFFFFF"
   d="M834.419,391.632v-16.987h14.813v16.987H834.419z M835.455,523.194V417.113h12.74v106.081H835.455    L835.455,523.194z"
   id="path70" />
		<path
   fill="#FFFFFF"
   d="M946.352,506.201c-1.623,3.805-3.851,7.118-6.683,9.941c-2.832,2.841-6.146,5.062-9.942,6.685    c-3.802,1.622-7.839,2.434-12.121,2.434h-8.492c-4.286,0-8.327-0.812-12.124-2.434c-3.796-1.623-7.109-3.844-9.941-6.685    c-2.832-2.823-5.061-6.139-6.684-9.941c-1.623-3.796-2.436-7.839-2.436-12.116v-47.861c0-4.278,0.813-8.319,2.436-12.116    c1.623-3.806,3.852-7.117,6.684-9.95c2.831-2.832,6.146-5.052,9.941-6.684c3.797-1.614,7.838-2.435,12.124-2.435h8.492    c4.282,0,8.319,0.819,12.121,2.435c3.797,1.632,7.11,3.852,9.942,6.684c2.831,2.833,5.06,6.146,6.683,9.95    c1.622,3.797,2.434,7.838,2.434,12.116v47.861C948.783,498.363,947.974,502.405,946.352,506.201z M936.044,445.496    c0-2.549-0.485-4.953-1.45-7.195c-0.968-2.241-2.281-4.193-3.936-5.854c-1.661-1.653-3.611-2.972-5.854-3.937    c-2.241-0.964-4.646-1.453-7.198-1.453h-8.492c-2.558,0-4.96,0.489-7.202,1.453c-2.242,0.965-4.193,2.281-5.854,3.937    c-1.652,1.66-2.97,3.612-3.936,5.854c-0.968,2.242-1.449,4.646-1.449,7.195v49.31c0,2.558,0.481,4.959,1.449,7.201    c0.966,2.243,2.281,4.194,3.936,5.855c1.661,1.651,3.612,2.97,5.854,3.935c2.242,0.966,4.646,1.447,7.202,1.447h8.492    c2.554,0,4.957-0.481,7.198-1.447c2.243-0.965,4.193-2.28,5.854-3.935c1.652-1.661,2.968-3.612,3.936-5.855    c0.965-2.242,1.45-4.646,1.45-7.201V445.496z"
   id="path72" />
		<path
   fill="#FFFFFF"
   d="M1032.385,523.194v-77.698c0-2.549-0.481-4.953-1.449-7.195c-0.97-2.241-2.277-4.193-3.938-5.854    c-1.652-1.653-3.608-2.972-5.853-3.937c-2.246-0.964-4.646-1.453-7.198-1.453h-8.496c-2.558,0-4.956,0.489-7.198,1.453    c-2.246,0.965-4.193,2.281-5.853,3.937c-1.661,1.66-2.97,3.612-3.938,5.854c-0.97,2.242-1.451,4.646-1.451,7.195v77.698h-12.739    V417.113h4.243l6.942,10.775c2.9-3.939,6.545-7.063,10.931-9.375c4.387-2.312,9.17-3.477,14.345-3.477h3.215    c4.278,0,8.32,0.818,12.117,2.436c3.8,1.629,7.114,3.851,9.95,6.683c2.827,2.833,5.056,6.146,6.679,9.951    c1.622,3.795,2.435,7.838,2.435,12.114v76.974H1032.385L1032.385,523.194z"
   id="path74" />
	</g>
</g>
<g
   id="Layer_3">
</g>
<g
   aria-label="Desktop Edition"
   transform="matrix(1.4306924,0,0,0.69896227,5.2838547,2.2445098)"
   style="font-style:normal;font-variant:normal;font-weight:normal;font-stretch:normal;font-size:39.89012909px;line-height:1.25;font-family:Uroob;-inkscape-font-specification:Uroob;letter-spacing:0px;word-spacing:0px;fill:#c80000;fill-opacity:1;stroke:none;stroke-width:0.99725312"
   id="text1825-9"><path
     d="m 30.123101,778.84062 q 0,1.73351 -1.051791,2.82426 -1.05179,1.07127 -2.804774,1.07127 h -10.40104 v -24.89238 h 9.621935 q 1.908805,0 3.272238,1.26604 1.363432,1.26605 1.363432,3.17485 z m -3.525446,-0.83753 v -15.07567 q 0,-1.305 -1.012836,-1.88932 -0.311641,-0.19478 -0.720671,-0.1753 H 19.41042 v 18.81536 h 6.038056 q 0.993358,-0.0195 1.110224,-1.07127 0.03895,-0.31164 0.03895,-0.6038 z"
     style="font-style:normal;font-variant:normal;font-weight:normal;font-stretch:normal;font-family:Uroob;-inkscape-font-specification:Uroob;fill:#c80000;fill-opacity:1;stroke-width:0.99725312"
     id="path2063"
     inkscape:connector-curvature="0" /><path
     d="m 44.67287,778.37316 q -0.05843,2.94112 -2.278879,4.01239 -0.740149,0.3506 -1.694551,0.3506 h -4.616192 q -1.733507,0 -2.863208,-1.24657 -1.149178,-1.24657 -1.149178,-2.99955 v -10.63477 q 0,-1.73351 1.05179,-2.98008 1.051791,-1.24656 2.76582,-1.24656 h 4.947311 q 1.733506,0 2.765819,1.32447 1.032313,1.32448 1.032313,3.09694 v 2.53209 q 0,1.71403 -0.954402,2.94112 -0.954403,1.20761 -2.648954,1.20761 h -5.68746 v 3.52545 q 0,1.5582 1.577686,1.5582 h 2.960595 q 0.662239,0 1.051791,-0.37007 0.40903,-0.38955 0.389552,-1.07127 z m -7.752085,-11.72551 q -1.577686,0 -1.577686,1.63611 v 3.56441 h 4.265595 q 0.740149,0 1.246566,-0.40903 0.525896,-0.42851 0.525896,-1.22709 v -2.0062 q 0,-0.81806 -0.525896,-1.18813 -0.506417,-0.37007 -1.246566,-0.37007 z"
     style="font-style:normal;font-variant:normal;font-weight:normal;font-stretch:normal;font-family:Uroob;-inkscape-font-specification:Uroob;fill:#c80000;fill-opacity:1;stroke-width:0.99725312"
     id="path2065"
     inkscape:connector-curvature="0" /><path
     d="m 55.07391,767.87473 q 0.03896,-1.09074 -1.343954,-1.09074 h -2.434701 q -1.675073,0.0195 -1.519253,2.27888 0.03896,0.58433 0.03896,1.05179 0,1.46082 1.480297,1.46082 h 3.408581 q 1.752984,0 2.824252,1.24657 1.090746,1.24656 1.090746,2.98007 v 2.61 q 0,1.79194 -1.168656,3.07746 -1.168657,1.26604 -2.941118,1.26604 h -4.285073 q -1.908805,0 -2.980073,-1.22709 -1.090746,-1.22709 -1.090746,-3.13589 h 3.350148 q -0.03896,0.68172 0.331119,0.97388 0.389552,0.27269 1.012835,0.27269 h 2.824253 q 1.480298,0 1.480298,-1.46082 v -1.94776 q 0,-1.51926 -1.480298,-1.51926 h -3.213805 q -1.772461,0 -2.941118,-1.11022 -1.168656,-1.11022 -1.168656,-2.86321 v -2.84373 q 0,-1.75298 1.090746,-2.99955 1.090746,-1.24657 2.824252,-1.24657 h 4.187685 q 1.791939,0 2.882685,1.18814 1.090746,1.18813 1.090746,3.0385 z"
     style="font-style:normal;font-variant:normal;font-weight:normal;font-stretch:normal;font-family:Uroob;-inkscape-font-specification:Uroob;fill:#c80000;fill-opacity:1;stroke-width:0.99725312"
     id="path2067"
     inkscape:connector-curvature="0" /><path
     d="m 74.941064,781.41167 q 0.175298,0.31164 0.175298,0.62328 0,0.29217 -0.233731,0.48694 -0.214254,0.19478 -0.545373,0.19478 h -2.123059 l -0.993357,-1.42187 -3.856565,-6.38865 -1.363433,2.23992 v 5.49269 h -3.350147 v -24.6976 h 3.350147 v 14.02387 l 3.856566,-6.36917 1.382909,-1.81142 h 1.733507 q 0.350597,0 0.642761,0.23373 0.292164,0.21425 0.292164,0.50642 0,0.27268 -0.292164,0.83753 -0.292164,0.56485 -0.759627,1.34396 -0.447984,0.7791 -0.993357,1.67507 -0.545373,0.87649 -1.051791,1.69455 -0.506418,0.79859 -0.89597,1.42187 -0.389552,0.62328 -0.545372,0.85701 z"
     style="font-style:normal;font-variant:normal;font-weight:normal;font-stretch:normal;font-family:Uroob;-inkscape-font-specification:Uroob;fill:#c80000;fill-opacity:1;stroke-width:0.99725312"
     id="path2069"
     inkscape:connector-curvature="0" /><path
     d="m 81.641359,778.70428 q 0,1.44134 1.558208,1.44134 1.577686,0 1.752984,-1.63611 h 0.720672 v 3.52544 q -1.285522,1.16866 -2.999551,1.16866 -3.213804,0 -4.22664,-2.41523 -0.331119,-0.7791 -0.331119,-1.85037 v -11.66708 h -1.421865 v -2.94112 h 1.421865 v -3.72022 h 3.525446 v 3.72022 h 2.687909 v 2.94112 h -2.687909 z"
     style="font-style:normal;font-variant:normal;font-weight:normal;font-stretch:normal;font-family:Uroob;-inkscape-font-specification:Uroob;fill:#c80000;fill-opacity:1;stroke-width:0.99725312"
     id="path2071"
     inkscape:connector-curvature="0" /><path
     d="m 99.463364,778.64585 q 0.01948,1.67507 -1.38291,2.82425 -1.402387,1.16866 -3.155371,1.16866 h -2.512611 q -1.772462,0 -3.213804,-1.14918 -1.441343,-1.14918 -1.441343,-2.84373 v -10.94641 q 0,-1.71403 1.441343,-2.86321 1.441342,-1.14918 3.213804,-1.14918 h 2.512611 q 1.714029,0 3.135894,1.14918 1.402387,1.14918 1.402387,2.86321 z m -3.33067,-0.64276 v -9.66089 q 0,-0.74015 -0.428507,-1.24657 -0.40903,-0.52589 -1.207611,-0.52589 h -1.850373 q -0.818059,0 -1.188133,0.52589 -0.370075,0.50642 -0.370075,1.24657 v 9.66089 q 0,0.74015 0.370075,1.26604 0.370074,0.50642 1.188133,0.50642 h 1.850373 q 0.798581,0 1.207611,-0.50642 0.428507,-0.52589 0.428507,-1.26604 z"
     style="font-style:normal;font-variant:normal;font-weight:normal;font-stretch:normal;font-family:Uroob;-inkscape-font-specification:Uroob;fill:#c80000;fill-opacity:1;stroke-width:0.99725312"
     id="path2073"
     inkscape:connector-curvature="0" /><path
     d="m 104.48859,764.69989 q 1.26604,-0.91545 2.82425,-0.91545 h 1.36343 q 2.47366,0 3.95396,1.42186 1.48029,1.42187 1.48029,3.93448 v 7.79104 q 0,4.0903 -2.74634,5.33686 -0.9544,0.42851 -2.29836,0.42851 h -2.14253 q -1.26605,0 -2.14254,-0.9544 v 9.52454 h -3.36962 l 0.0195,-27.48289 h 3.05799 z m 6.29126,11.97872 v -7.07037 q 0,-1.51925 -0.33112,-2.02567 -0.6038,-0.93492 -2.00619,-0.93492 h -1.67507 q -0.60381,0 -1.305,0.4285 -0.68172,0.42851 -0.68172,1.01284 v 9.79723 q 0,0.58433 0.72067,1.26605 0.72067,0.66223 1.26605,0.66223 h 1.67507 q 1.92828,0 2.23993,-1.92828 0.0779,-0.56485 0.0974,-1.20761 z"
     style="font-style:normal;font-variant:normal;font-weight:normal;font-stretch:normal;font-family:Uroob;-inkscape-font-specification:Uroob;fill:#c80000;fill-opacity:1;stroke-width:0.99725312"
     id="path2075"
     inkscape:connector-curvature="0" /><path
     d="m 140.17155,782.73615 h -8.41432 q -1.81142,0 -3.27224,-1.14918 -1.4803,-1.14918 -1.4803,-2.92164 v -16.77022 q 0,-1.77246 1.4803,-2.94112 1.4803,-1.16865 3.27224,-1.16865 h 8.41432 v 3.07746 h -8.18059 q -0.75963,0 -1.11022,0.48694 -0.3506,0.48694 -0.3506,1.18813 v 6.01858 h 8.84283 v 2.99955 h -8.84283 v 6.46657 q 0,0.70119 0.3506,1.18813 0.35059,0.48694 1.11022,0.48694 h 8.18059 z"
     style="font-style:normal;font-variant:normal;font-weight:normal;font-stretch:normal;font-family:Uroob;-inkscape-font-specification:Uroob;fill:#c80000;fill-opacity:1;stroke-width:0.99725312"
     id="path2077"
     inkscape:connector-curvature="0" /><path
     d="m 149.28707,763.72601 q 1.16865,0 2.14253,0.58432 v -6.36917 h 3.35015 v 24.6976 h -3.05798 v -0.91545 q -1.26605,0.91545 -2.82425,0.91545 h -1.36344 q -2.49313,0 -3.95395,-1.61664 -1.4803,-1.61664 -1.4803,-4.12926 v -7.40148 q 0,-4.0903 2.74634,-5.33687 0.95441,-0.4285 2.29836,-0.4285 z m 2.14253,14.6082 v -10.38156 q 0,-0.56486 -0.52589,-0.95441 -0.5259,-0.38955 -1.07127,-0.38955 h -2.06463 q -2.00619,0 -2.2594,1.90881 -0.0779,0.58432 -0.0779,1.22708 v 7.08985 q 0.0195,1.51925 0.33112,2.00619 0.60381,0.93493 2.00619,0.93493 h 1.67508 q 1.07127,0 1.77246,-0.85701 0.21425,-0.27269 0.21425,-0.58433 z"
     style="font-style:normal;font-variant:normal;font-weight:normal;font-stretch:normal;font-family:Uroob;-inkscape-font-specification:Uroob;fill:#c80000;fill-opacity:1;stroke-width:0.99725312"
     id="path2079"
     inkscape:connector-curvature="0" /><path
     d="m 158.38311,758.05802 q 2.14254,0 2.14254,2.18149 0,2.20097 -2.14254,2.20097 -1.05179,0 -1.61664,-0.56485 -0.56485,-0.58432 -0.56485,-1.63612 0,-1.05179 0.56485,-1.61664 0.56485,-0.56485 1.61664,-0.56485 z m 1.63612,24.58074 h -3.35015 v -18.93223 h 3.35015 z"
     style="font-style:normal;font-variant:normal;font-weight:normal;font-stretch:normal;font-family:Uroob;-inkscape-font-specification:Uroob;fill:#c80000;fill-opacity:1;stroke-width:0.99725312"
     id="path2081"
     inkscape:connector-curvature="0" /><path
     d="m 166.5637,778.70428 q 0,1.44134 1.55821,1.44134 1.57769,0 1.75299,-1.63611 h 0.72067 v 3.52544 q -1.28552,1.16866 -2.99955,1.16866 -3.21381,0 -4.22664,-2.41523 -0.33112,-0.7791 -0.33112,-1.85037 v -11.66708 h -1.42187 v -2.94112 h 1.42187 v -3.72022 h 3.52544 v 3.72022 h 2.68791 v 2.94112 h -2.68791 z"
     style="font-style:normal;font-variant:normal;font-weight:normal;font-stretch:normal;font-family:Uroob;-inkscape-font-specification:Uroob;fill:#c80000;fill-opacity:1;stroke-width:0.99725312"
     id="path2083"
     inkscape:connector-curvature="0" /><path
     d="m 174.29631,758.05802 q 2.14253,0 2.14253,2.18149 0,2.20097 -2.14253,2.20097 -1.05179,0 -1.61664,-0.56485 -0.56485,-0.58432 -0.56485,-1.63612 0,-1.05179 0.56485,-1.61664 0.56485,-0.56485 1.61664,-0.56485 z m 1.63612,24.58074 h -3.35015 v -18.93223 h 3.35015 z"
     style="font-style:normal;font-variant:normal;font-weight:normal;font-stretch:normal;font-family:Uroob;-inkscape-font-specification:Uroob;fill:#c80000;fill-opacity:1;stroke-width:0.99725312"
     id="path2085"
     inkscape:connector-curvature="0" /><path
     d="m 189.62519,778.64585 q 0.0195,1.67507 -1.38291,2.82425 -1.40239,1.16866 -3.15537,1.16866 h -2.51261 q -1.77246,0 -3.21381,-1.14918 -1.44134,-1.14918 -1.44134,-2.84373 v -10.94641 q 0,-1.71403 1.44134,-2.86321 1.44135,-1.14918 3.21381,-1.14918 h 2.51261 q 1.71403,0 3.13589,1.14918 1.40239,1.14918 1.40239,2.86321 z m -3.33067,-0.64276 v -9.66089 q 0,-0.74015 -0.42851,-1.24657 -0.40903,-0.52589 -1.20761,-0.52589 h -1.85037 q -0.81806,0 -1.18813,0.52589 -0.37008,0.50642 -0.37008,1.24657 v 9.66089 q 0,0.74015 0.37008,1.26604 0.37007,0.50642 1.18813,0.50642 h 1.85037 q 0.79858,0 1.20761,-0.50642 0.42851,-0.52589 0.42851,-1.26604 z"
     style="font-style:normal;font-variant:normal;font-weight:normal;font-stretch:normal;font-family:Uroob;-inkscape-font-specification:Uroob;fill:#c80000;fill-opacity:1;stroke-width:0.99725312"
     id="path2087"
     inkscape:connector-curvature="0" /><path
     d="m 194.53354,764.87518 q 1.1297,-1.1297 2.27888,-1.1297 h 3.31119 q 1.69456,0 2.92164,1.14918 1.22709,1.14918 1.22709,2.86321 v 14.9588 h -3.33067 v -14.31604 q 0,-0.74015 -0.4285,-1.24657 -0.40903,-0.52589 -1.20762,-0.52589 h -2.84373 q -1.14917,-0.0195 -1.46082,1.42186 -0.0779,0.38956 -0.0974,0.74015 v 13.92649 h -3.33067 l -0.0195,-18.97119 h 2.98007 z"
     style="font-style:normal;font-variant:normal;font-weight:normal;font-stretch:normal;font-family:Uroob;-inkscape-font-specification:Uroob;fill:#c80000;fill-opacity:1;stroke-width:0.99725312"
     id="path2089"
     inkscape:connector-curvature="0" /></g></svg>