<?xml version="1.0" encoding="UTF-8" standalone="no"?>
<!-- Generator: Adobe Illustrator 13.0.0, SVG Export Plug-In . SVG Version: 6.00 Build 14948)  -->

<svg
   xmlns:dc="http://purl.org/dc/elements/1.1/"
   xmlns:cc="http://creativecommons.org/ns#"
   xmlns:rdf="http://www.w3.org/1999/02/22-rdf-syntax-ns#"
   xmlns:svg="http://www.w3.org/2000/svg"
   xmlns="http://www.w3.org/2000/svg"
   xmlns:xlink="http://www.w3.org/1999/xlink"
   xmlns:sodipodi="http://sodipodi.sourceforge.net/DTD/sodipodi-0.dtd"
   xmlns:inkscape="http://www.inkscape.org/namespaces/inkscape"
   version="1.1"
   x="0px"
   y="0px"
   width="1280px"
   height="720px"
   viewBox="0 0 1280 720"
   enable-background="new 0 0 1280 720"
   xml:space="preserve"
   id="svg80"
   sodipodi:docname="splash.svg"
   inkscape:version="0.92.5 (2060ec1f9f, 2020-04-08)"><metadata
   id="metadata86"><rdf:RDF><cc:Work
       rdf:about=""><dc:format>image/svg+xml</dc:format><dc:type
         rdf:resource="http://purl.org/dc/dcmitype/StillImage" /><dc:title /></cc:Work></rdf:RDF></metadata><defs
   id="defs84">
	
	
	
	
	
	
	
	<linearGradient
   y2="227.3384"
   x2="323.8018"
   y1="542.3223"
   x1="118.3125"
   gradientUnits="userSpaceOnUse"
   id="SVGID_1_">
		<stop
   id="stop17"
   style="stop-color:#004E73"
   offset="0" />
		<stop
   id="stop19"
   style="stop-color:#00A1B0"
   offset="1" />
	</linearGradient>
	
	
	<linearGradient
   y2="288.3857"
   x2="399.8003"
   y1="540.373"
   x1="144.813"
   gradientUnits="userSpaceOnUse"
   id="SVGID_2_">
		<stop
   id="stop26"
   style="stop-color:#D3D3D3"
   offset="0.3077" />
		<stop
   id="stop28"
   style="stop-color:#FFFFFF"
   offset="0.6752" />
	</linearGradient>
	
	
	<linearGradient
   y2="213.9668"
   x2="326.25729"
   y1="465.9541"
   x1="71.269997"
   gradientUnits="userSpaceOnUse"
   id="SVGID_3_"
   xlink:href="#SVGID_2_">
		<stop
   id="stop37"
   style="stop-color:#D3D3D3"
   offset="0.3077" />
		<stop
   id="stop39"
   style="stop-color:#FFFFFF"
   offset="0.6752" />
	</linearGradient>
	
	

		
		
		
		
		
		
		
		
		
		
		
		
		
		
		
		
	</defs><sodipodi:namedview
   pagecolor="#000000"
   bordercolor="#666666"
   borderopacity="1"
   objecttolerance="10"
   gridtolerance="10"
   guidetolerance="10"
   inkscape:pageopacity="0"
   inkscape:pageshadow="2"
   inkscape:window-width="3840"
   inkscape:window-height="2065"
   id="namedview82"
   showgrid="false"
   inkscape:zoom="0.42413161"
   inkscape:cx="-52.005039"
   inkscape:cy="753.55675"
   inkscape:window-x="0"
   inkscape:window-y="0"
   inkscape:window-maximized="1"
   inkscape:current-layer="svg80"
   inkscape:snap-bbox="true" />
<g
   id="Layer_2">
</g>

<g
   id="Layer_3">
</g>
<g
   id="g897"
   transform="matrix(1.0402173,0,0,1.0402173,-0.54495702,-17.81302)"><path
     d="M 431.529,442.097 Z"
     id="path3"
     inkscape:connector-curvature="0"
     style="fill:#c90012" /><path
     d="M 431.529,359.216 Z"
     id="path5"
     inkscape:connector-curvature="0"
     style="fill:#c90012" /><path
     d="M 431.529,276.306 Z"
     id="path7"
     inkscape:connector-curvature="0"
     style="fill:#c90012" /><path
     d="M 431.529,317.753 Z"
     id="path9"
     inkscape:connector-curvature="0"
     style="fill:#c90012" /><path
     d="M 431.529,483.544 Z"
     id="path11"
     inkscape:connector-curvature="0"
     style="fill:#c90012" /><path
     d="M 431.529,400.642 Z"
     id="path13"
     inkscape:connector-curvature="0"
     style="fill:#c90012" /><path
     d="M 431.529,234.842 Z"
     id="path15"
     inkscape:connector-curvature="0"
     style="fill:#c90012" /><path
     d="m 431.529,245.951 c 0,-6.11 -4.999,-11.108 -11.105,-11.108 H 69.563 c -6.112,0 -14.644,3.534 -18.963,7.855 L 24.855,268.443 C 20.533,272.764 17,281.296 17,287.406 v 226.468 c 0,6.111 4.999,11.109 11.106,11.109 h 350.86 c 6.107,0 14.644,-3.535 18.963,-7.854 l 25.741,-25.736 c 4.32,-4.316 7.854,-12.853 7.854,-18.965 z"
     id="path22"
     style="fill:#a1001d;fill-opacity:1"
     inkscape:connector-curvature="0" /><path
     enable-background="new    "
     d="M 382.22,392.789 356.491,367.06 c -4.319,-4.318 -12.854,-7.854 -18.963,-7.853 H 318.28 c -6.112,0.001 -11.11,0.001 -11.11,0.001 0,0 3.532,-3.534 7.854,-7.855 L 382.22,284.16 c 4.32,-4.321 2.854,-7.855 -3.253,-7.855 H 276.832 c -6.111,0 -14.643,3.534 -18.963,7.855 L 25.142,516.86 c -1.825,1.821 -3.517,3.514 -4.871,4.866 2.012,2.011 4.786,3.259 7.836,3.259 0.005,0 0.01,0 0.016,0 h 99.953 167.988 c 6.111,0 11.122,-0.013 11.133,-0.023 0.015,-0.016 3.559,-3.562 7.88,-7.88 l 67.144,-67.132 c 4.32,-4.316 7.854,-12.853 7.854,-18.963 v -19.235 c -0.002,-6.112 -3.535,-14.648 -7.855,-18.963 z"
     id="path24"
     inkscape:connector-curvature="0"
     style="opacity:0.25;fill:#000406;fill-opacity:1" /><path
     d="m 276.824,400.649 c -6.108,0 -14.643,-3.536 -18.96,-7.857 l -25.71,-25.718 c -4.321,-4.321 -7.857,-12.855 -7.865,-18.966 l -0.012,-19.246 c -0.008,-6.11 3.525,-14.643 7.846,-18.964 l 25.741,-25.737 c 4.321,-4.321 12.852,-7.855 18.963,-7.855 h 102.14 c 6.107,0 7.573,3.534 3.253,7.855 l -25.741,25.737 c -4.32,4.321 -12.852,7.855 -18.963,7.855 h -60.688 c -6.112,0 -11.11,4.998 -11.11,11.108 v 19.246 c 0,6.11 4.998,11.108 11.106,11.106 l 60.702,-0.007 c 6.107,-0.002 14.644,3.533 18.963,7.853 l 25.729,25.729 c 4.32,4.314 7.854,12.851 7.854,18.963 v 19.235 c 0,6.109 -3.532,14.646 -7.854,18.963 l -25.74,25.74 c -4.321,4.316 -12.853,7.854 -18.964,7.854 h -60.688 c -6.112,0 -14.643,-3.536 -18.963,-7.854 l -25.741,-25.74 c -4.32,-4.316 -2.858,-7.854 3.253,-7.854 h 102.14 c 6.112,0 11.11,-4.998 11.11,-11.108 V 411.75 c 0,-6.112 0,-11.11 0.003,-11.11 0.004,0 -4.994,0 -11.103,0 z"
     id="path31"
     style="fill:#fefefe;fill-opacity:1"
     inkscape:connector-curvature="0" /><g
     id="g35"
     style="opacity:0.25;fill:#000000;fill-opacity:1">
		<path
   style="fill:#000000;fill-opacity:1"
   d="m 17.008,370.877 c 0,-6.109 0,-11.238 0,-11.393 0,-0.155 3.532,-3.818 7.854,-8.138 L 92.047,284.16 c 4.321,-4.321 12.855,-7.855 18.963,-7.855 h 102.15 c 6.108,0 7.574,3.534 3.253,7.855 l -67.197,67.182 c -4.32,4.321 -7.853,7.855 -7.853,7.855 0,0 4.998,0.002 11.11,0.006 l 19.228,0.007 c 6.108,0.004 10.75,4.993 10.318,11.086 l -1.114,15.593 c -0.433,6.092 -1.707,11.997 -2.833,13.122 -1.125,1.125 -5.576,5.58 -9.896,9.896 l -25.201,25.201 c -4.32,4.315 -7.885,7.885 -7.922,7.918 -0.034,0.034 4.933,0.064 11.041,0.062 h 17.979 c 6.108,-0.004 14.784,3.379 19.281,7.519 l 26.836,24.694 c 4.497,4.137 8.181,7.623 8.058,7.75 -0.126,0.126 -3.766,3.762 -8.087,8.083 l -34.827,34.85 -147.212,0.002 c -6.107,0 -11.105,-4.998 -11.105,-11.11 z"
   id="path33"
   inkscape:connector-curvature="0" />
	</g><path
     d="m 111.01,442.097 c -6.107,0 -11.104,-4.998 -11.104,-11.108 v -19.235 c 0,-6.112 4.998,-11.11 11.104,-11.11 h 60.69 c 6.108,0 11.106,-4.998 11.106,-11.108 V 370.33 c 0,-6.112 -4.998,-11.11 -11.106,-11.11 h -60.69 c -6.107,0 -11.104,-4.998 -11.104,-11.108 v -19.246 c 0,-6.11 4.998,-11.108 11.104,-11.108 h 60.69 c 6.108,0 14.643,-3.534 18.964,-7.854 l 25.749,-25.741 c 4.321,-4.319 2.855,-7.853 -3.253,-7.853 H 111.01 c -6.107,0 -14.643,3.534 -18.963,7.855 L 66.31,309.9 c -4.32,4.321 -7.857,12.854 -7.857,18.964 v 102.125 c 0,6.11 3.537,14.646 7.857,18.963 l 25.737,25.74 c 4.321,4.316 12.855,7.854 18.963,7.854 h 102.143 c 6.112,0 7.574,-3.536 3.253,-7.855 l -25.741,-25.744 c -4.32,-4.321 -12.854,-7.857 -18.964,-7.857 z"
     id="path42"
     style="fill:#ffffff;fill-opacity:1"
     inkscape:connector-curvature="0" /></g><g
   id="g1404"
   transform="matrix(1.0066037,0,0,1.0066037,-4.2264102,-1.4181562)"><path
     inkscape:connector-curvature="0"
     id="path1244"
     style="font-style:normal;font-variant:normal;font-weight:500;font-stretch:normal;font-size:209.86853027px;line-height:1.25;font-family:Akrobat;-inkscape-font-specification:'Akrobat Medium';letter-spacing:0px;word-spacing:0px;fill:#fcfcfc;fill-opacity:1;stroke:none;stroke-width:1.06988776"
     d="m 575.69709,305.69849 q -1.27125,16.53031 -11.01741,25.29337 -9.74617,8.76304 -26.9079,8.76304 -16.52612,0 -26.27228,-9.75885 -9.5343,-9.75885 -9.5343,-27.48412 v -34.45474 q 0,-17.72527 9.74617,-27.48412 9.95804,-9.75885 26.69602,-9.75885 16.94987,0 26.90791,9.75885 10.16992,9.75885 10.16992,27.48412 v 23.1026 H 514.6776 v 11.35214 q 0,12.94542 6.14432,19.31854 6.14432,6.37314 17.37361,6.37314 11.65303,0 17.58547,-5.37733 6.14433,-5.57649 7.41556,-17.12779 z m -37.07782,-63.33298 q -11.44116,0 -17.79735,6.37313 -6.14432,6.37314 -6.14432,19.31855 v 12.14878 h 48.30709 v -12.14878 q 0,-12.94541 -6.35619,-19.31855 -6.3562,-6.37313 -18.00923,-6.37313 z" /><path
     inkscape:connector-curvature="0"
     id="path1246"
     style="font-style:normal;font-variant:normal;font-weight:500;font-stretch:normal;font-size:209.86853027px;line-height:1.25;font-family:Akrobat;-inkscape-font-specification:'Akrobat Medium';letter-spacing:0px;word-spacing:0px;fill:#fcfcfc;fill-opacity:1;stroke:none;stroke-width:1.06988776"
     d="m 697.73583,230.81422 q 13.34802,0 20.97545,10.15717 7.83931,10.15718 7.83931,30.27237 v 66.51955 h -12.50052 v -65.52375 q 0,-15.93282 -4.87309,-23.1026 -4.87308,-7.16977 -14.1955,-7.16977 -11.44116,0 -18.43297,8.76306 -6.99183,8.56389 -6.99183,23.70007 v 63.33299 h -12.50051 v -65.52375 q 0,-15.93282 -5.08496,-23.1026 -5.08496,-7.16977 -14.61925,-7.16977 -11.22928,0 -18.00923,8.76306 -6.77994,8.56389 -6.77994,23.70007 v 63.33299 H 600.06227 V 233.20414 h 10.38178 l 1.90686,13.5429 q 4.23747,-7.5681 11.01741,-11.75045 6.99182,-4.18237 16.73799,-4.18237 9.53429,0 16.31424,4.979 6.99182,4.97901 10.38178,15.13619 4.0256,-9.36054 11.65303,-14.73786 7.83932,-5.37733 19.28047,-5.37733 z" /><path
     inkscape:connector-curvature="0"
     id="path1248"
     style="font-style:normal;font-variant:normal;font-weight:500;font-stretch:normal;font-size:209.86853027px;line-height:1.25;font-family:Akrobat;-inkscape-font-specification:'Akrobat Medium';letter-spacing:0px;word-spacing:0px;fill:#fcfcfc;fill-opacity:1;stroke:none;stroke-width:1.06988776"
     d="m 823.16469,233.20414 v 104.55917 h -10.38178 l -2.11873,-12.94543 q -4.44934,7.36894 -11.65303,11.35214 -7.20369,3.98321 -17.16173,3.98321 -14.19551,0 -22.03482,-9.5597 -7.83931,-9.75886 -7.83931,-30.47153 v -66.91786 h 12.50052 v 65.12542 q 0,15.93283 4.87309,23.30176 4.87308,7.36893 15.67862,7.36893 11.65303,0 18.64484,-8.5639 6.99182,-8.76305 6.99182,-23.89923 v -63.33298 z" /><path
     inkscape:connector-curvature="0"
     id="path1250"
     style="font-style:normal;font-variant:normal;font-weight:500;font-stretch:normal;font-size:209.86853027px;line-height:1.25;font-family:Akrobat;-inkscape-font-specification:'Akrobat Medium';letter-spacing:0px;word-spacing:0px;fill:#fcfcfc;fill-opacity:1;stroke:none;stroke-width:1.06988776"
     d="m 851.76757,193.7704 h 12.50052 v 143.99291 h -12.50052 z" /><path
     inkscape:connector-curvature="0"
     id="path1252"
     style="font-style:normal;font-variant:normal;font-weight:500;font-stretch:normal;font-size:209.86853027px;line-height:1.25;font-family:Akrobat;-inkscape-font-specification:'Akrobat Medium';letter-spacing:0px;word-spacing:0px;fill:#fcfcfc;fill-opacity:1;stroke:none;stroke-width:1.06988776"
     d="m 925.49917,230.81422 q 15.89049,0 25.00103,9.36053 9.11055,9.36054 9.11055,25.29336 v 72.2952 h -10.80553 l -1.05937,-9.95802 q -9.32242,12.34794 -25.63666,12.34794 -15.67862,0 -25.42478,-8.5639 -9.74617,-8.56389 -9.74617,-23.50091 0,-15.13619 9.95804,-23.1026 9.95804,-8.16557 28.17914,-8.16557 h 22.03482 v -11.15298 q 0,-11.5513 -5.72058,-17.52611 -5.5087,-5.97481 -16.31424,-5.97481 -9.5343,0 -15.67862,4.97901 -5.93245,4.77985 -6.56808,13.34374 H 890.3282 q 0.63563,-13.5429 10.16992,-21.50931 9.5343,-8.16557 25.00105,-8.16557 z m -1.48312,97.7877 q 10.59366,0 16.73798,-5.9748 6.35621,-5.97481 6.35621,-16.33115 v -18.5219 h -22.45857 q -12.28865,0 -18.64485,5.37733 -6.35619,5.17816 -6.35619,15.13617 0,9.95802 6.56807,15.13619 6.56807,5.17816 17.79735,5.17816 z" /><path
     inkscape:connector-curvature="0"
     id="path1254"
     style="font-style:normal;font-variant:normal;font-weight:500;font-stretch:normal;font-size:209.86853027px;line-height:1.25;font-family:Akrobat;-inkscape-font-specification:'Akrobat Medium';letter-spacing:0px;word-spacing:0px;fill:#fcfcfc;fill-opacity:1;stroke:none;stroke-width:1.06988776"
     d="m 1032.283,327.60613 v 11.15298 h -6.3562 q -15.2549,0 -23.518,-8.36474 -8.05116,-8.5639 -8.05116,-23.70007 v -62.53634 h -16.94985 v -10.95382 h 16.94985 v -24.0984 h 12.50056 v 24.0984 h 22.8823 v 10.95382 h -22.8823 v 62.53634 q 0,20.91183 19.0686,20.91183 z" /><path
     inkscape:connector-curvature="0"
     id="path1258"
     style="font-style:normal;font-variant:normal;font-weight:500;font-stretch:normal;font-size:209.86853027px;line-height:1.25;font-family:Akrobat;-inkscape-font-specification:'Akrobat Medium';letter-spacing:0px;word-spacing:0px;fill:#fcfcfc;fill-opacity:1;stroke:none;stroke-width:1.06988776"
     d="m 1125.2951,340.15323 q -16.9499,0 -27.1198,-9.75886 -9.958,-9.95802 -9.958,-28.0816 v -33.65809 q 0,-18.1236 9.958,-27.88245 10.1699,-9.95801 27.1198,-9.95801 16.9499,0 26.9079,9.95801 10.1699,9.75885 10.1699,27.88245 v 33.65809 q 0,18.12358 -10.1699,28.0816 -9.958,9.75886 -26.9079,9.75886 z m 0,-11.55131 q 11.653,0 18.0092,-6.37312 6.3562,-6.57229 6.3562,-19.91603 v -33.65809 q 0,-13.34374 -6.3562,-19.71688 -6.3562,-6.57229 -18.0092,-6.57229 -11.6531,0 -18.0092,6.57229 -6.3563,6.37314 -6.3563,19.71688 v 33.65809 q 0,13.34374 6.3563,19.91603 6.3561,6.37312 18.0092,6.37312 z" /><path
     inkscape:connector-curvature="0"
     id="path1260"
     style="font-style:normal;font-variant:normal;font-weight:500;font-stretch:normal;font-size:209.86853027px;line-height:1.25;font-family:Akrobat;-inkscape-font-specification:'Akrobat Medium';letter-spacing:0px;word-spacing:0px;fill:#fcfcfc;fill-opacity:1;stroke:none;stroke-width:1.06988776"
     d="m 1228.901,230.81422 q 14.1955,0 22.0348,9.75885 7.8393,9.55969 7.8393,30.27237 v 66.91787 h -12.5005 v -65.12543 q 0,-15.93282 -4.8731,-23.30176 -4.8731,-7.36893 -15.6787,-7.36893 -11.6529,0 -18.6448,8.76306 -6.9919,8.56389 -6.9919,23.70007 v 63.33299 h -12.5004 V 233.20414 h 10.3818 l 2.1186,12.94542 q 4.4494,-7.36893 11.6531,-11.35214 7.2037,-3.9832 17.1618,-3.9832 z" /><g
     id="g1328"><path
       d="m 1050.5038,233.20414 h 12.5006 v 104.55917 h -12.5006 z"
       style="font-style:normal;font-variant:normal;font-weight:500;font-stretch:normal;font-size:209.86853027px;line-height:1.25;font-family:Akrobat;-inkscape-font-specification:'Akrobat Medium';letter-spacing:0px;word-spacing:0px;fill:#fcfcfc;fill-opacity:1;stroke:none;stroke-width:1.06988776"
       id="path1256"
       inkscape:connector-curvature="0"
       sodipodi:nodetypes="ccccc" /><path
       inkscape:connector-curvature="0"
       id="path1305"
       style="font-style:normal;font-variant:normal;font-weight:500;font-stretch:normal;font-size:209.86853027px;line-height:1.25;font-family:Akrobat;-inkscape-font-specification:'Akrobat Medium';letter-spacing:0px;word-spacing:0px;fill:#fcfcfc;fill-opacity:1;stroke:none;stroke-width:0.99776477"
       d="m 1050.5038,191.86464 h 12.5006 v 16.32153 h -12.5006 z"
       sodipodi:nodetypes="ccccc" /></g></g><g
   id="g1391"
   transform="matrix(1.0066037,0,0,1.0066037,-4.2264102,-1.4181562)"><path
     inkscape:connector-curvature="0"
     id="path1263"
     style="font-style:normal;font-variant:normal;font-weight:500;font-stretch:normal;font-size:219.09011841px;line-height:1.25;font-family:Akrobat;-inkscape-font-specification:'Akrobat Medium';letter-spacing:0px;word-spacing:0px;fill:#fcfcfc;fill-opacity:1;stroke:none;stroke-width:1.11689842"
     d="m 543.08497,520.02299 q -17.25225,0 -27.86902,-9.56393 -10.61676,-9.56394 -10.61676,-25.36523 h 13.04977 q 0,10.81141 6.63549,16.84084 6.85665,6.02944 18.80052,6.02944 10.83794,0 16.80988,-4.78197 5.97193,-4.98987 5.97193,-13.72217 0,-5.82152 -3.53892,-9.56393 -3.31774,-3.95032 -8.40495,-6.23734 -4.86601,-2.49495 -14.15568,-5.82154 -11.05913,-4.15823 -17.69461,-7.48481 -6.63548,-3.5345 -11.28032,-9.56394 -4.64483,-6.02944 -4.64483,-15.59338 0,-13.30633 9.51085,-21.20698 9.73204,-8.10855 25.43601,-8.10855 16.36751,0 26.09954,9.14811 9.95323,9.14811 9.95323,24.32566 h -13.04978 q 0,-10.18767 -6.19311,-15.80128 -5.97194,-5.82153 -16.80988,-5.82153 -10.17441,0 -15.92515,4.78197 -5.75075,4.57405 -5.75075,13.09843 0,7.69273 6.19311,11.85096 6.19311,4.15823 19.02171,8.7323 11.28031,4.15823 17.91579,7.69272 6.85666,3.5345 11.72267,9.97977 4.86603,6.23734 4.86603,16.00919 0,13.51425 -9.95322,21.83073 -9.95322,8.31646 -26.09955,8.31646 z" /><path
     inkscape:connector-curvature="0"
     id="path1265"
     style="font-style:normal;font-variant:normal;font-weight:500;font-stretch:normal;font-size:219.09011841px;line-height:1.25;font-family:Akrobat;-inkscape-font-specification:'Akrobat Medium';letter-spacing:0px;word-spacing:0px;fill:#fcfcfc;fill-opacity:1;stroke:none;stroke-width:1.11689842"
     d="m 647.92521,506.92455 v 11.64306 h -6.63548 q -15.92515,0 -24.55127,-8.73229 -8.40494,-8.9402 -8.40494,-24.74149 v -65.28426 h -17.69461 v -11.43513 h 17.69461 v -25.15732 h 13.04977 v 25.15732 h 23.88773 v 11.43513 h -23.88773 v 65.28426 q 0,21.83072 19.90644,21.83072 z" /><path
     inkscape:connector-curvature="0"
     id="path1267"
     style="font-style:normal;font-variant:normal;font-weight:500;font-stretch:normal;font-size:219.09011841px;line-height:1.25;font-family:Akrobat;-inkscape-font-specification:'Akrobat Medium';letter-spacing:0px;word-spacing:0px;fill:#fcfcfc;fill-opacity:1;stroke:none;stroke-width:1.11689842"
     d="m 701.00882,405.8795 q 16.58869,0 26.09954,9.77184 9.51086,9.77185 9.51086,26.40478 v 75.47193 H 725.3389 l -1.10591,-10.39559 q -9.73204,12.89053 -26.7631,12.89053 -16.36751,0 -26.54192,-8.9402 -10.17439,-8.9402 -10.17439,-24.53358 0,-15.80128 10.39558,-24.11775 10.39558,-8.52438 29.41729,-8.52438 h 23.00299 v -11.64304 q 0,-12.05888 -5.97193,-18.29623 -5.75075,-6.23735 -17.03106,-6.23735 -9.95322,0 -16.36752,5.19779 -6.19311,4.98988 -6.85666,13.93008 H 664.2925 q 0.66355,-14.13799 10.61676,-22.45446 9.95322,-8.52437 26.09956,-8.52437 z m -1.54828,102.08461 q 11.05912,0 17.47343,-6.23735 6.63547,-6.23734 6.63547,-17.04875 v -19.33578 h -23.44535 q -12.8286,0 -19.46408,5.61361 -6.63548,5.40571 -6.63548,15.80128 0,10.39559 6.85667,15.80129 6.85665,5.4057 18.57934,5.4057 z" /><path
     inkscape:connector-curvature="0"
     id="path1269"
     style="font-style:normal;font-variant:normal;font-weight:500;font-stretch:normal;font-size:219.09011841px;line-height:1.25;font-family:Akrobat;-inkscape-font-specification:'Akrobat Medium';letter-spacing:0px;word-spacing:0px;fill:#fcfcfc;fill-opacity:1;stroke:none;stroke-width:1.11689842"
     d="m 812.48454,506.92455 v 11.64306 h -6.63548 q -15.92515,0 -24.55127,-8.73229 -8.40494,-8.9402 -8.40494,-24.74149 v -65.28426 h -17.69461 v -11.43513 h 17.69461 v -25.15732 h 13.04978 v 25.15732 h 23.88772 v 11.43513 h -23.88772 v 65.28426 q 0,21.83072 19.90643,21.83072 z" /><path
     inkscape:connector-curvature="0"
     id="path1273"
     style="font-style:normal;font-variant:normal;font-weight:500;font-stretch:normal;font-size:219.09011841px;line-height:1.25;font-family:Akrobat;-inkscape-font-specification:'Akrobat Medium';letter-spacing:0px;word-spacing:0px;fill:#fcfcfc;fill-opacity:1;stroke:none;stroke-width:1.11689842"
     d="m 909.5835,520.02299 q -17.69461,0 -28.31138,-10.18767 -10.39557,-10.39558 -10.39557,-29.31554 v -35.13707 q 0,-18.91996 10.39557,-29.10763 10.61677,-10.39558 28.31138,-10.39558 17.69462,0 28.09019,10.39558 10.61677,10.18767 10.61677,29.10763 v 35.13707 q 0,18.91996 -10.61677,29.31554 -10.39557,10.18767 -28.09019,10.18767 z m 0,-12.05888 q 12.16504,0 18.80053,-6.65317 6.63547,-6.86108 6.63547,-20.79116 v -35.13707 q 0,-13.93008 -6.63547,-20.58325 -6.63549,-6.86109 -18.80053,-6.86109 -12.16504,0 -18.80052,6.86109 -6.63548,6.65317 -6.63548,20.58325 v 35.13707 q 0,13.93008 6.63548,20.79116 6.63548,6.65317 18.80052,6.65317 z" /><path
     inkscape:connector-curvature="0"
     id="path1275"
     style="font-style:normal;font-variant:normal;font-weight:500;font-stretch:normal;font-size:219.09011841px;line-height:1.25;font-family:Akrobat;-inkscape-font-specification:'Akrobat Medium';letter-spacing:0px;word-spacing:0px;fill:#fcfcfc;fill-opacity:1;stroke:none;stroke-width:1.11689842"
     d="m 1017.7416,405.8795 q 14.8193,0 23.0031,10.18766 8.1837,9.97977 8.1837,31.60258 v 69.85831 h -13.0497 v -67.98711 q 0,-16.63293 -5.0873,-24.32566 -5.0872,-7.69274 -16.3675,-7.69274 -12.165,0 -19.46406,9.14812 -7.29903,8.9402 -7.29903,24.74148 v 66.11591 H 974.61104 V 408.37444 h 10.83794 l 2.21183,13.51426 q 4.64484,-7.69274 12.16505,-11.85097 7.52024,-4.15823 17.91574,-4.15823 z" /><g
     transform="translate(-218.4486,179.76474)"
     id="g1334"><path
       sodipodi:nodetypes="ccccc"
       inkscape:connector-curvature="0"
       id="path1330"
       style="font-style:normal;font-variant:normal;font-weight:500;font-stretch:normal;font-size:209.86853027px;line-height:1.25;font-family:Akrobat;-inkscape-font-specification:'Akrobat Medium';letter-spacing:0px;word-spacing:0px;fill:#fcfcfc;fill-opacity:1;stroke:none;stroke-width:1.06988776"
       d="m 1050.5038,233.20414 h 12.5006 v 104.55917 h -12.5006 z" /><path
       sodipodi:nodetypes="ccccc"
       d="m 1050.5038,191.86464 h 12.5006 v 16.32153 h -12.5006 z"
       style="font-style:normal;font-variant:normal;font-weight:500;font-stretch:normal;font-size:209.86853027px;line-height:1.25;font-family:Akrobat;-inkscape-font-specification:'Akrobat Medium';letter-spacing:0px;word-spacing:0px;fill:#fcfcfc;fill-opacity:1;stroke:none;stroke-width:0.99776477"
       id="path1332"
       inkscape:connector-curvature="0" /></g></g><g
   id="g1380"
   transform="matrix(1.1734911,0,0,1.1734911,-179.24972,-84.401983)"><path
     d="m 730.50651,539.15226 v 31.47727 h -2.91633 l -0.48606,-2.13037 q -1.2759,1.26084 -3.28088,1.95647 -1.94423,0.69563 -4.25299,0.69563 -4.49602,0 -7.23007,-2.2608 -2.67331,-2.2608 -2.67331,-6.47806 v -6.56501 q 0,-4.17378 2.61255,-6.34763 2.61255,-2.21732 7.29083,-2.21732 2.24802,0 4.19223,0.65216 1.94422,0.65215 3.22013,1.91298 v -10.69532 z m -10.14642,29.60776 q 2.91634,0 4.73904,-1.60864 1.88348,-1.60864 1.88348,-4.65203 v -6.65196 q 0,-2.73905 -1.82272,-4.43464 -1.8227,-1.73908 -4.7998,-1.73908 -3.58466,0 -5.3466,1.47821 -1.7012,1.47822 -1.7012,4.69551 v 6.56501 q 0,6.34762 7.0478,6.34762 z"
     style="font-style:normal;font-variant:normal;font-weight:500;font-stretch:normal;font-size:54.70883942px;line-height:1.25;font-family:Akrobat;-inkscape-font-specification:'Akrobat Medium';letter-spacing:0px;word-spacing:0px;fill:#ffffff;fill-opacity:1;stroke:none;stroke-width:1.28489399"
     id="path1215"
     inkscape:connector-curvature="0" /><path
     d="m 758.88,563.62975 q -0.36454,3.60858 -3.15937,5.52157 -2.79481,1.91298 -7.71613,1.91298 -4.73904,0 -7.53386,-2.13037 -2.73406,-2.13036 -2.73406,-5.99981 v -7.5215 q 0,-3.86945 2.79481,-5.99981 2.85559,-2.13037 7.65539,-2.13037 4.86055,0 7.71613,2.13037 2.91633,2.13036 2.91633,5.99981 v 5.04332 H 741.382 v 2.47818 q 0,2.826 1.76194,4.21726 1.76196,1.39126 4.98208,1.39126 3.34162,0 5.04282,-1.17387 1.76196,-1.21736 2.1265,-3.73902 z M 748.24754,549.8041 q -3.28088,0 -5.1036,1.39126 -1.76194,1.39127 -1.76194,4.21726 v 2.65209 h 13.85258 v -2.65209 q 0,-2.82599 -1.8227,-4.21726 -1.82272,-1.39126 -5.16434,-1.39126 z"
     style="font-style:normal;font-variant:normal;font-weight:500;font-stretch:normal;font-size:54.70883942px;line-height:1.25;font-family:Akrobat;-inkscape-font-specification:'Akrobat Medium';letter-spacing:0px;word-spacing:0px;fill:#ffffff;fill-opacity:1;stroke:none;stroke-width:1.28489399"
     id="path1217"
     inkscape:connector-curvature="0" /><path
     d="m 774.3122,571.15126 q -4.73904,0 -7.65538,-1.99994 -2.91633,-1.99994 -2.91633,-5.30419 h 3.58466 q 0,2.2608 1.8227,3.52164 1.88347,1.26083 5.16435,1.26083 2.97709,0 4.61753,-0.99998 1.64044,-1.04344 1.64044,-2.86947 0,-1.21735 -0.97212,-1.99994 -0.91136,-0.82605 -2.30876,-1.3043 -1.33666,-0.52173 -3.88845,-1.21736 -3.03785,-0.86954 -4.86055,-1.56517 -1.82271,-0.7391 -3.0986,-1.99993 -1.27591,-1.26083 -1.27591,-3.26077 0,-2.78252 2.61255,-4.43464 2.67331,-1.6956 6.98706,-1.6956 4.49601,0 7.16932,1.91299 2.73406,1.91297 2.73406,5.08679 h -3.58466 q 0,-2.13036 -1.7012,-3.30424 -1.64043,-1.21736 -4.61752,-1.21736 -2.79483,0 -4.37451,0.99997 -1.57968,0.9565 -1.57968,2.73905 0,1.60864 1.7012,2.47818 1.70119,0.86954 5.2251,1.82603 3.0986,0.86953 4.9213,1.60864 1.88348,0.73911 3.22012,2.0869 1.33666,1.3043 1.33666,3.34772 0,2.82599 -2.73406,4.56507 -2.73407,1.73908 -7.16932,1.73908 z"
     style="font-style:normal;font-variant:normal;font-weight:500;font-stretch:normal;font-size:54.70883942px;line-height:1.25;font-family:Akrobat;-inkscape-font-specification:'Akrobat Medium';letter-spacing:0px;word-spacing:0px;fill:#ffffff;fill-opacity:1;stroke:none;stroke-width:1.28489399"
     id="path1219"
     inkscape:connector-curvature="0" /><path
     d="m 797.03521,559.0212 -3.15936,2.47819 v 9.13014 h -3.58466 v -31.47727 h 3.58466 v 18.8255 l 12.09063,-10.1736 h 4.55677 l -11.05776,9.21711 12.63744,13.60826 h -4.31374 z"
     style="font-style:normal;font-variant:normal;font-weight:500;font-stretch:normal;font-size:54.70883942px;line-height:1.25;font-family:Akrobat;-inkscape-font-specification:'Akrobat Medium';letter-spacing:0px;word-spacing:0px;fill:#ffffff;fill-opacity:1;stroke:none;stroke-width:1.28489399"
     id="path1221"
     inkscape:connector-curvature="0" /><path
     d="m 828.93256,568.41221 v 2.43471 h -1.82271 q -4.37449,0 -6.74402,-1.82603 -2.30876,-1.86951 -2.30876,-5.17376 v -13.65174 h -4.86056 v -2.39123 h 4.86056 v -5.2607 h 3.58466 v 5.2607 h 6.56175 v 2.39123 h -6.56175 v 13.65174 q 0,4.56508 5.46812,4.56508 z"
     style="font-style:normal;font-variant:normal;font-weight:500;font-stretch:normal;font-size:54.70883942px;line-height:1.25;font-family:Akrobat;-inkscape-font-specification:'Akrobat Medium';letter-spacing:0px;word-spacing:0px;fill:#ffffff;fill-opacity:1;stroke:none;stroke-width:1.28489399"
     id="path1223"
     inkscape:connector-curvature="0" /><path
     d="m 844.12167,571.15126 q -4.86055,0 -7.77689,-2.13037 -2.85557,-2.17385 -2.85557,-6.13024 v -7.3476 q 0,-3.9564 2.85557,-6.08676 2.91634,-2.17385 7.77689,-2.17385 4.86056,0 7.71614,2.17385 2.91633,2.13036 2.91633,6.08676 v 7.3476 q 0,3.95639 -2.91633,6.13024 -2.85558,2.13037 -7.71614,2.13037 z m 0,-2.52166 q 3.34164,0 5.16434,-1.39127 1.82271,-1.43473 1.82271,-4.34768 v -7.3476 q 0,-2.91295 -1.82271,-4.30421 -1.8227,-1.43474 -5.16434,-1.43474 -3.34163,0 -5.16434,1.43474 -1.8227,1.39126 -1.8227,4.30421 v 7.3476 q 0,2.91295 1.8227,4.34768 1.82271,1.39127 5.16434,1.39127 z"
     style="font-style:normal;font-variant:normal;font-weight:500;font-stretch:normal;font-size:54.70883942px;line-height:1.25;font-family:Akrobat;-inkscape-font-specification:'Akrobat Medium';letter-spacing:0px;word-spacing:0px;fill:#ffffff;fill-opacity:1;stroke:none;stroke-width:1.28489399"
     id="path1225"
     inkscape:connector-curvature="0" /><path
     d="m 872.92045,547.28244 q 4.49601,0 7.16931,2.2608 2.73407,2.2608 2.73407,6.47805 v 6.56502 q 0,4.17378 -2.61255,6.3911 -2.61255,2.17385 -7.29083,2.17385 -2.24802,0 -4.19223,-0.65216 -1.94424,-0.65216 -3.22013,-1.91298 v 9.86925 h -3.5239 v -30.65121 h 2.91633 l 0.48606,2.13037 q 1.2759,-1.26083 3.22012,-1.95646 2.00498,-0.69563 4.31375,-0.69563 z m 6.25796,8.73885 q 0,-6.34762 -7.04781,-6.34762 -2.91633,0 -4.7998,1.60865 -1.82271,1.60864 -1.82271,4.65203 v 6.65196 q 0,2.73905 1.82271,4.47812 1.82271,1.69559 4.7998,1.69559 3.58466,0 5.28586,-1.47821 1.76195,-1.47821 1.76195,-4.6955 z"
     style="font-style:normal;font-variant:normal;font-weight:500;font-stretch:normal;font-size:54.70883942px;line-height:1.25;font-family:Akrobat;-inkscape-font-specification:'Akrobat Medium';letter-spacing:0px;word-spacing:0px;fill:#ffffff;fill-opacity:1;stroke:none;stroke-width:1.28489399"
     id="path1227"
     inkscape:connector-curvature="0" /><path
     d="m 924.3207,563.62975 q -0.36454,3.60858 -3.15936,5.52157 -2.79482,1.91298 -7.71613,1.91298 -4.73905,0 -7.53387,-2.13037 -2.73405,-2.13036 -2.73405,-5.99981 v -7.5215 q 0,-3.86945 2.79481,-5.99981 2.85558,-2.13037 7.65538,-2.13037 4.86055,0 7.71613,2.13037 2.91633,2.13036 2.91633,5.99981 v 5.04332 H 906.8227 v 2.47818 q 0,2.826 1.76195,4.21726 1.76195,1.39126 4.98207,1.39126 3.34163,0 5.04283,-1.17387 1.76195,-1.21736 2.12649,-3.73902 z M 913.68824,549.8041 q -3.28088,0 -5.10359,1.39126 -1.76195,1.39127 -1.76195,4.21726 v 2.65209 h 13.85258 v -2.65209 q 0,-2.82599 -1.8227,-4.21726 -1.82271,-1.39126 -5.16434,-1.39126 z"
     style="font-style:normal;font-variant:normal;font-weight:500;font-stretch:normal;font-size:54.70883942px;line-height:1.25;font-family:Akrobat;-inkscape-font-specification:'Akrobat Medium';letter-spacing:0px;word-spacing:0px;fill:#ffffff;fill-opacity:1;stroke:none;stroke-width:1.28489399"
     id="path1229"
     inkscape:connector-curvature="0" /><path
     d="m 951.35747,539.15226 v 31.47727 h -2.91633 l -0.48606,-2.13037 q -1.27589,1.26084 -3.28087,1.95647 -1.94423,0.69563 -4.25299,0.69563 -4.49602,0 -7.23007,-2.2608 -2.67331,-2.2608 -2.67331,-6.47806 v -6.56501 q 0,-4.17378 2.61255,-6.34763 2.61255,-2.21732 7.29083,-2.21732 2.24801,0 4.19223,0.65216 1.94422,0.65215 3.22012,1.91298 v -10.69532 z m -10.14641,29.60776 q 2.91634,0 4.73904,-1.60864 1.88347,-1.60864 1.88347,-4.65203 v -6.65196 q 0,-2.73905 -1.82271,-4.43464 -1.8227,-1.73908 -4.7998,-1.73908 -3.58466,0 -5.34661,1.47821 -1.70119,1.47822 -1.70119,4.69551 v 6.56501 q 0,6.34762 7.0478,6.34762 z"
     style="font-style:normal;font-variant:normal;font-weight:500;font-stretch:normal;font-size:54.70883942px;line-height:1.25;font-family:Akrobat;-inkscape-font-specification:'Akrobat Medium';letter-spacing:0px;word-spacing:0px;fill:#ffffff;fill-opacity:1;stroke:none;stroke-width:1.28489399"
     id="path1231"
     inkscape:connector-curvature="0" /><path
     d="m 983.80169,568.41221 v 2.43471 h -1.82272 q -4.3745,0 -6.74402,-1.82603 -2.30877,-1.86951 -2.30877,-5.17376 v -13.65174 h -4.86054 v -2.39123 h 4.86054 v -5.2607 h 3.58467 v 5.2607 h 6.56175 v 2.39123 h -6.56175 v 13.65174 q 0,4.56508 5.46812,4.56508 z"
     style="font-style:normal;font-variant:normal;font-weight:500;font-stretch:normal;font-size:54.70883942px;line-height:1.25;font-family:Akrobat;-inkscape-font-specification:'Akrobat Medium';letter-spacing:0px;word-spacing:0px;fill:#ffffff;fill-opacity:1;stroke:none;stroke-width:1.28489399"
     id="path1235"
     inkscape:connector-curvature="0" /><path
     d="m 1010.4739,571.15126 q -4.8605,0 -7.7769,-2.13037 -2.85553,-2.17385 -2.85553,-6.13024 v -7.3476 q 0,-3.9564 2.85553,-6.08676 2.9164,-2.17385 7.7769,-2.17385 4.8606,0 7.7162,2.17385 2.9163,2.13036 2.9163,6.08676 v 7.3476 q 0,3.95639 -2.9163,6.13024 -2.8556,2.13037 -7.7162,2.13037 z m 0,-2.52166 q 3.3417,0 5.1644,-1.39127 1.8227,-1.43473 1.8227,-4.34768 v -7.3476 q 0,-2.91295 -1.8227,-4.30421 -1.8227,-1.43474 -5.1644,-1.43474 -3.3416,0 -5.1643,1.43474 -1.8227,1.39126 -1.8227,4.30421 v 7.3476 q 0,2.91295 1.8227,4.34768 1.8227,1.39127 5.1643,1.39127 z"
     style="font-style:normal;font-variant:normal;font-weight:500;font-stretch:normal;font-size:54.70883942px;line-height:1.25;font-family:Akrobat;-inkscape-font-specification:'Akrobat Medium';letter-spacing:0px;word-spacing:0px;fill:#ffffff;fill-opacity:1;stroke:none;stroke-width:1.28489399"
     id="path1239"
     inkscape:connector-curvature="0" /><path
     d="m 1040.1841,547.28244 q 4.0707,0 6.3187,2.13037 2.248,2.08689 2.248,6.60848 v 14.60824 h -3.5847 v -14.21694 q 0,-3.47815 -1.3974,-5.0868 -1.3974,-1.60864 -4.496,-1.60864 -3.3416,0 -5.3466,1.91298 -2.005,1.86951 -2.005,5.17375 v 13.82565 h -3.5847 v -22.82537 h 2.9771 l 0.6076,2.826 q 1.2759,-1.60864 3.3416,-2.47818 2.0658,-0.86954 4.9214,-0.86954 z"
     style="font-style:normal;font-variant:normal;font-weight:500;font-stretch:normal;font-size:54.70883942px;line-height:1.25;font-family:Akrobat;-inkscape-font-specification:'Akrobat Medium';letter-spacing:0px;word-spacing:0px;fill:#ffffff;fill-opacity:1;stroke:none;stroke-width:1.28489399"
     id="path1241"
     inkscape:connector-curvature="0" /><g
     id="g1354"
     transform="matrix(0.28496507,0,0,0.21829552,660.04293,496.89674)"><path
       d="m 1050.5038,233.20414 h 12.5006 v 104.55917 h -12.5006 z"
       style="font-style:normal;font-variant:normal;font-weight:500;font-stretch:normal;font-size:209.86853027px;line-height:1.25;font-family:Akrobat;-inkscape-font-specification:'Akrobat Medium';letter-spacing:0px;word-spacing:0px;fill:#fcfcfc;fill-opacity:1;stroke:none;stroke-width:1.06988776"
       id="path1350"
       inkscape:connector-curvature="0"
       sodipodi:nodetypes="ccccc" /><path
       inkscape:connector-curvature="0"
       id="path1352"
       style="font-style:normal;font-variant:normal;font-weight:500;font-stretch:normal;font-size:209.86853027px;line-height:1.25;font-family:Akrobat;-inkscape-font-specification:'Akrobat Medium';letter-spacing:0px;word-spacing:0px;fill:#fcfcfc;fill-opacity:1;stroke:none;stroke-width:0.99776477"
       d="m 1050.5038,191.86464 h 12.5006 v 16.32153 h -12.5006 z"
       sodipodi:nodetypes="ccccc" /></g><g
     transform="matrix(0.28496507,0,0,0.21829552,689.66984,496.89731)"
     id="g1360"><path
       sodipodi:nodetypes="ccccc"
       inkscape:connector-curvature="0"
       id="path1356"
       style="font-style:normal;font-variant:normal;font-weight:500;font-stretch:normal;font-size:209.86853027px;line-height:1.25;font-family:Akrobat;-inkscape-font-specification:'Akrobat Medium';letter-spacing:0px;word-spacing:0px;fill:#fcfcfc;fill-opacity:1;stroke:none;stroke-width:1.06988776"
       d="m 1050.5038,233.20414 h 12.5006 v 104.55917 h -12.5006 z" /><path
       sodipodi:nodetypes="ccccc"
       d="m 1050.5038,191.86464 h 12.5006 v 16.32153 h -12.5006 z"
       style="font-style:normal;font-variant:normal;font-weight:500;font-stretch:normal;font-size:209.86853027px;line-height:1.25;font-family:Akrobat;-inkscape-font-specification:'Akrobat Medium';letter-spacing:0px;word-spacing:0px;fill:#fcfcfc;fill-opacity:1;stroke:none;stroke-width:0.99776477"
       id="path1358"
       inkscape:connector-curvature="0" /></g></g></svg>