<?xml version="1.0" encoding="UTF-8" standalone="no"?>
<svg
        xmlns:dc="http://purl.org/dc/elements/1.1/"
        xmlns:cc="http://creativecommons.org/ns#"
        xmlns:rdf="http://www.w3.org/1999/02/22-rdf-syntax-ns#"
        xmlns:svg="http://www.w3.org/2000/svg"
        xmlns="http://www.w3.org/2000/svg"
        xmlns:sodipodi="http://sodipodi.sourceforge.net/DTD/sodipodi-0.dtd"
        xmlns:inkscape="http://www.inkscape.org/namespaces/inkscape"
        version="1.1"
        id="Capa_1"
        x="0px"
        y="0px"
        viewBox="0 0 499.99999 499.99999"
        xml:space="preserve"
        sodipodi:docname="joystick.svg"
        width="500"
        height="500"
        inkscape:version="1.0.2 (e86c870879, 2021-01-15)"><metadata
   id="metadata39"><rdf:RDF><cc:Work
       rdf:about=""><dc:format>image/svg+xml</dc:format><dc:type
        rdf:resource="http://purl.org/dc/dcmitype/StillImage"/><dc:title></dc:title></cc:Work></rdf:RDF></metadata>
    <defs
            id="defs37"/>
    <sodipodi:namedview
            pagecolor="#ffffff"
            bordercolor="#666666"
            borderopacity="1"
            objecttolerance="10"
            gridtolerance="10"
            guidetolerance="10"
            inkscape:pageopacity="0"
            inkscape:pageshadow="2"
            inkscape:window-width="3440"
            inkscape:window-height="1355"
            id="namedview35"
            showgrid="false"
            inkscape:zoom="1.6448465"
            inkscape:cx="217.3455"
            inkscape:cy="217.3455"
            inkscape:window-x="2560"
            inkscape:window-y="0"
            inkscape:window-maximized="1"
            inkscape:current-layer="Capa_1"/>
    <path
            d="m 409.8255,398.689 v -45.721 c 0,-5.104 -2.754,-9.565 -6.845,-12.012 0.003,-0.148 0.011,-0.295 0.011,-0.443 0,-13.477 -10.964,-24.441 -24.44,-24.441 -10.644,0 -19.715,6.843 -23.061,16.358 -5.972,-5.001 -14.083,-9.527 -24.153,-13.389 -16.805,-6.446 -37.824,-10.647 -60.605,-12.241 v -33.309 c 19.531,-5.52 27.304,-17.778 27.304,-26.281 0,-4.993 -1.962,-8.299 -3.692,-11.216 -1.801,-3.036 -3.356,-5.658 -3.356,-10.939 0,-4.169 1.781,-6.592 4.247,-9.946 3.043,-4.139 6.83,-9.29 6.83,-18.251 0,-8.642 -4.692,-14.203 -8.832,-19.11 -3.907,-4.632 -7.281,-8.632 -7.281,-15.13 0,-6.105 3.786,-10.587 8.17,-15.776 5.14,-6.084 10.965,-12.98 10.965,-23.499 0,-11.115 -5.57,-15.931 -9.638,-19.446 -3.41,-2.948 -5.469,-4.729 -5.469,-9.758 0,-3.827 3.632,-7.536 7.837,-11.831 7.82,-7.988 18.531,-18.928 12.064,-39.046 -1.274,-3.962 -5.17,-10.608 -16.957,-10.608 -26.031,0 -78.07,32.885 -93.398,42.963 -2.58,1.695 -3.23,3.776 -3.322,5.224 -0.121,1.916 0.706,3.779 2.268,5.114 3.893,3.327 17.398,15.599 27.782,33.82 14.315,25.119 3.467,42.3 -14.506,70.764 -4.865,7.705 -10.379,16.438 -15.729,26.04 -8.867,15.914 -10.283,29.225 -4.208,39.563 7.065,12.024 22.884,17.061 37.443,19.048 v 31.611 c -22.776,1.594 -43.79,5.796 -60.592,12.24 -10.07,3.862 -18.181,8.388 -24.153,13.389 -3.345,-9.515 -12.417,-16.358 -23.061,-16.358 -13.477,0 -24.441,10.965 -24.441,24.441 0,0.146 0.009,0.29 0.011,0.435 -4.099,2.445 -6.859,6.91 -6.859,12.02 v 46.01 30.432 27.936 c 0,5.514 4.486,10 10,10 h 42.578 c 5.514,0 10,-4.486 10,-10 V 443.41 h 194.525 v 13.936 c 0,5.514 4.486,10 10,10 h 42.578 c 5.514,0 10,-4.486 10,-10 v -58.367 c 0,-0.098 -0.012,-0.193 -0.015,-0.29 z m -49.59,13.605 h -36.039 c -10.116,0 -18.316,-8.2 -18.316,-18.316 0,-10.116 8.2,-18.316 18.316,-18.316 h 36.039 c 10.116,0 18.316,8.2 18.316,18.316 -10e-4,10.116 -8.201,18.316 -18.316,18.316 z"
            id="path2"/>
    <g
            id="g4">
</g>
    <g
            id="g6">
</g>
    <g
            id="g8">
</g>
    <g
            id="g10">
</g>
    <g
            id="g12">
</g>
    <g
            id="g14">
</g>
    <g
            id="g16">
</g>
    <g
            id="g18">
</g>
    <g
            id="g20">
</g>
    <g
            id="g22">
</g>
    <g
            id="g24">
</g>
    <g
            id="g26">
</g>
    <g
            id="g28">
</g>
    <g
            id="g30">
</g>
    <g
            id="g32">
</g>
</svg>
