<?xml version="1.0" encoding="utf-8"?>
<!-- Generator: Adobe Illustrator 22.0.0, SVG Export Plug-In . SVG Version: 6.00 Build 0)  -->
<svg version="1.1" baseProfile="tiny" id="Layer_2" xmlns="http://www.w3.org/2000/svg" xmlns:xlink="http://www.w3.org/1999/xlink"
	 x="0px" y="0px" viewBox="0 0 797.4 800.3" xml:space="preserve">
<g>
	<path fill="#2C302F" d="M321.1,800.3c0-5-4-9-9-9s-9,4-9,9H-2.5V0.3h800v786.4l-5.8,5.8v7.8H491.9c0-5-4-9-9-9c-5,0-9,4-9,9
		 M399.9,318.9c-46.9,0-85,38.1-85,85s38.1,85,85,85s85-38.1,85-85S446.8,318.9,399.9,318.9z"/>
	<line fill="#2C302F" x1="321.1" y1="800.3" x2="473.7" y2="800.3"/>
	<path fill="#232728" d="M398.8,777.8h-2.7c-20.4,0-37-16.6-37-37v-134c0-20.3,16.6-37,37-37h2.7c20.4,0,37,16.7,37,37v134
		C435.8,761.1,419.2,777.8,398.8,777.8z"/>
	<circle fill="#232728" cx="543.4" cy="437.7" r="17.5"/>
	<path fill="#232728" d="M517.5,400.3c0,66.3-53.7,120-120,120s-120-53.7-120-120s53.7-120,120-120S517.5,334,517.5,400.3z
		 M399.9,318.9c-46.9,0-85,38.1-85,85s38.1,85,85,85s85-38.1,85-85S446.8,318.9,399.9,318.9z"/>
	<path fill="#ECEEED" d="M734,249.1H45.4c-9.5,0-17.3-7.8-17.3-17.3V27.1c0-9.5,7.8-17.3,17.3-17.3H734c9.5,0,17.3,7.8,17.3,17.3
		v204.7C751.4,241.3,743.6,249.1,734,249.1z"/>
	<g>
		<g>
			<path fill="#2E2F31" d="M65.3,41.9L82,70.4h22.6L88,41.9H65.3z M68.9,43.7h17.3l14.2,24.4H83.1L68.9,43.7z"/>
			<path fill="#2E2F31" d="M71.3,57.2L58.2,70.4H79L71.3,57.2z M70.6,60.9l4.9,7.7H63L70.6,60.9z"/>
			<path fill="#2E2F31" d="M98.1,55.1l13.1-13.3H90.4L98.1,55.1z M98.8,51.4l-4.9-7.7h12.5L98.8,51.4z"/>
		</g>
		<g>
			<path fill="#2E2F31" d="M114.8,60.5c0,0-0.1,0.3-0.2,1.1c-0.1,0.8-0.2,1.3-0.2,1.7c0.1,0.8,0.4,0.8,0.8,1.2
				c0.4,0.2,0.7,0.2,1.6,0.3c0.9,0.1,6.1,0.1,7,0c0.9-0.1,1.6-0.2,2.1-0.5c0.9-0.6,1.6-1.4,1.9-3.8c0.2-1.2,0.3-1.6,0.3-2.2
				c0-0.8-0.4-1.3-1.2-1.6c-0.8-0.3-1.9-0.1-3.1-0.1h-2.5c-2.6,0-4.2,0-5,0.6C115.5,57.8,115.1,58.6,114.8,60.5z M133.6,51.3h-3.7
				c0.1-0.9,0.1-1.5,0.1-2c0-0.6-0.1-1-0.3-1.2c-0.5-0.5-2.7-0.4-5-0.4h-2.2c-2.3,0-3.6,0-4.3,0.5c-0.9,0.7-1.4,1.8-1.6,3.2
				l-0.6,2.5c0,0,0.4-0.6,1.3-0.7c1.6-0.2,4.3,0,5.2,0c2.4,0,4.4-0.1,5.7,0.1c1.3,0.2,2.7,0.5,3.4,1.2c0.6,0.6,0.9,1.6,1,2.8
				c0,0.8-0.1,2.2-0.5,4.1c-0.2,0.9-0.5,1.7-0.7,2.5c-0.3,0.7-0.7,1.4-1.1,2.1c-0.5,0.6-1.1,1.7-1.7,2.1c-1.1,0.5-2.4,0.5-3.7,0.7
				c-1.2,0.1-3.2,0-5.2,0c-1.7,0-3.5,0-4.8-0.1c-1.3-0.2-2.3-0.5-3.1-1.1c-1-0.7-1.6-1.9-1.7-3.6c0-0.9,0.1-1.9,0.3-3l2.1-10.9
				c0.4-2.4,1.1-4.3,2.9-5.4c1-0.6,2.1-1,3.5-1.2c1.4-0.2,3.7-0.3,5.7-0.3h3.1c2.1,0,2.7,0.3,4.1,0.8c1.5,0.6,2.2,1.7,2.3,3.3
				C134,47.7,133.9,49.8,133.6,51.3z"/>
			<path fill="#2E2F31" d="M148,46.6c-2.5,0-4.7,0.1-5.5,0.3c-0.8,0.2-1.3,0.2-1.7,0.8c-0.4,0.6-0.6,1.2-0.7,1.8
				c-0.1,0.6-0.2,1.5-0.3,2.5c0.1,0.6,0.3,1.1,0.6,1.3c0.6,0.4,2.9,0.4,5.7,0.4c2.6,0,4.5-0.1,5.5-0.5c0.4-0.2,0.8-0.5,1.1-1.1
				c0.3-0.6,0.5-1,0.7-2.1c0.1-0.7,0.2-1.2,0.2-1.7c0-0.6-0.2-1-0.6-1.2c-0.4-0.2-1-0.4-1.8-0.4C150.6,46.6,149.5,46.6,148,46.6z
				 M154.3,55.4c1.5,0.6,1.5,2.1,1.6,3.8c0,0.2,0.1,1.5,0,2c-0.1,0.4-0.1,0.8-0.1,0.9c-0.3,1.6-0.5,2.3-1,3.2
				c-0.5,0.9-0.8,1.6-1.8,2.1c-0.8,0.5-1.8,0.8-3.1,1c-1.2,0.2-3.4,0.3-5.3,0.3h-2.5c-2.1,0-3.8-0.1-5-0.2c-1.2-0.2-1.9-0.7-2.6-1.4
				c-0.7-0.6-1.3-2-1.4-3.4c0-0.6,0.1-1,0.3-2.2c0.2-1.1,0.3-2,0.5-2.6c0.2-0.6,0.6-1.3,1-1.8c0.4-0.5,1.1-0.9,1.8-1.4
				c0.5-0.3,0.6-0.4,0.1-0.8c-0.5-0.4-0.7-0.8-0.8-1.4c-0.1-0.2-0.1-1.8-0.1-1.8c0.2-3.7,1.2-5.6,2.9-7c1-0.9,1.5-1.4,3.7-1.6
				c1.2-0.1,4.3-0.1,6-0.1c2.2,0,4.4,0,5.3,0.1c0.8,0.1,1.5,0.3,2.1,0.5c0.6,0.2,0.5,0.6,1,1.2c0.4,0.5,0.6,1.3,0.6,2.4
				c0,0.8,0,1.6-0.2,2.4c-0.1,0.8-0.3,1.6-0.6,2.4c-0.3,0.8-0.7,1.4-1.2,1.8C155,54.6,155.1,55.1,154.3,55.4c-0.1,0-0.2,0-0.2,0
				C154,55.4,154.1,55.4,154.3,55.4z M145.5,57.1c-1.6,0-3.2,0-4,0.1c-0.9,0.1-1.5,0.3-2.1,0.5c-0.5,0.2-0.9,0.6-1.2,1.2
				c-0.3,0.6-0.6,1.4-0.8,2.5c-0.2,1.2-0.2,1.5-0.2,1.8c0.1,0.7,0.2,1,0.7,1.2c0.5,0.2,1.2,0.6,2.2,0.6c0.7,0.1,2.7,0.1,4.6,0.1
				c2,0,3.6,0.1,4.7-0.3c0.5-0.2,1.1-0.3,1.4-0.9c0.3-0.6,0.5-1.2,0.7-2.3c0.2-0.9,0.3-1.5,0.3-2c0-0.6-0.2-1.6-0.5-1.9
				c-0.3-0.3-0.8-0.5-1.7-0.6C148.8,57.1,147.3,57.1,145.5,57.1z"/>
			<path fill="#2E2F31" d="M166.9,68.7c-2.2,0-4.6-0.1-5.9-0.4c-1.3-0.3-2.3-0.8-2.9-1.5c-0.7-0.8-0.6-2-0.7-3.6
				c0-1.3,0.2-2.6,0.4-3.8l1.3-7.1c0.3-1.5,0.7-2.9,1.2-4.1c0.5-1.2,1.2-2.3,2.2-3.1c0.5-0.5,1.2-0.9,2.1-1.2c0.9-0.3,1.9-0.5,3-0.6
				c1.1-0.1,2.5-0.1,4.1-0.1c1.2,0,2.3,0,3.3,0.1c1,0.1,1.8,0.2,2.6,0.5c0.7,0.2,1.4,0.5,1.9,1c0.9,0.8,1.4,2.2,1.5,4
				c0,0.7-0.1,2-0.3,3.8l-1.4,7.1c-0.7,4-1.6,6.7-3.9,8c-0.9,0.5-2,0.8-3.3,1C170.8,68.6,168.7,68.7,166.9,68.7z M171.1,46.7
				c-1.7,0-2.9,0-3.6,0.1c-0.7,0.1-1.4,0.2-1.9,0.4c-0.4,0.2-0.8,0.4-1.1,0.7c-0.3,0.3-0.6,0.8-1,1.6c-0.3,0.7-0.6,1.1-0.8,2.3
				l-1.5,8.1c-0.2,1.2-0.3,1.6-0.3,2.3c0,0.7,0.2,1.2,0.3,1.5c0.2,0.3,0.4,0.6,0.8,0.7c0.4,0.2,1,0.4,1.7,0.4
				c0.7,0.1,1.8,0.1,3.4,0.1c1.9,0,3.4-0.1,4.3-0.2c1-0.1,1.7-0.4,2.2-0.8c0.9-0.8,1.4-2,2-4.6L177,52c0.2-1.4,0.3-1.9,0.3-2.6
				c0-1-0.1-1.5-0.5-1.9c-0.4-0.3-1-0.5-1.8-0.6C174.2,46.8,172.9,46.7,171.1,46.7z"/>
			<path fill="#2E2F31" d="M190.1,68.7c-2.2,0-4.6-0.1-5.9-0.4c-1.3-0.3-2.3-0.8-2.9-1.5c-0.7-0.8-0.6-2-0.7-3.6
				c0-1.3,0.2-2.6,0.4-3.8l1.3-7.1c0.3-1.5,0.7-2.9,1.2-4.1c0.5-1.2,1.2-2.3,2.2-3.1c0.5-0.5,1.2-0.9,2.1-1.2c0.9-0.3,1.9-0.5,3-0.6
				c1.1-0.1,2.5-0.1,4.1-0.1c1.2,0,2.3,0,3.3,0.1c1,0.1,1.8,0.2,2.6,0.5c0.7,0.2,1.4,0.5,1.9,1c0.9,0.8,1.4,2.2,1.5,4
				c0,0.7-0.1,2-0.3,3.8l-1.4,7.1c-0.7,4-1.6,6.7-3.9,8c-0.9,0.5-2,0.8-3.3,1C194.1,68.6,191.9,68.7,190.1,68.7z M194.3,46.7
				c-1.7,0-2.9,0-3.6,0.1c-0.7,0.1-1.4,0.2-1.9,0.4c-0.4,0.2-0.8,0.4-1.1,0.7c-0.3,0.3-0.6,0.8-1,1.6c-0.3,0.7-0.6,1.1-0.8,2.3
				l-1.5,8.1c-0.2,1.2-0.3,1.6-0.3,2.3c0,0.7,0.2,1.2,0.3,1.5c0.2,0.3,0.4,0.6,0.8,0.7c0.4,0.2,1,0.4,1.7,0.4
				c0.7,0.1,1.8,0.1,3.4,0.1c1.9,0,3.4-0.1,4.3-0.2c1-0.1,1.7-0.4,2.2-0.8c0.9-0.8,1.4-2,2-4.6l1.4-7.5c0.2-1.4,0.3-1.9,0.3-2.6
				c0-1-0.1-1.5-0.5-1.9c-0.4-0.3-1-0.5-1.8-0.6C197.5,46.8,196.2,46.7,194.3,46.7z"/>
			<path fill="#2E2F31" d="M213.3,68.7c-2.2,0-4.6-0.1-5.9-0.4c-1.3-0.3-2.3-0.8-2.9-1.5c-0.7-0.8-0.6-2-0.7-3.6
				c0-1.3,0.2-2.6,0.4-3.8l1.3-7.1c0.3-1.5,0.7-2.9,1.2-4.1c0.5-1.2,1.2-2.3,2.2-3.1c0.5-0.5,1.2-0.9,2.1-1.2c0.9-0.3,1.9-0.5,3-0.6
				c1.1-0.1,2.5-0.1,4.1-0.1c1.2,0,2.3,0,3.3,0.1c1,0.1,1.8,0.2,2.6,0.5c0.7,0.2,1.4,0.5,1.9,1c0.9,0.8,1.4,2.2,1.5,4
				c0,0.7-0.1,2-0.3,3.8l-1.4,7.1c-0.7,4-1.6,6.7-3.9,8c-0.9,0.5-2,0.8-3.3,1C217.3,68.6,215.1,68.7,213.3,68.7z M217.5,46.7
				c-1.7,0-2.9,0-3.6,0.1c-0.7,0.1-1.4,0.2-1.9,0.4c-0.4,0.2-0.8,0.4-1.1,0.7c-0.3,0.3-0.6,0.8-1,1.6c-0.3,0.7-0.6,1.1-0.8,2.3
				l-1.5,8.1c-0.2,1.2-0.3,1.6-0.3,2.3c0,0.7,0.2,1.2,0.3,1.5c0.2,0.3,0.4,0.6,0.8,0.7c0.4,0.2,1,0.4,1.7,0.4
				c0.7,0.1,1.8,0.1,3.4,0.1c1.9,0,3.4-0.1,4.3-0.2c1-0.1,1.7-0.4,2.2-0.8c0.9-0.8,1.4-2,2-4.6l1.4-7.5c0.2-1.4,0.3-1.9,0.3-2.6
				c0-1-0.1-1.5-0.5-1.9c-0.4-0.3-1-0.5-1.8-0.6C220.7,46.8,219.4,46.7,217.5,46.7z"/>
		</g>
	</g>
</g>
</svg>
