<?xml version="1.0" encoding="UTF-8" standalone="no"?>
<svg
        xmlns:dc="http://purl.org/dc/elements/1.1/"
        xmlns:cc="http://creativecommons.org/ns#"
        xmlns:rdf="http://www.w3.org/1999/02/22-rdf-syntax-ns#"
        xmlns:svg="http://www.w3.org/2000/svg"
        xmlns="http://www.w3.org/2000/svg"
        xmlns:sodipodi="http://sodipodi.sourceforge.net/DTD/sodipodi-0.dtd"
        xmlns:inkscape="http://www.inkscape.org/namespaces/inkscape"
        width="2500"
        height="790"
        viewBox="0 0 661.45838 209.02083"
        version="1.1"
        id="svg83"
        inkscape:version="1.0.2 (e86c870879, 2021-01-15)"
        sodipodi:docname="broken.svg">
    <defs
            id="defs77">
        <filter
                style="color-interpolation-filters:sRGB"
                inkscape:label="Drop Shadow"
                id="filter1003">
            <feFlood
                    flood-opacity="0.498039"
                    flood-color="rgb(0,0,0)"
                    result="flood"
                    id="feFlood993"/>
            <feComposite
                    in="flood"
                    in2="SourceGraphic"
                    operator="in"
                    result="composite1"
                    id="feComposite995"/>
            <feGaussianBlur
                    in="composite1"
                    stdDeviation="1"
                    result="blur"
                    id="feGaussianBlur997"/>
            <feOffset
                    dx="0"
                    dy="0"
                    result="offset"
                    id="feOffset999"/>
            <feComposite
                    in="SourceGraphic"
                    in2="offset"
                    operator="over"
                    result="fbSourceGraphic"
                    id="feComposite1001"/>
            <feColorMatrix
                    result="fbSourceGraphicAlpha"
                    in="fbSourceGraphic"
                    values="0 0 0 -1 0 0 0 0 -1 0 0 0 0 -1 0 0 0 0 1 0"
                    id="feColorMatrix1005"/>
            <feFlood
                    id="feFlood1007"
                    flood-opacity="0.498039"
                    flood-color="rgb(0,0,0)"
                    result="flood"
                    in="fbSourceGraphic"/>
            <feComposite
                    in2="fbSourceGraphic"
                    id="feComposite1009"
                    in="flood"
                    operator="in"
                    result="composite1"/>
            <feGaussianBlur
                    id="feGaussianBlur1011"
                    in="composite1"
                    stdDeviation="1"
                    result="blur"/>
            <feOffset
                    id="feOffset1013"
                    dx="0"
                    dy="0"
                    result="offset"/>
            <feComposite
                    in2="offset"
                    id="feComposite1015"
                    in="fbSourceGraphic"
                    operator="over"
                    result="composite2"/>
        </filter>
        <filter
                style="color-interpolation-filters:sRGB"
                inkscape:label="Drop Shadow"
                id="filter902">
            <feFlood
                    flood-opacity="0.69068209473758468"
                    flood-color="rgb(34,34,34)"
                    result="flood"
                    id="feFlood892"/>
            <feComposite
                    in="flood"
                    in2="SourceGraphic"
                    operator="in"
                    result="composite1"
                    id="feComposite894"/>
            <feGaussianBlur
                    in="composite1"
                    stdDeviation="3"
                    result="blur"
                    id="feGaussianBlur896"/>
            <feOffset
                    dx="0"
                    dy="0"
                    result="offset"
                    id="feOffset898"/>
            <feComposite
                    in="SourceGraphic"
                    in2="offset"
                    operator="over"
                    result="composite2"
                    id="feComposite900"/>
        </filter>
    </defs>
    <sodipodi:namedview
            id="base"
            pagecolor="#ffffff"
            bordercolor="#666666"
            borderopacity="1.0"
            inkscape:pageopacity="0.0"
            inkscape:pageshadow="2"
            inkscape:zoom="0.49497475"
            inkscape:cx="482.24884"
            inkscape:cy="507.27029"
            inkscape:document-units="mm"
            inkscape:current-layer="layer4"
            inkscape:document-rotation="0"
            showgrid="false"
            inkscape:window-width="3440"
            inkscape:window-height="1355"
            inkscape:window-x="2560"
            inkscape:window-y="0"
            inkscape:window-maximized="1"
            units="px">
        <sodipodi:guide
                position="-28.01195,347.43141"
                orientation="500.00005,0"
                id="guide19"/>
        <sodipodi:guide
                position="236.57141,215.13973"
                orientation="-500.00005,0"
                id="guide23"/>
    </sodipodi:namedview>
    <metadata
            id="metadata80">
        <rdf:RDF>
            <cc:Work
                    rdf:about="">
                <dc:format>image/svg+xml</dc:format>
                <dc:type
                        rdf:resource="http://purl.org/dc/dcmitype/StillImage"/>
                <dc:title></dc:title>
            </cc:Work>
        </rdf:RDF>
    </metadata>
    <g
            inkscape:groupmode="layer"
            id="layer3"
            inkscape:label="sketch"
            style="opacity:1"/>
    <g
            inkscape:groupmode="layer"
            id="layer2"
            inkscape:label="bg"
            style="opacity:1"/>
    <g
            inkscape:groupmode="layer"
            id="layer4"
            inkscape:label="text">
        <g
                aria-label="Broken"
                id="text867"
                style="font-size:63.5px;line-height:1.25;font-family:'Nintendo Switch UI';-inkscape-font-specification:'Nintendo Switch UI';stroke-width:2.11667;stroke-miterlimit:4;stroke-dasharray:none">
            <path
                    d="m 249.60866,76.358737 h 16.58057 q 7.19667,0 10.86556,1.481667 4.02167,1.693335 5.99723,5.503338 1.48167,2.751668 1.48167,6.420559 0,5.644449 -3.17501,9.172229 -1.62277,1.76389 -5.29167,3.66889 4.65667,1.62278 7.05556,4.23334 3.38667,3.81 3.38667,9.45445 0,8.60778 -6.20889,12.41778 -3.45722,2.04612 -8.39612,2.61056 -1.69333,0.21167 -5.22111,0.21167 h -17.07446 z m 4.58612,4.16278 v 20.249463 h 12.27667 q 13.47612,0 13.47612,-10.442234 0,-6.843893 -5.43278,-8.81945 -2.75167,-0.987779 -8.81945,-0.987779 z m 0,24.271123 v 22.5778 h 11.92389 q 7.83168,0 11.07723,-1.97556 4.72723,-2.75167 4.72723,-8.89001 0,-8.89 -8.46667,-11.00667 -2.68112,-0.70556 -6.63223,-0.70556 z"
                    style="font-size:70.5556px;fill:#222222;fill-opacity:1;stroke:#222222;stroke-width:2.11667;stroke-miterlimit:4;stroke-dasharray:none;stroke-opacity:1"
                    id="path1746"/>
            <path
                    d="m 300.26756,131.53322 h -4.37445 V 90.328746 h 4.37445 v 5.997226 q 4.37445,-7.126115 12.62945,-7.126115 0.42333,0 1.05834,0 v 4.021669 q -0.70556,-0.07056 -1.19945,-0.07056 -4.37445,0 -7.54945,2.469446 -3.81,2.89278 -4.65667,7.972784 -0.28222,1.69333 -0.28222,4.86834 z"
                    style="font-size:70.5556px;fill:#222222;fill-opacity:1;stroke:#222222;stroke-width:2.11667;stroke-miterlimit:4;stroke-dasharray:none;stroke-opacity:1"
                    id="path1748"/>
            <path
                    d="m 341.11925,89.199857 q 8.96056,0 14.67557,6.350004 5.43278,5.997229 5.43278,15.381119 0,9.3839 -5.43278,15.38112 -5.71501,6.35001 -14.60501,6.35001 -9.03112,0 -14.74612,-6.35001 -5.43279,-5.99722 -5.43279,-15.66334 0,-6.35 2.82223,-11.500563 2.68111,-4.868337 7.62,-7.54945 4.37445,-2.39889 9.66612,-2.39889 z m 0,3.951113 q -7.62,0 -12.13556,5.78556 -3.59834,4.58611 -3.59834,12.20612 0,7.83167 4.23334,12.5589 4.51556,5.00944 11.50056,5.00944 7.62001,0 12.13557,-5.78556 3.59833,-4.58611 3.59833,-11.99445 0,-8.04334 -4.23333,-12.770562 -4.51556,-5.009448 -11.50057,-5.009448 z"
                    style="font-size:70.5556px;fill:#222222;fill-opacity:1;stroke:#222222;stroke-width:2.11667;stroke-miterlimit:4;stroke-dasharray:none;stroke-opacity:1"
                    id="path1750"/>
            <path
                    d="M 374.77426,106.7682 393.6126,90.328746 h 6.06778 l -19.68501,17.074454 22.57779,24.13002 h -5.78555 l -22.01335,-23.8478 v 23.8478 h -4.37445 V 73.677624 h 4.37445 z"
                    style="font-size:70.5556px;fill:#222222;fill-opacity:1;stroke:#222222;stroke-width:2.11667;stroke-miterlimit:4;stroke-dasharray:none;stroke-opacity:1"
                    id="path1752"/>
            <path
                    d="m 442.43696,130.26322 q -5.715,2.39889 -12.41779,2.39889 -9.10167,0 -14.32278,-4.93889 -6.35001,-5.99723 -6.35001,-16.58057 0,-8.89001 4.65667,-15.169456 5.08001,-6.773337 13.8289,-6.773337 6.77334,0 11.50056,4.233336 6.49112,5.785559 6.56167,18.908897 h -32.24391 q 0.35278,7.19668 3.52778,11.07723 4.44501,5.29167 13.05279,5.29167 6.27945,0 12.20612,-2.96333 z m -28.71613,-21.80168 h 27.72835 q -0.42333,-4.79778 -2.32833,-8.39612 -3.66889,-6.91445 -11.2889,-6.91445 -8.53723,0 -12.41779,8.25501 -1.41111,3.10444 -1.69333,7.05556 z"
                    style="font-size:70.5556px;fill:#222222;fill-opacity:1;stroke:#222222;stroke-width:2.11667;stroke-miterlimit:4;stroke-dasharray:none;stroke-opacity:1"
                    id="path1754"/>
            <path
                    d="m 459.79356,131.53322 h -4.37444 V 90.328746 h 4.37444 v 5.997226 q 4.79779,-7.126115 13.26446,-7.126115 5.50334,0 9.24278,2.822224 4.09223,3.175002 4.72723,9.031119 0.28222,2.39889 0.28222,6.91445 v 23.56557 h -4.37445 v -23.07168 q 0,-7.05556 -0.98778,-9.807233 -1.05833,-2.892779 -4.16278,-4.445003 -2.11666,-1.058334 -5.15056,-1.058334 -7.54944,0 -11.14778,6.279449 -1.69334,2.963331 -1.69334,9.031121 z"
                    style="font-size:70.5556px;fill:#222222;fill-opacity:1;stroke:#222222;stroke-width:2.11667;stroke-miterlimit:4;stroke-dasharray:none;stroke-opacity:1"
                    id="path1756"/>
        </g>
        <circle
                id="path31"
                cx="108.62084"
                cy="104.51041"
                style="fill:#efefef;fill-opacity:1;stroke-width:0.302576;filter:url(#filter902)"
                r="100"/>
        <path
                d="m 79.404036,57.522493 c -18.599072,0 -33.711562,15.29835 -33.711562,33.71156 0,6.42031 2.92967,11.926977 5.62728,15.951567 2.69761,4.02475 5.4518,6.72496 5.4518,6.72492 l 51.849216,51.85787 51.84921,-51.85787 c 0,0 11.07925,-9.83281 11.07925,-22.676487 0,-18.41321 -15.11267,-33.71156 -33.71173,-33.71156 -7.05551,0 -13.36374,2.35206 -18.47114,5.16214 l -1.48309,0.81715 -9.24433,25.48571 h 16.27639 L 108.62145,116.92264 V 97.977203 H 92.678556 l 6.95204,-34.34371 -3.0277,-1.5232 c -4.83986,-2.4912 -10.67135,-4.55633 -17.19835,-4.55633 z m 0,8.99015 c 3.49726,-4.9e-4 6.72661,1.38826 9.92066,2.70358 l -7.63788,37.749867 h 17.94449 v 26.96932 h 9.481314 l 26.47767,-45.422797 v -8.51585 h -14.1343 l 3.56436,-9.81499 c 3.92657,-1.98995 8.26258,-3.66189 12.81735,-3.66969 13.67442,4.9e-4 24.72191,11.22145 24.72191,24.7219 0,6.94305 -8.40152,16.280287 -8.40152,16.276377 l -0.008,0.008 -45.52829,45.52828 -45.528296,-45.52828 -0.009,-0.008 c 0,0 -2.12051,-2.08754 -4.293,-5.32887 -2.17266,-3.241077 -4.10868,-7.479027 -4.10868,-10.947587 0,-13.50045 11.04765,-24.7219 24.721902,-24.7219 z"
                id="path1227"
                style="display:inline;fill:#ff5130;fill-opacity:1;fill-rule:nonzero;stroke:none;stroke-width:4.495;stroke-linejoin:miter;stroke-miterlimit:4;stroke-dasharray:none;stroke-opacity:1;paint-order:normal"/>
    </g>
    <g
            inkscape:groupmode="layer"
            id="layer5"
            inkscape:label="star"/>
</svg>
