<?xml version="1.0" encoding="UTF-8" standalone="no"?>
<svg
        xmlns:dc="http://purl.org/dc/elements/1.1/"
        xmlns:cc="http://creativecommons.org/ns#"
        xmlns:rdf="http://www.w3.org/1999/02/22-rdf-syntax-ns#"
        xmlns:svg="http://www.w3.org/2000/svg"
        xmlns="http://www.w3.org/2000/svg"
        xmlns:sodipodi="http://sodipodi.sourceforge.net/DTD/sodipodi-0.dtd"
        xmlns:inkscape="http://www.inkscape.org/namespaces/inkscape"
        width="1024"
        height="324"
        viewBox="0 0 661.45838 209.02083"
        version="1.1"
        id="svg83"
        inkscape:version="1.0.2 (e86c870879, 2021-01-15)"
        sodipodi:docname="completed.svg">
    <sodipodi:namedview
            id="base"
            pagecolor="#ffffff"
            bordercolor="#666666"
            borderopacity="1.0"
            inkscape:pageopacity="0.0"
            inkscape:pageshadow="2"
            inkscape:zoom="0.49497475"
            inkscape:cx="465.3827"
            inkscape:cy="650.79473"
            inkscape:document-units="mm"
            inkscape:current-layer="layer4"
            inkscape:document-rotation="0"
            showgrid="false"
            inkscape:window-width="2560"
            inkscape:window-height="1403"
            inkscape:window-x="0"
            inkscape:window-y="0"
            inkscape:window-maximized="1"
            units="px">
        <sodipodi:guide
                position="-28.01195,347.43141"
                orientation="500.00005,0"
                id="guide19"/>
        <sodipodi:guide
                position="236.57141,215.13973"
                orientation="-500.00005,0"
                id="guide23"/>
    </sodipodi:namedview>
    <metadata
            id="metadata80">
        <rdf:RDF>
            <cc:Work
                    rdf:about="">
                <dc:format>image/svg+xml</dc:format>
                <dc:type
                        rdf:resource="http://purl.org/dc/dcmitype/StillImage"/>
                <dc:title></dc:title>
            </cc:Work>
        </rdf:RDF>
    </metadata>
    <g
            inkscape:groupmode="layer"
            id="layer1"
            inkscape:label="shadow1"
            style="opacity:1"
            sodipodi:insensitive="true">
        <circle
                id="path31-3"
                cx="108.621"
                cy="104.51"
                style="fill:#a1a1a1;fill-opacity:0.25;stroke-width:0.306422"
                r="101.27119"/>
    </g>
    <g
            inkscape:groupmode="layer"
            id="g880"
            inkscape:label="shadow2"
            style="opacity:1"
            sodipodi:insensitive="true">
        <circle
                id="circle878"
                cx="108.621"
                cy="104.51"
                style="fill:#a1a1a1;fill-opacity:0.125;stroke-width:0.312173"
                r="103.17193"/>
    </g>
    <g
            inkscape:groupmode="layer"
            id="g884"
            inkscape:label="shadow3"
            style="opacity:1"
            sodipodi:insensitive="true">
        <circle
                id="circle882"
                cx="108.621"
                cy="104.51"
                style="fill:#a1a1a1;fill-opacity:0.0625;stroke-width:0.322806"
                r="106.686"/>
    </g>
    <g
            inkscape:groupmode="layer"
            id="layer3"
            inkscape:label="sketch"
            style="opacity:1"/>
    <g
            inkscape:groupmode="layer"
            id="layer2"
            inkscape:label="bg"
            style="opacity:1"/>
    <g
            inkscape:groupmode="layer"
            id="layer4"
            inkscape:label="text">
        <g
                aria-label="Completed"
                id="text867"
                style="font-size:63.5px;line-height:1.25;font-family:'Nintendo Switch UI';-inkscape-font-specification:'Nintendo Switch UI';stroke-width:2.11667;stroke-miterlimit:4;stroke-dasharray:none">
            <path
                    d="m 293.14147,123.84266 v 5.08 q -7.62,3.73945 -16.15723,3.73945 -12.34723,0 -20.39057,-7.05556 -4.72723,-4.23334 -7.12612,-10.44223 -2.04611,-5.15056 -2.04611,-11.14779 0,-8.466669 4.02167,-15.310563 4.09222,-6.843893 11.14778,-10.371673 6.27945,-3.104447 13.97001,-3.104447 8.7489,0 16.29835,4.586114 l -1.69334,4.162781 q -2.46944,-1.693335 -4.51556,-2.610557 -4.445,-1.975557 -10.08945,-1.975557 -10.795,0 -17.85056,7.05556 -6.70279,6.773338 -6.70279,17.497792 0,11.14778 7.54945,18.20334 6.77334,6.35001 17.6389,6.35001 6.91445,0 12.34723,-2.54 1.48167,-0.77612 3.59834,-2.11667 z"
                    style="font-size:70.5556px;fill:#222222;fill-opacity:1;stroke:#222222;stroke-width:2.11667;stroke-miterlimit:4;stroke-dasharray:none;stroke-opacity:1"
                    id="path907"/>
            <path
                    d="m 320.23469,89.199857 q 8.96056,0 14.67556,6.350004 5.43279,5.997229 5.43279,15.381119 0,9.3839 -5.43279,15.38112 -5.715,6.35001 -14.60501,6.35001 -9.03111,0 -14.74612,-6.35001 -5.43278,-5.99722 -5.43278,-15.66334 0,-6.35 2.82223,-11.500563 2.68111,-4.868337 7.62,-7.54945 4.37445,-2.39889 9.66612,-2.39889 z m 0,3.951113 q -7.62001,0 -12.13557,5.78556 -3.59833,4.58611 -3.59833,12.20612 0,7.83167 4.23334,12.5589 4.51555,5.00944 11.50056,5.00944 7.62,0 12.13556,-5.78556 3.59834,-4.58611 3.59834,-11.99445 0,-8.04334 -4.23334,-12.770562 -4.51556,-5.009448 -11.50056,-5.009448 z"
                    style="font-size:70.5556px;fill:#222222;fill-opacity:1;stroke:#222222;stroke-width:2.11667;stroke-miterlimit:4;stroke-dasharray:none;stroke-opacity:1"
                    id="path909"/>
            <path
                    d="m 379.07805,131.53322 h -4.37445 v -23.70668 q 0,-6.06779 -0.77611,-8.537232 -1.76389,-6.138338 -8.32556,-6.138338 -5.22112,0 -8.60779,4.02167 -2.96333,3.52778 -2.96333,10.23056 v 24.13002 h -4.37445 V 90.328746 h 4.37445 v 5.997226 q 4.09222,-7.126115 12.13556,-7.126115 8.39612,0 11.9239,7.620005 4.79778,-7.620005 13.12334,-7.620005 6.20889,0 9.73667,3.810002 2.89278,3.104447 3.31612,8.607781 0.14111,1.76389 0.14111,5.50334 v 24.41224 h -4.37445 v -23.63613 q 0,-5.99722 -0.70555,-8.537227 -0.84667,-3.245557 -3.6689,-5.009447 -1.97555,-1.199446 -4.79778,-1.199446 -5.29167,0 -8.60778,3.739447 -3.175,3.527783 -3.175,11.077233 z"
                    style="font-size:70.5556px;fill:#222222;fill-opacity:1;stroke:#222222;stroke-width:2.11667;stroke-miterlimit:4;stroke-dasharray:none;stroke-opacity:1"
                    id="path911"/>
            <path
                    d="m 416.33129,90.328746 h 4.37444 v 6.985005 q 5.29167,-8.113894 14.67557,-8.113894 7.97278,0 13.05279,5.573892 5.43278,5.926671 5.43278,16.157231 0,10.16001 -5.43278,16.08668 -5.08001,5.64445 -13.05279,5.64445 -9.45445,0 -14.67557,-8.1139 v 25.7528 h -4.37444 z m 18.55612,2.822224 q -8.25501,0 -11.99445,7.05556 -2.32834,4.30389 -2.32834,10.93612 0,6.20889 2.32834,10.51278 3.73944,7.05556 11.99445,7.05556 6.84389,0 10.86556,-5.00944 3.73945,-4.72723 3.73945,-12.77057 0,-8.04334 -3.73945,-12.770562 -4.02167,-5.009448 -10.86556,-5.009448 z"
                    style="font-size:70.5556px;fill:#222222;fill-opacity:1;stroke:#222222;stroke-width:2.11667;stroke-miterlimit:4;stroke-dasharray:none;stroke-opacity:1"
                    id="path913"/>
            <path
                    d="m 475.38632,127.5821 v 3.95112 h -2.96334 q -4.445,0 -6.35,-1.97556 -1.76389,-1.76389 -1.76389,-6.63223 V 73.677624 h 4.445 v 49.036146 q 0,2.82222 0.635,3.66889 0.84667,1.19944 3.175,1.19944 z"
                    style="font-size:70.5556px;fill:#222222;fill-opacity:1;stroke:#222222;stroke-width:2.11667;stroke-miterlimit:4;stroke-dasharray:none;stroke-opacity:1"
                    id="path915"/>
            <path
                    d="m 513.27462,130.26322 q -5.715,2.39889 -12.41778,2.39889 -9.10168,0 -14.32279,-4.93889 -6.35001,-5.99723 -6.35001,-16.58057 0,-8.89001 4.65667,-15.169456 5.08001,-6.773337 13.8289,-6.773337 6.77334,0 11.50057,4.233336 6.49111,5.785559 6.56167,18.908897 h -32.24391 q 0.35277,7.19668 3.52778,11.07723 4.445,5.29167 13.05278,5.29167 6.27945,0 12.20612,-2.96333 z m -28.71613,-21.80168 h 27.72835 q -0.42333,-4.79778 -2.32833,-8.39612 -3.66889,-6.91445 -11.2889,-6.91445 -8.53723,0 -12.41778,8.25501 -1.41112,3.10444 -1.69334,7.05556 z"
                    style="font-size:70.5556px;fill:#222222;fill-opacity:1;stroke:#222222;stroke-width:2.11667;stroke-miterlimit:4;stroke-dasharray:none;stroke-opacity:1"
                    id="path917"/>
            <path
                    d="M 527.66791,90.328746 V 78.545961 h 4.37444 v 11.782785 h 13.12335 v 3.951114 h -13.12335 v 26.10557 q 0,4.58612 1.05834,6.06778 1.55222,2.25778 6.27945,2.25778 2.46944,0 5.00944,-0.28222 v 3.88056 q -2.89278,0.35278 -5.29167,0.35278 -5.99722,0 -8.53722,-2.32834 -2.11667,-1.905 -2.68112,-5.50333 -0.21166,-1.48167 -0.21166,-4.58612 V 94.27986 h -5.36223 v -3.951114 z"
                    style="font-size:70.5556px;fill:#222222;fill-opacity:1;stroke:#222222;stroke-width:2.11667;stroke-miterlimit:4;stroke-dasharray:none;stroke-opacity:1"
                    id="path919"/>
            <path
                    d="m 583.8301,130.26322 q -5.715,2.39889 -12.41778,2.39889 -9.10168,0 -14.32279,-4.93889 -6.35,-5.99723 -6.35,-16.58057 0,-8.89001 4.65667,-15.169456 5.08,-6.773337 13.82889,-6.773337 6.77334,0 11.50057,4.233336 6.49111,5.785559 6.56167,18.908897 h -32.24391 q 0.35278,7.19668 3.52778,11.07723 4.445,5.29167 13.05278,5.29167 6.27945,0 12.20612,-2.96333 z m -28.71613,-21.80168 h 27.72835 q -0.42333,-4.79778 -2.32833,-8.39612 -3.66889,-6.91445 -11.2889,-6.91445 -8.53722,0 -12.41778,8.25501 -1.41111,3.10444 -1.69334,7.05556 z"
                    style="font-size:70.5556px;fill:#222222;fill-opacity:1;stroke:#222222;stroke-width:2.11667;stroke-miterlimit:4;stroke-dasharray:none;stroke-opacity:1"
                    id="path921"/>
            <path
                    d="m 627.50393,124.54821 q -5.22111,8.1139 -14.67556,8.1139 -7.97279,0 -13.05279,-5.64445 -5.43278,-5.92667 -5.43278,-16.08668 0,-10.16 5.43278,-16.086675 5.08,-5.644448 13.05279,-5.644448 9.38389,0 14.67556,8.113894 V 73.677624 h 4.37445 v 57.855596 h -4.37445 z M 613.32226,93.15097 q -6.77334,0 -10.86557,5.009448 -3.73944,4.656672 -3.73944,12.770562 0,8.04334 3.73944,12.77057 3.95112,5.00944 10.86557,5.00944 8.255,0 11.99445,-7.05556 2.32833,-4.30389 2.32833,-10.93611 0,-6.27945 -2.32833,-10.51279 -3.88056,-7.05556 -11.99445,-7.05556 z"
                    style="font-size:70.5556px;fill:#222222;fill-opacity:1;stroke:#222222;stroke-width:2.11667;stroke-miterlimit:4;stroke-dasharray:none;stroke-opacity:1"
                    id="path923"/>
        </g>
        <circle
                id="path31"
                cx="108.62084"
                cy="104.51041"
                style="fill:#efefef;fill-opacity:1;stroke-width:0.302576"
                r="100"/>
        <path
                d="M 157.49883,69.438526 86.436765,140.50059 56.49556,110.55938 l -5.91115,5.91116 32.896778,32.89678 2.955577,2.82704 2.955577,-2.82704 74.017648,-74.017643 z"
                id="path1144"
                style="stroke:#00f0b9;stroke-width:7.423;stroke-miterlimit:4;stroke-dasharray:none;stroke-opacity:1;fill:#00f0b9;fill-opacity:1"/>
    </g>
</svg>
