<?xml version="1.0" encoding="UTF-8" standalone="no"?>
<svg
        xmlns:dc="http://purl.org/dc/elements/1.1/"
        xmlns:cc="http://creativecommons.org/ns#"
        xmlns:rdf="http://www.w3.org/1999/02/22-rdf-syntax-ns#"
        xmlns:svg="http://www.w3.org/2000/svg"
        xmlns="http://www.w3.org/2000/svg"
        xmlns:sodipodi="http://sodipodi.sourceforge.net/DTD/sodipodi-0.dtd"
        xmlns:inkscape="http://www.inkscape.org/namespaces/inkscape"
        width="2500"
        height="790"
        viewBox="0 0 661.45837 209.02083"
        version="1.1"
        id="svg83"
        inkscape:version="1.0.2 (e86c870879, 2021-01-15)"
        sodipodi:docname="favorite.svg">
    <defs
            id="defs77">
        <filter
                style="color-interpolation-filters:sRGB"
                inkscape:label="Drop Shadow"
                id="filter1003">
            <feFlood
                    flood-opacity="0.498039"
                    flood-color="rgb(0,0,0)"
                    result="flood"
                    id="feFlood993"/>
            <feComposite
                    in="flood"
                    in2="SourceGraphic"
                    operator="in"
                    result="composite1"
                    id="feComposite995"/>
            <feGaussianBlur
                    in="composite1"
                    stdDeviation="1"
                    result="blur"
                    id="feGaussianBlur997"/>
            <feOffset
                    dx="0"
                    dy="0"
                    result="offset"
                    id="feOffset999"/>
            <feComposite
                    in="SourceGraphic"
                    in2="offset"
                    operator="over"
                    result="fbSourceGraphic"
                    id="feComposite1001"/>
            <feColorMatrix
                    result="fbSourceGraphicAlpha"
                    in="fbSourceGraphic"
                    values="0 0 0 -1 0 0 0 0 -1 0 0 0 0 -1 0 0 0 0 1 0"
                    id="feColorMatrix1005"/>
            <feFlood
                    id="feFlood1007"
                    flood-opacity="0.498039"
                    flood-color="rgb(0,0,0)"
                    result="flood"
                    in="fbSourceGraphic"/>
            <feComposite
                    in2="fbSourceGraphic"
                    id="feComposite1009"
                    in="flood"
                    operator="in"
                    result="composite1"/>
            <feGaussianBlur
                    id="feGaussianBlur1011"
                    in="composite1"
                    stdDeviation="1"
                    result="blur"/>
            <feOffset
                    id="feOffset1013"
                    dx="0"
                    dy="0"
                    result="offset"/>
            <feComposite
                    in2="offset"
                    id="feComposite1015"
                    in="fbSourceGraphic"
                    operator="over"
                    result="composite2"/>
        </filter>
        <filter
                style="color-interpolation-filters:sRGB"
                inkscape:label="Drop Shadow"
                id="filter902">
            <feFlood
                    flood-opacity="0.69068209473758468"
                    flood-color="rgb(34,34,34)"
                    result="flood"
                    id="feFlood892"/>
            <feComposite
                    in="flood"
                    in2="SourceGraphic"
                    operator="in"
                    result="composite1"
                    id="feComposite894"/>
            <feGaussianBlur
                    in="composite1"
                    stdDeviation="3"
                    result="blur"
                    id="feGaussianBlur896"/>
            <feOffset
                    dx="0"
                    dy="0"
                    result="offset"
                    id="feOffset898"/>
            <feComposite
                    in="SourceGraphic"
                    in2="offset"
                    operator="over"
                    result="composite2"
                    id="feComposite900"/>
        </filter>
    </defs>
    <sodipodi:namedview
            id="base"
            pagecolor="#ffffff"
            bordercolor="#666666"
            borderopacity="1.0"
            inkscape:pageopacity="0.0"
            inkscape:pageshadow="2"
            inkscape:zoom="0.7"
            inkscape:cx="429.62945"
            inkscape:cy="394.2692"
            inkscape:document-units="mm"
            inkscape:current-layer="layer4"
            inkscape:document-rotation="0"
            showgrid="false"
            inkscape:window-width="2560"
            inkscape:window-height="1403"
            inkscape:window-x="0"
            inkscape:window-y="0"
            inkscape:window-maximized="1"
            units="px">
        <sodipodi:guide
                position="-28.01195,347.43141"
                orientation="500.00005,0"
                id="guide19"/>
        <sodipodi:guide
                position="236.57141,215.13973"
                orientation="-500.00005,0"
                id="guide23"/>
    </sodipodi:namedview>
    <metadata
            id="metadata80">
        <rdf:RDF>
            <cc:Work
                    rdf:about="">
                <dc:format>image/svg+xml</dc:format>
                <dc:type
                        rdf:resource="http://purl.org/dc/dcmitype/StillImage"/>
                <dc:title></dc:title>
            </cc:Work>
        </rdf:RDF>
    </metadata>
    <g
            inkscape:groupmode="layer"
            id="layer3"
            inkscape:label="sketch"
            style="opacity:1"/>
    <g
            inkscape:groupmode="layer"
            id="layer2"
            inkscape:label="bg"
            style="opacity:1"/>
    <g
            inkscape:groupmode="layer"
            id="layer4"
            inkscape:label="text">
        <g
                aria-label="Favorite"
                id="text867"
                style="font-size:63.5px;line-height:1.25;font-family:'Nintendo Switch UI';-inkscape-font-specification:'Nintendo Switch UI';stroke-width:2.11667;stroke-miterlimit:4;stroke-dasharray:none">
            <path
                    d="m 253.15055,102.73241 h 22.86 v 3.7465 h -22.86 v 23.5585 h -4.1275 V 80.380415 h 29.1465 v 3.7465 h -25.019 z"
                    style="font-size:63.5px;fill:#222222;fill-opacity:1;stroke:#222222;stroke-width:2.11667;stroke-miterlimit:4;stroke-dasharray:none;stroke-opacity:1"
                    id="path1332"/>
            <path
                    d="m 311.44343,123.62391 q -5.1435,7.4295 -13.97,7.4295 -5.0165,0 -8.1915,-2.667 -3.4925,-3.048 -3.4925,-8.128 0,-4.8895 3.3655,-8.0645 2.667,-2.4765 7.62,-3.429 1.905,-0.381 7.0485,-1.0795 4.699,-0.635 5.842,-1.27 1.7145,-0.9525 1.7145,-3.556 0,-4.000495 -3.8735,-5.968995 -2.794,-1.397 -6.731,-1.397 -5.7785,0 -11.049,3.2385 l -0.381,-3.8735 q 5.1435,-2.921 11.3665,-2.921 5.334,0 9.271,2.2225 4.318,2.3495 5.1435,7.238995 0.254,1.7145 0.254,4.3815 v 17.5895 q 0,3.7465 1.3335,6.6675 h -4.1275 q -0.889,-1.9685 -1.143,-6.4135 z m 0,-5.6515 v -8.8265 q -1.143,0.762 -2.413,1.0795 -1.4605,0.381 -6.096,1.016 -7.3025,0.9525 -9.4615,2.159 -3.7465,2.0955 -3.7465,6.731 0,3.556 2.286,5.5245 2.032,1.8415 5.7785,1.8415 5.7785,0 10.0965,-4.318 2.159,-2.159 3.556,-5.207 z"
                    style="font-size:63.5px;fill:#222222;fill-opacity:1;stroke:#222222;stroke-width:2.11667;stroke-miterlimit:4;stroke-dasharray:none;stroke-opacity:1"
                    id="path1334"/>
            <path
                    d="m 337.28789,126.29091 10.8585,-33.337495 h 4.1275 l -12.446,37.083995 h -5.1435 l -12.446,-37.083995 h 4.191 z"
                    style="font-size:63.5px;fill:#222222;fill-opacity:1;stroke:#222222;stroke-width:2.11667;stroke-miterlimit:4;stroke-dasharray:none;stroke-opacity:1"
                    id="path1336"/>
            <path
                    d="m 374.94333,91.937415 q 8.0645,0 13.208,5.715 4.8895,5.397495 4.8895,13.842995 0,8.4455 -4.8895,13.843 -5.1435,5.715 -13.1445,5.715 -8.128,0 -13.2715,-5.715 -4.8895,-5.3975 -4.8895,-14.097 0,-5.715 2.54,-10.3505 2.413,-4.381495 6.858,-6.794495 3.937,-2.159 8.6995,-2.159 z m 0,3.556 q -6.858,0 -10.922,5.206995 -3.2385,4.1275 -3.2385,10.9855 0,7.0485 3.81,11.303 4.064,4.5085 10.3505,4.5085 6.858,0 10.922,-5.207 3.2385,-4.1275 3.2385,-10.795 0,-7.239 -3.81,-11.4935 -4.064,-4.508495 -10.3505,-4.508495 z"
                    style="font-size:63.5px;fill:#222222;fill-opacity:1;stroke:#222222;stroke-width:2.11667;stroke-miterlimit:4;stroke-dasharray:none;stroke-opacity:1"
                    id="path1338"/>
            <path
                    d="m 405.23282,130.03741 h -3.937 V 92.953415 h 3.937 v 5.3975 q 3.937,-6.4135 11.3665,-6.4135 0.381,0 0.9525,0 v 3.6195 q -0.635,-0.0635 -1.0795,-0.0635 -3.937,0 -6.7945,2.2225 -3.429,2.603495 -4.191,7.175495 -0.254,1.524 -0.254,4.3815 z"
                    style="font-size:63.5px;fill:#222222;fill-opacity:1;stroke:#222222;stroke-width:2.11667;stroke-miterlimit:4;stroke-dasharray:none;stroke-opacity:1"
                    id="path1340"/>
            <path
                    d="m 431.58531,80.380415 v 5.5245 h -5.1435 v -5.5245 z m -0.508,12.573 v 37.083995 h -4.064 V 92.953415 Z"
                    style="font-size:63.5px;fill:#222222;fill-opacity:1;stroke:#222222;stroke-width:2.11667;stroke-miterlimit:4;stroke-dasharray:none;stroke-opacity:1"
                    id="path1342"/>
            <path
                    d="m 443.84074,92.953415 v -10.6045 h 3.937 v 10.6045 h 11.811 v 3.556 h -11.811 v 23.494995 q 0,4.1275 0.9525,5.461 1.397,2.032 5.6515,2.032 2.2225,0 4.5085,-0.254 v 3.4925 q -2.6035,0.3175 -4.7625,0.3175 -5.3975,0 -7.6835,-2.0955 -1.905,-1.7145 -2.413,-4.953 -0.1905,-1.3335 -0.1905,-4.1275 V 96.509415 h -4.826 v -3.556 z"
                    style="font-size:63.5px;fill:#222222;fill-opacity:1;stroke:#222222;stroke-width:2.11667;stroke-miterlimit:4;stroke-dasharray:none;stroke-opacity:1"
                    id="path1344"/>
            <path
                    d="m 494.38668,128.89441 q -5.1435,2.159 -11.176,2.159 -8.1915,0 -12.8905,-4.445 -5.715,-5.3975 -5.715,-14.9225 0,-8.001 4.191,-13.652495 4.572,-6.096 12.446,-6.096 6.096,0 10.3505,3.81 5.842,5.206995 5.9055,17.017995 h -29.0195 q 0.3175,6.477 3.175,9.9695 4.0005,4.7625 11.7475,4.7625 5.6515,0 10.9855,-2.667 z m -25.8445,-19.6215 h 24.9555 q -0.381,-4.318 -2.0955,-7.5565 -3.302,-6.222995 -10.16,-6.222995 -7.6835,0 -11.176,7.429495 -1.27,2.794 -1.524,6.35 z"
                    style="font-size:63.5px;fill:#222222;fill-opacity:1;stroke:#222222;stroke-width:2.11667;stroke-miterlimit:4;stroke-dasharray:none;stroke-opacity:1"
                    id="path1346"/>
        </g>
        <circle
                id="path31"
                cx="108.62084"
                cy="104.51041"
                style="fill:#efefef;fill-opacity:1;stroke-width:0.302576;filter:url(#filter902)"
                r="100"/>
    </g>
    <g
            inkscape:groupmode="layer"
            id="layer5"
            inkscape:label="star">
        <path
                fill="#ffae00"
                stroke="none"
                d="m 165.52749,91.792066 -40.37733,-4.32662 -16.52939,-37.07444 -16.529232,37.07444 -40.377326,4.26412 30.159026,27.181854 -8.419736,39.7184 35.167268,-20.28175 35.16743,20.28175 -8.41974,-39.71054 z"
                id="path1135"
                style="opacity:0.999;fill:none;stroke:#ffd780;stroke-width:9.20882;stroke-miterlimit:4;stroke-dasharray:none;stroke-opacity:1"/>
    </g>
</svg>
