<?xml version="1.0" encoding="UTF-8" standalone="no"?>
<svg
   xmlns:dc="http://purl.org/dc/elements/1.1/"
   xmlns:cc="http://creativecommons.org/ns#"
   xmlns:rdf="http://www.w3.org/1999/02/22-rdf-syntax-ns#"
   xmlns:svg="http://www.w3.org/2000/svg"
   xmlns="http://www.w3.org/2000/svg"
   xmlns:sodipodi="http://sodipodi.sourceforge.net/DTD/sodipodi-0.dtd"
   xmlns:inkscape="http://www.inkscape.org/namespaces/inkscape"
   version="1.1"
   id="svg6053"
   viewBox="0 0 201 208"
   height="208"
   width="201"
   inkscape:version="0.92.5 (2060ec1f9f, 2020-04-08)"
   sodipodi:docname="game.svg">
  <sodipodi:namedview
     pagecolor="#ffffff"
     bordercolor="#666666"
     borderopacity="1"
     objecttolerance="10"
     gridtolerance="10"
     guidetolerance="10"
     inkscape:pageopacity="0"
     inkscape:pageshadow="2"
     inkscape:window-width="1920"
     inkscape:window-height="1141"
     id="namedview15"
     showgrid="false"
     inkscape:zoom="1.6045885"
     inkscape:cx="-1.5302598"
     inkscape:cy="58.308659"
     inkscape:window-x="0"
     inkscape:window-y="0"
     inkscape:window-maximized="1"
     inkscape:current-layer="svg6053"
     inkscape:snap-to-guides="true"
     inkscape:snap-grids="true" />
  <defs
     id="defs6055" />
  <metadata
     id="metadata6058">
    <rdf:RDF>
      <cc:Work
         rdf:about="">
        <dc:format>image/svg+xml</dc:format>
        <dc:type
           rdf:resource="http://purl.org/dc/dcmitype/StillImage" />
        <dc:title />
      </cc:Work>
    </rdf:RDF>
  </metadata>
  <g
     id="g882">
    <g
       id="layer1"
       transform="translate(0,-844.36216)">
      <path
         d="m 181.76913,1030.0746 h 11.28375 v 7.3612 H 181.76913 Z M 2.1478797,845.89083 l -1.20499996,1.1075 -0.3875,1.39875 0.19375,201.53002 0.46624996,1.0325 1.03,0.6587 196.1087503,0.1738 1.305,-0.7338 0.65875,-1.225 -0.2725,-179.79497 h -1.39875 v -8.19875 l 1.10625,0.2725 v -2.7975 l -15.095,-13.25 -2.99125,-0.175 -0.9325,0.835 h -16.04625 l -1.39875,1.39875 -3.26375,0.0975 H 52.23163 l 10e-4,-0.9325 -26.5,-0.195 0.0962,-1.03 -23.6837503,-0.17375 0.002,10e-4 z"
         style="fill:#3b3b3b;fill-opacity:1;fill-rule:nonzero;stroke:none"
         id="path986"
         inkscape:connector-curvature="0" />
      <g
         id="g988"
         transform="matrix(1.25,0,0,-1.25,0.56249974,848.4047)">
        <path
           d="m 0,0 0.149,-161.224 0.373,-0.821 0.821,-0.522 156.897,-0.149 1.044,0.597 0.523,0.969 -0.224,143.841 h -1.119 v 6.566 l 0.895,-0.224 v 2.238 L 147.273,1.865 144.885,2.014 144.139,1.343 H 131.307 L 130.188,0.224 127.577,0.149 H 41.332 v 0.746 l -21.188,0.15 0.074,0.82 -18.95,0.149 -0.97,-0.895 z"
           style="fill:none;stroke:#424242;stroke-width:0.89999998;stroke-linecap:round;stroke-linejoin:round;stroke-miterlimit:10;stroke-dasharray:none;stroke-opacity:1"
           id="path990"
           inkscape:connector-curvature="0" />
      </g>
      <g
         id="g992"
         transform="matrix(1.25,0,0,-1.25,26.022,846.72595)">
        <path
           d="m 0,0 v -52.896 l 0.373,-0.671 0.522,-0.224 h 23.128"
           style="fill:none;stroke:#858586;stroke-width:0.60000002;stroke-linecap:round;stroke-linejoin:round;stroke-miterlimit:10;stroke-dasharray:none;stroke-opacity:1"
           id="path994"
           inkscape:connector-curvature="0" />
      </g>
      <path
         d="M 6.9978797,1037.5321 H 18.28163 v -7.3675 H 6.9978797 Z"
         style="fill:#292929;fill-opacity:1;fill-rule:nonzero;stroke:none"
         id="path996"
         inkscape:connector-curvature="0" />
      <g
         id="g998"
         transform="matrix(1.25,0,0,-1.25,176.16713,1046.6958)">
        <path
           d="m 0,0 v 87.757 l -0.895,1.044 -119.37,-0.149 -1.045,-0.746 V -0.112 Z"
           style="fill:#ffffff;fill-opacity:1;fill-rule:nonzero;stroke:none"
           id="path1000"
           inkscape:connector-curvature="0" />
      </g>
      <path
         d="m 113.86288,856.71208 h 28.8325 v 54.09 h -28.8325 z m -61.57,-11.055 v 67.1275 l 1.94375,1.49625 h 103.18625 l 1.71,-1.885 v -66.735 H 52.29663 l -0.004,-0.004 z"
         style="fill:#b2b2b2;fill-opacity:1;fill-rule:nonzero;stroke:none"
         id="path1002"
         inkscape:connector-curvature="0" />
    </g>
    <path
       style="fill:#1f70c1;stroke-width:0.89867973"
       inkscape:connector-curvature="0"
       id="path3488"
       d="m 34.006605,118.58017 v 3.63099 h 25.822354 v -3.63099 z m 29.480709,0 v 3.63099 h 36.798126 c 0,0 -3.758983,-3.63099 -8.737101,-3.63099 z m 44.016546,0 v 3.63099 h 22.26252 l -1.32142,-3.63099 z m 38.2234,0 -1.32117,3.63099 h 22.05988 v -3.63099 z m -111.720655,7.06049 v 3.63098 h 25.822354 v -3.63098 z m 29.480709,0.005 v 3.62538 H 104.5557 c 0,0 -0.48017,-2.7942 -1.31624,-3.62538 z m 44.016546,0 v 3.62538 h 24.70336 l -1.22358,-3.62538 z m 35.58037,0 -1.2231,3.62538 h 24.60414 v -3.62535 h -23.38104 z m -101.65702,7.05537 v 3.63518 h 11.183086 v -3.63518 z m 29.480941,0 v 3.63518 h 11.182851 v -3.63518 z m 22.060335,0 v 3.63518 h 11.182874 c 0,0 0.70993,-1.91997 0.70993,-3.63518 z m 21.956214,0 v 3.63518 h 19.8268 l -1.32162,-3.63518 z m 25.72408,0 -1.32678,3.63518 h 19.92507 v -3.63518 z m -99.22157,7.06586 v 3.63097 h 11.183086 v -3.63097 z m 29.480941,0 v 3.63097 h 28.563665 c 0,0 2.389384,-1.86286 3.150794,-3.63097 z m 44.016549,0 v 3.63097 h 11.18308 v -2.02152 l 0.70972,2.02129 h 20.48505 l 0.76191,-2.02129 v 2.02129 h 11.18261 v -3.63074 h -20.99235 l -1.11432,3.07568 -1.11922,-3.07568 z m -73.49749,7.06047 v 3.63099 h 11.183086 v -3.63099 z m 29.480941,0 v 3.63099 h 31.714699 c -0.76189,-1.76179 -3.150814,-3.63099 -3.150814,-3.63099 z m 44.016549,0 v 3.63099 h 11.18308 v -3.63099 z m 13.21467,0 1.35227,3.63099 h 15.35999 l 1.28513,-3.63099 z m 19.92509,0 v 3.63099 h 11.18261 v -3.63099 z m -106.63725,7.06048 v 3.6305 h 11.183086 v -3.6305 z m 29.480941,0 v 3.6305 h 11.182851 v -3.6305 z m 22.060335,0 v 3.6305 h 11.892804 c 0,-1.71335 -0.70993,-3.6305 -0.70993,-3.6305 z m 21.956214,0 v 3.6305 h 11.18308 v -3.6305 z m 15.75381,0 1.31086,3.6305 h 10.2974 l 1.32093,-3.6305 z m 17.38595,0 v 3.6305 h 11.18261 v -3.6305 z m -113.855912,7.0609 v 3.63566 h 25.822587 v -3.63566 z m 29.278766,0 v 3.63566 h 39.752146 c 0.83607,-0.83328 1.31624,-3.63566 1.31624,-3.63566 z m 44.219196,0 v 3.63566 h 18.40196 v -3.63566 z m 25.51628,0 1.34736,3.63566 h 5.23903 l 1.26452,-3.63566 z m 14.84167,0 v 3.63566 h 18.60345 v -3.63566 z m -113.855912,7.06552 v 3.63098 h 25.822587 v -3.63098 z m 29.278766,0 v 3.62535 h 28.061025 c 4.978352,0 8.737101,-3.62535 8.737101,-3.62535 z m 44.219196,0 v 3.63098 h 18.40196 v -3.63098 z m 28.07107,0 1.29521,3.62091 0.223,0.004 1.31626,-3.62536 -2.83447,-4.6e-4 v 0 z m 12.28688,0 v 3.63098 h 18.60345 v -3.63098 z" />
  </g>
</svg>
