<?xml version="1.0" encoding="utf-8"?>
<!-- Generator: Adobe Illustrator 19.0.0, SVG Export Plug-In . SVG Version: 6.00 Build 0)  -->
<svg version="1.1" id="Layer_1" xmlns="http://www.w3.org/2000/svg" xmlns:xlink="http://www.w3.org/1999/xlink" x="0px" y="0px"
	 viewBox="0 0 338.4 338.4" enable-background="new 0 0 338.4 338.4" xml:space="preserve">
<g>
	<path fill="none" stroke="#979395" stroke-miterlimit="10" d="M169.3,337.9c-93,0-168.8-75.7-168.8-168.7
		c0-93,75.7-168.8,168.8-168.8c93,0,168.8,75.7,168.8,168.8C338,262.2,262.3,337.9,169.3,337.9z"/>
	<path fill="none" stroke="#151315" stroke-width="3" stroke-miterlimit="10" d="M169.3,335.9c-91.9,0-166.8-74.8-166.8-166.7
		C2.5,77.2,77.3,2.4,169.3,2.4C261.2,2.4,336,77.2,336,169.1C336,261.1,261.2,335.9,169.3,335.9z"/>
	<circle fill="none" stroke="#797576" stroke-miterlimit="10" cx="169.3" cy="169.1" r="22.8"/>
	<path fill="#0B0F11" d="M169.3,233.9c-35.7,0-64.7-29-64.7-64.7c0-35.7,29-64.8,64.7-64.8c35.7,0,64.8,29,64.8,64.8
		C234,204.8,205,233.9,169.3,233.9z M219,168.6c0-27.4-22.3-49.8-49.8-49.8s-49.8,22.3-49.8,49.8s22.3,49.7,49.8,49.7
		S219,196.1,219,168.6z"/>
	<path fill="#CBC9C8" d="M169.3,224.4c-30.7,0-55.8-25-55.8-55.7s25-55.8,55.8-55.8s55.8,25,55.8,55.8S200,224.4,169.3,224.4z
		 M219,168.6c0-27.4-22.3-49.8-49.8-49.8s-49.8,22.3-49.8,49.8s22.3,49.7,49.8,49.7S219,196.1,219,168.6z"/>
	<g>
		<path fill="#741C49" d="M330.1,212.2c-4-2.6-3.7-6.8-11.8-8.1c-5-0.8-10.2,0.1-13.1-0.9c-11-3.5-19.3-26.7-26.6-23.1
			c-18.6,9.1-24.2,14.2-34.4,18.8c-14.3,6.5-18.3,15.3-20.3,15.8c-2.6,0.7-8,2.7-10.2,2l-0.5-0.6C226,204.4,234,188,234,169.1
			c0-35.7-28.9-64.8-64.6-64.8c-35.2,0-63.5,28.3-64.2,63.4l-0.6-0.6c-3.5-14.5-8-19.7-11.8-20.8c-8.6-2.5-12.4,7.9-23.2,5.4
			c-7.4-1.7-13.5-18.5-19.5-21.7c-7-3.7-22.2,11.4-47.4,31.3l-0.4,0.4C6.1,73.1,79.9,2.4,169.4,2.4c91.9,0,166.8,74.8,166.8,166.8
			c0,15-2,29.5-5.7,43.3"/>
		<path fill="#283B89" stroke="#000000" stroke-miterlimit="10" d="M330.5,212.5c1.2-4.6-4-6.6-12.1-7.9c-5-0.8-10.2,0.1-13.1-0.8
			c-11-3.5-19.4-26.7-26.8-23.1c-18.6,9.1-24.3,14.2-34.5,18.8c-14.3,6.5-18.3,15.1-20.3,15.7c-2.6,0.7-8.3,2.3-10.5,1.6
			c-11.5,10.6-26.9,17.1-43.8,17.1c-35.7,0-64.8-29-64.8-64.7c0-0.5,0-0.9,0-1.4c-3.5-14.5-8-20.3-11.9-21.4
			c-8.6-2.5-12.3,8.2-23,5.7c-7.4-1.7-13.7-18.5-19.7-21.7c-7-3.7-22.1,11.7-47.3,31.6c-0.1,2.4-0.2,4.7-0.2,7.1
			c0,91.9,74.8,166.7,166.8,166.7C246.4,335.9,311.4,283.5,330.5,212.5z"/>
	</g>
	<g>
		<g>
			<g>
				<g>
					<g>
						<path fill="#938270" d="M130.1,80.8h-10.6l10.5,6.3h4.2l-7.2-4.2h3.8c1.9,0,3.4-1.9,3.4-4.2s-1.5-4.2-3.4-4.2h-15.7v12.6h2.4
							V76.7h12.6c1,0,1.8,0.9,1.8,2S131.1,80.8,130.1,80.8z"/>
						<g>
							<rect x="149.3" y="79.5" fill="#938270" width="12.4" height="2.4"/>
							<polygon fill="#938270" points="164.8,74.5 164.8,76.9 147.5,76.9 147.5,84.9 164.8,84.9 164.8,87.1 145.3,87.1 145.3,74.5 
															"/>
						</g>
						<rect x="138.1" y="78.5" fill="#938270" width="4" height="4"/>
						<rect x="168.8" y="78.5" fill="#938270" width="4" height="4"/>
						<rect x="200.3" y="78.5" fill="#938270" width="4" height="4"/>
						<polygon fill="#938270" points="211.3,74.5 211.3,84.9 228.5,84.9 228.5,87.1 209,87.1 209,74.5 						"/>
						<path fill="#938270" d="M193.5,83.9l3.6,3.2h3.8L187,74.6c-0.2-0.2-0.5-0.2-0.7,0l-13,12.5h3.2l10.2-9.5l4.2,4.1h-6.1
							l-2.2,2.1H193.5z"/>
					</g>
				</g>
				<g>
					<rect x="115.1" y="89.1" fill="#938270" width="113.4" height="1.2"/>
				</g>
				<g>
					<g>
						<g>
							<path fill="#938270" d="M117.1,94c0,0.1,0.1,0.3,0.2,0.3c0.1,0.1,0.3,0.1,0.5,0.1c0.4,0,0.6-0.2,0.6-0.4
								c0-0.4-0.9-0.4-1.2-0.4l0-0.5c0.3,0,1.1,0,1.1-0.3c0-0.2-0.3-0.3-0.5-0.3c-0.3,0-0.6,0.1-0.6,0.3H116c0-0.7,0.9-1.1,1.9-1.1
								c1.1,0,1.8,0.4,1.8,0.9c0,0.3-0.2,0.5-0.5,0.6c0.4,0.1,0.7,0.4,0.7,0.7c0,0.8-0.8,1.1-2.1,1.1c-1.1,0-1.9-0.4-1.9-1.2H117.1z
								"/>
							<path fill="#938270" d="M120.7,95.1V92h1.9c1.4,0,2.3,0.5,2.3,1.5c0,1.2-0.9,1.6-2.3,1.6H120.7z M122.1,94.4h0.3
								c0.7,0,1-0.3,1-0.8c0-0.6-0.3-0.8-1.1-0.8h-0.3V94.4z"/>
							<path fill="#938270" d="M129.7,93.6c0,1.1-1,1.7-2.3,1.7c-1.4,0-2.3-0.6-2.3-1.7c0-1,0.9-1.6,2.3-1.6
								C129,91.9,129.7,92.7,129.7,93.6z M126.6,93.6c0,0.4,0.2,0.9,0.9,0.9c0.6,0,0.9-0.4,0.9-0.9c0-0.4-0.2-0.9-0.9-0.9
								C126.8,92.7,126.6,93.2,126.6,93.6z"/>
						</g>
						<g>
							<path fill="#938270" d="M134.3,95.1V92h1.4v3.1H134.3z"/>
							<path fill="#938270" d="M139.2,93.7l-0.1-0.7v-1h1.3v3.1h-1.3l-1.5-1.7l0.1,0.7v1h-1.3V92h1.3L139.2,93.7z"/>
							<path fill="#938270" d="M140.9,92h3.8v0.8h-1.2v2.3h-1.4v-2.3h-1.2V92z"/>
							<path fill="#938270" d="M145.1,95.1V92h3.6v0.7h-2.2v0.4h1.8v0.7h-1.8v0.5h2.2v0.7H145.1z"/>
							<path fill="#938270" d="M150.9,94v1.1h-1.4V92h2.1c1.5,0,1.9,0.3,1.9,0.9c0,0.4-0.2,0.7-0.7,0.8c0.5,0.1,0.7,0.2,0.7,0.8
								c0,0.4,0,0.5,0.2,0.5v0.1h-1.5c0-0.1-0.1-0.3-0.1-0.5c0-0.4-0.1-0.5-0.8-0.5H150.9z M150.9,93.4h0.6c0.4,0,0.7-0.1,0.7-0.3
								c0-0.2-0.2-0.3-0.6-0.3h-0.7V93.4z"/>
							<path fill="#938270" d="M154,95.1l1.5-3.1h1.4l1.5,3.1h-1.4l-0.2-0.4h-1.4l-0.2,0.4H154z M156.2,93l-0.4,1.1h0.9L156.2,93z"
								/>
							<path fill="#938270" d="M161.5,93.2c0-0.3-0.3-0.5-0.7-0.5c-0.5,0-0.8,0.3-0.8,0.9c0,0.4,0.1,0.8,0.8,0.8
								c0.4,0,0.6-0.2,0.7-0.5h1.3c-0.1,0.8-0.9,1.3-2,1.3c-1.4,0-2.2-0.6-2.2-1.6c0-1,0.9-1.6,2.1-1.6c1.3,0,2,0.5,2.1,1.3H161.5z"
								/>
							<path fill="#938270" d="M163,92h3.8v0.8h-1.2v2.3h-1.4v-2.3H163V92z"/>
							<path fill="#938270" d="M167.3,95.1V92h1.4v3.1H167.3z"/>
							<path fill="#938270" d="M169.1,92h1.4l0.7,2.1l0.8-2.1h1.4l-1.4,3.1h-1.4L169.1,92z"/>
							<path fill="#938270" d="M173.8,95.1V92h3.5v0.7h-2.1v0.4h1.8v0.7h-1.8v0.5h2.2v0.7H173.8z"/>
						</g>
						<g>
							<path fill="#938270" d="M181.9,95.1V92h1.9l0.8,1.9l0.8-1.9h1.9v3.1H186v-0.9l0-0.5l0.1-0.6h0l-0.9,2h-1.1l-0.9-2h0l0.1,0.5
								l0,0.5v1.1H181.9z"/>
							<path fill="#938270" d="M188.4,92h1.4v1.9c0,0.3,0.1,0.6,0.7,0.6c0.5,0,0.6-0.2,0.6-0.6V92h1.4v1.8c0,1-0.6,1.4-2,1.4
								c-1.3,0-2-0.4-2-1.4V92z"/>
							<path fill="#938270" d="M193.3,95.1V92h1.4v2.4h1.9v0.7H193.3z"/>
							<path fill="#938270" d="M196.2,92h3.9v0.8h-1.2v2.3h-1.4v-2.3h-1.2V92z"/>
							<path fill="#938270" d="M200.4,95.1V92h1.4v3.1H200.4z"/>
							<path fill="#938270" d="M202.8,95.1V92h2c1.2,0,1.8,0.4,1.8,1c0,0.7-0.5,1.1-1.8,1.1h-0.7v1H202.8z M204.7,93.4
								c0.3,0,0.6-0.1,0.6-0.4c0-0.3-0.4-0.3-0.7-0.3h-0.4v0.7H204.7z"/>
							<path fill="#938270" d="M207.1,95.1V92h1.4v2.4h1.9v0.7H207.1z"/>
							<path fill="#938270" d="M210.6,95.1l1.5-3.1h1.4l1.5,3.1h-1.4l-0.2-0.4h-1.4l-0.2,0.4H210.6z M212.9,92.9l-0.4,1.1h0.9
								L212.9,92.9z"/>
							<path fill="#938270" d="M217.6,95.1h-1.4V94l-1.6-2h1.6l0.7,1.1l0.7-1.1h1.5l-1.6,2V95.1z"/>
							<path fill="#938270" d="M219.4,95.1V92h3.5v0.7h-2.1v0.4h1.7v0.7h-1.7v0.5h2.1v0.7H219.4z"/>
							<path fill="#938270" d="M225.1,94v1.1h-1.4V92h2.1c1.5,0,1.9,0.3,1.9,0.9c0,0.4-0.2,0.7-0.7,0.8c0.5,0.1,0.7,0.2,0.7,0.8
								c0,0.4,0,0.5,0.2,0.5v0.1h-1.5c0-0.1-0.1-0.3-0.1-0.5c0-0.4-0.1-0.5-0.8-0.5H225.1z M225.1,93.4h0.6c0.4,0,0.7-0.1,0.7-0.3
								c0-0.2-0.2-0.3-0.6-0.3h-0.7V93.4z"/>
						</g>
					</g>
				</g>
			</g>
		</g>
		<g>
			<path fill-rule="evenodd" clip-rule="evenodd" fill="#A18B77" d="M132.1,51.3c0-3.9-0.4-7-7.8-7c-6.1,0-8.1,2.3-8.1,6.2l0,0h5.5
				l0,0c0.1-1.4,1.4-2,2.3-2c0.6,0,2,0.2,2,1.3c0,3.6-10.6,0.3-10.6,7.8c0,3.4,3.3,4.8,5.1,4.7c2.3-0.1,4.1-0.5,5.8-2.2l0,0l0.7,1.7
				h5.4l0,0C132.2,61.3,132.1,51.3,132.1,51.3L132.1,51.3L132.1,51.3L132.1,51.3z M123.2,58.6c-1.2,0-1.7-0.9-1.7-1.7
				c0-1.4,2.7-1.3,4.7-2.4C126.3,56.8,125.3,58.6,123.2,58.6L123.2,58.6L123.2,58.6L123.2,58.6z"/>
			<path fill-rule="evenodd" clip-rule="evenodd" fill="#A18B77" d="M240.5,55.1c-0.2,1.3-0.8,2.9-2.4,2.9c-1.9,0-3-2-3-4.5
				c0-1.9,0.7-4.5,3-4.5c0.7,0,1.2,0.2,1.6,0.7c0.4,0.4,0.6,1,0.6,1.7l0,0h5.9l0,0c-0.4-4.8-4-6.7-8.1-6.7c-5.1,0-8.9,3.2-8.9,8.8
				c0,5.5,3.9,8.9,8.9,8.9c4.3,0,7.7-2.3,8.3-7.2l0,0H240.5L240.5,55.1L240.5,55.1z"/>
			<polygon fill-rule="evenodd" clip-rule="evenodd" fill="#A18B77" points="222.6,61.9 228.6,61.9 228.6,45.1 222.6,45.1 
				222.6,61.9 222.6,61.9 			"/>
			<polygon fill-rule="evenodd" clip-rule="evenodd" fill="#A18B77" points="222.6,42.5 228.6,42.5 228.6,38.2 222.6,38.2 
				222.6,42.5 222.6,42.5 			"/>
			<path fill-rule="evenodd" clip-rule="evenodd" fill="#A18B77" d="M194.8,44.4c-5.2,0-8.8,3.3-8.8,9c0,5.6,3.9,8.9,8.8,8.9
				c5,0,8.9-3.2,8.9-9.2C203.7,48,200.2,44.4,194.8,44.4L194.8,44.4L194.8,44.4L194.8,44.4z M194.8,57.9c-1.6,0-2.8-1.8-2.8-4.9
				c0-1.8,0.7-4.1,2.8-4.1c1.6-0.1,2.7,1.8,2.7,4.3C197.6,56.3,196.5,57.9,194.8,57.9L194.8,57.9L194.8,57.9L194.8,57.9z"/>
			<path fill-rule="evenodd" clip-rule="evenodd" fill="#A18B77" d="M175.2,49.2c0-0.8,0.8-1.2,1.9-1.2c0.5,0,1.1,0.1,1.5,0.4
				c0.2,0.1,0.5,0.6,0.6,1.2l0,0h5.6l0,0c-0.2-4.4-4.2-5.3-7.8-5.3c-3.2,0-7.4,1.3-7.4,5.5c0,6.9,9.9,4.4,9.9,7
				c0,1.2-0.8,1.6-2.3,1.6c-0.6,0-1.2-0.4-1.6-0.7c-0.4-0.3-0.6-0.7-0.6-1.5l0,0h-5.5l0,0c0.1,4.6,4.1,6.3,7.6,6.3
				c6.6,0,8.5-3,8.5-6.4C185.5,49.5,175.2,51.6,175.2,49.2L175.2,49.2L175.2,49.2L175.2,49.2z"/>
			<path fill-rule="evenodd" clip-rule="evenodd" fill="#A18B77" d="M168.5,51.3c0-3.9-0.4-7-7.8-7c-6.1,0-8.2,2.3-8.1,6.2l0,0h5.5
				l0,0c0.1-1.4,1.4-2,2.3-2c0.6,0,2,0.2,2,1.3c0,3.6-10.6,0.3-10.6,7.8c0,3.4,3.3,4.8,5.1,4.7c2.3-0.1,4.1-0.5,5.8-2.2l0,0l0.7,1.7
				h5.4l0,0C168.5,61.3,168.5,51.3,168.5,51.3L168.5,51.3L168.5,51.3L168.5,51.3z M159.5,58.6c-1.2,0-1.7-0.9-1.7-1.7
				c0-1.4,2.7-1.3,4.7-2.4C162.7,56.8,161.7,58.6,159.5,58.6L159.5,58.6L159.5,58.6L159.5,58.6z"/>
			<path fill-rule="evenodd" clip-rule="evenodd" fill="#A18B77" d="M106.6,37.7H96v24.2h6.8v-7.5h4l0,0c6.1,0,9.1-3.5,9.1-8.3
				C115.9,41.5,112.7,37.7,106.6,37.7L106.6,37.7L106.6,37.7L106.6,37.7z M106.2,49.1h-3.4v-5.5h2.5l0,0c1.5,0,3.7,0.4,3.7,2.5
				C109,48,107.9,49.1,106.2,49.1L106.2,49.1L106.2,49.1L106.2,49.1z"/>
			<path fill-rule="evenodd" clip-rule="evenodd" fill="#A18B77" d="M215.6,44.4c-2.3,0-3.3,0.4-5.5,2.5l0,0l0-1.9l-5.6,0v16.9h5.6
				v-8.9l0,0c0-2.1,1-3.4,2.9-3.4c1.7,0,2.2,1,2.2,2.6l0,0v9.7h6.1V51.6l0,0C221.3,47.1,219.7,44.4,215.6,44.4L215.6,44.4
				L215.6,44.4L215.6,44.4z"/>
			<path fill-rule="evenodd" clip-rule="evenodd" fill="#A18B77" d="M145,44.4c-2.3,0-3.3,0.4-5.5,2.5l0,0l0-1.9l-5.6,0v16.9h5.9
				v-8.9l0,0c0-2.1,0.8-3.6,2.7-3.6c1.7,0,2.1,1.2,2.1,2.8l0,0v9.7h6.1V51.6l0,0C150.8,47.1,149.1,44.4,145,44.4L145,44.4L145,44.4
				L145,44.4z"/>
			<g>
				<path fill="#A18B77" d="M243.3,42.2c0-1.7,1.3-3,3-3c1.7,0,3,1.4,3,3s-1.4,3-3,3C244.7,45.3,243.3,43.9,243.3,42.2z M248.6,42.2
					c0-1.4-0.9-2.3-2.2-2.3c-1.3,0-2.2,1-2.2,2.3s0.9,2.3,2.2,2.3C247.6,44.5,248.6,43.6,248.6,42.2z M247.8,43.9h-0.8l-0.7-1.4
					h-0.5v1.4h-0.7v-3.3h1.6c0.9,0,1.3,0.2,1.3,1c0,0.6-0.3,0.8-0.9,0.9L247.8,43.9z M246.7,42c0.4,0,0.6-0.1,0.6-0.5
					c0-0.4-0.5-0.4-0.8-0.4h-0.7V42H246.7z"/>
			</g>
		</g>
		<g>
			<path fill="#948472" d="M190.6,328.6h-39.1c-1.1,0-2-0.9-2-2v-82.3c0-1.1,0.9-2,2-2h39.1c1.1,0,2,0.9,2,2v82.3
				C192.6,327.7,191.7,328.6,190.6,328.6z"/>
			<g>
				<g>
					<g>
						<g>
							<rect x="150.6" y="310" width="40.8" height="16.8"/>
							<ellipse fill="#1C2728" cx="171" cy="299.1" rx="7.3" ry="1.3"/>
							<g>
								<g>
									<path fill="#948472" d="M157.4,317.6L157.4,317.6c1.2,0,2.1,0.3,2.7,0.8c0.6,0.5,0.9,1,0.9,1.7c0,0.7-0.3,1.3-1,1.8
										c-0.7,0.5-1.5,0.7-2.7,0.7c-1,0-1.7-0.2-2.2-0.6c-0.5-0.4-0.8-0.8-0.8-1.3c0-0.3,0.1-0.6,0.4-0.8c0.2-0.2,0.5-0.3,0.8-0.3
										c0.3,0,0.6,0.1,0.8,0.3c0.2,0.2,0.3,0.4,0.3,0.7c0,0.4-0.3,0.7-0.8,1c-0.1,0.1-0.2,0.1-0.2,0.2c0,0.1,0.1,0.2,0.4,0.3
										c0.3,0.1,0.6,0.1,0.9,0.1c1,0,1.5-0.7,1.5-2.2c0-1.4-0.6-2.1-1.8-2.1l-1,0c-0.2,0-0.3-0.1-0.3-0.2c0-0.2,0.1-0.3,0.3-0.3
										l0.7,0c0.7,0,1.2-0.2,1.5-0.5c0.2-0.3,0.4-0.8,0.4-1.4c0-0.6-0.1-1.1-0.3-1.4c-0.2-0.3-0.5-0.4-1-0.4c-0.2,0-0.5,0-0.7,0.1
										c-0.2,0.1-0.3,0.2-0.3,0.2c0,0.1,0.1,0.2,0.2,0.2c0.4,0.2,0.6,0.5,0.6,0.8c0,0.3-0.1,0.5-0.3,0.7c-0.2,0.2-0.4,0.2-0.7,0.2
										c-0.3,0-0.6-0.1-0.8-0.3c-0.2-0.2-0.4-0.4-0.4-0.7c0-0.5,0.3-0.9,0.8-1.2c0.5-0.3,1.2-0.5,2-0.5c0.9,0,1.7,0.2,2.3,0.6
										c0.6,0.4,0.9,0.9,0.9,1.5C160.8,316.6,159.7,317.4,157.4,317.6z"/>
									<path fill="#948472" d="M168.5,313.8v8.2h0.8c1.2,0,2-0.3,2.2-1c0.3-0.6,0.4-1.7,0.4-3.3c0-1.2-0.1-2.1-0.2-2.6
										c-0.2-0.5-0.4-0.9-0.7-1.1c-0.3-0.2-0.7-0.3-1.2-0.3H168.5z M166,322v-8.2h-1.3v-0.4h5.2c1.5,0,2.7,0.4,3.5,1.3
										c0.9,0.8,1.3,1.9,1.3,3.2c0,0.7-0.1,1.3-0.4,1.9c-0.3,0.6-0.7,1.1-1.2,1.6c-0.6,0.5-1.1,0.8-1.7,0.9
										c-0.6,0.1-1.3,0.2-2.1,0.2h-4.5V322H166z"/>
									<path fill="#948472" d="M184.7,317.9c0-1.4,0-2.3-0.1-2.8c-0.1-0.4-0.2-0.8-0.4-1.1c-0.2-0.3-0.6-0.4-1.2-0.4
										c-0.5,0-0.8,0.1-1.1,0.3c-0.3,0.2-0.4,0.6-0.5,1.1c-0.1,0.5-0.1,1.4-0.1,2.8c0,1.4,0,2.3,0.1,2.8c0.1,0.4,0.2,0.8,0.5,1.1
										c0.2,0.3,0.6,0.4,1.2,0.4c0.4,0,0.8-0.1,1.1-0.3c0.3-0.2,0.5-0.6,0.5-1C184.6,320.2,184.7,319.3,184.7,317.9z M178.4,317.8
										c0-1.4,0.4-2.5,1.3-3.3c0.9-0.9,2-1.3,3.2-1.3c1.2,0,2.2,0.4,3.1,1.2c0.9,0.8,1.4,2,1.4,3.5c0,1.4-0.4,2.5-1.3,3.4
										c-0.9,0.8-1.9,1.3-3.2,1.3c-1.4,0-2.5-0.5-3.3-1.3C178.8,320.3,178.4,319.2,178.4,317.8z"/>
								</g>
							</g>
							<radialGradient id="SVGID_1_" cx="171.8691" cy="285.7859" r="7.4743" gradientUnits="userSpaceOnUse">
								<stop  offset="0" style="stop-color:#948472"/>
								<stop  offset="0.8933" style="stop-color:#000000"/>
								<stop  offset="1" style="stop-color:#000000"/>
							</radialGradient>
							<ellipse fill="url(#SVGID_1_)" cx="171" cy="287" rx="6.2" ry="6.2"/>
							<path fill="#080E12" d="M165.2,270.8c-0.9,0.6-1.2,4.1-1.2,4.1s0.2,3.5,1.2,4.1c0.9,0.6,5.8,1,5.8,1s4.9-0.4,5.8-1
								c0.9-0.6,1.2-4.1,1.2-4.1s-0.2-3.5-1.2-4.1c-0.9-0.6-5.8-1-5.8-1S166.2,270.2,165.2,270.8z"/>
							<polygon fill="#0C1215" points="171,254.9 178.3,262.2 171,269.5 163.8,262.2 							"/>
						</g>
					</g>
				</g>
				
					<rect x="150.6" y="244.1" fill="none" stroke="#000000" stroke-width="0.5" stroke-miterlimit="10" width="40.8" height="82.7"/>
			</g>
		</g>
		<g>
			<path fill="#80696B" d="M211.7,262.7c0,0.2,0,0.4,0.1,0.5c0.1,0.1,0.2,0.2,0.4,0.2c0.3,0,0.5-0.3,0.5-0.5c0-0.5-0.4-0.5-0.7-0.5
				v-0.8c0.3,0,0.6,0,0.6-0.5c0-0.3-0.2-0.4-0.4-0.4c-0.3,0-0.4,0.2-0.5,0.5h-1c0-1,0.7-1.5,1.5-1.5c0.9,0,1.4,0.5,1.4,1.3
				c0,0.4-0.1,0.7-0.4,0.9c0.3,0.2,0.5,0.5,0.5,0.9c0,1-0.6,1.6-1.6,1.6c-0.8,0-1.5-0.5-1.5-1.7H211.7z"/>
			<path fill="#80696B" d="M214.3,264.2v-4.6h1.6c1.2,0,1.9,0.7,1.9,2.2c0,1.7-0.8,2.4-2,2.4H214.3z M215.5,263.2h0.3
				c0.6,0,0.9-0.4,0.9-1.2c0-1-0.3-1.2-0.9-1.2h-0.2V263.2z"/>
			<path fill="#80696B" d="M222,261.9c0,1.6-0.8,2.4-1.9,2.4c-1.2,0-1.9-0.9-1.9-2.5c0-1.4,0.8-2.4,1.9-2.4
				C221.4,259.5,222,260.7,222,261.9z M219.3,261.9c0,0.6,0.1,1.3,0.7,1.3c0.5,0,0.7-0.6,0.7-1.3c0-0.6-0.2-1.3-0.7-1.3
				C219.5,260.6,219.3,261.3,219.3,261.9z"/>
			<path fill="#80696B" d="M222.5,264.8c0.2,0,0.3-0.1,0.4-0.2s0.1-0.2,0.1-0.4h-0.5v-1.3h1.1v1.1c0,0.9-0.4,1.3-1.1,1.3V264.8z"/>
			<path fill="#80696B" d="M226,264.2v-4.6h1.2v4.6H226z"/>
			<path fill="#80696B" d="M227.8,260.9h1v0.5c0.2-0.4,0.5-0.6,0.9-0.6c0.7,0,1,0.5,1,1.4v2h-1.1v-1.8c0-0.3-0.1-0.6-0.4-0.6
				c-0.3,0-0.4,0.3-0.4,0.7v1.7h-1.1V260.9z"/>
			<path fill="#80696B" d="M233,264.2c-1.4,0.1-1.6,0-1.6-1.2v-1.4H231v-0.8h0.4v-1h1v1h0.5v0.8h-0.5v1.2c0,0.3,0,0.4,0.3,0.4h0.2
				V264.2z"/>
			<path fill="#80696B" d="M234.5,262.9c0,0.4,0.2,0.7,0.5,0.7c0.2,0,0.3-0.1,0.4-0.3h1c-0.2,0.8-0.9,1.1-1.5,1.1
				c-0.9,0-1.5-0.6-1.5-1.7c0-1.1,0.7-1.8,1.5-1.8c1,0,1.6,0.9,1.6,2.1H234.5z M235.4,262.2c0-0.3-0.2-0.6-0.5-0.6
				c-0.3,0-0.5,0.2-0.5,0.6H235.4z"/>
			<path fill="#80696B" d="M236.9,260.9h1v0.7h0c0.1-0.5,0.4-0.8,0.8-0.8c0,0,0.1,0,0.1,0v1.3c-0.1,0-0.1,0-0.2,0
				c-0.4,0-0.7,0.3-0.7,1v1.2h-1.1V260.9z"/>
			<path fill="#80696B" d="M241.1,264.2l-0.1-0.4c-0.3,0.4-0.6,0.5-1,0.5c-0.5,0-1-0.3-1-1c0-1.5,1.9-0.8,1.9-1.5
				c0-0.2-0.2-0.3-0.3-0.3c-0.1,0-0.3,0-0.4,0.3h-1c0-0.7,0.4-1.1,1.5-1.1c1.3,0,1.3,0.6,1.3,1.4v1.6c0,0.2,0,0.3,0.1,0.4v0.1H241.1
				z M241,262.8c-0.3,0.2-0.8,0.1-0.8,0.5c0,0.2,0.1,0.3,0.3,0.3C240.9,263.6,241,263.2,241,262.8z"/>
			<path fill="#80696B" d="M244.4,262.2c0-0.1,0-0.3-0.1-0.3c-0.1-0.1-0.2-0.1-0.3-0.1c-0.4,0-0.5,0.5-0.5,0.9
				c0,0.5,0.2,0.8,0.5,0.8c0.3,0,0.4-0.2,0.4-0.5h1.1c0,0.5-0.2,0.9-0.5,1.1c-0.3,0.2-0.6,0.3-1,0.3c-0.9,0-1.5-0.6-1.5-1.7
				c0-1.1,0.6-1.8,1.5-1.8c0.7,0,1.4,0.4,1.5,1.4H244.4z"/>
			<path fill="#80696B" d="M247.7,264.2c-1.4,0.1-1.6,0-1.6-1.2v-1.4h-0.4v-0.8h0.4v-1h1v1h0.5v0.8h-0.5v1.2c0,0.3,0,0.4,0.3,0.4
				h0.2V264.2z"/>
			<path fill="#80696B" d="M248.3,259.5h1.1v0.9h-1.1V259.5z M248.3,264.2v-3.4h1.1v3.4H248.3z"/>
			<path fill="#80696B" d="M249.8,260.9h1.1l0.5,2.1l0.5-2.1h1l-0.9,3.4h-1.2L249.8,260.9z"/>
			<path fill="#80696B" d="M254,262.9c0,0.4,0.2,0.7,0.5,0.7c0.2,0,0.3-0.1,0.4-0.3h1c-0.2,0.8-0.9,1.1-1.5,1.1
				c-0.9,0-1.5-0.6-1.5-1.7c0-1.1,0.7-1.8,1.5-1.8c1,0,1.6,0.9,1.6,2.1H254z M255,262.2c0-0.3-0.2-0.6-0.5-0.6
				c-0.3,0-0.5,0.2-0.5,0.6H255z"/>
			<path fill="#80696B" d="M258.2,264.2v-4.6h1.5l0.6,2.9l0.6-2.9h1.5v4.6h-1.1v-1.4l0-0.7l0.1-0.8h0l-0.7,3h-0.8l-0.7-3h0l0.1,0.7
				l0,0.7v1.6H258.2z"/>
			<path fill="#80696B" d="M265.9,264.2h-1v-0.5c-0.3,0.5-0.5,0.6-1,0.6c-0.6,0-1-0.4-1-1.4v-2h1.1v1.8c0,0.5,0.1,0.6,0.4,0.6
				c0.3,0,0.4-0.3,0.4-0.8v-1.6h1.1V264.2z"/>
			<path fill="#80696B" d="M266.5,264.2v-4.6h1.1v4.6H266.5z"/>
			<path fill="#80696B" d="M269.9,264.2c-1.4,0.1-1.6,0-1.6-1.2v-1.4h-0.4v-0.8h0.4v-1h1v1h0.5v0.8h-0.5v1.2c0,0.3,0,0.4,0.3,0.4
				h0.2V264.2z"/>
			<path fill="#80696B" d="M270.4,259.5h1.1v0.9h-1.1V259.5z M270.4,264.2v-3.4h1.1v3.4H270.4z"/>
			<path fill="#80696B" d="M273,260.9v0.5h0c0.1-0.4,0.5-0.6,0.8-0.6c0.8,0,1.2,0.8,1.2,1.7c0,1.3-0.7,1.8-1.3,1.8
				c-0.3,0-0.5-0.1-0.7-0.4v1.5h-1.1v-4.5H273z M274,262.6c0-0.5-0.2-0.8-0.5-0.8c-0.3,0-0.4,0.3-0.4,0.8c0,0.5,0.2,0.8,0.4,0.8
				C273.8,263.3,274,263,274,262.6z"/>
			<path fill="#80696B" d="M275.6,264.2v-4.6h1.1v4.6H275.6z"/>
			<path fill="#80696B" d="M279.1,264.2l-0.1-0.4c-0.3,0.4-0.6,0.5-1,0.5c-0.5,0-1-0.3-1-1c0-1.5,1.9-0.8,1.9-1.5
				c0-0.2-0.2-0.3-0.3-0.3c-0.1,0-0.3,0-0.4,0.3h-1c0-0.7,0.4-1.1,1.5-1.1c1.3,0,1.3,0.6,1.3,1.4v1.6c0,0.2,0,0.3,0.1,0.4v0.1H279.1
				z M279,262.8c-0.3,0.2-0.8,0.1-0.8,0.5c0,0.2,0.1,0.3,0.3,0.3C278.9,263.6,279,263.2,279,262.8z"/>
			<path fill="#80696B" d="M281.9,263l0.5-2.1h1l-0.9,3.1c-0.3,1-0.4,1.4-1.3,1.4c-0.2,0-0.4,0-0.5,0v-0.9c0.1,0,0.1,0,0.2,0
				c0.3,0,0.4-0.1,0.3-0.5l-0.9-3h1.1L281.9,263z"/>
			<path fill="#80696B" d="M284.7,262.9c0,0.4,0.2,0.7,0.5,0.7c0.2,0,0.3-0.1,0.4-0.3h1c-0.2,0.8-0.9,1.1-1.5,1.1
				c-0.9,0-1.5-0.6-1.5-1.7c0-1.1,0.7-1.8,1.5-1.8c1,0,1.6,0.9,1.6,2.1H284.7z M285.7,262.2c0-0.3-0.2-0.6-0.5-0.6
				c-0.3,0-0.5,0.2-0.5,0.6H285.7z"/>
			<path fill="#80696B" d="M287.1,260.9h1v0.7h0c0.1-0.5,0.4-0.8,0.8-0.8c0,0,0.1,0,0.1,0v1.3c-0.1,0-0.1,0-0.2,0
				c-0.4,0-0.7,0.3-0.7,1v1.2h-1.1V260.9z"/>
			<path fill="#80696B" d="M212.7,271.9l-0.1-0.4c-0.3,0.4-0.6,0.5-1,0.5c-0.5,0-1-0.3-1-1c0-1.5,1.9-0.8,1.9-1.5
				c0-0.2-0.2-0.3-0.3-0.3c-0.1,0-0.3,0-0.4,0.3h-1c0-0.7,0.4-1.1,1.5-1.1c1.3,0,1.3,0.6,1.3,1.4v1.6c0,0.2,0,0.3,0.1,0.4v0.1H212.7
				z M212.6,270.4c-0.3,0.2-0.8,0.1-0.8,0.5c0,0.2,0.1,0.3,0.3,0.3C212.5,271.3,212.6,270.9,212.6,270.4z"/>
			<path fill="#80696B" d="M214.2,268.6h1v0.5c0.2-0.4,0.5-0.6,0.9-0.6c0.7,0,1,0.5,1,1.4v2H216v-1.8c0-0.3-0.1-0.6-0.4-0.6
				c-0.3,0-0.4,0.3-0.4,0.7v1.7h-1.1V268.6z"/>
			<path fill="#80696B" d="M219.6,271.9v-0.4c-0.3,0.4-0.5,0.5-0.8,0.5c-0.8,0-1.2-0.8-1.2-1.7c0-1.1,0.5-1.8,1.1-1.8
				c0.3,0,0.6,0.1,0.8,0.4v-1.6h1.1v4.6H219.6z M219.5,270.3c0-0.4-0.1-0.8-0.5-0.8s-0.5,0.4-0.5,0.8c0,0.4,0.1,0.8,0.4,0.8
				C219.4,271,219.5,270.7,219.5,270.3z"/>
			<path fill="#80696B" d="M222.6,267.3h3.4v1.2h-1.1v3.4h-1.2v-3.4h-1.1V267.3z"/>
			<path fill="#80696B" d="M226.4,267.3h1.1v1.7c0.2-0.3,0.5-0.5,0.8-0.5c0.7,0,1,0.5,1,1.4v2h-1.1v-1.8c0-0.3-0.1-0.6-0.4-0.6
				c-0.3,0-0.4,0.3-0.4,0.7v1.7h-1.1V267.3z"/>
			<path fill="#80696B" d="M230.8,270.5c0,0.4,0.2,0.7,0.5,0.7c0.2,0,0.3-0.1,0.4-0.3h1c-0.2,0.8-0.9,1.1-1.5,1.1
				c-0.9,0-1.5-0.6-1.5-1.7c0-1.1,0.7-1.8,1.5-1.8c1,0,1.6,0.9,1.6,2.1H230.8z M231.7,269.9c0-0.3-0.2-0.6-0.5-0.6
				c-0.3,0-0.5,0.2-0.5,0.6H231.7z"/>
			<path fill="#80696B" d="M235.9,270.3c0,0.2,0,0.4,0.1,0.5c0.1,0.1,0.2,0.2,0.4,0.2c0.3,0,0.5-0.3,0.5-0.5c0-0.5-0.4-0.5-0.7-0.5
				v-0.8c0.3,0,0.6,0,0.6-0.5c0-0.3-0.2-0.4-0.4-0.4c-0.3,0-0.4,0.2-0.5,0.5h-1c0-1,0.7-1.5,1.5-1.5c0.9,0,1.4,0.5,1.4,1.3
				c0,0.4-0.1,0.7-0.4,0.9c0.3,0.2,0.5,0.5,0.5,0.9c0,1-0.6,1.6-1.6,1.6c-0.8,0-1.5-0.5-1.5-1.7H235.9z"/>
			<path fill="#80696B" d="M238.4,271.9v-4.6h1.6c1.2,0,1.9,0.7,1.9,2.2c0,1.7-0.8,2.4-2,2.4H238.4z M239.6,270.8h0.3
				c0.6,0,0.9-0.4,0.9-1.2c0-1-0.3-1.2-0.9-1.2h-0.2V270.8z"/>
			<path fill="#80696B" d="M246.1,269.6c0,1.6-0.8,2.4-1.9,2.4c-1.2,0-1.9-0.9-1.9-2.5c0-1.4,0.8-2.4,1.9-2.4
				C245.5,267.2,246.1,268.4,246.1,269.6z M243.5,269.6c0,0.6,0.1,1.3,0.7,1.3c0.5,0,0.7-0.6,0.7-1.3c0-0.6-0.2-1.3-0.7-1.3
				C243.6,268.3,243.5,269,243.5,269.6z"/>
			<path fill="#80696B" d="M250.7,269.1c0-0.5-0.3-0.8-0.7-0.8c-0.4,0-0.7,0.5-0.7,1.3c0,0.6,0.1,1.3,0.7,1.3c0.4,0,0.6-0.3,0.6-0.8
				h1.2c-0.1,1.2-0.8,1.9-1.8,1.9c-1.2,0-2-0.9-2-2.4c0-1.5,0.8-2.4,1.8-2.4c1.1,0,1.8,0.7,1.9,1.9H250.7z"/>
			<path fill="#80696B" d="M253.7,268.5c0.9,0,1.5,0.7,1.5,1.7c0,1.2-0.7,1.8-1.5,1.8s-1.5-0.6-1.5-1.7
				C252.2,269.1,252.8,268.5,253.7,268.5z M253.2,270.2c0,0.6,0.2,0.9,0.5,0.9c0.3,0,0.5-0.3,0.5-0.9c0-0.5-0.2-0.9-0.4-0.8
				C253.3,269.4,253.2,269.8,253.2,270.2z"/>
			<path fill="#80696B" d="M255.6,268.6h1v0.5c0.1-0.3,0.5-0.6,0.8-0.6c0.5,0,0.7,0.3,0.9,0.6c0.2-0.4,0.5-0.6,0.9-0.6
				c0.8,0,1,0.5,1,1.5v2h-1.1v-1.7c0-0.5-0.1-0.7-0.4-0.7c-0.3,0-0.4,0.3-0.4,0.7v1.7h-1.1v-1.7c0-0.5-0.1-0.7-0.4-0.7
				c-0.3,0-0.4,0.3-0.4,0.7v1.7h-1.1V268.6z"/>
			<path fill="#80696B" d="M261.7,268.6v0.5h0c0.1-0.4,0.5-0.6,0.8-0.6c0.8,0,1.2,0.8,1.2,1.7c0,1.3-0.7,1.8-1.3,1.8
				c-0.3,0-0.5-0.1-0.7-0.4v1.5h-1.1v-4.5H261.7z M262.7,270.2c0-0.5-0.2-0.8-0.5-0.8c-0.3,0-0.4,0.3-0.4,0.8c0,0.5,0.2,0.8,0.4,0.8
				C262.5,271,262.7,270.7,262.7,270.2z"/>
			<path fill="#80696B" d="M266,271.9l-0.1-0.4c-0.3,0.4-0.6,0.5-1,0.5c-0.5,0-1-0.3-1-1c0-1.5,1.9-0.8,1.9-1.5
				c0-0.2-0.2-0.3-0.3-0.3c-0.1,0-0.3,0-0.4,0.3h-1c0-0.7,0.4-1.1,1.5-1.1c1.3,0,1.3,0.6,1.3,1.4v1.6c0,0.2,0,0.3,0.1,0.4v0.1H266z
				 M265.9,270.4c-0.3,0.2-0.8,0.1-0.8,0.5c0,0.2,0.1,0.3,0.3,0.3C265.8,271.3,266,270.9,265.9,270.4z"/>
			<path fill="#80696B" d="M269.3,271.9c-1.4,0.1-1.6,0-1.6-1.2v-1.4h-0.4v-0.8h0.4v-1h1v1h0.5v0.8h-0.5v1.2c0,0.3,0,0.4,0.3,0.4
				h0.2V271.9z"/>
			<path fill="#80696B" d="M269.9,267.2h1.1v0.9h-1.1V267.2z M269.9,271.9v-3.4h1.1v3.4H269.9z"/>
			<path fill="#80696B" d="M272.6,268.9c0.2-0.3,0.5-0.4,0.8-0.4c0.7,0,1.2,0.7,1.2,1.8c0,1-0.3,1.8-1.2,1.8c-0.4,0-0.7-0.2-0.8-0.6
				h0v0.5h-1v-4.6h1.1V268.9z M273.5,270.3c0-0.4-0.1-0.8-0.5-0.8c-0.3,0-0.4,0.4-0.4,0.7c0,0.4,0.1,0.8,0.4,0.8
				C273.4,271,273.5,270.6,273.5,270.3z"/>
			<path fill="#80696B" d="M275,267.2h1.1v0.9H275V267.2z M275,271.9v-3.4h1.1v3.4H275z"/>
			<path fill="#80696B" d="M276.7,271.9v-4.6h1.1v4.6H276.7z"/>
			<path fill="#80696B" d="M278.4,267.2h1.1v0.9h-1.1V267.2z M278.4,271.9v-3.4h1.1v3.4H278.4z"/>
			<path fill="#80696B" d="M281.8,271.9c-1.4,0.1-1.6,0-1.6-1.2v-1.4h-0.4v-0.8h0.4v-1h1v1h0.5v0.8h-0.5v1.2c0,0.3,0,0.4,0.3,0.4
				h0.2V271.9z"/>
			<path fill="#80696B" d="M283.6,270.6l0.5-2.1h1l-0.9,3.1c-0.3,1-0.4,1.4-1.3,1.4c-0.2,0-0.4,0-0.5,0v-0.9c0.1,0,0.1,0,0.2,0
				c0.3,0,0.4-0.1,0.3-0.5l-0.9-3h1.1L283.6,270.6z"/>
			<path fill="#80696B" d="M212.8,276.3c0-0.2-0.1-0.3-0.2-0.3s-0.2-0.1-0.3-0.1c-0.3,0-0.4,0.1-0.4,0.3c0,0.7,2.1,0.3,2.1,1.9
				c0,1.1-0.7,1.6-1.7,1.6c-1,0-1.6-0.7-1.6-1.5h1.2c0,0.2,0.1,0.3,0.2,0.4c0.1,0.1,0.2,0.1,0.3,0.1c0.3,0,0.5-0.1,0.5-0.3
				c0-0.7-2.1-0.2-2.1-2c0-1,0.7-1.5,1.6-1.5c1,0,1.5,0.7,1.6,1.5H212.8z"/>
			<path fill="#80696B" d="M215.8,278.3l0.5-2.1h1l-0.9,3.1c-0.3,1-0.4,1.4-1.3,1.4c-0.2,0-0.4,0-0.5,0v-0.9c0.1,0,0.1,0,0.2,0
				c0.3,0,0.4-0.1,0.3-0.5l-0.9-3h1.1L215.8,278.3z"/>
			<path fill="#80696B" d="M217.6,276.2h1v0.5c0.1-0.3,0.5-0.6,0.8-0.6c0.5,0,0.7,0.3,0.9,0.6c0.2-0.4,0.5-0.6,0.9-0.6
				c0.8,0,1,0.5,1,1.5v2h-1.1v-1.7c0-0.5-0.1-0.7-0.4-0.7c-0.3,0-0.4,0.3-0.4,0.7v1.7h-1.1v-1.7c0-0.5-0.1-0.7-0.4-0.7
				c-0.3,0-0.4,0.3-0.4,0.7v1.7h-1.1V276.2z"/>
			<path fill="#80696B" d="M223.8,276.6c0.2-0.3,0.5-0.4,0.8-0.4c0.7,0,1.2,0.7,1.2,1.8c0,1-0.3,1.8-1.2,1.8c-0.4,0-0.7-0.2-0.8-0.6
				h0v0.5h-1V275h1.1V276.6z M224.6,277.9c0-0.4-0.1-0.8-0.5-0.8c-0.3,0-0.4,0.4-0.4,0.7c0,0.4,0.1,0.8,0.4,0.8
				C224.5,278.7,224.6,278.3,224.6,277.9z"/>
			<path fill="#80696B" d="M227.6,276.1c0.9,0,1.5,0.7,1.5,1.7c0,1.2-0.7,1.8-1.5,1.8s-1.5-0.6-1.5-1.7
				C226,276.8,226.7,276.1,227.6,276.1z M227.1,277.9c0,0.6,0.2,0.9,0.5,0.9c0.3,0,0.5-0.3,0.5-0.9c0-0.5-0.2-0.9-0.4-0.8
				C227.2,277,227.1,277.5,227.1,277.9z"/>
			<path fill="#80696B" d="M229.6,279.6V275h1.1v4.6H229.6z"/>
			<path fill="#80696B" d="M234.8,279.6l-0.1-0.4c-0.3,0.4-0.6,0.5-1,0.5c-0.5,0-1-0.3-1-1c0-1.5,1.9-0.8,1.9-1.5
				c0-0.2-0.2-0.3-0.3-0.3c-0.1,0-0.3,0-0.4,0.3h-1c0-0.7,0.4-1.1,1.5-1.1c1.3,0,1.3,0.6,1.3,1.4v1.6c0,0.2,0,0.3,0.1,0.4v0.1H234.8
				z M234.7,278.1c-0.3,0.2-0.8,0.1-0.8,0.5c0,0.2,0.1,0.3,0.3,0.3C234.6,278.9,234.7,278.6,234.7,278.1z"/>
			<path fill="#80696B" d="M236.4,276.2h1v0.7h0c0.1-0.5,0.4-0.8,0.8-0.8c0,0,0.1,0,0.1,0v1.3c-0.1,0-0.1,0-0.2,0
				c-0.4,0-0.7,0.3-0.7,1v1.2h-1.1V276.2z"/>
			<path fill="#80696B" d="M239.5,278.2c0,0.4,0.2,0.7,0.5,0.7c0.2,0,0.3-0.1,0.4-0.3h1c-0.2,0.8-0.9,1.1-1.5,1.1
				c-0.9,0-1.5-0.6-1.5-1.7c0-1.1,0.7-1.8,1.5-1.8c1,0,1.6,0.9,1.6,2.1H239.5z M240.4,277.5c0-0.3-0.2-0.6-0.5-0.6
				c-0.3,0-0.5,0.2-0.5,0.6H240.4z"/>
			<path fill="#80696B" d="M245.4,279.6c-1.4,0.1-1.6,0-1.6-1.2V277h-0.4v-0.8h0.4v-1h1v1h0.5v0.8h-0.5v1.2c0,0.3,0,0.4,0.3,0.4h0.2
				V279.6z"/>
			<path fill="#80696B" d="M245.9,276.2h1v0.7h0c0.1-0.5,0.4-0.8,0.8-0.8c0,0,0.1,0,0.1,0v1.3c-0.1,0-0.1,0-0.2,0
				c-0.4,0-0.7,0.3-0.7,1v1.2h-1.1V276.2z"/>
			<path fill="#80696B" d="M250,279.6l-0.1-0.4c-0.3,0.4-0.6,0.5-1,0.5c-0.5,0-1-0.3-1-1c0-1.5,1.9-0.8,1.9-1.5
				c0-0.2-0.2-0.3-0.3-0.3c-0.1,0-0.3,0-0.4,0.3h-1c0-0.7,0.4-1.1,1.5-1.1c1.3,0,1.3,0.6,1.3,1.4v1.6c0,0.2,0,0.3,0.1,0.4v0.1H250z
				 M249.9,278.1c-0.3,0.2-0.8,0.1-0.8,0.5c0,0.2,0.1,0.3,0.3,0.3C249.8,278.9,250,278.6,249.9,278.1z"/>
			<path fill="#80696B" d="M253.5,279.6v-0.4c-0.3,0.4-0.5,0.5-0.8,0.5c-0.8,0-1.2-0.8-1.2-1.7c0-1.1,0.5-1.8,1.1-1.8
				c0.3,0,0.6,0.1,0.8,0.4V275h1.1v4.6H253.5z M253.4,277.9c0-0.4-0.1-0.8-0.5-0.8s-0.5,0.4-0.5,0.8c0,0.4,0.1,0.8,0.4,0.8
				C253.3,278.7,253.4,278.3,253.4,277.9z"/>
			<path fill="#80696B" d="M255.9,278.2c0,0.4,0.2,0.7,0.5,0.7c0.2,0,0.3-0.1,0.4-0.3h1c-0.2,0.8-0.9,1.1-1.5,1.1
				c-0.9,0-1.5-0.6-1.5-1.7c0-1.1,0.7-1.8,1.5-1.8c1,0,1.6,0.9,1.6,2.1H255.9z M256.9,277.5c0-0.3-0.2-0.6-0.5-0.6
				c-0.3,0-0.5,0.2-0.5,0.6H256.9z"/>
			<path fill="#80696B" d="M258.4,276.2h1v0.5c0.1-0.3,0.5-0.6,0.8-0.6c0.5,0,0.7,0.3,0.9,0.6c0.2-0.4,0.5-0.6,0.9-0.6
				c0.8,0,1,0.5,1,1.5v2h-1.1v-1.7c0-0.5-0.1-0.7-0.4-0.7c-0.3,0-0.4,0.3-0.4,0.7v1.7h-1.1v-1.7c0-0.5-0.1-0.7-0.4-0.7
				c-0.3,0-0.4,0.3-0.4,0.7v1.7h-1.1V276.2z"/>
			<path fill="#80696B" d="M265.4,279.6l-0.1-0.4c-0.3,0.4-0.6,0.5-1,0.5c-0.5,0-1-0.3-1-1c0-1.5,1.9-0.8,1.9-1.5
				c0-0.2-0.2-0.3-0.3-0.3c-0.1,0-0.3,0-0.4,0.3h-1c0-0.7,0.4-1.1,1.5-1.1c1.3,0,1.3,0.6,1.3,1.4v1.6c0,0.2,0,0.3,0.1,0.4v0.1H265.4
				z M265.3,278.1c-0.3,0.2-0.8,0.1-0.8,0.5c0,0.2,0.1,0.3,0.3,0.3C265.2,278.9,265.3,278.6,265.3,278.1z"/>
			<path fill="#80696B" d="M266.9,276.2h1v0.7h0c0.1-0.5,0.4-0.8,0.8-0.8c0,0,0.1,0,0.1,0v1.3c-0.1,0-0.1,0-0.2,0
				c-0.4,0-0.7,0.3-0.7,1v1.2h-1.1V276.2z"/>
			<path fill="#80696B" d="M270.2,278.6v0.9h-1.1V275h1.1v2.3l0.7-1h1.2l-1,1.3l1.1,2.1H271l-0.6-1.2L270.2,278.6z"/>
			<path fill="#80696B" d="M273.5,278.5c0,0.1,0,0.2,0.1,0.3c0.1,0.1,0.2,0.1,0.3,0.1c0.2,0,0.3-0.1,0.3-0.3c0-0.5-1.6-0.1-1.6-1.4
				c0-0.9,0.7-1.1,1.3-1.1c0.6,0,1.3,0.2,1.3,1.1h-1c0-0.1,0-0.2-0.1-0.2c-0.1-0.1-0.1-0.1-0.2-0.1c-0.2,0-0.3,0.1-0.3,0.2
				c0,0.5,1.7,0.2,1.7,1.4c0,0.7-0.5,1.2-1.4,1.2c-0.6,0-1.3-0.2-1.3-1.1H273.5z"/>
			<path fill="#80696B" d="M278.8,276.1c0.9,0,1.5,0.7,1.5,1.7c0,1.2-0.7,1.8-1.5,1.8s-1.5-0.6-1.5-1.7
				C277.3,276.8,277.9,276.1,278.8,276.1z M278.4,277.9c0,0.6,0.2,0.9,0.5,0.9c0.3,0,0.5-0.3,0.5-0.9c0-0.5-0.2-0.9-0.4-0.8
				C278.5,277,278.4,277.5,278.4,277.9z"/>
			<path fill="#80696B" d="M282.5,276.2v0.8H282v2.6h-1.1V277h-0.4v-0.8h0.4c0-1.2,0.4-1.4,1-1.4h0.5v0.8c-0.3,0-0.5,0-0.4,0.5
				H282.5z"/>
			<path fill="#80696B" d="M210.7,282.6h3.4v1.2H213v3.4h-1.2v-3.4h-1.1V282.6z"/>
			<path fill="#80696B" d="M214.5,282.6h1.1v1.7c0.2-0.3,0.5-0.5,0.8-0.5c0.7,0,1,0.5,1,1.4v2h-1.1v-1.8c0-0.3-0.1-0.6-0.4-0.6
				c-0.3,0-0.4,0.3-0.4,0.7v1.7h-1.1V282.6z"/>
			<path fill="#80696B" d="M218.9,285.9c0,0.4,0.2,0.7,0.5,0.7c0.2,0,0.3-0.1,0.4-0.3h1c-0.2,0.8-0.9,1.1-1.5,1.1
				c-0.9,0-1.5-0.6-1.5-1.7c0-1.1,0.7-1.8,1.5-1.8c1,0,1.6,0.9,1.6,2.1H218.9z M219.8,285.2c0-0.3-0.2-0.6-0.5-0.6
				c-0.3,0-0.5,0.2-0.5,0.6H219.8z"/>
			<path fill="#80696B" d="M223.9,285.7c0,0.2,0,0.4,0.1,0.5c0.1,0.1,0.2,0.2,0.4,0.2c0.3,0,0.5-0.3,0.5-0.5c0-0.5-0.4-0.5-0.7-0.5
				v-0.8c0.3,0,0.6,0,0.6-0.5c0-0.3-0.2-0.4-0.4-0.4c-0.3,0-0.4,0.2-0.5,0.5h-1c0-1,0.7-1.5,1.5-1.5c0.9,0,1.4,0.5,1.4,1.3
				c0,0.4-0.1,0.7-0.4,0.9c0.3,0.2,0.5,0.5,0.5,0.9c0,1-0.6,1.6-1.6,1.6c-0.8,0-1.5-0.5-1.5-1.7H223.9z"/>
			<path fill="#80696B" d="M226.5,287.2v-4.6h1.6c1.2,0,1.9,0.7,1.9,2.2c0,1.7-0.8,2.4-2,2.4H226.5z M227.7,286.2h0.3
				c0.6,0,0.9-0.4,0.9-1.2c0-1-0.3-1.2-0.9-1.2h-0.2V286.2z"/>
			<path fill="#80696B" d="M234.2,284.9c0,1.6-0.8,2.4-1.9,2.4c-1.2,0-1.9-0.9-1.9-2.5c0-1.4,0.8-2.4,1.9-2.4
				C233.6,282.5,234.2,283.7,234.2,284.9z M231.5,284.9c0,0.6,0.1,1.3,0.7,1.3c0.5,0,0.7-0.6,0.7-1.3c0-0.6-0.2-1.3-0.7-1.3
				C231.7,283.6,231.5,284.3,231.5,284.9z"/>
			<path fill="#80696B" d="M238.7,284.4c0-0.5-0.3-0.8-0.7-0.8c-0.4,0-0.7,0.5-0.7,1.3c0,0.6,0.1,1.3,0.7,1.3c0.4,0,0.6-0.3,0.6-0.8
				h1.2c-0.1,1.2-0.8,1.9-1.8,1.9c-1.2,0-2-0.9-2-2.4c0-1.5,0.8-2.4,1.8-2.4c1.1,0,1.8,0.7,1.9,1.9H238.7z"/>
			<path fill="#80696B" d="M241.8,283.8c0.9,0,1.5,0.7,1.5,1.7c0,1.2-0.7,1.8-1.5,1.8s-1.5-0.6-1.5-1.7
				C240.2,284.4,240.9,283.8,241.8,283.8z M241.3,285.5c0,0.6,0.2,0.9,0.5,0.9c0.3,0,0.5-0.3,0.5-0.9c0-0.5-0.2-0.9-0.4-0.8
				C241.4,284.7,241.3,285.2,241.3,285.5z"/>
			<path fill="#80696B" d="M243.7,283.9h1v0.5c0.1-0.3,0.5-0.6,0.8-0.6c0.5,0,0.7,0.3,0.9,0.6c0.2-0.4,0.5-0.6,0.9-0.6
				c0.8,0,1,0.5,1,1.5v2h-1.1v-1.7c0-0.5-0.1-0.7-0.4-0.7c-0.3,0-0.4,0.3-0.4,0.7v1.7h-1.1v-1.7c0-0.5-0.1-0.7-0.4-0.7
				c-0.3,0-0.4,0.3-0.4,0.7v1.7h-1.1V283.9z"/>
			<path fill="#80696B" d="M249.8,283.9v0.5h0c0.1-0.4,0.5-0.6,0.8-0.6c0.8,0,1.2,0.8,1.2,1.7c0,1.3-0.7,1.8-1.3,1.8
				c-0.3,0-0.5-0.1-0.7-0.4v1.5h-1.1v-4.5H249.8z M250.7,285.6c0-0.5-0.2-0.8-0.5-0.8c-0.3,0-0.4,0.3-0.4,0.8c0,0.5,0.2,0.8,0.4,0.8
				C250.6,286.3,250.7,286,250.7,285.6z"/>
			<path fill="#80696B" d="M254.1,287.2l-0.1-0.4c-0.3,0.4-0.6,0.5-1,0.5c-0.5,0-1-0.3-1-1c0-1.5,1.9-0.8,1.9-1.5
				c0-0.2-0.2-0.3-0.3-0.3c-0.1,0-0.3,0-0.4,0.3h-1c0-0.7,0.4-1.1,1.5-1.1c1.3,0,1.3,0.6,1.3,1.4v1.6c0,0.2,0,0.3,0.1,0.4v0.1H254.1
				z M254,285.8c-0.3,0.2-0.8,0.1-0.8,0.5c0,0.2,0.1,0.3,0.3,0.3C253.9,286.6,254,286.2,254,285.8z"/>
			<path fill="#80696B" d="M255.6,283.9h1v0.5c0.2-0.4,0.5-0.6,0.9-0.6c0.7,0,1,0.5,1,1.4v2h-1.1v-1.8c0-0.3-0.1-0.6-0.4-0.6
				c-0.3,0-0.4,0.3-0.4,0.7v1.7h-1.1V283.9z"/>
			<path fill="#80696B" d="M260.4,286l0.5-2.1h1L261,287c-0.3,1-0.4,1.4-1.3,1.4c-0.2,0-0.4,0-0.5,0v-0.9c0.1,0,0.1,0,0.2,0
				c0.3,0,0.4-0.1,0.3-0.5l-0.9-3h1.1L260.4,286z"/>
			<path fill="#80696B" d="M261.8,287.2v-1.3h1.1v1.3H261.8z"/>
			<path fill="#80696B" d="M210.6,294.9l1.3-4.6h1.2l1.3,4.6h-1.2l-0.1-0.6h-1.2l-0.1,0.6H210.6z M212.5,291.7l-0.4,1.6h0.8
				L212.5,291.7z"/>
			<path fill="#80696B" d="M214.8,294.9v-4.6h1.1v4.6H214.8z"/>
			<path fill="#80696B" d="M216.5,294.9v-4.6h1.1v4.6H216.5z"/>
			<path fill="#80696B" d="M219.9,291.6h1v0.7h0c0.1-0.5,0.4-0.8,0.8-0.8c0,0,0.1,0,0.1,0v1.3c-0.1,0-0.1,0-0.2,0
				c-0.4,0-0.7,0.3-0.7,1v1.2h-1.1V291.6z"/>
			<path fill="#80696B" d="M222.2,290.2h1.1v0.9h-1.1V290.2z M222.2,294.9v-3.4h1.1v3.4H222.2z"/>
			<path fill="#80696B" d="M225,295.1c0,0,0,0.1,0.1,0.1c0,0.1,0.1,0.1,0.2,0.1c0.3,0,0.4-0.2,0.4-0.7v-0.3
				c-0.2,0.2-0.4,0.4-0.8,0.4c-0.7,0-1.2-0.7-1.2-1.6c0-0.8,0.3-1.7,1.2-1.7c0.3,0,0.6,0.2,0.8,0.5v-0.4h0.9v2.7
				c0,1-0.1,1.8-1.4,1.8c-0.9,0-1.3-0.5-1.4-1H225z M224.8,293.2c0,0.3,0.1,0.6,0.4,0.7c0.3,0,0.5-0.3,0.5-0.7
				c0-0.4-0.1-0.7-0.5-0.7C224.9,292.4,224.8,292.7,224.8,293.2z"/>
			<path fill="#80696B" d="M227.2,290.3h1.1v1.7c0.2-0.3,0.5-0.5,0.8-0.5c0.7,0,1,0.5,1,1.4v2h-1.1v-1.8c0-0.3-0.1-0.6-0.4-0.6
				c-0.3,0-0.4,0.3-0.4,0.7v1.7h-1.1V290.3z"/>
			<path fill="#80696B" d="M232.4,294.9c-1.4,0.1-1.6,0-1.6-1.2v-1.4h-0.4v-0.8h0.4v-1h1v1h0.5v0.8h-0.5v1.2c0,0.3,0,0.4,0.3,0.4
				h0.2V294.9z"/>
			<path fill="#80696B" d="M233.9,293.9c0,0.1,0,0.2,0.1,0.3c0.1,0.1,0.2,0.1,0.3,0.1c0.2,0,0.3-0.1,0.3-0.3c0-0.5-1.6-0.1-1.6-1.4
				c0-0.9,0.7-1.1,1.3-1.1c0.6,0,1.3,0.2,1.3,1.1h-1c0-0.1,0-0.2-0.1-0.2c-0.1-0.1-0.1-0.1-0.2-0.1c-0.2,0-0.3,0.1-0.3,0.2
				c0,0.5,1.7,0.2,1.7,1.4c0,0.7-0.5,1.2-1.4,1.2c-0.6,0-1.3-0.2-1.3-1.1H233.9z"/>
			<path fill="#80696B" d="M237.8,291.6h1v0.7h0c0.1-0.5,0.4-0.8,0.8-0.8c0,0,0.1,0,0.1,0v1.3c-0.1,0-0.1,0-0.2,0
				c-0.4,0-0.7,0.3-0.7,1v1.2h-1.1V291.6z"/>
			<path fill="#80696B" d="M240.9,293.5c0,0.4,0.2,0.7,0.5,0.7c0.2,0,0.3-0.1,0.4-0.3h1c-0.2,0.8-0.9,1.1-1.5,1.1
				c-0.9,0-1.5-0.6-1.5-1.7c0-1.1,0.7-1.8,1.5-1.8c1,0,1.6,0.9,1.6,2.1H240.9z M241.9,292.9c0-0.3-0.2-0.6-0.5-0.6
				c-0.3,0-0.5,0.2-0.5,0.6H241.9z"/>
			<path fill="#80696B" d="M244.3,293.9c0,0.1,0,0.2,0.1,0.3c0.1,0.1,0.2,0.1,0.3,0.1c0.2,0,0.3-0.1,0.3-0.3c0-0.5-1.6-0.1-1.6-1.4
				c0-0.9,0.7-1.1,1.3-1.1c0.6,0,1.3,0.2,1.3,1.1h-1c0-0.1,0-0.2-0.1-0.2c-0.1-0.1-0.1-0.1-0.2-0.1c-0.2,0-0.3,0.1-0.3,0.2
				c0,0.5,1.7,0.2,1.7,1.4c0,0.7-0.5,1.2-1.4,1.2c-0.6,0-1.3-0.2-1.3-1.1H244.3z"/>
			<path fill="#80696B" d="M247.4,293.5c0,0.4,0.2,0.7,0.5,0.7c0.2,0,0.3-0.1,0.4-0.3h1c-0.2,0.8-0.9,1.1-1.5,1.1
				c-0.9,0-1.5-0.6-1.5-1.7c0-1.1,0.7-1.8,1.5-1.8c1,0,1.6,0.9,1.6,2.1H247.4z M248.4,292.9c0-0.3-0.2-0.6-0.5-0.6
				c-0.3,0-0.5,0.2-0.5,0.6H248.4z"/>
			<path fill="#80696B" d="M249.9,291.6h1v0.7h0c0.1-0.5,0.4-0.8,0.8-0.8c0,0,0.1,0,0.1,0v1.3c-0.1,0-0.1,0-0.2,0
				c-0.4,0-0.7,0.3-0.7,1v1.2h-1.1V291.6z"/>
			<path fill="#80696B" d="M252,291.6h1.1l0.5,2.1l0.5-2.1h1l-0.9,3.4h-1.2L252,291.6z"/>
			<path fill="#80696B" d="M256.3,293.5c0,0.4,0.2,0.7,0.5,0.7c0.2,0,0.3-0.1,0.4-0.3h1c-0.2,0.8-0.9,1.1-1.5,1.1
				c-0.9,0-1.5-0.6-1.5-1.7c0-1.1,0.7-1.8,1.5-1.8c1,0,1.6,0.9,1.6,2.1H256.3z M257.3,292.9c0-0.3-0.2-0.6-0.5-0.6
				c-0.3,0-0.5,0.2-0.5,0.6H257.3z"/>
			<path fill="#80696B" d="M260.7,294.9v-0.4c-0.3,0.4-0.5,0.5-0.8,0.5c-0.8,0-1.2-0.8-1.2-1.7c0-1.1,0.5-1.8,1.1-1.8
				c0.3,0,0.6,0.1,0.8,0.4v-1.6h1.1v4.6H260.7z M260.6,293.3c0-0.4-0.1-0.8-0.5-0.8s-0.5,0.4-0.5,0.8c0,0.4,0.1,0.8,0.4,0.8
				C260.5,294,260.6,293.7,260.6,293.3z"/>
			<path fill="#80696B" d="M262.2,294.9v-1.3h1.1v1.3H262.2z"/>
		</g>
		<g>
			<path fill="#80696B" d="M55.8,264.3v-4.9h1.4l0.6,3.1l0.6-3.1h1.4v4.9h-1v-1.5l0-0.8l0.1-0.9h0l-0.6,3.1h-0.8l-0.6-3.1h0l0,0.7
				l0,0.8v1.7H55.8z"/>
			<path fill="#80696B" d="M62.1,264.3l0-0.4c-0.3,0.4-0.6,0.5-1,0.5c-0.5,0-0.9-0.3-0.9-1.1c0-1.6,1.8-0.9,1.8-1.6
				c0-0.3-0.2-0.3-0.3-0.3c-0.1,0-0.3,0-0.4,0.3h-1c0-0.8,0.4-1.2,1.4-1.2c1.2,0,1.3,0.6,1.3,1.5v1.7c0,0.2,0,0.3,0.1,0.5v0.1H62.1z
				 M62,262.7c-0.3,0.2-0.8,0.1-0.8,0.6c0,0.2,0.1,0.3,0.3,0.3C61.9,263.6,62,263.2,62,262.7z"/>
			<path fill="#80696B" d="M65.2,264.3c-1.3,0.1-1.5,0-1.5-1.3v-1.5h-0.4v-0.8h0.4v-1.1h1v1.1h0.5v0.8h-0.5v1.3c0,0.3,0,0.4,0.3,0.4
				h0.2V264.3z"/>
			<path fill="#80696B" d="M66.6,263.2c0,0.1,0,0.3,0.1,0.3c0.1,0.1,0.1,0.1,0.2,0.1c0.2,0,0.3-0.1,0.3-0.3c0-0.6-1.5-0.1-1.5-1.5
				c0-0.9,0.7-1.2,1.2-1.2c0.5,0,1.2,0.2,1.3,1.1h-0.9c0-0.1,0-0.2-0.1-0.3c-0.1-0.1-0.1-0.1-0.2-0.1c-0.2,0-0.3,0.1-0.3,0.3
				c0,0.5,1.6,0.2,1.6,1.5c0,0.7-0.4,1.2-1.4,1.2c-0.6,0-1.2-0.3-1.3-1.2H66.6z"/>
			<path fill="#80696B" d="M71.4,264.3h-0.9v-0.5c-0.3,0.5-0.5,0.6-0.9,0.6c-0.5,0-0.9-0.5-0.9-1.5v-2.2h1v1.9
				c0,0.5,0.1,0.6,0.4,0.6c0.3,0,0.4-0.3,0.4-0.9v-1.7h1V264.3z"/>
			<path fill="#80696B" d="M72.7,263.2c0,0.1,0,0.3,0.1,0.3c0.1,0.1,0.1,0.1,0.2,0.1c0.2,0,0.3-0.1,0.3-0.3c0-0.6-1.5-0.1-1.5-1.5
				c0-0.9,0.7-1.2,1.2-1.2c0.5,0,1.2,0.2,1.3,1.1h-0.9c0-0.1,0-0.2-0.1-0.3c-0.1-0.1-0.1-0.1-0.2-0.1c-0.2,0-0.3,0.1-0.3,0.3
				c0,0.5,1.6,0.2,1.6,1.5c0,0.7-0.4,1.2-1.4,1.2c-0.6,0-1.2-0.3-1.3-1.2H72.7z"/>
			<path fill="#80696B" d="M74.8,259.4h1v1.8c0.2-0.4,0.4-0.6,0.8-0.6c0.7,0,1,0.6,1,1.5v2.1h-1v-1.9c0-0.4-0.1-0.7-0.4-0.7
				c-0.3,0-0.4,0.3-0.4,0.7v1.8h-1V259.4z"/>
			<path fill="#80696B" d="M78.1,259.2h1v1h-1V259.2z M78.1,264.3v-3.6h1v3.6H78.1z"/>
			<path fill="#80696B" d="M81.3,264.3c-1.3,0.1-1.5,0-1.5-1.3v-1.5h-0.4v-0.8h0.4v-1.1h1v1.1h0.5v0.8h-0.5v1.3c0,0.3,0,0.4,0.3,0.4
				h0.2V264.3z"/>
			<path fill="#80696B" d="M83.5,264.3l0-0.4c-0.3,0.4-0.6,0.5-0.9,0.5c-0.5,0-0.9-0.3-0.9-1.1c0-1.6,1.8-0.9,1.8-1.6
				c0-0.3-0.2-0.3-0.3-0.3c-0.1,0-0.3,0-0.4,0.3h-1c0-0.8,0.4-1.2,1.4-1.2c1.2,0,1.3,0.6,1.3,1.5v1.7c0,0.2,0,0.3,0.1,0.5v0.1H83.5z
				 M83.4,262.7c-0.3,0.2-0.8,0.1-0.8,0.6c0,0.2,0.1,0.3,0.3,0.3C83.4,263.6,83.5,263.2,83.4,262.7z"/>
			<path fill="#80696B" d="M86.7,264.3v-4.9h2.8v1.1h-1.7v0.7h1.4v1.1h-1.4v0.8h1.8v1.1H86.7z"/>
			<path fill="#80696B" d="M90.1,264.3v-4.9h1v4.9H90.1z"/>
			<path fill="#80696B" d="M92.6,262.8c0,0.4,0.2,0.7,0.5,0.7c0.2,0,0.3-0.1,0.4-0.3h1c-0.2,0.9-0.8,1.2-1.4,1.2
				c-0.8,0-1.4-0.7-1.4-1.9c0-1.2,0.6-1.9,1.4-1.9c0.9,0,1.5,0.9,1.5,2.2H92.6z M93.5,262.1c0-0.3-0.2-0.6-0.4-0.6
				c-0.3,0-0.5,0.2-0.5,0.6H93.5z"/>
			<path fill="#80696B" d="M96.6,262.1c0-0.2,0-0.3-0.1-0.4c-0.1-0.1-0.1-0.1-0.3-0.1c-0.4,0-0.4,0.6-0.4,1c0,0.5,0.1,0.9,0.4,0.9
				c0.3,0,0.4-0.3,0.4-0.5h1c0,0.5-0.2,0.9-0.5,1.2c-0.3,0.2-0.6,0.3-0.9,0.3c-0.8,0-1.4-0.6-1.4-1.9c0-1.2,0.6-1.9,1.4-1.9
				c0.7,0,1.3,0.4,1.4,1.5H96.6z"/>
			<path fill="#80696B" d="M99.8,264.3c-1.3,0.1-1.5,0-1.5-1.3v-1.5h-0.4v-0.8h0.4v-1.1h1v1.1h0.5v0.8h-0.5v1.3c0,0.3,0,0.4,0.3,0.4
				h0.2V264.3z"/>
			<path fill="#80696B" d="M100.3,260.7h0.9v0.7h0c0.1-0.6,0.4-0.8,0.8-0.8c0,0,0.1,0,0.1,0v1.4c-0.1,0-0.1,0-0.2,0
				c-0.4,0-0.6,0.3-0.6,1v1.2h-1V260.7z"/>
			<path fill="#80696B" d="M102.5,259.2h1v1h-1V259.2z M102.5,264.3v-3.6h1v3.6H102.5z"/>
			<path fill="#80696B" d="M105.7,262.1c0-0.2,0-0.3-0.1-0.4c-0.1-0.1-0.1-0.1-0.3-0.1c-0.4,0-0.4,0.6-0.4,1c0,0.5,0.1,0.9,0.4,0.9
				c0.3,0,0.4-0.3,0.4-0.5h1c0,0.5-0.2,0.9-0.5,1.2c-0.3,0.2-0.6,0.3-0.9,0.3c-0.8,0-1.4-0.6-1.4-1.9c0-1.2,0.6-1.9,1.4-1.9
				c0.7,0,1.3,0.4,1.4,1.5H105.7z"/>
			<path fill="#80696B" d="M109,264.3v-4.9h1.1v4.9H109z"/>
			<path fill="#80696B" d="M110.7,260.7h0.9v0.6c0.2-0.4,0.5-0.7,0.9-0.7c0.7,0,1,0.6,1,1.5v2.1h-1v-1.9c0-0.4-0.1-0.7-0.4-0.7
				c-0.3,0-0.4,0.3-0.4,0.7v1.8h-1V260.7z"/>
			<path fill="#80696B" d="M115.8,264.3v-0.5c-0.2,0.4-0.5,0.6-0.8,0.6c-0.8,0-1.1-0.8-1.1-1.8c0-1.2,0.5-2,1.1-2
				c0.3,0,0.5,0.1,0.8,0.5v-1.7h1v4.9H115.8z M115.7,262.5c0-0.4-0.1-0.8-0.4-0.8c-0.3,0-0.4,0.4-0.4,0.8c0,0.4,0.1,0.8,0.4,0.8
				C115.6,263.3,115.7,262.9,115.7,262.5z"/>
			<path fill="#80696B" d="M119.9,264.3H119v-0.5c-0.3,0.5-0.5,0.6-0.9,0.6c-0.5,0-0.9-0.5-0.9-1.5v-2.2h1v1.9
				c0,0.5,0.1,0.6,0.4,0.6c0.3,0,0.4-0.3,0.4-0.9v-1.7h1V264.3z"/>
			<path fill="#80696B" d="M121.2,263.2c0,0.1,0,0.3,0.1,0.3c0.1,0.1,0.1,0.1,0.2,0.1c0.2,0,0.3-0.1,0.3-0.3c0-0.6-1.5-0.1-1.5-1.5
				c0-0.9,0.7-1.2,1.2-1.2c0.5,0,1.2,0.2,1.3,1.1h-0.9c0-0.1,0-0.2-0.1-0.3c-0.1-0.1-0.1-0.1-0.2-0.1c-0.2,0-0.3,0.1-0.3,0.3
				c0,0.5,1.6,0.2,1.6,1.5c0,0.7-0.4,1.2-1.4,1.2c-0.6,0-1.2-0.3-1.3-1.2H121.2z"/>
			<path fill="#80696B" d="M125,264.3c-1.3,0.1-1.5,0-1.5-1.3v-1.5h-0.4v-0.8h0.4v-1.1h1v1.1h0.5v0.8h-0.5v1.3c0,0.3,0,0.4,0.3,0.4
				h0.2V264.3z"/>
			<path fill="#80696B" d="M125.5,260.7h0.9v0.7h0c0.1-0.6,0.4-0.8,0.8-0.8c0,0,0.1,0,0.1,0v1.4c-0.1,0-0.1,0-0.2,0
				c-0.4,0-0.6,0.3-0.6,1v1.2h-1V260.7z"/>
			<path fill="#80696B" d="M127.7,259.2h1v1h-1V259.2z M127.7,264.3v-3.6h1v3.6H127.7z"/>
			<path fill="#80696B" d="M131,264.3l0-0.4c-0.3,0.4-0.6,0.5-1,0.5c-0.5,0-0.9-0.3-0.9-1.1c0-1.6,1.8-0.9,1.8-1.6
				c0-0.3-0.2-0.3-0.3-0.3c-0.1,0-0.3,0-0.4,0.3h-1c0-0.8,0.4-1.2,1.4-1.2c1.2,0,1.3,0.6,1.3,1.5v1.7c0,0.2,0,0.3,0.1,0.5v0.1H131z
				 M130.9,262.7c-0.3,0.2-0.8,0.1-0.8,0.6c0,0.2,0.1,0.3,0.3,0.3C130.8,263.6,130.9,263.2,130.9,262.7z"/>
			<path fill="#80696B" d="M132.5,264.3v-4.9h1v4.9H132.5z"/>
			<path fill="#80696B" d="M98.2,269.4c0-0.5-0.3-0.8-0.6-0.8c-0.4,0-0.6,0.5-0.6,1.4c0,0.7,0.1,1.3,0.7,1.3c0.4,0,0.5-0.4,0.6-0.8
				h1.1c-0.1,1.3-0.7,2-1.7,2c-1.1,0-1.8-1-1.8-2.6c0-1.6,0.8-2.6,1.7-2.6c1.1,0,1.7,0.7,1.7,2H98.2z"/>
			<path fill="#80696B" d="M101.1,268.8c0.9,0,1.4,0.7,1.4,1.9c0,1.3-0.6,1.9-1.4,1.9s-1.4-0.6-1.4-1.8
				C99.7,269.5,100.2,268.8,101.1,268.8z M100.7,270.6c0,0.7,0.2,1,0.4,1c0.3,0,0.4-0.3,0.4-1c0-0.5-0.2-0.9-0.4-0.9
				C100.8,269.7,100.7,270.2,100.7,270.6z"/>
			<path fill="#80696B" d="M103,272.4V271h1v1.4H103z"/>
			<path fill="#80696B" d="M104.6,273c0.1,0,0.3-0.1,0.3-0.2c0.1-0.1,0.1-0.2,0.1-0.4h-0.5V271h1v1.2c0,0.9-0.4,1.4-1,1.4V273z"/>
			<path fill="#80696B" d="M107.9,272.4v-4.9h1.1v3.8h1.6v1.1H107.9z"/>
			<path fill="#80696B" d="M112.6,272.4c-1.3,0.1-1.5,0-1.5-1.3v-1.5h-0.4v-0.8h0.4v-1.1h1v1.1h0.5v0.8h-0.5v1.3
				c0,0.3,0,0.4,0.3,0.4h0.2V272.4z"/>
			<path fill="#80696B" d="M115,272.4V272c-0.2,0.4-0.5,0.6-0.8,0.6c-0.8,0-1.1-0.8-1.1-1.8c0-1.2,0.5-2,1.1-2
				c0.3,0,0.5,0.1,0.8,0.5v-1.7h1v4.9H115z M114.9,270.7c0-0.4-0.1-0.8-0.4-0.8s-0.4,0.4-0.4,0.8c0,0.4,0.1,0.8,0.4,0.8
				C114.8,271.5,114.9,271.1,114.9,270.7z"/>
			<path fill="#80696B" d="M116.4,272.4V271h1v1.4H116.4z"/>
			<path fill="#80696B" d="M121.6,272.4h-1v-2.8h-0.8v-1c0.5,0,0.9-0.3,1-1.1h0.8V272.4z"/>
			<path fill="#80696B" d="M123.7,271.2c0.1,0.3,0.2,0.4,0.4,0.4c0.4,0,0.5-0.5,0.5-1.1c-0.3,0.3-0.5,0.3-0.8,0.3
				c-0.8,0-1.1-0.9-1.1-1.6c0-1.2,0.6-1.7,1.4-1.7c1,0,1.6,0.8,1.6,2.5c0,1.5-0.5,2.5-1.5,2.5c-0.6,0-1.2-0.3-1.4-1.3L123.7,271.2z
				 M124.6,269.2c0-0.3-0.2-0.6-0.5-0.6c-0.3,0-0.4,0.3-0.4,0.7c0,0.4,0.2,0.6,0.4,0.6C124.4,269.9,124.6,269.6,124.6,269.2z"/>
			<path fill="#80696B" d="M126.9,271.2c0.1,0.3,0.2,0.4,0.4,0.4c0.4,0,0.5-0.5,0.5-1.1c-0.3,0.3-0.5,0.3-0.8,0.3
				c-0.8,0-1.1-0.9-1.1-1.6c0-1.2,0.6-1.7,1.4-1.7c1,0,1.6,0.8,1.6,2.5c0,1.5-0.5,2.5-1.5,2.5c-0.6,0-1.2-0.3-1.4-1.3L126.9,271.2z
				 M127.8,269.2c0-0.3-0.2-0.6-0.5-0.6c-0.3,0-0.4,0.3-0.4,0.7c0,0.4,0.2,0.6,0.4,0.6C127.6,269.9,127.8,269.6,127.8,269.2z"/>
			<path fill="#80696B" d="M130.1,270.8c0,0.2,0,0.4,0.1,0.5c0.1,0.1,0.2,0.2,0.4,0.2c0.3,0,0.4-0.3,0.4-0.6c0-0.6-0.4-0.5-0.6-0.5
				v-0.8c0.2,0,0.6,0,0.6-0.5c0-0.3-0.2-0.4-0.4-0.4c-0.2,0-0.4,0.2-0.4,0.5h-0.9c0-1.1,0.7-1.6,1.4-1.6c0.8,0,1.3,0.5,1.3,1.3
				c0,0.4-0.1,0.8-0.4,0.9c0.3,0.2,0.5,0.5,0.5,1c0,1.1-0.6,1.7-1.5,1.7c-0.8,0-1.4-0.6-1.4-1.8H130.1z"/>
			<path fill="#80696B" d="M132.5,272.4V271h1v1.4H132.5z"/>
			<path fill="#80696B" d="M83.7,280.6l1.2-4.9h1.2l1.2,4.9h-1.1l-0.1-0.6H85l-0.1,0.6H83.7z M85.5,277.2l-0.4,1.8h0.7L85.5,277.2z"
				/>
			<path fill="#80696B" d="M87.7,280.6v-4.9h1v4.9H87.7z"/>
			<path fill="#80696B" d="M89.3,280.6v-4.9h1v4.9H89.3z"/>
			<path fill="#80696B" d="M92.5,277h0.9v0.7h0c0.1-0.6,0.4-0.8,0.8-0.8c0,0,0.1,0,0.1,0v1.4c-0.1,0-0.1,0-0.2,0
				c-0.4,0-0.6,0.3-0.6,1v1.2h-1V277z"/>
			<path fill="#80696B" d="M94.7,275.6h1v1h-1V275.6z M94.7,280.6V277h1v3.6H94.7z"/>
			<path fill="#80696B" d="M97.3,280.8c0,0,0,0.1,0.1,0.2c0,0.1,0.1,0.1,0.2,0.1c0.3,0,0.4-0.2,0.4-0.7V280
				c-0.1,0.2-0.4,0.4-0.7,0.4c-0.7,0-1.1-0.8-1.1-1.7c0-0.9,0.3-1.8,1.1-1.8c0.3,0,0.6,0.2,0.8,0.6V277h0.9v2.9
				c0,1.1-0.1,1.9-1.3,1.9c-0.9,0-1.3-0.5-1.3-1H97.3z M97.2,278.8c0,0.4,0.1,0.7,0.4,0.7c0.3,0,0.4-0.4,0.4-0.7
				c0-0.4-0.1-0.8-0.4-0.8C97.3,277.9,97.2,278.3,97.2,278.8z"/>
			<path fill="#80696B" d="M99.4,275.7h1v1.8c0.2-0.4,0.4-0.6,0.8-0.6c0.7,0,1,0.6,1,1.5v2.1h-1v-1.9c0-0.4-0.1-0.7-0.4-0.7
				c-0.3,0-0.4,0.3-0.4,0.7v1.8h-1V275.7z"/>
			<path fill="#80696B" d="M104.3,280.6c-1.3,0.1-1.5,0-1.5-1.3v-1.5h-0.4V277h0.4v-1.1h1v1.1h0.5v0.8h-0.5v1.3c0,0.3,0,0.4,0.3,0.4
				h0.2V280.6z"/>
			<path fill="#80696B" d="M105.7,279.5c0,0.1,0,0.3,0.1,0.3c0.1,0.1,0.1,0.1,0.2,0.1c0.2,0,0.3-0.1,0.3-0.3c0-0.6-1.5-0.1-1.5-1.5
				c0-0.9,0.7-1.2,1.2-1.2c0.5,0,1.2,0.2,1.3,1.1h-0.9c0-0.1,0-0.2-0.1-0.3c-0.1-0.1-0.1-0.1-0.2-0.1c-0.2,0-0.3,0.1-0.3,0.3
				c0,0.5,1.6,0.2,1.6,1.5c0,0.7-0.4,1.2-1.4,1.2c-0.6,0-1.2-0.3-1.3-1.2H105.7z"/>
			<path fill="#80696B" d="M109.4,277h0.9v0.7h0c0.1-0.6,0.4-0.8,0.8-0.8c0,0,0.1,0,0.1,0v1.4c-0.1,0-0.1,0-0.2,0
				c-0.4,0-0.6,0.3-0.6,1v1.2h-1V277z"/>
			<path fill="#80696B" d="M112.3,279.1c0,0.4,0.2,0.7,0.5,0.7c0.2,0,0.3-0.1,0.4-0.3h1c-0.2,0.9-0.8,1.2-1.4,1.2
				c-0.8,0-1.4-0.7-1.4-1.9c0-1.2,0.6-1.9,1.4-1.9c0.9,0,1.5,0.9,1.5,2.2H112.3z M113.3,278.4c0-0.3-0.2-0.6-0.4-0.6
				c-0.3,0-0.5,0.2-0.5,0.6H113.3z"/>
			<path fill="#80696B" d="M115.5,279.5c0,0.1,0,0.3,0.1,0.3c0.1,0.1,0.1,0.1,0.2,0.1c0.2,0,0.3-0.1,0.3-0.3c0-0.6-1.5-0.1-1.5-1.5
				c0-0.9,0.7-1.2,1.2-1.2c0.5,0,1.2,0.2,1.3,1.1h-0.9c0-0.1,0-0.2-0.1-0.3c-0.1-0.1-0.1-0.1-0.2-0.1c-0.2,0-0.3,0.1-0.3,0.3
				c0,0.5,1.6,0.2,1.6,1.5c0,0.7-0.4,1.2-1.4,1.2c-0.6,0-1.2-0.3-1.3-1.2H115.5z"/>
			<path fill="#80696B" d="M118.5,279.1c0,0.4,0.2,0.7,0.5,0.7c0.2,0,0.3-0.1,0.4-0.3h1c-0.2,0.9-0.8,1.2-1.4,1.2
				c-0.8,0-1.4-0.7-1.4-1.9c0-1.2,0.6-1.9,1.4-1.9c0.9,0,1.5,0.9,1.5,2.2H118.5z M119.4,278.4c0-0.3-0.2-0.6-0.4-0.6
				c-0.3,0-0.5,0.2-0.5,0.6H119.4z"/>
			<path fill="#80696B" d="M120.8,277h0.9v0.7h0c0.1-0.6,0.4-0.8,0.8-0.8c0,0,0.1,0,0.1,0v1.4c-0.1,0-0.1,0-0.2,0
				c-0.4,0-0.6,0.3-0.6,1v1.2h-1V277z"/>
			<path fill="#80696B" d="M122.9,277h1l0.4,2.3l0.4-2.3h1l-0.9,3.6h-1.1L122.9,277z"/>
			<path fill="#80696B" d="M126.9,279.1c0,0.4,0.2,0.7,0.5,0.7c0.2,0,0.3-0.1,0.4-0.3h1c-0.2,0.9-0.8,1.2-1.4,1.2
				c-0.8,0-1.4-0.7-1.4-1.9c0-1.2,0.6-1.9,1.4-1.9c0.9,0,1.5,0.9,1.5,2.2H126.9z M127.8,278.4c0-0.3-0.2-0.6-0.4-0.6
				c-0.3,0-0.5,0.2-0.5,0.6H127.8z"/>
			<path fill="#80696B" d="M131.1,280.6v-0.5c-0.2,0.4-0.5,0.6-0.8,0.6c-0.8,0-1.1-0.8-1.1-1.8c0-1.2,0.5-2,1.1-2
				c0.3,0,0.5,0.1,0.8,0.5v-1.7h1v4.9H131.1z M131,278.9c0-0.4-0.1-0.8-0.4-0.8c-0.3,0-0.4,0.4-0.4,0.8c0,0.4,0.1,0.8,0.4,0.8
				C130.9,279.7,131,279.3,131,278.9z"/>
			<path fill="#80696B" d="M132.5,280.6v-1.4h1v1.4H132.5z"/>
			<g>
				<path fill="#80696B" d="M48.6,261.5c0-1.7,1.3-3,3-3c1.7,0,3,1.4,3,3c0,1.7-1.4,3-3,3C49.9,264.5,48.6,263.2,48.6,261.5z
					 M53.8,261.5c0-1.4-0.9-2.3-2.2-2.3c-1.3,0-2.2,1-2.2,2.3c0,1.4,0.9,2.3,2.2,2.3C52.9,263.8,53.8,262.8,53.8,261.5z M52.4,260.9
					c-0.1-0.4-0.4-0.6-0.8-0.6c-0.6,0-0.9,0.5-0.9,1.1c0,0.6,0.3,1.2,0.9,1.2c0.4,0,0.7-0.2,0.7-0.6h0.7c-0.1,0.7-0.7,1.2-1.4,1.2
					c-1,0-1.7-0.8-1.7-1.7c0-1,0.6-1.8,1.7-1.8c0.7,0,1.3,0.4,1.4,1.1H52.4z"/>
			</g>
		</g>
		<g>
			<g>
				<path fill-rule="evenodd" clip-rule="evenodd" fill="#80696B" d="M256.5,209.9c0,0,3,0,3.2,0c0.4,0,0.4-0.2,0.4-0.6
					c0-1,0-2.8,0-3.2c0-0.4,0.5-0.7,0.7-0.7c0.4,0,2.4,0,2.7,0c0.4,0,0.8,0.2,0.8,0.8c0,0.7,0,15.2,0,15.6c0,0.4-0.3,0.7-0.7,0.7
					c-0.4,0-6.3,0-7.2,0c-0.9,0-1.9-1-1.9-2.1c0-1.1,0-7.2,0-8.4C254.4,210.8,255.4,209.9,256.5,209.9L256.5,209.9z M255.1,211.9
					c0,0.7,0,7.7,0,8.5c0,0.8,0.8,1.3,1.3,1.3c0.6,0,6.4,0,6.6,0c0.2,0,0.4-0.1,0.4-0.4c0-0.4,0-14.6,0-14.8c0-0.3-0.1-0.4-0.4-0.4
					c-0.2,0-1.6,0-1.9,0c-0.3,0-0.4,0.2-0.4,0.4c0,0.3,0,2.8,0,3.2c0,0.5-0.2,0.8-0.7,0.8c-0.4,0-3.5,0-3.5,0
					C255.8,210.6,255.1,211.2,255.1,211.9L255.1,211.9z"/>
				<path fill-rule="evenodd" clip-rule="evenodd" fill="#80696B" d="M259.2,220.7c-0.4,0-0.8-0.2-1.1-0.5c-0.3-0.3-0.5-0.7-0.5-1.1
					v-5.8c0-0.4,0.2-0.8,0.5-1.1c0.3-0.3,0.7-0.5,1.1-0.5c0.4,0,0.8,0.2,1.1,0.5c0.3,0.3,0.5,0.7,0.5,1.1v5.8
					C260.8,220,260.1,220.7,259.2,220.7L259.2,220.7z M259.2,220c0.5,0,0.8-0.4,0.8-0.8v-5.8c0-0.5-0.4-0.8-0.8-0.8
					s-0.8,0.4-0.8,0.8v5.8C258.4,219.6,258.7,220,259.2,220L259.2,220z"/>
				<path fill-rule="evenodd" clip-rule="evenodd" fill="#80696B" d="M266,222.5c-0.4,0-0.7-0.3-0.7-0.7v-11.2
					c0-0.4,0.3-0.7,0.7-0.7h2.7c0.4,0,0.7,0.3,0.7,0.7v11.2c0,0.4-0.3,0.7-0.7,0.7H266L266,222.5z M268.3,221.8
					c0.2,0,0.3-0.1,0.3-0.3v-10.6c0-0.2-0.1-0.3-0.3-0.3h-2.1c-0.2,0-0.3,0.1-0.3,0.3v10.6c0,0.2,0.1,0.3,0.3,0.3H268.3L268.3,221.8
					z"/>
				<path fill-rule="evenodd" clip-rule="evenodd" fill="#80696B" d="M278.6,209.9c0.5,0,0.8,0.2,0.8,0.7c0,0.5,0,1.3,0,2
					s-0.3,0.9-0.7,0.9c-0.5,0-3,0-4,0c-0.6,0-0.7,1,0,1c0.7,0,1.6,0,3,0c1.4,0,2.3,1,2.3,2.2s0,2.8,0,3.8c0,0.9-0.6,2.2-2,2.2
					c-1.4,0-6,0-6.5,0c-0.5,0-0.8-0.2-0.8-0.7s0-1.4,0-2c0-0.6,0.3-0.8,0.8-0.8c0.5,0,3.5,0,4.3,0c0.8,0,0.7-1,0-1
					c-0.5,0-1.7,0-2.9,0c-1.2,0-2.2-1.1-2.2-2.3c0-1.3,0-2.2,0-3.5c0-1.2,0.8-2.3,2.2-2.3H278.6L278.6,209.9z M278.6,212.3
					c0-0.4,0-1.2,0-1.4c0-0.2-0.1-0.4-0.4-0.4c-0.3,0-4.9,0-5.6,0c-0.7,0-1.4,0.7-1.4,1.5c0,0.8,0,2.9,0,3.7c0,0.8,0.6,1.5,1.5,1.5
					c1,0,2.3,0,2.8,0c1.7,0,1.6,2.4,0.1,2.4c-1.8,0-3.8,0-4.1,0c-0.3,0-0.3,0.2-0.3,0.4c0,0.2,0,1.2,0,1.4c0,0.2,0.1,0.3,0.4,0.3
					c0.3,0,5.3,0,6,0c0.8,0,1.3-0.7,1.3-1.5s0-3,0-3.9c0-0.9-0.9-1.3-1.3-1.3c-0.4,0-2.5,0-3,0c-1.8,0-1.7-2.5,0-2.5
					c0.6,0,3.5,0,3.7,0C278.5,212.7,278.6,212.5,278.6,212.3L278.6,212.3z"/>
				<path fill-rule="evenodd" clip-rule="evenodd" fill="#80696B" d="M289.9,217.8v2.9c0,1.1-0.9,1.9-1.9,1.9h-5.2
					c-1.1,0-1.9-0.9-1.9-1.9v-8.8c0-1.1,0.9-1.9,1.9-1.9h5.2c1.1,0,1.9,0.9,1.9,1.9v2.7c0,0.8-0.1,1-0.7,1s-2,0-2.4,0
					c-0.5,0-0.7-0.3-0.7-0.7c0-0.5,0-1,0-1.7c0-0.8-1.3-0.8-1.3,0c0,0.8,0,5.6,0,6.2c0,0.8,1.3,0.9,1.3,0c0-0.8,0-1.3,0-1.6
					s0.3-0.7,0.6-0.7s2.1,0,2.5,0C289.7,217,289.9,217.2,289.9,217.8L289.9,217.8z M287.2,214.7c0.3,0,1.4,0,1.7,0
					c0.3,0,0.3-0.2,0.3-0.6c0-0.3,0-1.5,0-2.2c0-0.8-0.6-1.4-1.6-1.4c-1.1,0-3.7,0-4.6,0c-0.9,0-1.4,0.8-1.4,1.5c0,0.7,0,7.1,0,8
					c0,0.9,0.4,1.7,1.5,1.7c1.1,0,3.6,0,4.6,0c1,0,1.6-0.5,1.6-1.7c0-1.1,0-1.8,0-2.1c0-0.3-0.3-0.3-0.5-0.3s-1.3,0-1.6,0
					c-0.3,0-0.3,0.1-0.3,0.5c0,0.6,0-0.3,0,1.1c0,1.9-2.8,1.8-2.8-0.1c0-1.8,0-4.7,0-6.1c0-1.8,2.8-1.8,2.8,0c0,0.6,0,1,0,1.2
					S287,214.7,287.2,214.7L287.2,214.7z"/>
				<path fill-rule="evenodd" clip-rule="evenodd" fill="#80696B" d="M265.3,207.2c0-0.7,0-1.1,0.1-1.3c0.1-0.3,0.4-0.6,1.5-0.6
					c1.1,0,1.4,0.2,1.5,0.5c0.1,0.3,0.1,0.9,0.1,0.9h-0.9c0,0,0-0.3,0-0.3c0-0.2-0.1-0.2-0.7-0.2c-0.5,0-0.6,0.1-0.6,0.3
					c0,0.2,0,1.3,0,1.4c0,0.2,0.1,0.3,0.6,0.3c0.6,0,0.7,0,0.7-0.3c0-0.2,0-0.3,0-0.3h0.9c0,0,0,0.4,0,0.6c0,0.3,0,0.7-1.6,0.7
					c-1.5,0-1.5-0.4-1.5-0.6C265.3,208.2,265.3,207.2,265.3,207.2L265.3,207.2z"/>
				<path fill-rule="evenodd" clip-rule="evenodd" fill="#80696B" d="M284.1,207.2c0-0.7,0-1.1,0.1-1.3c0.1-0.3,0.4-0.6,1.5-0.6
					c1.1,0,1.4,0.2,1.5,0.5c0.1,0.3,0.1,0.9,0.1,0.9h-0.9c0,0,0-0.3,0-0.3c0-0.2-0.1-0.2-0.7-0.2c-0.5,0-0.6,0.1-0.6,0.3
					c0,0.2,0,1.3,0,1.4c0,0.2,0.1,0.3,0.6,0.3c0.6,0,0.7,0,0.7-0.3c0-0.2,0-0.3,0-0.3h0.9c0,0,0,0.4,0,0.6c0,0.3,0,0.7-1.6,0.7
					c-1.5,0-1.5-0.4-1.5-0.6C284.1,208.2,284.1,207.2,284.1,207.2L284.1,207.2z"/>
				<path fill-rule="evenodd" clip-rule="evenodd" fill="#80696B" d="M270.5,208.9c1.5,0,1.5-0.4,1.5-0.6c0-0.2,0.1-1.1,0.1-1.1
					c0-0.7,0-1.1-0.1-1.3c-0.1-0.3-0.4-0.5-1.5-0.5c-1.1,0-1.5,0.3-1.5,0.6c0,0.2-0.1,0.6-0.1,1.3c0,0,0,0.9,0.1,1.1
					C269,208.6,269,208.9,270.5,208.9L270.5,208.9z M270.5,208.2c-0.6,0-0.6-0.1-0.6-0.3c0-0.2,0-1.2,0-1.4c0-0.2,0.1-0.3,0.6-0.3
					c0.5,0,0.7,0.1,0.7,0.2c0,0.1,0,0.3,0,0.3h0v1.1c0,0,0,0.1,0,0.1C271.2,208.1,271,208.2,270.5,208.2L270.5,208.2z"/>
				<polygon fill-rule="evenodd" clip-rule="evenodd" fill="#80696B" points="273.5,206.4 273.5,208.9 272.6,208.9 272.6,205.4 
					273.9,205.4 274.8,208 275.7,205.4 277,205.4 277,208.9 276.1,208.9 276.1,206.4 275.3,208.9 274.4,208.9 273.5,206.4 				"/>
				<polygon fill-rule="evenodd" clip-rule="evenodd" fill="#80696B" points="290,205.4 287.5,205.4 287.5,206.3 288.3,206.3 
					288.3,208.9 289.2,208.9 289.2,206.3 290,206.3 290,205.4 				"/>
				<path fill-rule="evenodd" clip-rule="evenodd" fill="#80696B" d="M283.1,208.9h0.9l-1-3.5h-1.3l-1,3.5h0.9l0.2-0.7h1.1
					L283.1,208.9L283.1,208.9z M282,207.6l0.4-1.4l0.4,1.4H282L282,207.6z"/>
				<path fill-rule="evenodd" clip-rule="evenodd" fill="#80696B" d="M280.7,207.3c-0.1,0.4-0.3,0.6-0.7,0.7
					c-0.4,0.1-1.3,0.1-1.3,0.1v0.8h-0.9v-3.5h0.9c0,0,0.5,0,0.8,0c0.3,0,0.7,0,0.9,0.2c0.3,0.2,0.4,0.6,0.4,0.8
					C280.7,206.5,280.7,207.3,280.7,207.3L280.7,207.3z M279.5,207.3c0.3,0,0.3-0.2,0.3-0.3c0-0.1,0-0.2,0-0.4
					c0-0.3-0.2-0.3-0.4-0.3c-0.2,0-0.8,0-0.8,0v1C278.7,207.3,279.2,207.3,279.5,207.3L279.5,207.3z"/>
			</g>
		</g>
	</g>
</g>
</svg>
